<svg width="42" height="54" viewBox="0 0 42 54" fill="none" xmlns="http://www.w3.org/2000/svg">
<path d="M37.9201 53.8804H3.2401C1.6801 53.8804 0.600098 52.6204 0.600098 50.7604C0.600098 45.7204 0.600098 40.6804 0.600098 35.6404C0.600098 28.9805 0.600098 22.3205 0.600098 15.6605C0.600098 13.6805 0.960098 13.0805 2.2801 11.7005C3.8401 10.0805 5.4001 8.40046 7.0201 6.78047C8.4001 5.28047 9.7801 3.84047 11.1601 2.40047C11.9401 1.56047 12.7201 0.360469 13.9201 0.0604687C14.7001 -0.119531 15.6601 0.0604687 16.4401 0.0604687C18.3001 0.0604687 20.1601 0.0604687 21.9601 0.0604687C26.1601 0.0604687 30.3001 0.0604687 34.5001 0.0604687C35.6401 0.0604687 36.7801 0.0604687 37.9801 0.0604687C39.7201 0.0604687 41.1001 1.44047 41.1001 3.18047V50.7604C41.0401 52.5004 39.6601 53.8804 37.9201 53.8804ZM2.4001 14.7605V50.7604C2.4001 51.6004 2.7001 52.0804 3.2401 52.0804H37.9201C38.6401 52.0804 39.2401 51.4804 39.2401 50.7604V3.18047C39.2401 2.46047 38.6401 1.86047 37.9201 1.86047H15.3001C15.3001 1.86047 15.3001 1.92047 15.2401 1.92047C13.8601 3.78047 12.6601 5.76047 12.7801 7.86047C12.7801 8.10046 12.8401 8.34046 12.8401 8.58046C12.9001 9.00046 12.9601 9.36046 12.9601 9.84046C12.9601 10.8605 12.6001 11.7005 11.9401 12.2405C11.0401 12.9605 9.9001 12.8405 9.0001 12.7805H8.7601C6.5401 12.5405 4.1401 13.3205 2.4001 14.7605ZM11.6401 4.44047C10.6201 5.52047 9.4201 6.78047 8.2801 7.98046C7.2001 9.12046 6.0601 10.3205 5.1001 11.3405C6.3601 10.9805 7.6801 10.8005 9.0001 10.9205H9.3001C9.9601 10.9805 10.6201 11.0405 10.9201 10.8005C11.1601 10.6205 11.2801 10.2605 11.2801 9.78046C11.2801 9.48046 11.2201 9.12046 11.1601 8.82046C11.1001 8.52046 11.1001 8.28046 11.0401 7.98046C10.9201 6.78047 11.2201 5.58047 11.6401 4.44047Z" fill="#5B7F95"/>
</svg>
