<svg width="12" height="20" viewBox="0 0 12 20" fill="none" xmlns="http://www.w3.org/2000/svg">
<path d="M10.7303 6.36805C10.967 6.36805 11.1591 6.17844 11.1591 5.94481V0.423239C11.1591 0.189611 10.967 0 10.7303 0H0.454623C0.451836 0 0.449478 0.000634858 0.446691 0.000846478C0.438759 0.000846478 0.430827 0.00253943 0.422896 0.00317429C0.396742 0.00507886 0.371446 0.00888801 0.347008 0.0152366C0.337147 0.0175644 0.327929 0.0207387 0.318496 0.023913C0.294272 0.0319545 0.27112 0.0419006 0.24904 0.0539629C0.243681 0.0569256 0.237678 0.0579837 0.232533 0.061158C0.229961 0.0626393 0.228246 0.0649671 0.225888 0.0664485C0.19802 0.0840129 0.171866 0.103905 0.148714 0.127183C0.144641 0.131204 0.14164 0.136071 0.137781 0.140092C0.119559 0.160196 0.103267 0.181781 0.0889044 0.205059C0.0837594 0.213524 0.0792575 0.2222 0.0747557 0.230877C0.0636084 0.25225 0.0546047 0.27447 0.0471017 0.297748C0.0443149 0.306636 0.0410994 0.315101 0.0389557 0.324201C0.0310239 0.356155 0.0258789 0.388956 0.0258789 0.423239V15.1915C0.0258789 15.2275 0.0318814 15.262 0.0404563 15.2952C0.0428144 15.3043 0.0458156 15.3128 0.0488168 15.3215C0.0573916 15.3475 0.0683245 15.372 0.0814012 15.3955C0.0854743 15.4025 0.0886898 15.4099 0.0929772 15.4167C0.111413 15.4453 0.132636 15.4717 0.157289 15.4952C0.162005 15.4996 0.167364 15.503 0.172295 15.5075C0.194161 15.5265 0.21817 15.5432 0.243681 15.5576C0.248183 15.5602 0.251613 15.564 0.256114 15.5665L6.90507 18.9975C6.96724 19.0299 7.03541 19.0457 7.10358 19.0457C7.18054 19.0457 7.2575 19.0252 7.32567 18.9846C7.45387 18.908 7.53233 18.7704 7.53233 18.6225V15.6148H10.7303C10.967 15.6148 11.1591 15.4251 11.1591 15.1915V9.52287C11.1591 9.28924 10.967 9.09963 10.7303 9.09963C10.4937 9.09963 10.3016 9.28924 10.3016 9.52287V14.7683H7.53233V3.85422C7.53233 3.69657 7.44358 3.55203 7.30209 3.47923L2.20025 0.846478H10.3016V5.94481C10.3016 6.17844 10.4937 6.36805 10.7303 6.36805Z" fill="white"/>
</svg>
