<svg width="17" height="16" viewBox="0 0 17 16" fill="none" xmlns="http://www.w3.org/2000/svg">
<path d="M12.6138 7.6038V13.8462C12.6138 14.2206 12.4843 14.5374 12.218 14.8038C11.9589 15.063 11.635 15.1998 11.2608 15.1998H1.36521C0.990975 15.1998 0.674315 15.0702 0.408033 14.8038C0.148948 14.5446 0.012207 14.2206 0.012207 13.8462V3.9534C0.012207 3.579 0.141752 3.2622 0.408033 2.9958C0.667118 2.7366 0.990975 2.5998 1.36521 2.5998H10.9226C11.0737 2.5998 11.1745 2.6718 11.232 2.8086C11.2896 2.9454 11.2608 3.0678 11.1457 3.1614L10.4692 3.8382C10.4116 3.9102 10.3396 3.9534 10.2461 3.9534H1.53794C1.50195 3.9534 1.46597 3.975 1.42278 4.011C1.3868 4.047 1.36521 4.083 1.36521 4.1262V13.6878C1.36521 13.7238 1.3868 13.7598 1.42278 13.803C1.45877 13.839 1.49476 13.8606 1.53794 13.8606H11.0953C11.1313 13.8606 11.1673 13.839 11.2104 13.803C11.2464 13.767 11.268 13.731 11.268 13.6878V8.2878C11.268 8.1942 11.304 8.1078 11.3832 8.0358L12.0597 7.359C12.1532 7.2654 12.2684 7.2438 12.4123 7.3014C12.5562 7.359 12.6138 7.4598 12.6138 7.6038ZM15.874 0.799805H12.0525C11.9013 0.799805 11.8006 0.871805 11.743 1.0086C11.6854 1.1454 11.7142 1.2678 11.8294 1.3614L13.1824 2.7366L5.53935 10.383C5.46739 10.4406 5.4242 10.5126 5.4242 10.6062C5.4242 10.6998 5.46019 10.7862 5.53935 10.8582L6.15828 11.4774C6.23025 11.5494 6.31661 11.5926 6.41017 11.5926C6.50373 11.5926 6.5757 11.5566 6.63327 11.4774L14.2763 3.8382L15.6509 5.1918C15.7444 5.307 15.8596 5.3358 16.0035 5.2782C16.1474 5.2206 16.2122 5.1198 16.2122 4.9686V1.1382C16.2122 1.0446 16.1762 0.965405 16.1115 0.900605C16.0467 0.835805 15.9675 0.799805 15.874 0.799805Z" fill="#ffffff"/>
</svg>
