<svg width="120" height="89" viewBox="0 0 120 89" fill="none" xmlns="http://www.w3.org/2000/svg">
<g clip-path="url(#clip0)">
<path d="M29.8643 46.8829L29.3213 46.9489L29.1855 47.6082H29.9322L29.8643 46.8829Z" fill="#666666"/>
<path d="M32.3076 46.6184L31.3574 47.6073H32.0362L32.3076 46.6184Z" fill="#666666"/>
<path d="M67.4664 26.9837C67.3306 27.115 67.1949 27.1807 67.1949 27.2463H66.7198C66.6519 27.2463 66.5161 27.312 66.3125 27.4433C66.1089 27.5746 65.9731 27.7059 65.9731 27.7716C65.9731 27.8372 66.1089 27.9686 66.4483 28.2312C66.7876 28.4938 66.9913 28.6251 67.0591 28.6251C67.3306 28.6251 67.6021 28.0999 67.9415 27.0494L67.7379 27.115L67.4664 26.9837Z" fill="#666666"/>
<path d="M67.9414 33.1565C67.7378 33.2884 67.6021 33.618 67.5342 34.0136L67.9414 33.1565Z" fill="#666666"/>
<path d="M70.7241 27.6439L70.9956 27.1165L70.9277 27.1824C70.8599 27.3142 70.792 27.4461 70.7241 27.6439Z" fill="#666666"/>
<path d="M110.905 0L27.7603 9.38896L27.8282 9.97988L27.1494 9.78291L27.0137 10.7021L27.8282 10.5708L27.896 11.1617L27.4888 11.5556L28.3711 12.7375L28.439 13.985L29.4571 14.1163L29.525 15.1011L29.9322 15.2981L30.2037 14.0506L32.1042 14.8385L31.5612 15.1668L32.172 15.4951L32.0363 17.1365L32.4435 17.3335L32.7829 18.6466L32.2399 19.3032L32.6472 21.4699L31.0182 21.2729L30.7467 20.7476L29.3892 21.2072L30.2716 21.7982L30.1358 22.7174L31.7648 22.5204L33.0544 24.2931L34.5476 25.081L35.0906 29.7427L37.3983 30.7275L37.0589 31.4497L37.2625 32.0407L35.9729 32.4346L35.9051 33.9447L35.3621 34.9296L35.2942 39.1316L34.9548 39.3943L36.0408 40.8387L35.2942 41.4953L35.8372 43.9903L36.3123 44.5812L36.6517 46.3539L35.1585 47.4701H113.688C113.891 47.4701 114.095 47.4701 114.299 47.4701L110.905 0ZM88.982 19.1062L88.7784 20.4194C88.6426 20.5507 88.5747 20.682 88.5069 20.8133C88.439 20.9446 88.3711 21.0103 88.2354 21.0759C88.0996 21.1416 87.9639 21.2729 87.8281 21.4699C87.7603 21.6668 87.5567 21.7982 87.4209 21.8638C87.2173 21.9295 87.0815 22.0608 86.8779 22.1921C86.6743 22.3234 86.5386 22.4547 86.2671 22.4547L84.0951 23.1113L83.8236 23.0456C83.5521 23.4396 83.2128 23.6366 82.7376 23.6366C82.6019 23.6366 82.3304 23.7022 81.9232 23.7679L81.5159 23.8335L81.1766 23.7679L80.43 23.8992C80.2263 23.9648 80.0227 23.9648 79.9548 24.0305C79.8191 24.0962 79.6833 24.0962 79.5476 24.0962L79.0046 24.3588C79.0046 24.3588 78.9367 24.4244 78.8689 24.4244C78.7331 24.4244 78.6653 24.4244 78.6653 24.3588L78.3938 24.2931C78.258 24.2931 78.1901 24.3588 78.1223 24.4244C78.0544 24.4901 77.9186 24.4901 77.8508 24.4901L77.5793 24.2931L77.172 24.6214C77.0363 24.6214 76.7648 24.6871 76.4933 24.8184C76.2897 24.7527 76.2218 24.6871 76.1539 24.6871L75.4752 24.9497L75.068 24.8184L75.0001 24.9497C74.7965 24.9497 74.5929 25.0154 74.3892 25.1467C74.1856 25.278 74.0499 25.3436 73.9141 25.3436C73.8462 25.3436 73.7105 25.278 73.6426 25.2123C73.5747 25.2123 73.5069 25.2123 73.5069 25.1467C73.3711 25.2123 73.3033 25.3436 73.2354 25.4093C73.1675 25.475 73.0318 25.6063 72.7603 25.6719L72.2852 25.5406C72.2852 25.6063 72.1494 25.6719 71.8779 25.7376C71.6064 25.8032 71.4707 25.9346 71.4707 26.0002L71.2671 26.2628C71.1992 26.4598 71.1313 26.6568 71.0634 26.7881C70.9956 26.9194 70.9956 26.9851 70.9277 27.0507L70.6562 27.576C70.5883 27.773 70.4526 28.0356 70.3168 28.2325L70.249 28.4952C70.1811 28.6265 70.0453 28.6922 69.9096 28.8235L69.4345 29.677C69.2987 29.874 69.2309 30.0053 69.2309 30.0709C69.2309 30.2679 69.4345 30.4649 69.7738 30.6619L71.9458 32.4346L72.2852 32.6316H72.353L72.2852 32.9599C72.4209 33.0255 72.4888 33.0255 72.4888 33.0255C72.5567 33.0255 72.6245 32.9599 72.6245 32.8285H72.7603C72.7603 32.8285 72.8281 32.8942 72.9639 33.0255L73.1675 33.1568C73.2354 33.2225 73.439 33.4195 73.7105 33.6164C73.982 33.8134 74.1177 33.9447 74.1177 34.076L74.0499 34.2073H74.1856C74.2535 34.1417 74.2535 34.1417 74.3214 34.1417C74.3892 34.1417 74.525 34.2073 74.7965 34.4043L75.068 34.5356C75.611 34.9296 75.9503 35.1922 76.0182 35.3235C76.0861 35.1922 76.1539 35.1265 76.2218 34.9952L76.6291 34.7326L77.0363 34.3387C77.3078 34.0104 77.5114 33.8134 77.5114 33.7477L77.9865 33.5508C78.3259 33.3538 78.7331 32.9599 79.344 32.3033C79.9548 31.7124 80.43 31.2528 80.7693 30.9902C81.1087 30.7275 81.3802 30.5306 81.5159 30.3992C81.6517 30.2679 81.7874 30.2023 81.7874 30.1366C81.8553 30.0709 82.0589 30.0709 82.2625 30.0709C82.4662 30.0709 82.6019 30.0709 82.6698 30.0053C82.7376 29.9396 83.1449 29.5457 83.8915 28.8235L84.0272 28.7578L85.3168 28.2982L85.9277 28.7578L86.1313 28.9548C86.1313 28.9548 86.2671 29.2831 86.5385 29.6113C86.81 29.9396 86.8779 30.7275 86.8779 30.7275C86.81 30.7932 86.6743 30.7932 86.4028 30.7275L85.9956 31.1215L85.4526 31.1871L84.8417 31.7124C84.6381 31.7124 84.5024 31.7124 84.4345 31.778L82.6019 33.2225C82.534 33.2881 82.4662 33.2881 82.3304 33.2225C82.2625 33.1568 82.1268 33.2225 81.991 33.2225C81.8553 33.2881 81.7195 33.2881 81.5159 33.2881C81.3123 33.6821 81.0408 34.0104 80.7015 34.2073L79.887 34.6013L79.7512 34.7326L79.6834 34.7983C79.6834 34.7983 79.4797 34.8639 79.1404 34.9952C79.2082 35.0609 79.2082 35.1265 79.2082 35.1922L78.801 35.3235L77.5793 36.4397H77.5114L77.2399 36.571L79.2761 38.0155C81.2444 39.3943 82.3304 40.3791 82.534 40.8387C82.6019 40.9044 82.7376 40.97 82.9413 41.1013C83.1449 41.167 83.4164 41.4296 83.8236 41.7579C84.2309 42.0862 84.4345 42.4145 84.5023 42.6115V43.268C84.5023 43.3337 84.4345 43.3993 84.2987 43.465L84.0272 43.7276C83.6879 44.0559 83.3485 44.2529 83.1449 44.2529C82.534 44.2529 82.0589 44.1216 81.7196 43.8589L81.5838 43.7933H81.4481C81.2444 43.7933 81.1087 43.5963 81.1087 43.268L81.0408 43.0054C80.3621 42.8084 79.8191 42.4801 79.4797 42.0205L78.3259 40.97C78.3259 40.97 78.0544 40.7074 77.6472 40.2478C77.2399 39.7882 76.8327 39.4599 76.5612 39.1973C76.2218 39.0003 76.0182 38.8033 75.8146 38.5407C75.6788 38.4094 75.4752 38.2124 75.3395 38.0811L75.068 38.8033L75.0001 38.869C74.9322 38.9347 74.8643 38.9347 74.7286 38.9347C74.5929 38.9347 74.525 38.9347 74.525 38.9347L74.1856 39.2629L73.8462 39.3943C73.7784 39.4599 73.7784 39.6569 73.7784 40.1165C73.7784 40.1165 73.7784 40.1821 73.7105 40.2478H73.6426L73.2354 40.3791C73.1675 40.4448 73.0996 40.6417 73.0996 40.97C72.8281 41.2983 72.6245 41.5609 72.4209 41.8892C72.4209 42.3488 72.353 42.6771 72.2173 42.8084L71.9458 43.268L72.0815 43.5307C72.2173 43.8589 72.1494 44.2529 71.9458 44.7781C71.7422 45.3034 71.4028 45.6973 70.9956 45.96C69.9775 46.6165 69.0951 46.4852 68.4843 45.5004C68.2806 45.1721 68.2806 44.5812 68.4843 43.7276C68.6879 42.8741 69.163 42.0862 69.9775 41.364C70.7241 40.5761 71.2671 39.9852 71.5386 39.5912C71.8101 39.1316 72.2852 38.672 73.0318 38.0155C73.2354 38.0811 73.439 38.0155 73.5748 37.9498C73.7784 37.8185 73.9141 37.6215 73.8462 37.4245C73.8462 37.2276 73.982 37.0963 74.3214 36.9649L74.3892 36.8993C74.3892 36.8993 74.3892 36.8336 74.3214 36.8336C73.982 36.374 73.7784 36.1114 73.7784 36.1114C73.1675 35.7831 72.896 35.4548 72.896 35.0609C72.8281 34.9952 72.6245 34.9296 72.2852 34.9296C72.1494 34.7326 72.0137 34.6669 72.0137 34.6669C71.9458 34.6669 71.9458 34.6669 71.9458 34.6013L72.0137 34.273C71.6064 34.1417 71.3349 34.0104 71.1313 33.8134C70.9956 33.6164 70.7241 33.4195 70.4526 33.0912C70.1811 32.7629 69.9775 32.5659 69.7738 32.3689C69.5702 32.2376 69.5024 32.1063 69.4345 31.975C69.4345 31.9093 69.2987 31.778 69.0272 31.6467C68.9594 31.778 68.8236 31.9093 68.7558 32.0407C68.62 32.1063 68.5521 32.2376 68.4843 32.3689L68.4164 32.5003C68.2128 32.6972 68.1449 32.8942 68.1449 33.0912L67.7377 33.9447L66.8553 35.9144L66.7196 36.6367L66.5838 37.8841C66.5159 38.2124 66.3802 38.4094 66.1087 38.4094L65.7015 38.4751C65.5657 38.4094 65.3621 38.3437 64.9548 38.3437C64.5476 38.2781 64.2082 37.8841 64.0046 37.2276C64.0046 37.1619 63.8689 37.0306 63.801 36.8336C63.6652 36.6367 63.5974 36.5053 63.5974 36.374C63.5974 36.2427 63.6653 36.1114 63.7331 35.8488L63.801 35.3892C63.801 35.3235 63.9367 34.9296 64.2761 34.273L65.3621 32.3033L65.9051 31.5154C65.9729 31.3841 66.0408 31.1871 66.1087 30.9245C66.1766 30.6619 66.3123 30.3992 66.5159 30.2023C66.6517 30.0053 66.7874 29.874 66.7874 29.7427C66.7874 29.6113 66.6517 29.4144 66.3802 29.2831C66.1087 29.1518 65.9729 28.9548 65.9729 28.8235L65.9051 28.6265C65.1585 28.2325 64.8191 27.773 64.8191 27.2477C64.8191 26.9851 65.1585 26.6568 65.9051 26.1972C66.6517 25.8032 67.1268 25.5406 67.3304 25.475C67.6019 25.4093 67.8055 25.3436 68.077 25.2123L68.4164 25.1467L68.6879 24.884C68.8236 24.8184 69.0272 24.7527 69.2987 24.7527C69.5024 24.6871 69.706 24.4244 69.9096 23.9648C70.0453 23.5052 70.249 23.177 70.3847 23.1113C70.6562 22.586 70.8598 22.1921 70.9277 21.9295C70.9277 21.8638 71.0634 21.7325 71.1313 21.5355C71.2671 21.3386 71.4028 21.0103 71.5386 20.6163C71.6743 20.1567 71.7422 19.9598 71.81 19.9598C71.8779 19.9598 71.9458 19.9598 72.1494 19.8941L71.9458 19.3688C71.9458 19.3032 72.0137 19.2375 72.0815 19.1062C71.8779 18.9092 71.81 18.6466 71.81 18.3183C71.81 17.7931 72.1494 17.5304 72.896 17.5304C73.0318 17.5304 73.3033 17.6618 73.7105 17.8587C74.1177 18.0557 74.3214 18.2527 74.3214 18.384C74.3214 18.5153 74.4571 18.6466 74.5929 18.9092C74.7286 19.1062 74.7965 19.3032 74.7965 19.5002C74.7965 20.0254 74.7286 20.3537 74.525 20.485C74.3214 20.6163 74.1856 21.0103 73.982 21.5355L73.439 23.0456L73.3711 23.4396L73.3033 23.5709L73.7784 23.4396C73.9141 23.177 74.3214 22.98 75.1358 22.98L76.4254 22.586H76.8327L78.0544 22.2578C78.1223 22.2578 78.3259 22.2578 78.6653 22.1921H78.801L79.0725 22.1264C79.1404 22.1264 79.2082 22.1921 79.2082 22.2578H79.2761C79.4119 22.2578 79.4797 22.1921 79.5476 21.9951C79.5476 21.7982 79.7512 21.7325 80.1585 21.7325C80.2263 21.7325 80.2942 21.7982 80.2942 21.8638C80.3621 21.9295 80.3621 21.9295 80.43 21.9295C80.43 21.7982 80.5657 21.6668 80.7693 21.6012C80.9729 21.5355 81.1087 21.5355 81.1766 21.5355L81.5159 21.6012C81.5159 21.6012 81.4481 21.5355 81.4481 21.4699C81.4481 21.3386 81.8553 21.2072 82.6698 21.0759C82.8734 21.0103 83.077 20.879 83.2128 20.8133C83.3485 20.682 83.7557 20.5507 84.5023 20.288L85.7241 19.9598C86.1992 19.8284 86.5386 19.3032 86.7422 18.581C86.7422 18.581 86.6064 18.384 86.4028 18.0557C86.4028 18.0557 86.3349 17.99 86.1313 17.99C86.0634 17.9244 85.9956 17.8587 85.8598 17.7931C85.7241 17.7274 85.5883 17.5961 85.3847 17.3991L85.1132 17.4648C84.9096 17.3335 84.706 17.2678 84.4345 17.2022C84.163 17.1365 83.8915 17.0052 83.62 16.8082C83.4842 16.8739 83.4164 16.8739 83.4164 16.8739C83.4164 16.8739 83.2128 16.8082 82.9413 16.6769L82.3983 16.4143H82.0589L81.9232 16.3486C81.8553 16.283 81.7874 16.2173 81.7196 16.2173L81.5159 16.283C81.4481 16.283 81.3802 16.3486 81.3123 16.3486H80.7693C80.7693 16.3486 80.6336 16.283 80.43 16.1516H79.7512L79.4119 16.2173C79.344 16.2173 79.2761 16.1516 79.1404 16.086L78.801 16.1516L78.4616 16.0203L77.9186 16.086C77.7829 16.0203 77.715 15.9547 77.6472 15.9547L76.0182 16.086C75.9503 16.086 75.8824 16.086 75.8824 16.0203C75.8146 15.9547 75.7467 15.9547 75.6788 15.889C75.611 15.889 75.4752 15.8234 75.4073 15.7577C75.1358 15.889 74.8643 16.0203 74.5929 16.0203L73.982 15.9547L73.8462 16.0203H73.7784C73.7784 16.0203 73.6426 16.0203 73.439 15.9547C73.439 16.0203 73.439 16.0203 73.3711 16.086L73.0996 16.0203L72.0137 16.2173H71.9458L71.7422 16.1516C71.6743 16.1516 71.6064 16.1516 71.5386 16.2173C71.4707 16.283 71.3349 16.283 71.3349 16.283L70.8598 16.2173L70.5205 16.283L70.0453 16.2173L69.6381 16.4799H69.5702C69.5024 16.4799 69.4345 16.4799 69.3666 16.4143C69.2987 16.3486 69.2309 16.3486 69.2309 16.3486L68.9594 16.4143H68.5521C68.4843 16.4143 68.4164 16.5456 68.2128 16.8082C68.2128 16.8082 68.2128 16.8739 68.1449 16.8739H68.077L67.8055 16.8082C67.7377 16.8082 67.6698 16.8739 67.4662 17.0708C67.1947 17.1365 66.991 17.2678 66.7196 17.3335C66.5159 17.5961 66.3802 17.7274 66.2444 17.7931L65.9051 17.9244L65.8372 18.187C65.7693 18.384 65.6336 18.6466 65.2942 18.8436C64.9548 19.0406 64.6155 19.1719 64.2761 19.1719C63.3938 19.1719 62.9865 18.7779 62.9865 17.99C62.9865 17.7274 63.1901 17.3991 63.6653 17.0052C64.0725 16.6112 64.6833 16.3486 65.43 16.1516C66.1766 16.0203 66.7195 15.8234 66.991 15.692C67.3304 15.5607 67.8055 15.4294 68.4843 15.3638C68.62 15.4951 68.6879 15.4951 68.8236 15.4951C69.0272 15.4951 69.0951 15.4294 69.163 15.2981C69.2309 15.1668 69.3666 15.1668 69.6381 15.1668H69.706L70.7919 14.9042L71.1313 15.0355C71.1992 15.0355 71.2671 15.0355 71.3349 14.9698C71.4028 14.9042 71.4707 14.9042 71.6064 14.8385H71.9458L72.353 14.7728C72.6245 14.7072 72.8281 14.6415 72.896 14.5759L73.2354 14.6415C73.5069 14.6415 73.9141 14.5759 74.525 14.4446C75.1358 14.3132 75.5431 14.2476 75.8824 14.2476C76.1539 14.2476 76.4254 14.2476 76.5612 14.1819C76.6969 14.1819 76.7648 14.1163 76.8327 14.1163C76.9005 14.1163 77.0363 14.1819 77.1042 14.2476C77.2399 14.3132 77.3078 14.3789 77.3757 14.3789C77.4435 14.3789 77.7829 14.3132 78.5295 14.1163H78.6653L79.5476 14.3132C79.8191 14.1819 79.9548 14.1163 80.0227 14.1163C80.2942 14.1163 80.5657 14.1819 80.7015 14.3789L81.1087 14.2476L81.3123 14.3132C81.3802 14.3132 81.5159 14.3132 81.6517 14.2476H81.7874C81.8553 14.2476 81.991 14.2476 82.0589 14.3132L82.1268 14.3789C82.2625 14.3789 82.3983 14.3789 82.4662 14.3132H82.7376L83.62 14.5102L83.9594 14.4446C83.9594 14.4446 84.0951 14.5102 84.2309 14.5759L84.4345 14.5102C84.5702 14.5759 84.8417 14.7072 85.1811 14.9042C85.249 14.9042 85.3168 14.8385 85.4526 14.8385H85.5205C85.5205 14.8385 85.6562 14.9042 85.9277 15.1011L86.5385 15.3638L86.6743 15.2981C87.0815 15.4951 87.2173 15.5607 87.2852 15.6264L87.4209 15.9547C87.5567 16.0203 87.7603 16.1516 87.9639 16.283C88.0318 16.4143 88.0996 16.5456 88.2354 16.7426V16.8739C88.2354 16.8739 88.3711 17.0052 88.5747 17.1365C88.7784 17.2678 88.9141 17.3991 88.9141 17.5304C88.9141 17.5304 88.9141 17.6618 88.8462 17.7931V17.8587C88.8462 17.8587 88.9141 17.99 88.982 18.1214C89.0499 18.2527 89.1177 18.4496 89.1177 18.6466L89.0499 18.9092L88.982 19.1062Z" fill="#666666"/>
<path d="M71.1313 26.8589L70.9956 27.1227C71.0635 27.0567 71.1313 26.9908 71.1313 26.8589Z" fill="#666666"/>
<path d="M67.5342 34.008L66.6519 35.9777L67.5342 34.008Z" fill="#666666"/>
<path d="M29.3214 46.9467L29.8644 46.881L29.9323 47.6032H31.3576L32.3078 46.6184L32.0364 47.6032H32.7151V47.5376L33.1223 47.1436L33.5974 43.0729L33.1902 42.1537L31.0183 43.2699L31.5612 42.3507L30.9504 42.088L30.8825 41.1688L31.4934 41.1032L31.9685 41.9567L32.3078 41.6284L31.2897 38.6082L33.8011 37.689L33.3259 36.4415L33.4617 35.7849L32.9866 34.6688L31.4934 33.4869L31.5612 34.4718L32.24 35.3253L32.3078 36.3102L31.4934 35.7193L30.2716 38.0173L29.7965 39.987L27.7603 41.8254L25.3848 46.4214L25.4526 47.4063L28.8463 45.7648L25.3848 47.6032H29.1857L29.3214 46.9467Z" fill="#666666"/>
<path d="M31.6289 80.3639L33.3258 87.7175L40.1131 88.571L44.8642 85.8134L45.2715 85.1569L55.3167 84.369L55.9955 85.2225L59.8642 84.172L63.3937 81.6114L70.8597 79.8387L73.6425 78.5255H30.6108L31.6289 80.3639Z" fill="#666666"/>
<path d="M24.5701 47.6046L25.6561 43.0086L25.7919 42.0237L28.371 38.6752L27.9638 36.7711L28.6425 37.6247L28.914 35.9833L29.3213 36.5742L29.2534 38.0843L29.8643 37.756L29.7964 36.5085L30.543 36.3772L30.4751 35.3924L31.2896 34.9984L30.543 30.0085L29.7285 29.8115L29.8643 31.6499L29.457 30.862L29.1176 31.7812L28.8462 30.5337L29.3891 29.8772L28.914 29.2862L27.9638 29.6802L27.5566 30.3368L28.2353 31.8469L27.4887 32.5691L27.6244 31.9125L27.0136 31.5842L26.9457 30.3368L25.9276 30.4681L25.6561 31.7156L24.9095 30.2711L23.2805 29.4832L22.9412 30.1398L9.63801 29.4832L9.1629 28.8923L3.86878 27.2509L0 26.5943L0.678733 27.3822L1.08597 35.8519L5.49774 41.6954L7.33032 47.8015C7.94118 47.6046 8.55204 47.5389 9.23077 47.5389H24.5701V47.6046Z" fill="#666666"/>
<path d="M67.4659 26.9837C67.3301 27.115 67.1944 27.1807 67.1944 27.2463H66.7193C66.6514 27.2463 66.5156 27.312 66.312 27.4433C66.1084 27.5746 65.9727 27.7059 65.9727 27.7716C65.9727 27.8372 66.1084 27.9686 66.4478 28.2312C66.7871 28.4938 66.9908 28.6251 67.0586 28.6251C67.3301 28.6251 67.6016 28.0999 67.941 27.0494L67.7374 27.115L67.4659 26.9837Z" fill="#666666"/>
<path d="M113.688 78.853H9.29855C5.76913 78.853 2.91846 76.2924 2.91846 73.1409V52.9185C2.91846 49.7669 5.76913 47.2063 9.29855 47.2063H113.688C117.217 47.2063 120.068 49.7669 120.068 52.9185V73.1409C120 76.2924 117.149 78.853 113.688 78.853ZM9.29855 47.9285C6.17637 47.9285 3.59719 50.1609 3.59719 52.9841V73.2065C3.59719 75.9641 6.17637 78.2621 9.29855 78.2621H113.688C116.81 78.2621 119.389 76.0298 119.389 73.2065V52.9185C119.389 50.1609 116.81 47.8629 113.688 47.8629H9.29855V47.9285Z" fill="#666666"/>
<path d="M110.565 75.7025H108.733V75.0459H110.565C113.484 75.0459 115.927 73.2732 115.927 71.1065V55.0205C115.927 52.8538 113.552 51.0811 110.565 51.0811H11.8776C8.89121 51.0811 6.51565 52.8538 6.51565 55.0205V71.1065C6.51565 73.2732 8.89121 75.0459 11.8776 75.0459H13.7781V75.7025H11.8776C8.55185 75.7025 5.83691 73.6671 5.83691 71.1065V55.0205C5.83691 52.4599 8.55185 50.4245 11.8776 50.4245H110.565C113.891 50.4245 116.606 52.4599 116.606 55.0205V71.1065C116.538 73.6671 113.891 75.7025 110.565 75.7025Z" fill="#666666"/>
<path d="M22.8052 69.597H21.1084V75.1122H21.855V72.9455H22.8731C23.2803 72.9455 23.5518 72.8142 23.8233 72.4859C24.0948 72.1576 24.2306 71.7637 24.2306 71.2384C24.2306 70.7788 24.0948 70.3849 23.8912 70.0566C23.6876 69.7283 23.2803 69.597 22.8052 69.597ZM23.2803 71.8293C23.1446 71.9606 23.0088 72.0263 22.7374 72.0263H21.855V70.3849H22.6695C22.941 70.3849 23.1446 70.4505 23.2803 70.6475C23.4161 70.7788 23.4161 70.9758 23.4161 71.2384C23.484 71.501 23.4161 71.698 23.2803 71.8293Z" fill="#666666"/>
<path d="M28.7101 71.2384C28.7101 70.7788 28.5743 70.3849 28.3707 70.0566C28.1671 69.7283 27.7598 69.597 27.2847 69.597H25.4521V75.1122H26.1988V72.8142H27.2169L27.8277 75.1122H28.6422L27.8956 72.6829C28.5064 72.4202 28.7101 71.895 28.7101 71.2384ZM27.7598 71.8293C27.6241 71.9606 27.4205 72.0263 27.149 72.0263H26.1988V70.3849H27.2169C27.4205 70.3849 27.6241 70.4505 27.7598 70.5818C27.8956 70.7132 27.9635 70.9101 27.9635 71.1727C27.9635 71.4354 27.8956 71.698 27.7598 71.8293Z" fill="#666666"/>
<path d="M30.814 72.6829H32.3751V71.895H30.814V70.4505H32.7823V69.597H30.0674V75.1122H32.7823V74.2586H30.814V72.6829Z" fill="#666666"/>
<path d="M35.9049 71.8934L35.2261 71.6307C34.8189 71.4994 34.6153 71.3024 34.6153 70.9742C34.6153 70.7772 34.6831 70.5802 34.8189 70.4489C34.9546 70.3176 35.0904 70.2519 35.3619 70.2519C35.7691 70.2519 36.0406 70.4489 36.1085 70.9085L36.7872 70.6459C36.7193 70.2519 36.5157 69.9893 36.2442 69.7923C35.9727 69.5954 35.6334 69.4641 35.294 69.4641C34.8868 69.4641 34.4795 69.5954 34.208 69.9236C33.9365 70.2519 33.8008 70.6459 33.8008 71.1055C33.8008 71.3681 33.8687 71.5651 33.9365 71.8277C34.0044 72.0247 34.1402 72.2216 34.2759 72.353C34.4116 72.4843 34.6153 72.5499 34.8868 72.6812L35.7012 72.9439C35.9049 73.0095 36.0406 73.1408 36.1085 73.2721C36.1763 73.4035 36.1763 73.5348 36.1763 73.6661C36.1763 73.8631 36.1085 74.06 35.9727 74.1913C35.837 74.3227 35.6334 74.3883 35.3619 74.3883C34.751 74.3883 34.4795 74.1257 34.3438 73.6004L33.5972 73.7974C33.665 74.257 33.9365 74.6509 34.208 74.8479C34.5474 75.0449 34.8868 75.1762 35.294 75.1762C35.7691 75.1762 36.1763 75.0449 36.5157 74.7166C36.8551 74.3883 36.9908 73.9944 36.9908 73.4691C36.9908 73.1408 36.923 72.8126 36.7872 72.5499C36.5836 72.2216 36.3121 72.0247 35.9049 71.8934Z" fill="#666666"/>
<path d="M39.7056 70.3178C40.1129 70.3178 40.4522 70.7118 40.5201 71.5653L41.1988 71.4997C41.131 70.8431 40.9273 70.3835 40.6559 70.0552C40.3844 69.7269 40.045 69.53 39.6378 69.53C39.0948 69.53 38.6875 69.7926 38.416 70.3178C38.1445 70.8431 37.9409 71.4997 37.9409 72.3532C37.9409 72.8785 38.0088 73.3381 38.1445 73.7977C38.2803 74.2573 38.4839 74.5855 38.6875 74.8482C38.8911 75.1108 39.2305 75.2421 39.6378 75.2421C40.1129 75.2421 40.4522 75.0451 40.7237 74.7169C40.9952 74.3886 41.131 73.929 41.1988 73.3381L40.5201 73.2068C40.5201 73.535 40.3844 73.7977 40.2486 73.9946C40.1129 74.1916 39.9092 74.3229 39.7056 74.3229C39.4341 74.3229 39.2305 74.1259 39.0269 73.7977C38.8911 73.4694 38.7554 72.9441 38.7554 72.2876C38.7554 71.631 38.8233 71.1057 38.959 70.7774C39.2305 70.5148 39.4341 70.3178 39.7056 70.3178Z" fill="#666666"/>
<path d="M45.7462 71.2384C45.7462 70.7788 45.6105 70.3849 45.4068 70.0566C45.2032 69.7283 44.796 69.597 44.3209 69.597H42.4883V75.1122H43.2349V72.8142H44.253L44.8638 75.1122H45.6783L44.9317 72.6829C45.4747 72.4202 45.7462 71.895 45.7462 71.2384ZM44.7281 71.8293C44.5924 71.9606 44.3887 72.0263 44.1172 72.0263H43.167V70.3849H44.1851C44.3887 70.3849 44.5924 70.4505 44.7281 70.5818C44.8639 70.7132 44.9317 70.9101 44.9317 71.1727C44.9317 71.4354 44.8639 71.698 44.7281 71.8293Z" fill="#666666"/>
<path d="M47.8506 69.597H47.104V75.1122H47.8506V69.597Z" fill="#666666"/>
<path d="M51.0406 69.597H49.3438V75.1122H50.0904V72.9455H51.1085C51.5157 72.9455 51.7872 72.8142 52.0587 72.4859C52.3302 72.1576 52.4659 71.7637 52.4659 71.2384C52.4659 70.7788 52.3302 70.3849 52.1266 70.0566C51.923 69.7283 51.5836 69.597 51.0406 69.597ZM51.5157 71.8293C51.38 71.9606 51.2442 72.0263 50.9727 72.0263H50.0904V70.3849H50.9048C51.1763 70.3849 51.38 70.4505 51.5157 70.6475C51.6515 70.7788 51.6515 70.9758 51.6515 71.2384C51.7193 71.501 51.6515 71.698 51.5157 71.8293Z" fill="#666666"/>
<path d="M53.2803 70.4505H54.3662V75.1122H55.1807V70.4505H56.2667V69.597H53.2803V70.4505Z" fill="#666666"/>
<path d="M58.0992 69.597H57.3525V75.1122H58.0992V69.597Z" fill="#666666"/>
<path d="M61.2213 69.53C60.6783 69.53 60.271 69.7926 59.9317 70.3178C59.5923 70.8431 59.4565 71.4997 59.4565 72.3532C59.4565 73.1411 59.5923 73.8633 59.9317 74.3886C60.271 74.9138 60.6783 75.2421 61.2213 75.2421C61.7642 75.2421 62.1715 74.9795 62.5109 74.4542C62.8502 73.929 62.986 73.2724 62.986 72.4189C62.986 71.631 62.8502 70.9088 62.5109 70.3835C62.1715 69.7926 61.7642 69.53 61.2213 69.53ZM61.8321 73.929C61.6285 74.2573 61.4249 74.3886 61.1534 74.3886C60.8819 74.3886 60.6104 74.1916 60.4746 73.8633C60.3389 73.535 60.2032 73.0098 60.2032 72.3532C60.2032 70.9744 60.5425 70.3178 61.1534 70.3178C61.4927 70.3178 61.6964 70.5148 61.9 70.8431C62.0357 71.1714 62.1036 71.6966 62.1036 72.3532C62.1036 73.1411 62.0357 73.6663 61.8321 73.929Z" fill="#666666"/>
<path d="M66.7872 73.4707C66.6515 73.0768 66.5157 72.8798 66.5157 72.8798L65.0904 69.6626H64.2759V75.1778H64.8867V71.1071C64.9546 71.2384 64.9546 71.3041 65.0225 71.3697C65.0904 71.501 65.0904 71.5667 65.1582 71.6323L66.7193 75.1778H67.4659V69.597H66.8551V73.4707H66.7872Z" fill="#666666"/>
<path d="M73.9137 71.8934L73.2349 71.6307C72.8277 71.4994 72.6241 71.3024 72.6241 70.9742C72.6241 70.7772 72.6919 70.5802 72.8277 70.4489C72.9634 70.3176 73.0992 70.2519 73.3707 70.2519C73.7779 70.2519 74.0494 70.4489 74.1173 70.9085L74.796 70.6459C74.7281 70.2519 74.5245 69.9893 74.253 69.7923C73.9815 69.5954 73.6422 69.4641 73.3028 69.4641C72.8956 69.4641 72.4883 69.5954 72.2168 69.9236C71.9453 70.2519 71.8096 70.6459 71.8096 71.1055C71.8096 71.3681 71.8775 71.5651 71.9453 71.8277C72.0132 72.0247 72.1489 72.2216 72.2847 72.353C72.4204 72.4843 72.6241 72.5499 72.8956 72.6812L73.71 72.9439C73.9137 73.0095 74.0494 73.1408 74.1173 73.2721C74.1851 73.4035 74.1851 73.5348 74.1851 73.6661C74.1851 73.8631 74.1173 74.06 73.9815 74.1913C73.8458 74.3227 73.6422 74.3883 73.3707 74.3883C72.7598 74.3883 72.4883 74.1257 72.3526 73.6004L71.606 73.7974C71.6738 74.257 71.9453 74.6509 72.2168 74.8479C72.5562 75.0449 72.8956 75.1762 73.3028 75.1762C73.7779 75.1762 74.1851 75.0449 74.5245 74.7166C74.8639 74.3883 74.9996 73.9944 74.9996 73.4691C74.9996 73.1408 74.9318 72.8126 74.796 72.5499C74.5924 72.2216 74.3209 72.0247 73.9137 71.8934Z" fill="#666666"/>
<path d="M76.9683 72.6829H78.5294V71.895H76.9683V70.4505H78.8687V69.597H76.2217V75.1122H78.9366V74.2586H76.9683V72.6829Z" fill="#666666"/>
<path d="M83.4161 71.2384C83.4161 70.7788 83.2804 70.3849 83.0768 70.0566C82.8732 69.7283 82.4659 69.597 81.9908 69.597H80.1582V75.1122H80.9048V72.8142H81.9229L82.5338 75.1122H83.3483L82.6017 72.6829C83.2125 72.4202 83.4161 71.895 83.4161 71.2384ZM82.4659 71.8293C82.3302 71.9606 82.1265 72.0263 81.855 72.0263H80.9048V70.3849H81.9229C82.1265 70.3849 82.3302 70.4505 82.4659 70.5818C82.6017 70.7132 82.6695 70.9101 82.6695 71.1727C82.6695 71.4354 82.6017 71.698 82.4659 71.8293Z" fill="#666666"/>
<path d="M86.063 73.799L85.1128 69.597H84.2983L85.5879 75.1122H86.3345L87.6241 69.597H87.0133L86.063 73.799Z" fill="#666666"/>
<path d="M89.4566 69.597H88.71V75.1122H89.4566V69.597Z" fill="#666666"/>
<path d="M92.5108 70.3178C92.918 70.3178 93.2574 70.7118 93.3253 71.5653L94.004 71.4997C93.9361 70.8431 93.7325 70.3835 93.461 70.0552C93.1895 69.7269 92.8502 69.53 92.4429 69.53C91.8999 69.53 91.4927 69.7926 91.2212 70.3178C90.9497 70.8431 90.7461 71.4997 90.7461 72.3532C90.7461 72.8785 90.814 73.3381 90.9497 73.7977C91.0855 74.2573 91.2891 74.5855 91.4927 74.8482C91.6963 75.1108 92.0357 75.2421 92.4429 75.2421C92.918 75.2421 93.2574 75.0451 93.5289 74.7169C93.8004 74.3886 93.9361 73.929 94.004 73.3381L93.3253 73.2068C93.3253 73.535 93.1895 73.7977 93.0538 73.9946C92.918 74.1916 92.7144 74.3229 92.5108 74.3229C92.2393 74.3229 92.0357 74.1259 91.8321 73.7977C91.6963 73.4694 91.5606 72.9441 91.5606 72.2876C91.5606 71.631 91.6284 71.1057 91.7642 70.7774C91.9678 70.5148 92.2393 70.3178 92.5108 70.3178Z" fill="#666666"/>
<path d="M95.9727 72.6829H97.5338V71.895H95.9727V70.4505H97.941V69.597H95.2261V75.1122H97.941V74.2586H95.9727V72.6829Z" fill="#666666"/>
<path d="M101.063 71.8934L100.384 71.6307C99.9771 71.4994 99.7735 71.3024 99.7735 70.9742C99.7735 70.7772 99.8413 70.5802 99.9771 70.4489C100.113 70.3176 100.249 70.2519 100.52 70.2519C100.927 70.2519 101.199 70.4489 101.267 70.9085L101.945 70.6459C101.878 70.2519 101.674 69.9893 101.402 69.7923C101.131 69.5954 100.792 69.4641 100.452 69.4641C100.045 69.4641 99.6377 69.5954 99.3662 69.9236C99.0947 70.2519 98.959 70.6459 98.959 71.1055C98.959 71.3681 99.0269 71.5651 99.0947 71.8277C99.1626 72.0247 99.2984 72.2216 99.4341 72.353C99.5699 72.4843 99.7735 72.5499 100.045 72.6812L100.859 72.9439C101.063 73.0095 101.199 73.1408 101.267 73.2721C101.335 73.4035 101.335 73.5348 101.335 73.6661C101.335 73.8631 101.267 74.06 101.131 74.1913C100.995 74.3227 100.792 74.3883 100.52 74.3883C99.9092 74.3883 99.6377 74.1257 99.502 73.6004L98.7554 73.7974C98.8232 74.257 99.0947 74.6509 99.3662 74.8479C99.7056 75.0449 100.045 75.1762 100.452 75.1762C100.927 75.1762 101.335 75.0449 101.674 74.7166C102.013 74.3883 102.149 73.9944 102.149 73.4691C102.149 73.1408 102.081 72.8126 101.945 72.5499C101.742 72.2216 101.47 72.0247 101.063 71.8934Z" fill="#666666"/>
<path d="M17.1717 57.3873C17.1717 57.3216 17.1717 57.2559 17.1717 57.1903C17.1717 57.1246 17.1717 57.059 17.1717 56.9277H17.1038L16.6287 56.9933L15.8821 56.9277H15.8142C15.8142 56.9933 15.7463 57.059 15.7463 57.059C15.7463 57.1246 15.7463 57.1903 15.7463 57.3873C15.8142 57.4529 15.8821 57.4529 15.95 57.5186C16.0178 57.5186 16.0857 57.5842 16.2215 57.6499V57.7812C16.2215 57.8469 16.2215 57.8469 16.2215 57.9125L16.0857 58.4378L15.2034 61.7206L14.5925 64.1499C14.5925 64.0843 14.5246 63.953 14.4567 63.756L13.9138 61.8519L13.5744 60.8014V60.7358C13.9816 59.357 14.321 58.5034 14.4567 58.0438C14.5246 57.9125 14.5925 57.7812 14.6604 57.7155C14.7282 57.6499 14.9319 57.5186 15.2712 57.3873V57.3216V56.9933V56.9277C15.2034 56.9277 15.1355 56.9277 15.1355 56.9277C15.0676 56.9277 14.9997 56.9277 14.9319 56.9277C14.864 56.9277 14.6604 56.9277 14.3889 56.9277C13.9138 56.9277 13.5744 56.862 13.5065 56.862C13.5065 56.9933 13.5065 57.059 13.5065 57.1246C13.5065 57.1903 13.5065 57.2559 13.5065 57.3216C13.7101 57.3873 13.8459 57.4529 13.9138 57.5186C13.9138 57.5186 13.9816 57.5842 14.0495 57.6499V57.7155C14.0495 57.7812 14.0495 57.7812 14.0495 57.8469C13.9816 58.0438 13.9138 58.4378 13.7101 58.8974L13.3708 59.9479C13.3029 59.6853 13.1672 59.2257 12.9635 58.5691C12.8957 58.3721 12.8957 58.2408 12.8278 58.1751C12.7599 57.9782 12.692 57.7812 12.692 57.6499C12.692 57.5842 12.692 57.5186 12.7599 57.5186C12.8278 57.4529 12.8278 57.4529 12.9635 57.4529C13.0993 57.4529 13.1672 57.3873 13.235 57.3873C13.235 57.3216 13.235 57.3216 13.235 57.2559V57.1246V56.862H13.1672L12.3527 56.9277H11.6739C11.6061 56.9277 11.4024 56.9277 11.131 56.862C10.9273 56.862 10.7916 56.862 10.7237 56.862V57.3216C10.9952 57.3873 11.131 57.5186 11.1988 57.5842C11.2667 57.6499 11.3346 57.7155 11.3346 57.8469C11.3346 57.9125 11.4024 58.0438 11.4024 58.0438C11.4024 58.1095 11.4703 58.2408 11.4703 58.3065C11.5382 58.6347 11.6739 59.0287 11.8097 59.4883L12.5563 62.0489C12.2169 63.1651 11.9454 63.953 11.8097 64.4126L10.5201 60.0135C10.2486 59.0943 10.1129 58.5034 10.045 58.2408C10.045 58.1095 9.97711 57.9782 9.97711 57.9125C9.97711 57.8469 9.90924 57.7155 9.90924 57.6499C9.90924 57.5842 9.97711 57.5186 10.1129 57.3873C10.1807 57.3216 10.2486 57.3216 10.3165 57.2559L10.3843 56.9277C10.3843 56.9277 10.3843 56.862 10.3165 56.862L9.70562 56.9277C9.56987 56.9277 9.43412 56.9277 9.29837 56.9277C9.29837 56.9277 9.16263 56.9277 9.09475 56.9277C8.82326 56.9277 8.55177 56.9277 8.28028 56.862C8.28028 56.862 8.2124 56.862 8.2124 56.9277V57.3873C8.28028 57.3873 8.28028 57.4529 8.34815 57.4529C8.41602 57.5186 8.4839 57.5186 8.4839 57.5842C8.55177 57.7155 8.68752 58.0438 8.82326 58.5691L10.3843 64.0843C10.7237 65.2005 10.9273 65.9884 11.0631 66.5793H11.5382C11.6739 66.054 11.9454 65.3318 12.2848 64.3469C12.6242 63.3621 12.8278 62.9025 12.8278 62.9025C12.8278 62.9681 12.8278 62.9681 12.8957 63.0338C12.9635 63.1651 13.0314 63.4277 13.0993 63.756L13.6423 65.6601C13.6423 65.7257 13.7101 65.9227 13.778 66.251C13.8459 66.3823 13.8459 66.5136 13.9138 66.7106H14.3889C14.9997 64.4126 15.407 62.7055 15.7463 61.655C16.0178 60.6045 16.3572 59.4883 16.6287 58.3721C16.6966 58.1095 16.7644 57.9125 16.7644 57.8469C16.8323 57.7812 16.9002 57.6499 17.0359 57.5842C17.1038 57.4529 17.1717 57.3873 17.1717 57.3873Z" fill="#666666"/>
<path d="M22.2624 66.1847C22.466 66.1847 22.7375 66.1847 23.009 66.2504C23.2805 66.316 23.552 66.316 23.8235 66.316C23.8235 66.2504 23.8235 66.1847 23.8235 66.1847C23.8235 66.1191 23.8235 65.9878 23.8235 65.8564C23.6877 65.7908 23.552 65.7251 23.4162 65.6595C23.2805 65.6595 23.2126 65.5938 23.1447 65.5282C23.1447 65.4625 23.0769 65.3968 23.009 65.1999C22.8732 64.8059 22.8054 64.5433 22.7375 64.2807C22.6017 63.8211 22.5339 63.4928 22.466 63.2302C22.3303 62.8362 22.1945 62.3766 22.0588 61.7857C21.923 61.1948 21.7194 60.5382 21.5158 59.9473L20.7013 56.9271L20.6334 56.7958H20.3619C20.2941 56.7958 20.1583 56.7958 20.0226 56.7958L18.8687 61.3261L17.9185 65.1999C17.8506 65.4625 17.7827 65.5938 17.7149 65.6595C17.647 65.7251 17.5113 65.7908 17.2398 65.8564C17.104 65.9221 16.9683 65.9221 16.9004 65.9878V66.513H16.9683C17.1719 66.513 17.4434 66.513 17.647 66.4474L17.8506 66.3817C18.5972 66.4474 19.0723 66.513 19.276 66.513C19.276 66.4474 19.276 66.3817 19.276 66.316C19.276 66.2504 19.276 66.1191 19.276 65.9878C19.0723 65.9221 18.9366 65.9221 18.9366 65.9221C18.733 65.8564 18.5972 65.7908 18.5293 65.7251C18.4615 65.6595 18.4615 65.5938 18.4615 65.4625C18.4615 65.3968 18.4615 65.1999 18.5293 64.9372C18.733 64.0181 18.8687 63.4271 18.9366 63.2302H20.7692L21.1764 64.6746L21.38 65.3968C21.38 65.4625 21.38 65.5282 21.38 65.5938C21.38 65.6595 21.38 65.7251 21.3122 65.7908C21.3122 65.8564 21.1764 65.8564 21.0407 65.9221L20.4977 66.1191C20.4977 66.2504 20.4977 66.4474 20.4977 66.5787H20.7692L21.5836 66.513C21.7873 66.2504 21.9909 66.1847 22.2624 66.1847ZM20.5655 62.1797C20.4298 62.1797 19.9547 62.1797 19.2081 62.1797L19.8868 59.3564C19.9547 59.6847 20.0904 60.0786 20.2941 60.6695C20.4298 61.2605 20.5655 61.7857 20.7013 62.1797H20.5655Z" fill="#666666"/>
<path d="M26.8775 66.3137C27.0812 66.2481 27.2848 66.0511 27.4884 65.8541C27.692 65.6572 27.8278 65.4602 27.9635 65.3289C28.0993 65.1319 28.1671 64.8693 28.235 64.6723C28.3707 64.2127 28.4386 63.7531 28.4386 63.2935C28.4386 62.8996 28.3707 62.5056 28.3029 62.243C28.235 61.9804 28.0993 61.6521 27.8956 61.3894C27.7599 61.1925 27.5563 60.9298 27.2848 60.7329C27.0133 60.5359 26.7418 60.4046 26.5382 60.3389C25.9273 60.0763 25.5879 59.8137 25.3843 59.4854C25.1807 59.2228 25.1128 58.8945 25.1128 58.5662C25.1128 58.1722 25.1807 57.9096 25.3843 57.647C25.5879 57.3844 25.8594 57.253 26.1309 57.253C26.4703 57.253 26.7418 57.45 27.0133 57.844C27.149 58.0409 27.2848 58.5005 27.4205 59.1571H27.4884L27.8278 59.2228H27.8956C27.8956 59.0914 27.8956 59.0258 27.8956 58.9601C27.8956 58.6975 27.8956 58.3036 27.8278 57.7783C27.8278 57.45 27.7599 57.1874 27.7599 56.9904C27.4205 56.8591 27.2169 56.7278 27.0133 56.6621C26.6739 56.5965 26.4703 56.5308 26.3345 56.5308C25.5879 56.5308 25.045 56.7935 24.7056 57.3187C24.3662 57.844 24.1626 58.5005 24.1626 59.2884C24.1626 59.6824 24.2305 60.0763 24.3662 60.4702C24.502 60.8642 24.7056 61.1925 24.9092 61.4551C25.1128 61.7177 25.5879 61.9804 26.1309 62.3086C26.7418 62.6369 27.0812 62.8996 27.2169 63.0965C27.4205 63.4248 27.5563 63.7531 27.5563 64.0814C27.5563 64.344 27.4884 64.6723 27.3526 64.9349C27.2169 65.1976 27.0812 65.3945 26.8097 65.4602C26.606 65.5915 26.4024 65.6572 26.1988 65.6572C25.9952 65.6572 25.7916 65.5915 25.6558 65.5258C25.5201 65.4602 25.3164 65.3289 25.2486 65.1319C25.1128 65.0006 25.045 64.8036 24.9092 64.541C24.8413 64.4097 24.7735 64.0814 24.6377 63.5561H24.1626V63.8188C24.1626 63.9501 24.1626 64.147 24.1626 64.4753C24.1626 65.0662 24.1626 65.3945 24.1626 65.4602V65.5258C24.1626 65.5915 24.1626 65.6572 24.2305 65.6572C24.2983 65.7228 24.3662 65.7885 24.5698 65.8541L25.1807 66.1168C25.5201 66.1824 25.7916 66.2481 25.9952 66.2481C26.3345 66.445 26.606 66.445 26.8775 66.3137Z" fill="#666666"/>
<path d="M36.1081 58.2402V58.1746V57.9776V57.8463V57.715C36.176 57.6493 36.3118 57.5837 36.3796 57.518C36.4475 57.4523 36.6511 57.3867 36.9905 57.321C36.9905 57.1897 36.9905 56.9927 36.9905 56.7958C36.8547 56.7958 36.719 56.7958 36.6511 56.7958C36.5154 56.7958 36.3796 56.7958 36.3118 56.8614C36.2439 56.8614 36.176 56.8614 36.1081 56.8614H35.4973C35.4294 56.8614 35.4294 56.8614 35.2937 56.8614C34.9543 56.8614 34.6828 56.8614 34.3434 56.7958H33.8683C33.8683 56.7958 33.8004 56.7958 33.7326 56.7958C33.7326 56.9271 33.7326 57.0584 33.6647 57.1897C33.7326 57.1897 33.8004 57.2554 33.8683 57.2554C34.2077 57.3867 34.4113 57.518 34.5471 57.5837C34.6149 57.5837 34.6149 57.6493 34.6149 57.6493L34.6828 58.1746V59.4221V59.7503C34.6828 60.4069 34.6828 60.8009 34.6828 60.9978C34.6149 61.0635 34.547 61.0635 34.4113 61.0635L33.529 61.1291H32.6466H32.3072H31.5606C31.4928 61.1291 31.4249 61.1291 31.357 61.0635C31.357 60.8009 31.357 60.6039 31.357 60.5382C31.357 60.4726 31.357 60.4069 31.357 60.2756C31.357 60.1443 31.357 60.0786 31.357 60.013C31.357 59.9473 31.357 59.8817 31.357 59.816V58.8968C31.357 58.8311 31.357 58.8311 31.357 58.7655V58.6998V58.4372V58.1089V57.9776V57.715C31.357 57.6493 31.357 57.5837 31.4249 57.518L32.3072 57.321C32.3072 57.1897 32.3072 57.1241 32.3072 57.0584C32.3072 56.9927 32.3072 56.9271 32.3072 56.8614C32.2394 56.8614 32.1036 56.8614 32.0357 56.8614C31.9679 56.8614 31.9 56.8614 31.8321 56.9271C31.4249 56.9927 31.1534 56.9927 31.0176 56.9927C30.9498 56.9927 30.8819 56.9927 30.7461 56.9927C30.6783 56.9927 30.5425 56.9927 30.4747 56.9927C30.271 56.9927 29.9995 56.9271 29.5923 56.8614C29.5244 56.8614 29.4566 56.8614 29.3208 56.8614C29.1851 56.8614 29.1172 56.8614 29.0493 56.8614C29.0493 56.9927 29.0493 57.0584 29.0493 57.1241C29.0493 57.1897 29.0493 57.2554 29.0493 57.3867C29.1172 57.3867 29.1851 57.4523 29.2529 57.4523H29.3208C29.4566 57.4523 29.5923 57.518 29.728 57.518H29.7959H29.8638C29.8638 57.5837 29.9317 57.6493 29.9317 57.715C29.9317 58.1089 29.9995 58.4372 29.9995 58.6998V59.0281V59.6847V60.2756V60.4726C29.9995 61.2605 29.9995 61.7857 29.9995 61.9827V62.1796C29.9995 62.5079 29.9995 63.0332 29.9995 63.6898L29.9317 65.5282C29.7959 65.5938 29.728 65.5938 29.6602 65.6595L29.0493 65.7908C29.0493 65.9878 29.0493 66.1847 29.0493 66.316C29.4566 66.316 29.7959 66.316 29.9995 66.2504C29.9995 66.2504 30.1353 66.2504 30.271 66.2504H30.4068C30.6783 66.2504 30.9498 66.2504 31.0855 66.316L31.7642 66.3817H31.8321C31.9 66.3817 31.9679 66.3817 32.0357 66.3817C32.1036 66.3817 32.2394 66.3817 32.3072 66.3817C32.3072 66.2504 32.3072 66.1847 32.3072 66.1191C32.3072 66.0534 32.3072 65.9878 32.3072 65.9221C32.3072 65.9221 32.2394 65.8564 32.1715 65.8564C32.1715 65.8564 32.1036 65.8564 32.1036 65.7908L31.357 65.5938L31.2891 65.5282C31.2891 65.3968 31.2891 65.2655 31.2891 65.1342V62.8362C31.2891 62.7706 31.2891 62.7049 31.2891 62.5736V62.5079V61.9827C31.357 61.917 31.4249 61.917 31.4928 61.917H31.6285C31.6964 61.917 31.7642 61.917 31.8321 61.917H31.9H31.9679H32.0357L34.2756 61.9827C34.4113 61.9827 34.547 61.9827 34.6828 61.9827C34.6828 62.311 34.6828 62.6393 34.7507 62.9019V63.4928C34.7507 64.412 34.7507 65.0686 34.6828 65.4625C34.6149 65.4625 34.5471 65.5282 34.5471 65.5282L34.1398 65.5938L33.8004 65.7251C33.8004 65.7908 33.7326 65.9878 33.7326 66.1847C33.8004 66.1847 33.8683 66.2504 33.8683 66.2504C34.2756 66.1847 34.6149 66.1847 34.8864 66.1847C35.4973 66.1847 35.9045 66.1847 36.176 66.2504C36.3796 66.2504 36.5832 66.316 36.719 66.316C36.719 66.316 36.7869 66.316 36.9226 66.316V65.7908C36.7869 65.6595 36.5154 65.5938 36.2439 65.4625C36.176 65.4625 36.1081 65.3968 36.0403 65.3968C36.0403 65.1999 36.0403 65.0029 36.0403 64.8059V63.9524V62.9019C36.0403 62.2453 36.0403 61.7857 36.0403 61.5887V60.6695V59.9473V59.0281C36.0403 59.0281 36.0403 58.8968 36.0403 58.6342V58.4372C36.1081 58.4372 36.1081 58.3715 36.1081 58.2402Z" fill="#666666"/>
<path d="M38.959 66.1846H39.8414C40.2486 66.2503 40.4522 66.2503 40.5201 66.3159C40.588 66.3159 40.6559 66.3159 40.6559 66.3159C40.6559 66.3159 40.7237 66.3159 40.8595 66.3159H40.9274C40.9274 66.1846 40.9274 66.1189 40.9274 66.0533C40.9274 65.922 40.9274 65.8563 40.9274 65.6594C40.7916 65.5937 40.6559 65.5937 40.6559 65.5937C40.5201 65.5937 40.3165 65.528 40.1129 65.4624C40.1129 65.3967 40.1129 65.3311 40.1129 65.2654V65.0028V63.5583V62.5735V60.6694C40.1129 60.2098 40.1129 59.6189 40.1129 58.7654C40.1129 58.634 40.1129 58.4371 40.1129 58.2401C40.1129 57.9775 40.1129 57.8462 40.1129 57.7148C40.2486 57.6492 40.3844 57.5835 40.5201 57.5179C40.6559 57.4522 40.8595 57.3866 40.9952 57.3209C40.9952 57.1896 40.9952 57.0583 40.9952 56.9926C40.9952 56.927 40.9952 56.8613 40.9952 56.73C40.9274 56.73 40.7916 56.73 40.5201 56.7956C40.1129 56.8613 39.7735 56.8613 39.5699 56.8613C39.502 56.8613 39.4341 56.8613 39.2305 56.8613L37.8052 56.7956V57.4522C37.873 57.4522 37.873 57.4522 38.0088 57.4522C38.2803 57.4522 38.5518 57.5179 38.6875 57.6492C38.6875 57.7805 38.6875 57.8461 38.7554 57.9118V58.2401V59.0936V59.4876V60.4724C38.7554 60.4724 38.7554 60.9977 38.7554 61.9826V62.3765V64.0179V64.8715C38.7554 65.1341 38.7554 65.3311 38.6875 65.528C38.5518 65.5937 38.416 65.725 38.2124 65.7907C38.0767 65.8563 37.9409 65.8563 37.873 65.922V66.4472C37.9409 66.4472 38.0767 66.4472 38.2803 66.3816C38.5518 66.2503 38.8233 66.1846 38.959 66.1846Z" fill="#666666"/>
<path d="M49.4793 56.7958C49.4114 56.7958 49.3435 56.7958 49.2756 56.7958L48.1897 56.8614L47.2394 56.9271H47.1037V57.3867C47.1716 57.4523 47.3073 57.518 47.5109 57.5837C47.7824 57.6493 47.9182 57.715 47.9861 57.8463C48.0539 57.9119 48.0539 58.1089 48.0539 58.4372C48.0539 58.5029 48.0539 58.8968 48.1218 59.5534C48.1218 59.8817 48.1218 60.2756 48.1218 60.6695C48.1218 61.0635 48.1218 61.3918 48.1218 61.7201C48.1218 61.9827 48.1218 62.3766 48.1897 62.9019V63.7554V63.9524C46.2213 60.9978 45.0675 59.2907 44.7281 58.7655C44.3888 58.2402 43.9815 57.715 43.5064 56.9927C43.4385 56.9927 43.3707 56.9927 43.3707 56.9927C43.3707 56.9927 43.2349 56.9927 43.0992 56.9927C42.8956 56.9927 42.8277 56.9927 42.7598 56.9927C42.7598 56.9927 42.6919 56.9927 42.6241 56.9927C42.4204 56.9927 42.3526 56.9927 42.2847 56.9927C42.2168 56.9927 42.0811 56.9927 41.8775 56.9927H41.7417H41.4023V57.518C41.7417 57.5837 41.9453 57.6493 42.0811 57.715C42.2168 57.7806 42.3526 57.9119 42.4883 58.1089C42.5562 58.1746 42.5562 58.3059 42.6241 58.3715C42.6919 58.5685 42.6919 58.9625 42.6919 59.5534V61.0635V63.4271V63.8211C42.6919 64.018 42.6919 64.4776 42.6919 65.2655C42.6919 65.5282 42.6241 65.7251 42.6241 65.7908C42.5562 65.8564 42.4204 65.8564 42.1489 65.8564C42.0132 65.8564 41.9453 65.8564 41.9453 65.8564C41.8775 65.8564 41.8096 65.8564 41.7417 65.9221C41.7417 66.0534 41.7417 66.1191 41.7417 66.1847C41.7417 66.2504 41.7417 66.3817 41.7417 66.4474C41.8096 66.4474 41.8775 66.4474 41.8775 66.4474C41.8775 66.4474 42.0132 66.4474 42.1489 66.4474C42.3526 66.4474 42.6919 66.3817 43.167 66.3817C43.71 66.4474 44.0494 66.513 44.1851 66.513H44.3888V65.9221C44.3209 65.9221 44.3209 65.8564 44.253 65.8564C43.8458 65.7908 43.5743 65.7908 43.4385 65.7251C43.4385 65.6595 43.3707 65.5282 43.3707 65.5282C43.3707 65.4625 43.3707 65.3968 43.3707 65.2655C43.3707 64.8059 43.3028 64.3463 43.3028 63.9524V62.9675V62.4423C43.3028 62.2453 43.3028 62.114 43.3028 61.917L43.0992 59.0938L43.9137 60.1443C44.253 60.6039 44.5924 61.1291 44.9996 61.7201L45.6105 62.6393L46.425 63.8867L47.6467 65.6595L48.2575 66.5787H48.8005V66.1847C48.8005 66.1191 48.8005 66.0534 48.8005 65.8564V65.4625V65.0686V64.1494C48.8005 64.0837 48.8005 63.9524 48.8005 63.7554L48.7327 61.1948C48.7327 60.9978 48.7327 60.8665 48.7327 60.7352C48.7327 60.3413 48.6648 59.7503 48.6648 59.0281C48.6648 58.6998 48.6648 58.5029 48.6648 58.4372C48.6648 58.2402 48.6648 58.1746 48.6648 58.1089C48.6648 57.9776 48.6648 57.9119 48.7327 57.8463C48.7327 57.8463 48.8005 57.715 49.0041 57.5837C49.0041 57.5837 49.1399 57.518 49.3435 57.4523C49.4114 57.4523 49.4793 57.3867 49.5471 57.321L49.4793 56.7958Z" fill="#666666"/>
<path d="M56.6062 61.8584H56.2668H55.5202C55.3845 61.8584 55.3166 61.8584 55.2487 61.8584C54.9772 61.8584 54.7057 61.7927 54.2985 61.7927C54.2985 61.7927 54.2306 61.7927 54.1627 61.8584C54.1627 61.9897 54.0949 62.0554 54.0949 62.121C54.0949 62.121 54.0949 62.1867 54.0949 62.2523C54.0949 62.318 54.1627 62.318 54.2985 62.3837L54.7057 62.5806C54.8415 62.6463 54.9093 62.6463 54.9093 62.7119C54.9093 62.7119 54.9772 62.7776 54.9772 62.8433C54.9772 63.0402 54.9772 63.3685 54.9772 63.8938C54.9772 64.419 54.9772 64.813 54.9093 65.0756C54.9093 65.2069 54.8415 65.3382 54.7736 65.4039C54.7057 65.5352 54.57 65.6009 54.5021 65.6665C54.2306 65.7322 54.027 65.7978 53.8234 65.7978C53.4161 65.7978 53.0089 65.6009 52.6695 65.2726C52.3302 64.8786 52.1265 64.419 51.9229 63.7625C51.7872 63.1059 51.6514 62.4493 51.6514 61.7927C51.6514 60.3483 51.855 59.2321 52.2623 58.5099C52.6695 57.7877 53.1446 57.3937 53.6876 57.3937C53.9591 57.3937 54.2306 57.4594 54.4342 57.5907C54.7057 57.7877 54.9772 57.9846 55.1808 58.3129C55.2487 58.4442 55.4523 58.8382 55.7238 59.3634C55.7917 59.4291 55.9275 59.4291 56.0632 59.4291C56.0632 59.2978 56.0632 59.2321 56.0632 59.1665C56.0632 58.9695 56.0632 58.6412 55.9953 58.2473C55.9953 57.8533 55.9275 57.525 55.9275 57.3937C55.7238 57.1968 55.3845 56.9998 55.0451 56.8685C54.7057 56.7372 54.2985 56.6715 53.9591 56.6715C53.8234 56.6715 53.6876 56.6058 53.6198 56.6058C53.0768 56.6058 52.6017 56.7372 52.1944 56.9998C51.7193 57.2624 51.3799 57.5907 51.1084 58.0503C50.8369 58.5099 50.5654 58.9695 50.4297 59.4947C50.2261 60.217 50.0903 60.9392 50.0903 61.6614C50.0903 62.318 50.1582 62.9746 50.2939 63.5655C50.4297 64.0251 50.5654 64.419 50.7691 64.813C50.9727 65.2069 51.2442 65.5352 51.5835 65.7978C51.7872 65.9948 52.0587 66.1261 52.398 66.2574C52.7374 66.3887 53.0768 66.3887 53.5519 66.3887C54.1627 66.3887 54.7057 66.3231 55.1808 66.1261C55.656 65.9291 55.9275 65.7978 56.0632 65.6665C56.0632 65.6009 56.1311 65.5352 56.1311 65.3382C56.1311 65.2726 56.1311 65.0756 56.1311 64.7473C56.1311 64.616 56.1311 64.2877 56.1311 63.6968C56.1311 63.1715 56.1311 62.9089 56.1311 62.8433C56.1311 62.7776 56.1311 62.7119 56.1989 62.6463C56.1989 62.6463 56.2668 62.5806 56.4026 62.515C56.5383 62.4493 56.6062 62.3837 56.6741 62.318C56.6741 62.2523 56.7419 62.1867 56.7419 62.121C56.7419 62.0554 56.7419 61.9241 56.7419 61.7927C56.7419 61.8584 56.6741 61.8584 56.6062 61.8584Z" fill="#666666"/>
<path d="M63.6648 56.3987C63.5969 56.3987 63.529 56.3987 63.529 56.3987H63.3254C63.3254 56.4643 63.2575 56.53 63.2575 56.5957C63.1897 56.7926 63.1897 56.9239 63.1218 56.9239L62.8503 56.9896H61.3571H60.2711H59.6602H59.5924C59.3888 56.9896 59.1851 56.9896 58.9136 56.9896C58.5064 56.9896 58.3028 56.9896 58.2349 56.9896C58.167 56.9239 58.0992 56.7926 58.0313 56.53C58.0313 56.53 58.0313 56.4643 57.9634 56.3987H57.6919C57.6919 56.4643 57.624 56.6613 57.5562 56.9896C57.3526 57.9745 57.2168 58.5654 57.1489 58.8936C57.2168 58.9593 57.2847 59.0906 57.4204 59.1563C57.4883 59.1563 57.4883 59.0906 57.624 58.8936C57.8955 58.3684 58.0992 58.0401 58.2349 57.9088C58.3707 57.8431 58.5743 57.7775 58.8458 57.7775C59.3887 57.7775 59.7281 57.7775 59.8639 57.7775C59.8639 57.7775 59.9317 57.7775 59.9317 57.8431C59.9317 57.8431 59.9317 57.9088 59.9996 57.9745C59.9996 58.1058 59.9996 58.5654 59.9996 59.3533V62.1108C59.9996 63.3583 59.9996 64.3432 59.9996 64.9341C59.9996 65.0654 59.9996 65.1967 59.9317 65.328C59.796 65.3937 59.5924 65.525 59.253 65.6563C59.0494 65.722 58.9136 65.8533 58.8458 65.9846V66.0503V66.2473C58.8458 66.3129 58.8458 66.3129 58.8458 66.4442C58.9136 66.4442 59.0494 66.4442 59.1851 66.4442C59.6602 66.3786 59.9317 66.3786 60.0675 66.3786C60.6783 66.3786 61.0856 66.3786 61.3571 66.4442C61.5607 66.5099 61.9001 66.5099 62.2394 66.5099C62.3073 66.5099 62.3752 66.5099 62.4431 66.5099C62.4431 66.4442 62.4431 66.3786 62.4431 66.3129C62.4431 66.2472 62.4431 66.1816 62.4431 65.9846C62.3752 65.919 62.3073 65.919 62.1716 65.8533C61.9679 65.7877 61.8322 65.722 61.8322 65.722C61.6964 65.722 61.6286 65.6563 61.5607 65.6563C61.4928 65.4594 61.4928 65.2624 61.4928 64.8685V63.8836V61.5856V59.4189V58.4341C61.4928 58.3027 61.4928 58.1714 61.4928 57.9745C61.6286 57.9745 61.7643 57.9745 61.8322 57.9745C62.443 57.9745 62.7824 57.9745 62.8503 58.0401C62.9182 58.0401 62.9182 58.1058 62.986 58.1714C62.986 58.2371 63.0539 58.4341 63.1897 58.7623C63.2575 59.1563 63.3933 59.4189 63.4612 59.6159C63.5969 59.6159 63.6648 59.5502 63.8005 59.4846C63.8005 59.4189 63.8005 59.2876 63.8005 59.1563V58.7623V58.1058C63.6648 57.2522 63.6648 56.727 63.6648 56.3987Z" fill="#666666"/>
<path d="M69.5021 57.1967C69.027 56.8028 68.4162 56.6058 67.7374 56.6058C67.3302 56.6058 66.9908 56.6715 66.6514 56.8028C66.3121 56.9341 66.0406 57.1311 65.7012 57.3937C65.3619 57.6564 65.1582 57.9846 64.9546 58.3786C64.751 58.7725 64.6152 59.1665 64.4795 59.5604C64.3438 60.1513 64.2759 60.8079 64.2759 61.3988C64.2759 61.9241 64.3438 62.318 64.4116 62.7119C64.5474 63.3029 64.6153 63.6968 64.6831 63.9594C64.8189 64.3534 65.0225 64.7473 65.2261 65.0099C65.4297 65.3382 65.7012 65.6665 66.1085 65.9291C66.1085 65.9291 66.2442 65.9948 66.5157 66.1261C66.6515 66.1918 66.7872 66.2574 66.9908 66.2574C67.2623 66.3231 67.4659 66.3231 67.7374 66.3231C68.8234 66.3231 69.7058 65.7978 70.3845 64.813C70.9953 63.8281 71.3347 62.6463 71.3347 61.2675C71.3347 60.3483 71.1311 59.4291 70.7917 58.5755C70.3845 58.1159 69.9773 57.5907 69.5021 57.1967ZM69.3664 64.1564C69.1628 64.7473 68.9591 65.1413 68.6198 65.4039C68.3483 65.6665 68.0089 65.7978 67.6696 65.7978C67.4659 65.7978 67.3302 65.7322 67.1266 65.6665C66.9229 65.5352 66.7872 65.4695 66.7193 65.3382C66.5157 65.0756 66.38 64.8786 66.3121 64.616C66.2442 64.4847 66.1763 64.0907 66.0406 63.4342C65.9727 63.2372 65.9727 62.9746 65.9048 62.6463C65.9048 62.515 65.9048 62.3837 65.9048 62.318C65.9048 62.121 65.837 61.8584 65.837 61.3988C65.837 60.6766 65.9048 60.1513 65.9727 59.6261C66.0406 59.1665 66.1763 58.7069 66.38 58.3129C66.5157 58.0503 66.6515 57.8533 66.8551 57.6564C67.0587 57.4594 67.3302 57.3281 67.6017 57.3281C68.1447 57.3281 68.5519 57.525 68.8913 57.9846C69.2306 58.3786 69.4343 59.0351 69.57 59.823C69.57 59.9543 69.6379 60.0857 69.6379 60.1513V60.2826C69.7058 60.9392 69.7058 61.4645 69.7058 61.8584C69.6379 62.8433 69.57 63.5655 69.3664 64.1564Z" fill="#666666"/>
<path d="M79.615 56.7958L78.529 56.8614L77.5788 56.9271H77.443V57.3867C77.5109 57.4523 77.6467 57.518 77.8503 57.5837C78.1218 57.6493 78.2575 57.715 78.3254 57.8463C78.3933 57.9119 78.3933 58.1089 78.3933 58.4372C78.3933 58.5029 78.3933 58.8968 78.4611 59.5534C78.4611 59.8817 78.4611 60.2756 78.529 60.6695C78.529 61.0635 78.529 61.3918 78.529 61.7201C78.529 61.9827 78.529 62.3766 78.5969 62.9019V63.7554V63.9524C76.6286 60.9978 75.4747 59.2907 75.1354 58.7655C74.796 58.2402 74.3888 57.715 73.9136 56.9927C73.8458 56.9927 73.7779 56.9927 73.7779 56.9927C73.7779 56.9927 73.6422 56.9927 73.5064 56.9927C73.3028 56.9927 73.2349 56.9927 73.167 56.9927C73.167 56.9927 73.0992 56.9927 73.0313 56.9927C72.8277 56.9927 72.7598 56.9927 72.6919 56.9927C72.6241 56.9927 72.4883 56.9927 72.2847 56.9927H72.1489H71.7417V57.518C72.0811 57.5837 72.2847 57.6493 72.4204 57.715C72.5562 57.7806 72.6919 57.9119 72.8277 58.1089C72.8955 58.1746 72.8955 58.3059 72.9634 58.3715C73.0313 58.5685 73.0313 58.9625 73.0313 59.5534V61.0635V63.4271V63.8211C73.0313 64.0181 73.0313 64.4777 73.0313 65.2656C73.0313 65.5282 72.9634 65.7251 72.9634 65.7908C72.8955 65.8565 72.7598 65.8565 72.4883 65.8565C72.3526 65.8565 72.2847 65.8565 72.2847 65.8565C72.2168 65.8565 72.1489 65.8565 72.0811 65.9221C72.0811 66.0534 72.0811 66.1191 72.0811 66.1848C72.0811 66.2504 72.0811 66.3817 72.0811 66.4474C72.1489 66.4474 72.2168 66.4474 72.2168 66.4474C72.2168 66.4474 72.3526 66.4474 72.4883 66.4474C72.6919 66.4474 73.0313 66.3817 73.5064 66.3817C74.0494 66.4474 74.3888 66.513 74.5245 66.513H74.7281V65.9221C74.6602 65.9221 74.6602 65.8565 74.5924 65.8565C74.1851 65.7908 73.9136 65.7908 73.7779 65.7251C73.7779 65.6595 73.71 65.5282 73.71 65.5282C73.71 65.4625 73.71 65.3969 73.71 65.2656C73.71 64.806 73.6422 64.3464 73.6422 63.9524V62.9676V62.4423C73.6422 62.2453 73.6422 62.114 73.6422 61.917L73.5743 59.2251L74.3888 60.2756C74.7281 60.7352 75.0675 61.2605 75.4747 61.8514L76.0856 62.7706L76.9001 64.0181L78.1218 65.7908L78.7326 66.71H79.2756V66.3161C79.2756 66.2504 79.2756 66.1848 79.2756 65.9878V65.5938V65.1999V64.2807C79.2756 64.215 79.2756 64.0837 79.2756 63.8868L79.2078 61.3261C79.2078 61.1291 79.2078 60.9978 79.2078 60.8665C79.2078 60.4726 79.1399 59.8817 79.1399 59.1594C79.1399 58.8311 79.1399 58.6342 79.1399 58.5685C79.1399 58.3715 79.1399 58.3059 79.1399 58.2402C79.1399 58.1089 79.1399 58.0433 79.2078 57.9776C79.2078 57.9776 79.2756 57.8463 79.4792 57.715C79.4792 57.715 79.615 57.6493 79.8186 57.5837C79.8865 57.5837 79.9544 57.518 80.0222 57.4523V56.9271C79.7507 56.7958 79.6829 56.7958 79.615 56.7958Z" fill="#666666"/>
<path d="M85.8595 66.3137C86.0631 66.2481 86.2667 66.0511 86.4703 65.8541C86.674 65.6572 86.8097 65.4602 86.9455 65.3289C87.0812 65.1319 87.1491 64.8693 87.2169 64.6723C87.3527 64.2127 87.4206 63.7531 87.4206 63.2935C87.4206 62.8996 87.3527 62.5056 87.2848 62.243C87.217 61.9804 87.0812 61.6521 86.8776 61.3894C86.7418 61.1925 86.5382 60.9298 86.2667 60.7329C85.9952 60.5359 85.7237 60.4046 85.5201 60.3389C84.9092 60.0763 84.5699 59.8137 84.3663 59.4854C84.1626 59.2228 84.0948 58.8945 84.0948 58.5662C84.0948 58.1722 84.1626 57.9096 84.3663 57.647C84.5699 57.3844 84.8414 57.253 85.1129 57.253C85.4522 57.253 85.7237 57.45 85.9952 57.844C86.131 58.0409 86.2667 58.5005 86.4025 59.1571H86.4703L86.8097 59.2228H86.8776C86.8776 59.0914 86.8776 59.0258 86.8776 58.9601C86.8776 58.6975 86.8776 58.3036 86.8097 57.7783C86.8097 57.45 86.7418 57.1874 86.7418 56.9904C86.4025 56.8591 86.1988 56.7278 85.9952 56.6621C85.6559 56.5965 85.4522 56.5308 85.3165 56.5308C84.5699 56.5308 84.0269 56.7935 83.6875 57.3187C83.3482 57.844 83.1445 58.5005 83.1445 59.2884C83.1445 59.6824 83.2124 60.0763 83.3482 60.4702C83.4839 60.8642 83.6875 61.1925 83.8911 61.4551C84.0948 61.7177 84.5699 61.9804 85.1129 62.3086C85.7237 62.6369 86.0631 62.8996 86.1988 63.0965C86.4025 63.4248 86.5382 63.7531 86.5382 64.0814C86.5382 64.344 86.4703 64.6723 86.3346 64.9349C86.1988 65.1976 86.0631 65.3945 85.7916 65.4602C85.588 65.5915 85.3844 65.6572 85.1807 65.6572C84.9771 65.6572 84.7735 65.5915 84.6377 65.5258C84.502 65.4602 84.2984 65.3289 84.2305 65.1319C84.1626 64.9349 84.0269 64.8036 83.8911 64.541C83.8233 64.4097 83.7554 64.0814 83.6196 63.5561H83.1445V63.8188C83.1445 63.9501 83.1445 64.147 83.1445 64.4753C83.1445 65.0662 83.1445 65.3945 83.1445 65.4602V65.5258C83.1445 65.5915 83.1445 65.6572 83.2124 65.6572C83.2803 65.7228 83.3482 65.7885 83.5518 65.8541L84.1626 66.1168C84.502 66.1824 84.7735 66.2481 84.9771 66.2481C85.3844 66.445 85.6559 66.445 85.8595 66.3137Z" fill="#666666"/>
<path d="M92.7824 66.3129C92.8503 66.3129 92.9181 66.3129 92.986 66.3129C92.986 66.2472 92.986 66.1816 92.986 66.1159C92.986 66.0503 92.986 65.9846 92.986 65.7876C92.9181 65.722 92.8503 65.722 92.7145 65.6563C92.5109 65.5907 92.3752 65.525 92.3752 65.525C92.2394 65.525 92.1715 65.4594 92.1037 65.4594C92.0358 65.2624 92.0358 65.0654 92.0358 64.6715V63.6866V61.3886V59.2219V58.2371C92.0358 58.1058 92.0358 57.9744 92.0358 57.7775C92.1715 57.7775 92.3073 57.7775 92.3752 57.7775C92.986 57.7775 93.3254 57.7775 93.3933 57.8431C93.4611 57.8431 93.4611 57.9088 93.529 57.9745C93.529 58.0401 93.5969 58.2371 93.7326 58.5654C93.8005 58.9593 93.9362 59.2219 94.0041 59.4189C94.1399 59.4189 94.2077 59.3532 94.3435 59.2876C94.3435 59.2219 94.3435 59.0906 94.3435 58.9593V58.5654V57.9088C94.3435 57.2522 94.3435 56.727 94.3435 56.3987C94.2756 56.3987 94.2077 56.3987 94.2077 56.3987H94.0041C94.0041 56.4643 93.9362 56.53 93.9362 56.5956C93.8684 56.7926 93.8684 56.9239 93.8005 56.9239L93.529 56.9896H92.0358H90.9498H90.339H90.2711C90.0675 56.9896 89.8638 56.9896 89.5923 56.9896C89.1851 56.9896 88.9815 56.9896 88.9136 56.9896C88.8457 56.9239 88.7779 56.7926 88.71 56.53C88.71 56.53 88.71 56.4643 88.6421 56.3987H88.3706C88.3706 56.4643 88.3028 56.6613 88.2349 56.9896C88.0313 57.9745 87.8955 58.5654 87.8276 58.8936C87.8955 58.9593 87.9634 59.0906 88.0991 59.1563C88.167 59.1563 88.167 59.0906 88.3028 58.8936C88.5743 58.3684 88.7779 58.0401 88.9136 57.9088C89.0494 57.8431 89.253 57.7775 89.5245 57.7775C90.0675 57.7775 90.4068 57.7775 90.5426 57.7775C90.5426 57.7775 90.6104 57.7775 90.6104 57.8431C90.6104 57.8431 90.6105 57.9088 90.6783 57.9745C90.6783 58.1058 90.6783 58.5654 90.6783 59.3532V62.1108C90.6783 63.3583 90.6783 64.3432 90.6783 64.9341C90.6783 65.0654 90.6783 65.1967 90.6104 65.328C90.4747 65.3937 90.2711 65.525 89.9317 65.6563C89.7281 65.722 89.5923 65.8533 89.5245 65.9846V66.0503V66.2472C89.5245 66.3129 89.5245 66.3129 89.5245 66.4442C89.5923 66.4442 89.7281 66.4442 89.8638 66.4442C90.339 66.3785 90.6104 66.3786 90.7462 66.3786C91.3571 66.3786 91.7643 66.3785 92.0358 66.4442C92.1715 66.3129 92.443 66.3129 92.7824 66.3129Z" fill="#666666"/>
<path d="M99.9094 66.2504C100.181 66.316 100.452 66.316 100.724 66.316C100.724 66.2504 100.724 66.1847 100.724 66.1847C100.724 66.1191 100.724 65.9878 100.724 65.8564C100.588 65.7908 100.452 65.7251 100.317 65.6595C100.181 65.6595 100.113 65.5938 100.045 65.5282C100.045 65.4625 99.9772 65.3968 99.9094 65.1999C99.7736 64.8059 99.7058 64.5433 99.6379 64.2807C99.5021 63.8211 99.4343 63.4928 99.3664 63.2302C99.2306 62.8362 99.0949 62.3766 98.9591 61.7857C98.8234 61.1948 98.6198 60.5382 98.4162 59.9473L97.6017 56.9271L97.5338 56.7958H97.3302C97.2623 56.7958 97.1266 56.7958 96.9908 56.7958L95.837 61.3261L94.8189 65.1999C94.751 65.4625 94.6831 65.5938 94.6153 65.6595C94.5474 65.7251 94.4116 65.7908 94.1401 65.8564C94.0044 65.9221 93.8687 65.9221 93.8008 65.9878V66.513H93.8687C94.0723 66.513 94.3438 66.513 94.5474 66.4474L94.751 66.3817C95.4976 66.4474 95.9727 66.513 96.1763 66.513C96.1763 66.4474 96.1763 66.3817 96.1763 66.316C96.1763 66.2504 96.1763 66.1191 96.1763 65.9878C95.9727 65.9221 95.837 65.9221 95.837 65.9221C95.6334 65.8564 95.4976 65.7908 95.4297 65.7251C95.3619 65.6595 95.3619 65.5938 95.3619 65.4625C95.3619 65.3968 95.3619 65.1999 95.4297 64.9372C95.6334 64.0181 95.7691 63.4271 95.837 63.2302H97.6696L98.0768 64.6746L98.2804 65.3968C98.2804 65.4625 98.2804 65.5282 98.2804 65.5938C98.2804 65.6595 98.2804 65.7251 98.2125 65.7908C98.2125 65.8564 98.0768 65.8564 97.9411 65.9221L97.3981 66.1191C97.3981 66.2504 97.3981 66.4474 97.3981 66.5787H97.6696L98.484 66.513C98.6198 66.513 98.7555 66.513 99.027 66.513C99.2985 66.1847 99.57 66.2504 99.9094 66.2504ZM97.4659 62.1797C97.3302 62.1797 96.8551 62.1797 96.1085 62.1797L96.7872 59.3564C96.8551 59.6847 96.9908 60.0786 97.1944 60.6695C97.3302 61.2605 97.4659 61.7857 97.6017 62.1797H97.4659Z" fill="#666666"/>
<path d="M107.036 56.3987C106.968 56.3987 106.9 56.3987 106.9 56.3987H106.696C106.696 56.4643 106.629 56.53 106.629 56.5957C106.561 56.7926 106.561 56.9239 106.493 56.9239L106.221 56.9896H104.728H103.642H103.031H102.963C102.76 56.9896 102.556 56.9896 102.285 56.9896C101.877 56.9896 101.674 56.9896 101.606 56.9896C101.538 56.9239 101.47 56.7926 101.402 56.53C101.402 56.53 101.402 56.4643 101.334 56.3987H101.063C101.063 56.4643 100.995 56.6613 100.927 56.9896C100.724 57.9745 100.588 58.5654 100.52 58.8936C100.588 58.9593 100.656 59.0906 100.792 59.1563C100.859 59.1563 100.859 59.0906 100.995 58.8936C101.267 58.3684 101.47 58.0401 101.606 57.9088C101.742 57.8431 101.945 57.7775 102.217 57.7775C102.76 57.7775 103.099 57.7775 103.235 57.7775C103.235 57.7775 103.303 57.7775 103.303 57.8431C103.303 57.8431 103.303 57.9088 103.371 57.9745C103.371 58.1058 103.371 58.5654 103.371 59.3533V62.1108C103.371 63.3583 103.371 64.3432 103.371 64.9341C103.371 65.0654 103.371 65.1967 103.303 65.328C103.167 65.3937 102.963 65.525 102.624 65.6563C102.42 65.722 102.285 65.8533 102.217 65.9846V66.0503V66.2473C102.217 66.3129 102.217 66.3129 102.217 66.4442C102.285 66.4442 102.42 66.4442 102.556 66.4442C103.031 66.3786 103.303 66.3786 103.439 66.3786C104.049 66.3786 104.457 66.3786 104.728 66.4442C104.932 66.5099 105.271 66.5099 105.61 66.5099C105.678 66.5099 105.746 66.5099 105.814 66.5099C105.814 66.4442 105.814 66.3786 105.814 66.3129C105.814 66.2472 105.814 66.1816 105.814 65.9846C105.746 65.919 105.678 65.919 105.543 65.8533C105.339 65.7877 105.203 65.722 105.203 65.722C105.068 65.722 105 65.6563 104.932 65.6563C104.864 65.4594 104.864 65.2624 104.864 64.8685V63.8836V61.5856V59.4189V58.4341C104.864 58.3027 104.864 58.1714 104.864 57.9745C105 57.9745 105.135 57.9745 105.203 57.9745C105.814 57.9745 106.153 57.9745 106.221 58.0401C106.289 58.0401 106.289 58.1058 106.357 58.1714C106.357 58.2371 106.425 58.4341 106.561 58.7623C106.629 59.1563 106.764 59.4189 106.832 59.6159C106.968 59.6159 107.036 59.5502 107.172 59.4846C107.172 59.4189 107.172 59.2876 107.172 59.1563V58.7623V58.1058C107.036 57.2522 107.036 56.727 107.036 56.3987Z" fill="#666666"/>
<path d="M113.891 63.6251C113.823 63.6251 113.756 63.6251 113.62 63.6251C113.484 64.216 113.28 64.6756 113.077 65.0039C112.941 65.2665 112.737 65.3978 112.534 65.5291C112.194 65.6604 111.855 65.6604 111.38 65.6604C110.701 65.6604 110.294 65.5948 110.158 65.5291C110.09 65.4635 110.023 65.3321 110.023 65.1352V63.5594C110.023 63.1655 110.023 62.7059 110.023 62.1149C110.023 62.0493 110.023 61.9836 110.023 61.8523C110.294 61.7867 110.633 61.7867 111.109 61.7867C111.516 61.7867 111.787 61.7867 111.855 61.8523C111.923 61.918 111.991 61.9836 112.059 62.0493C112.127 62.1806 112.194 62.4432 112.262 62.9028C112.33 63.1655 112.33 63.2968 112.33 63.3624H112.67V63.2311C112.67 63.0998 112.67 62.9028 112.67 62.5745C112.67 62.3119 112.67 62.0493 112.67 61.918C112.67 61.8523 112.67 61.721 112.67 61.5897C112.67 61.4584 112.67 61.1301 112.67 60.6048C112.67 60.4079 112.67 60.0796 112.67 59.62H112.398H112.33C112.262 60.2109 112.194 60.6048 112.127 60.6705C112.059 60.8018 112.059 60.9331 111.991 60.9988C111.923 61.0644 111.787 61.1301 111.516 61.1301C111.244 61.1957 110.837 61.1957 110.294 61.1957C110.226 61.1957 110.158 61.1957 110.09 61.1957V60.2766V59.0291C110.09 58.1755 110.09 57.7159 110.09 57.5846C110.43 57.5846 110.769 57.5846 111.176 57.5846C111.516 57.5846 111.855 57.5846 112.127 57.6503C112.262 57.6503 112.398 57.6503 112.398 57.7159C112.534 57.7159 112.602 57.7159 112.737 57.7816C112.873 57.9786 112.941 58.2412 113.077 58.4382L113.28 58.9634C113.348 59.1604 113.348 59.2917 113.416 59.423C113.484 59.423 113.552 59.423 113.552 59.423H113.756C113.756 59.3574 113.756 59.2917 113.756 59.2917V58.9634V57.4533C113.756 57.2563 113.756 57.125 113.688 57.0594C113.28 56.9937 113.009 56.928 112.805 56.928H111.923C111.312 56.928 110.701 56.928 109.955 56.9937C109.48 56.9937 109.14 57.0594 109.072 57.0594C108.733 57.0594 108.461 57.0594 108.19 56.9937C108.054 56.9937 107.918 56.928 107.715 56.928V57.519C107.783 57.519 107.851 57.519 107.918 57.519C108.122 57.519 108.258 57.5846 108.461 57.6503C108.529 57.6503 108.597 57.7159 108.597 57.7159C108.665 57.7159 108.733 57.7816 108.733 57.8472C108.733 57.9129 108.733 57.9786 108.733 57.9786L108.801 58.8978V59.7513V60.9331V61.7867V64.5443V64.7412C108.801 64.9382 108.801 65.0695 108.801 65.1352C108.801 65.3321 108.801 65.5291 108.733 65.6604C108.597 65.7261 108.394 65.8574 108.054 65.9231C107.851 65.9231 107.715 65.9887 107.715 65.9887V66.514H108.326H108.529C109.072 66.4483 109.547 66.4483 109.955 66.4483C110.769 66.4483 111.38 66.4483 111.991 66.514C112.805 66.5796 113.28 66.5796 113.484 66.5796C113.62 66.5796 113.756 66.5796 113.959 66.5796L114.027 65.7261L114.231 64.3473V64.1503C114.231 64.0847 114.231 63.9533 114.231 63.822C114.027 63.6251 113.959 63.6251 113.891 63.6251Z" fill="#666666"/>
</g>
<defs>
<clipPath id="clip0">
<rect width="120" height="88.5714" fill="white"/>
</clipPath>
</defs>
</svg>
