<svg width="120" height="92" viewBox="0 0 120 92" fill="none" xmlns="http://www.w3.org/2000/svg">
<g clip-path="url(#clip0)">
<path fill-rule="evenodd" clip-rule="evenodd" d="M7.36408 49.6723C7.97189 49.4804 8.6226 49.3762 9.29854 49.3762H24.5527L25.5882 44.6019L25.7919 43.579L28.3032 40.1008L27.9638 38.1913L28.6425 39.0778L28.914 37.4411L29.3213 38.0549L29.2534 39.6234L29.8643 39.2824L29.7285 37.9867L30.543 37.9185L30.4751 36.8955L31.2217 36.4863L30.4751 31.3032L29.6606 31.0986L29.7964 33.0082L29.3213 32.1898L28.9819 33.1446L28.7104 31.8488L29.2534 31.1668L28.8462 30.553L27.8959 30.9622L27.4887 31.6442L28.2353 33.2128L27.4887 33.9629L27.6244 33.281L27.0136 33.0082L26.8778 31.7124L25.9276 31.8488L25.6561 33.1446L24.9095 31.6442L23.2805 30.8258L22.9412 31.5078L9.63801 30.8258L9.09502 30.212L3.8009 28.507L0 27.6205L0.678733 28.507L1.08597 37.2365L5.49774 43.3062L7.36408 49.6723ZM25.4421 49.3762H29.2194L29.3213 48.7621L29.8643 48.6939L29.9157 49.3762H31.3937L32.3077 48.4211L32.0782 49.3762H32.715L32.7149 49.3758L33.1222 48.9667L33.5973 44.7383L33.19 43.7835L31.0181 44.9429L31.5611 43.9881L30.9502 43.7153L30.8824 42.7606L31.4932 42.6924L31.9683 43.579L32.3077 43.238L31.2896 40.1008L33.8009 39.146L33.3258 37.8503L33.4615 37.1683L32.9864 36.0089L31.4932 34.7813L31.5611 35.8043L32.2398 36.6909L32.3077 37.7139L31.4932 37.1001L30.2715 39.487L29.7964 41.533L27.7602 43.4426L25.3846 48.2165L25.4525 49.2394L28.8462 47.5345L25.4421 49.3762ZM35.2409 49.3762H113.688C113.877 49.3762 114.064 49.3843 114.249 49.4003L110.905 0L27.7602 9.75241L27.8281 10.3662L27.1493 10.1616L27.0814 11.1164L27.8281 11.0482L27.8959 11.662L27.4887 12.0712L28.371 13.2987L28.5068 14.5945L29.457 14.7309L29.5928 15.7539L30 15.9585L30.2715 14.6627L32.1041 15.4811L31.5611 15.7539L32.1719 16.0949L32.0362 17.7999L32.5113 18.0044L32.7828 19.3002L32.2398 19.9822L32.6471 22.301L31.0181 22.0964L30.7466 21.5508L29.3891 21.96L30.2715 22.5738L30.1357 23.5285L31.6968 23.3239L32.9864 25.2335L34.4796 25.9837L34.9548 30.8258L37.2624 31.8488L36.9231 32.599L37.1267 33.2128L35.9729 33.6901L35.905 35.3269L35.362 36.3499L35.2941 40.6464L34.9548 40.9192L36.0407 42.4878L35.2941 43.1698L35.8371 45.7613L36.3122 46.3751L36.6516 48.2165L35.2409 49.3762ZM73.6282 81.566H30.5963L31.629 83.4752L33.3258 91.1134L40.1131 92L44.8643 89.1357L45.2715 88.4537L55.3167 87.6353L55.9955 88.5219L59.8643 87.4307L63.3937 84.771L70.8597 82.9296L73.6282 81.566ZM65.837 18.8901L65.9049 18.6173L66.2442 18.4809C66.38 18.4127 66.5157 18.2763 66.7194 18.0035C66.8551 17.9694 66.9739 17.9182 67.0927 17.8671C67.2114 17.8159 67.3302 17.7648 67.466 17.7307C67.6696 17.5261 67.7375 17.4579 67.8053 17.4579L68.0768 17.5261H68.1447C68.2126 17.5261 68.2126 17.4579 68.2126 17.4579C68.2722 17.378 68.3202 17.3098 68.36 17.2533L68.36 17.2532C68.456 17.1169 68.504 17.0487 68.5519 17.0487L68.9592 17.1851L69.2307 17.1169C69.2307 17.1169 69.2985 17.1169 69.3664 17.1851C69.4343 17.2533 69.5022 17.2533 69.57 17.2533H69.6379L70.0452 16.9805L70.5203 17.0487L70.8596 16.9805L71.3347 17.0487C71.3347 17.0487 71.4705 17.0487 71.5384 16.9805C71.6062 16.9123 71.6741 16.9123 71.742 16.9123L71.9456 16.9805H72.0135L73.0994 16.7759L73.3709 16.8441C73.4099 16.8049 73.4265 16.7882 73.4336 16.7682C73.4388 16.7534 73.4388 16.7367 73.4388 16.7077C73.6424 16.7759 73.7782 16.7759 73.7782 16.7759H73.8461L73.9818 16.7077L74.5927 16.7759C74.8642 16.7759 75.1357 16.6395 75.4071 16.5031C75.475 16.5713 75.6108 16.6395 75.6786 16.6395C75.7126 16.6736 75.7465 16.6907 75.7804 16.7077C75.8144 16.7248 75.8483 16.7418 75.8823 16.7759C75.8823 16.8441 75.9501 16.8441 76.018 16.8441L77.647 16.7077C77.6889 16.7077 77.7309 16.7338 77.7888 16.7698C77.8247 16.792 77.8666 16.8181 77.9185 16.8441L78.4614 16.7759L78.8008 16.9123L79.1402 16.8441C79.192 16.8702 79.234 16.8962 79.2698 16.9185C79.3278 16.9545 79.3697 16.9805 79.4117 16.9805L79.751 16.9123H80.4298C80.6334 17.0487 80.7691 17.1169 80.7691 17.1169H81.1085C81.1424 17.1169 81.1764 17.0998 81.2103 17.0828C81.2442 17.0657 81.2782 17.0487 81.3121 17.0487L81.5157 16.9805C81.5836 16.9805 81.6515 17.0487 81.7194 17.1169L81.8551 17.1851H82.1945L82.7375 17.4579C83.009 17.5943 83.2126 17.6625 83.2126 17.6625C83.2126 17.6625 83.2804 17.6625 83.4162 17.5943C83.6877 17.7989 83.9592 17.9353 84.2307 18.0035C84.5022 18.0717 84.7058 18.1399 84.9094 18.2763L85.1809 18.2081C85.3845 18.4127 85.5203 18.5491 85.656 18.6173C85.7918 18.6855 85.8596 18.7537 85.9275 18.8219C86.1311 18.8219 86.199 18.8901 86.199 18.8901C86.4026 19.2311 86.5384 19.4357 86.5384 19.4357C86.3347 20.1858 85.9954 20.7314 85.5203 20.8678L84.2985 21.2088L84.1247 21.2722L84.0499 21.2994C83.4602 21.5136 83.1288 21.634 83.009 21.7544C82.9678 21.7751 82.9205 21.802 82.8689 21.8313C82.7499 21.899 82.6079 21.9797 82.466 22.0272C81.6515 22.1636 81.2442 22.3 81.2442 22.4364C81.2442 22.5046 81.3121 22.5728 81.3121 22.5728L80.9728 22.5046C80.9049 22.5046 80.7691 22.5046 80.5655 22.5728C80.3619 22.641 80.2261 22.7774 80.2261 22.9138C80.1973 22.9138 80.1808 22.9138 80.166 22.9086C80.146 22.9015 80.1295 22.8848 80.0904 22.8456C80.0904 22.7774 80.0225 22.7092 79.9547 22.7092C79.5474 22.7092 79.3438 22.7774 79.3438 22.982C79.2759 23.1866 79.208 23.2548 79.0723 23.2548H79.0044C79.0044 23.1866 78.9366 23.1184 78.8687 23.1184L78.5972 23.1866H78.4614C78.1221 23.2548 77.9184 23.2548 77.8506 23.2548L76.6289 23.5958H76.2216L74.932 24.005C74.1176 24.005 73.7103 24.2096 73.5746 24.4824L73.0994 24.6188L73.1673 24.4824L73.2352 24.0732L73.7782 22.5046L73.8335 22.3555L73.8335 22.3555L73.8336 22.3554C74.0078 21.8849 74.1366 21.5371 74.3212 21.4134C74.5248 21.277 74.5927 20.936 74.5927 20.3904C74.5927 20.1858 74.5248 19.9812 74.389 19.7766C74.3372 19.6725 74.2854 19.5883 74.2412 19.5163L74.2411 19.5162L74.241 19.5161C74.1694 19.3996 74.1175 19.3154 74.1175 19.2311C74.1175 19.0947 73.9139 18.8901 73.5067 18.6855C73.0994 18.4809 72.828 18.3445 72.6922 18.3445C71.9456 18.3445 71.6062 18.6173 71.6062 19.1629C71.6062 19.5039 71.6741 19.7766 71.8777 19.9812C71.8519 20.0333 71.826 20.0754 71.8038 20.1113L71.8037 20.1115C71.7679 20.1697 71.742 20.2119 71.742 20.254L71.9456 20.7996C71.742 20.8678 71.6741 20.8678 71.6062 20.8678C71.5384 20.8678 71.4705 21.0724 71.3347 21.5498C71.199 21.959 71.0632 22.3 70.9275 22.5046C70.8907 22.6156 70.8339 22.7065 70.7896 22.7774C70.7523 22.8371 70.7239 22.8826 70.7239 22.9138C70.656 23.1866 70.4524 23.5958 70.1809 24.1414C70.0452 24.2096 69.8415 24.5506 69.7058 25.0279C69.5022 25.5053 69.2985 25.7781 69.0949 25.8463C68.8234 25.8463 68.6198 25.9145 68.4841 25.9827L68.2126 26.2555L67.8732 26.3237C67.6017 26.4601 67.3981 26.5283 67.1266 26.5965C66.9628 26.6514 66.6235 26.8385 66.1085 27.1226L66.1058 27.1241L66.1026 27.1259C65.9789 27.1941 65.8451 27.2679 65.7013 27.3467C64.9547 27.8241 64.6153 28.1651 64.6153 28.4379C64.6153 28.9835 64.9547 29.4609 65.7013 29.87L65.7691 30.0746C65.7691 30.211 65.9049 30.4156 66.1764 30.552C66.4479 30.6884 66.5836 30.893 66.5836 31.0294C66.5836 31.1293 66.5109 31.2291 66.4186 31.3557L66.4185 31.3559L66.4183 31.3562C66.3846 31.4024 66.3484 31.4522 66.3121 31.5068C66.1085 31.7114 65.9727 31.9842 65.9049 32.257C65.837 32.5298 65.7691 32.7344 65.7013 32.8708L65.1583 33.6892L64.0723 35.7351C63.7329 36.4171 63.5972 36.8263 63.5972 36.8945L63.5293 37.3719C63.5034 37.476 63.4775 37.5603 63.4554 37.6323L63.4553 37.6324C63.4195 37.7489 63.3936 37.8332 63.3936 37.9175C63.3936 38.0539 63.4614 38.1903 63.5972 38.3949C63.634 38.5059 63.6908 38.5968 63.7351 38.6677C63.7724 38.7274 63.8008 38.7729 63.8008 38.8041C64.0044 39.4861 64.3438 39.8953 64.751 39.9635C65.1583 39.9635 65.3619 40.0317 65.4976 40.0998L65.9049 40.0317C66.1764 40.0317 66.3121 39.8271 66.38 39.4861L66.5157 38.1903L66.6515 37.4401L67.5338 35.3941C67.6017 34.985 67.7375 34.644 67.9411 34.5076C67.9411 34.303 68.0089 34.0984 68.2126 33.8938L68.2804 33.7574C68.3483 33.621 68.4162 33.4846 68.5519 33.4164C68.5859 33.3482 68.6367 33.28 68.6876 33.2119L68.6877 33.2118C68.7386 33.1436 68.7895 33.0754 68.8234 33.0072C69.0949 33.1436 69.2307 33.28 69.2307 33.3482C69.2985 33.4846 69.3664 33.621 69.57 33.7574C69.7737 33.962 69.9773 34.1666 70.2488 34.5076C70.3845 34.6781 70.5203 34.8145 70.6391 34.9338C70.7578 35.0532 70.8596 35.1554 70.9275 35.2577C71.1311 35.4623 71.4026 35.5987 71.8099 35.7351L71.742 36.0761C71.742 36.1103 71.742 36.1273 71.7505 36.1358C71.759 36.1443 71.776 36.1443 71.8099 36.1443C71.8099 36.1443 71.9456 36.2125 72.0813 36.4171C72.4207 36.4171 72.6243 36.4853 72.6922 36.5535C72.6922 36.9627 72.9637 37.3037 73.5746 37.6447C73.5746 37.6447 73.7782 37.9175 74.1175 38.3949C74.1593 38.4536 74.2011 38.5103 74.2427 38.565C73.9613 38.6906 73.8469 38.821 73.8469 39.0088C73.9148 39.2134 73.779 39.418 73.5754 39.5544C73.4397 39.6226 73.2361 39.6908 73.0324 39.6226C72.2858 40.3046 71.8107 40.782 71.5392 41.2594C71.2677 41.6686 70.7247 42.2823 69.9781 43.1007C69.1637 43.8509 68.6886 44.6693 68.4849 45.5559C68.2813 46.4425 68.2813 47.0563 68.4849 47.3972C69.0958 48.4202 69.9781 48.5566 70.9962 47.8746C71.4035 47.6018 71.7428 47.1926 71.9465 46.6471C72.1501 46.1015 72.218 45.6923 72.0822 45.3513L71.9465 45.0785L72.218 44.6011C72.3537 44.4647 72.4216 44.1237 72.4216 43.6463C72.6252 43.3053 72.8288 43.0325 73.1003 42.6915C73.1003 42.3505 73.1682 42.1459 73.2361 42.0777L73.6433 41.9413H73.7112C73.779 41.8732 73.779 41.805 73.779 41.805C73.779 41.3276 73.779 41.123 73.8469 41.0548L74.1863 40.9184L74.5257 40.5774H74.7293C74.865 40.5774 74.9329 40.5774 75.0008 40.5092L75.0686 40.441L75.3401 39.6908L75.3914 39.6622C75.4935 39.7555 75.5821 39.8517 75.6657 39.9424C75.7165 39.9976 75.7654 40.0507 75.8144 40.0998C76.018 40.3726 76.2216 40.5772 76.561 40.7818C76.6432 40.8644 76.7378 40.9532 76.8411 41.0502L76.8412 41.0503C77.0791 41.2736 77.363 41.5402 77.647 41.873C78.0542 42.3504 78.3257 42.6232 78.3257 42.6232L79.4795 43.7144C79.8189 44.1918 80.3619 44.5328 81.0406 44.7374L81.1085 45.0102C81.1085 45.3511 81.2442 45.5557 81.4479 45.5557H81.7872L81.923 45.6239C82.2623 45.8967 82.7375 46.0331 83.3483 46.0331C83.5519 46.0331 83.8913 45.8285 84.2307 45.4875L84.5022 45.2148C84.6379 45.1466 84.7058 45.0784 84.7058 45.0102V44.3282C84.6379 44.1236 84.4343 43.7826 84.0271 43.4416C83.9235 43.3549 83.8287 43.2726 83.7416 43.1969C83.4861 42.9751 83.2965 42.8105 83.1447 42.7596C83.0669 42.7075 82.9991 42.6653 82.9411 42.6293C82.8473 42.5711 82.7794 42.5289 82.7375 42.4868C82.5338 42.0094 81.4479 40.9864 79.4795 39.5543L77.4138 37.967L77.5121 37.9176H77.58L78.8017 36.7583L79.2089 36.6219C79.2089 36.5537 79.2089 36.4855 79.141 36.4173C79.4804 36.2809 79.684 36.2127 79.684 36.2127L79.7519 36.1445L79.8876 36.0081L80.7021 35.5989C81.0415 35.3943 81.313 35.0533 81.5166 34.6441C81.7202 34.6441 81.856 34.6441 81.9917 34.5759C82.0398 34.5759 82.0879 34.5673 82.133 34.5593C82.2151 34.5447 82.2873 34.5319 82.3311 34.5759C82.4668 34.6441 82.5347 34.6441 82.6026 34.5759L84.4352 33.0755C84.503 33.0073 84.6388 33.0073 84.8424 33.0073L85.4533 32.4617L85.9962 32.3935L86.4035 31.9843C86.675 32.0525 86.8107 32.0525 86.8786 31.9843C86.8786 31.9843 86.8107 31.166 86.5392 30.825C86.2677 30.484 86.132 30.143 86.132 30.143L85.9284 29.9384L85.5211 29.5292L84.2315 30.0066L84.0958 30.0748L82.8741 31.3024C82.8062 31.3706 82.6704 31.3706 82.4668 31.3706C82.2632 31.3706 82.0596 31.3706 81.9917 31.4388C81.9917 31.4809 81.9399 31.5231 81.8682 31.5813C81.8239 31.6173 81.7721 31.6595 81.7202 31.7115C81.6208 31.8114 81.4487 31.9478 81.2304 32.1208C81.1505 32.1841 81.0645 32.2523 80.9736 32.3253C80.6343 32.5981 80.1591 33.0755 79.5483 33.6893C78.9374 34.3713 78.5302 34.7805 78.1908 34.9851L77.7157 35.1897C77.7157 35.2341 77.6293 35.3364 77.494 35.4966C77.4216 35.5823 77.3352 35.6846 77.2406 35.8035L76.8333 36.2127L76.4261 36.4855C76.3582 36.5537 76.2904 36.6901 76.2225 36.8265L76.2222 36.8269L76.1537 36.7581C76.0859 36.6217 75.7465 36.3489 75.2035 35.9397L74.932 35.8033C74.6605 35.5987 74.5248 35.5305 74.4569 35.5305C74.389 35.5305 74.389 35.5305 74.3212 35.5987H74.1854L74.2533 35.4623C74.2533 35.3259 74.1176 35.1895 73.8461 34.9849C73.5746 34.7804 73.3709 34.5758 73.3031 34.5076L73.0994 34.3712L72.8958 34.1666H72.7601C72.7601 34.303 72.6922 34.3712 72.6243 34.3712C72.6243 34.3712 72.5565 34.3712 72.4207 34.303L72.4886 33.962H72.4207L72.0813 33.7574L69.9094 31.916C69.57 31.7114 69.3664 31.5068 69.3664 31.3022C69.3664 31.234 69.4343 31.0976 69.57 30.893L70.0452 30.0064C70.0932 29.9581 70.1413 29.9184 70.1864 29.8811C70.2686 29.8132 70.3407 29.7535 70.3845 29.6655L70.4524 29.3927C70.5881 29.1881 70.7239 28.9153 70.7918 28.7107L70.7918 28.7106C70.8596 28.506 70.9275 28.3015 70.9954 28.2333C71.0632 28.1651 71.1311 28.0287 71.199 27.8923C71.2669 27.7559 71.3347 27.5513 71.4026 27.3467L71.6062 27.0739C71.6062 27.0057 71.742 26.8693 72.0135 26.8011C72.285 26.7329 72.4207 26.6647 72.4207 26.5965L72.8958 26.7329C73.1673 26.6647 73.3031 26.5283 73.3709 26.4601C73.3915 26.4395 73.412 26.4126 73.4345 26.3832C73.4861 26.3156 73.5478 26.2349 73.6424 26.1873C73.6424 26.2555 73.7103 26.2555 73.7782 26.2555C73.8461 26.3237 73.9818 26.3919 74.0497 26.3919C74.1854 26.3919 74.3212 26.3237 74.5248 26.1873C74.7284 26.0509 74.932 25.9827 75.1356 25.9827L75.2035 25.8463L75.6108 25.9827L76.2895 25.7099C76.3234 25.7099 76.3574 25.727 76.4083 25.7526C76.4592 25.7781 76.527 25.8122 76.6289 25.8463C76.9004 25.7099 77.1719 25.6417 77.3076 25.6417L77.7148 25.3007L77.9863 25.5053C78.0542 25.5053 78.1899 25.5053 78.2578 25.4371C78.3257 25.3689 78.3936 25.3007 78.5293 25.3007L78.8008 25.3689C78.8008 25.4371 78.8687 25.4371 79.0044 25.4371C79.0723 25.4371 79.1402 25.3689 79.1402 25.3689L79.6832 25.0961C79.8189 25.0961 79.9547 25.0961 80.0904 25.0279C80.1298 24.9883 80.2151 24.9717 80.3196 24.9514C80.3949 24.9367 80.4802 24.9201 80.5655 24.8915L81.3121 24.7551L81.6515 24.8233L82.0587 24.7551C82.214 24.7291 82.3496 24.7031 82.4654 24.6809L82.4658 24.6808L82.466 24.6808C82.6536 24.6448 82.7893 24.6188 82.8732 24.6188C83.3483 24.6188 83.6877 24.4142 83.9592 24.005L84.2307 24.0732L86.4026 23.3912C86.6741 23.3912 86.8777 23.2548 87.0135 23.1184C87.0742 23.0777 87.129 23.037 87.1813 22.9981C87.3042 22.9066 87.4136 22.8252 87.5565 22.7774C87.6922 22.7092 87.8958 22.5728 87.9637 22.3682C88.0995 22.1636 88.2352 22.0272 88.3709 21.959C88.5067 21.8908 88.5746 21.8226 88.6424 21.6862C88.7103 21.5498 88.7782 21.4134 88.9139 21.277L89.1176 19.913L89.0497 19.6402L89.1176 19.3675C89.1176 19.1629 89.0497 18.9583 88.9818 18.8219L88.8461 18.5491V18.4809C88.9139 18.3445 88.9139 18.2081 88.9139 18.2081C88.9139 18.0717 88.7782 17.9353 88.5746 17.7989C88.3709 17.6625 88.2352 17.5261 88.2352 17.5261V17.3897C88.0995 17.1852 88.0316 17.0488 87.9638 16.9125L87.9637 16.9123C87.7601 16.7759 87.5565 16.6395 87.4207 16.5713L87.285 16.2303C87.2171 16.1621 87.0814 16.0939 86.6741 15.8893L86.5384 15.9575L85.9275 15.6847C85.656 15.4801 85.5203 15.4119 85.5203 15.4119H85.4524C85.3729 15.4119 85.3166 15.4353 85.2701 15.4547C85.2371 15.4684 85.209 15.4801 85.1809 15.4801C84.8415 15.2755 84.57 15.1391 84.4343 15.0709L84.2307 15.1391L83.9592 15.0027L83.6198 15.0709L82.7375 14.8663H82.466C82.3981 14.9345 82.2623 14.9345 82.1266 14.9345L82.0587 14.8663C81.9909 14.7981 81.8551 14.7981 81.7872 14.7981H81.6515C81.5157 14.8663 81.38 14.8663 81.3121 14.8663L81.1085 14.7981L80.7013 14.9345C80.5655 14.7299 80.294 14.6617 80.0225 14.6617C79.9547 14.6617 79.8189 14.7299 79.5474 14.8663L78.6651 14.6617H78.5293C77.7827 14.8663 77.4433 14.9345 77.3755 14.9345C77.3335 14.9345 77.2916 14.9085 77.2336 14.8725C77.1978 14.8502 77.1558 14.8242 77.104 14.7981C77.0361 14.7299 76.9004 14.6617 76.8325 14.6617C76.8044 14.6617 76.7763 14.6734 76.7433 14.6872C76.6967 14.7065 76.6405 14.7299 76.561 14.7299C76.4252 14.7981 76.1537 14.7981 75.8823 14.7981C75.5429 14.7981 75.1357 14.8663 74.5248 15.0027C73.9139 15.1391 73.5067 15.2073 73.2352 15.2073L72.8958 15.1391C72.828 15.2073 72.6243 15.2755 72.3528 15.3437L71.9456 15.4119H71.6062C71.5544 15.438 71.5124 15.4541 71.4766 15.4678C71.4186 15.4901 71.3767 15.5062 71.3347 15.5483C71.2669 15.6165 71.199 15.6165 71.1311 15.6165L70.7918 15.4801L69.7058 15.7529H69.6379C69.3664 15.7529 69.2307 15.7529 69.1628 15.8893C69.0949 16.0257 69.0271 16.0939 68.8234 16.0939C68.6877 16.0939 68.6198 16.0939 68.4841 15.9575C67.8053 16.0257 67.3302 16.1621 66.9909 16.2985C66.7194 16.4349 66.1764 16.6395 65.4298 16.7759C64.6832 16.9805 64.0723 17.2533 63.6651 17.6625C63.1899 18.0717 62.9863 18.4127 62.9863 18.6855C62.9863 19.5039 63.3936 19.913 64.2759 19.913C64.6153 19.913 64.9547 19.7766 65.294 19.5721C65.6334 19.3675 65.7691 19.0947 65.837 18.8901ZM66.7194 28.2333H67.1945C67.1945 28.2333 67.3302 28.1651 67.466 28.0287L67.7375 28.0969L67.9411 28.0287C67.6017 29.1199 67.3302 29.6655 67.0587 29.6655C66.9909 29.6655 66.7872 29.5291 66.4479 29.2563C66.1085 28.9835 65.9727 28.8471 65.9727 28.7789C65.9727 28.7107 66.1085 28.5743 66.3121 28.4379C66.5157 28.3015 66.6515 28.2333 66.7194 28.2333Z" fill="#666666"/>
<path d="M119.661 75.9735C119.661 79.0424 116.946 81.5657 113.62 81.5657H9.29854C5.97274 81.5657 3.25781 79.0424 3.25781 75.9735V54.9683C3.25781 51.8993 5.97274 49.376 9.29854 49.376H113.688C117.013 49.376 119.728 51.8993 119.728 54.9683V75.9735H119.661Z" stroke="#666666" stroke-width="0.68" stroke-miterlimit="10"/>
<path d="M13.7776 78.2933H11.8771C8.75497 78.2933 6.17578 76.3155 6.17578 73.8603V57.1517C6.17578 54.6965 8.75497 52.7188 11.8771 52.7188H110.565C113.687 52.7188 116.266 54.6965 116.266 57.1517V73.8603C116.266 76.3155 113.687 78.2933 110.565 78.2933H108.732" stroke="#666666" stroke-width="0.68" stroke-miterlimit="10"/>
<path d="M21.8555 78.0197H21.1089V72.291H22.8057C23.2808 72.291 23.6202 72.4274 23.8917 72.7684C24.0953 73.1094 24.2311 73.5186 24.2311 73.996C24.2311 74.5416 24.0953 74.9508 23.8238 75.2918C23.5523 75.6328 23.2808 75.7691 22.8736 75.7691H21.8555V78.0197ZM21.8555 74.8826H22.7378C22.9415 74.8826 23.1451 74.8144 23.2808 74.678C23.4166 74.5416 23.4845 74.337 23.4845 74.0642C23.4845 73.8596 23.4166 73.655 23.3487 73.4504C23.213 73.314 23.0093 73.1776 22.7378 73.1776H21.9234V74.8826H21.8555Z" fill="#666666"/>
<path d="M28.711 78.0197H27.8966L27.2857 75.6328H26.2676V78.0197H25.521V72.291H27.3536C27.8287 72.291 28.2359 72.4274 28.4395 72.7684C28.6432 73.1094 28.7789 73.4504 28.7789 73.996C28.7789 74.7462 28.5074 75.2236 28.0323 75.4964L28.711 78.0197ZM26.1997 74.8144H27.15C27.4214 74.8144 27.6251 74.7462 27.7608 74.6098C27.8966 74.4734 27.9644 74.2688 27.9644 73.996C27.9644 73.7232 27.8966 73.5186 27.7608 73.3822C27.6251 73.2458 27.4214 73.1776 27.2178 73.1776H26.1997V74.8144Z" fill="#666666"/>
<path d="M32.7828 78.0197H30.0679V72.291H32.7149V73.1094H30.8145V74.678H32.3756V75.4964H30.8145V77.1331H32.7828V78.0197Z" fill="#666666"/>
<path d="M33.5972 76.6544L34.3438 76.4498C34.4116 76.9954 34.751 77.2682 35.3619 77.2682C35.6334 77.2682 35.837 77.2 35.9727 77.0636C36.1085 76.9272 36.1764 76.7226 36.1764 76.518C36.1764 76.3816 36.1764 76.2452 36.1085 76.1088C36.0406 75.9724 35.9049 75.9042 35.7012 75.7678L34.8868 75.4951C34.6153 75.4269 34.4116 75.2905 34.2759 75.1541C34.1402 75.0177 34.0723 74.8813 33.9365 74.6085C33.8687 74.4039 33.8008 74.1311 33.8008 73.8583C33.8008 73.3127 33.9365 72.9035 34.208 72.6307C34.4795 72.2897 34.8189 72.1533 35.294 72.1533C35.6334 72.1533 35.9727 72.2897 36.2442 72.4943C36.5157 72.6989 36.7193 73.0399 36.7872 73.3809L36.1085 73.6537C35.9727 73.2445 35.7691 72.9717 35.3619 72.9717C35.1583 72.9717 34.9546 73.0399 34.8189 73.1763C34.6831 73.3127 34.6153 73.4491 34.6153 73.7219C34.6153 74.0629 34.8189 74.2675 35.2261 74.4039L35.9049 74.6767C36.3121 74.8131 36.6515 75.0177 36.7872 75.3587C36.923 75.6314 36.9908 75.9724 36.9908 76.3134C36.9908 76.859 36.8551 77.3364 36.5157 77.6092C36.1764 77.9502 35.837 78.0866 35.294 78.0866C34.8868 78.0866 34.5474 77.9502 34.208 77.7456C33.9365 77.541 33.7329 77.1318 33.5972 76.6544Z" fill="#666666"/>
<path d="M40.5885 76.0408L41.2672 76.1772C41.1993 76.7228 41.0636 77.2002 40.7921 77.6094C40.5206 77.9504 40.1812 78.155 39.7061 78.155C39.2989 78.155 39.0274 78.0186 38.7559 77.7458C38.5523 77.473 38.3486 77.132 38.2129 76.6546C38.0772 76.1772 38.0093 75.6998 38.0093 75.1542C38.0093 74.2676 38.145 73.5857 38.4844 73.0401C38.7559 72.4945 39.1631 72.2217 39.7061 72.2217C40.1134 72.2217 40.4527 72.4263 40.7242 72.7673C40.9957 73.1083 41.1993 73.5857 41.2672 74.2676L40.5885 74.3358C40.4527 73.4493 40.1812 73.0401 39.774 73.0401C39.5025 73.0401 39.2989 73.2447 39.0952 73.5857C38.9595 73.9266 38.8916 74.4722 38.8916 75.1542C38.8916 75.8362 38.9595 76.3818 39.1631 76.7228C39.2989 77.0638 39.5704 77.2684 39.8419 77.2684C40.0455 77.2684 40.2491 77.132 40.3848 76.9274C40.4527 76.6546 40.5206 76.3818 40.5885 76.0408Z" fill="#666666"/>
<path d="M45.6798 78.0197H44.8653L44.2545 75.6328H43.2364V78.0197H42.4897V72.291H44.3223C44.7974 72.291 45.2047 72.4274 45.4083 72.7684C45.6119 73.1094 45.7477 73.4504 45.7477 73.996C45.7477 74.7462 45.4762 75.2236 45.0011 75.4964L45.6798 78.0197ZM43.2364 74.8144H44.1187C44.3902 74.8144 44.5938 74.7462 44.7296 74.6098C44.8653 74.4734 44.9332 74.2688 44.9332 73.996C44.9332 73.7232 44.8653 73.5186 44.7296 73.3822C44.5938 73.2458 44.3902 73.1776 44.1866 73.1776H43.1685V74.8144H43.2364Z" fill="#666666"/>
<path d="M47.8516 78.0197H47.105V72.291H47.8516V78.0197Z" fill="#666666"/>
<path d="M50.0899 78.0197H49.3433V72.291H51.0401C51.5152 72.291 51.8546 72.4274 52.1261 72.7684C52.3297 73.1094 52.4654 73.5186 52.4654 73.996C52.4654 74.5416 52.3297 74.9508 52.0582 75.2918C51.7867 75.6328 51.5152 75.7691 51.108 75.7691H50.0899V78.0197ZM50.0899 74.8826H50.9722C51.1758 74.8826 51.3795 74.8144 51.5152 74.678C51.651 74.5416 51.7188 74.337 51.7188 74.0642C51.7188 73.8596 51.651 73.655 51.5831 73.4504C51.5152 73.2458 51.2437 73.1776 50.9722 73.1776H50.1577V74.8826H50.0899Z" fill="#666666"/>
<path d="M55.1812 78.0197H54.3667V73.1776H53.2808V72.291H56.2672V73.1776H55.1812V78.0197Z" fill="#666666"/>
<path d="M58.0996 78.0197H57.353V72.291H58.0996V78.0197Z" fill="#666666"/>
<path d="M61.1548 78.0866C60.6119 78.0866 60.2046 77.8138 59.8652 77.2C59.5259 76.6544 59.3901 75.9042 59.3901 75.0859C59.3901 74.2675 59.5259 73.5855 59.8652 72.9717C60.2046 72.4261 60.6119 72.1533 61.1548 72.1533C61.6978 72.1533 62.1051 72.4261 62.4444 72.9717C62.7838 73.5173 62.9195 74.2675 62.9195 75.0859C62.9195 75.9724 62.7838 76.6544 62.4444 77.2C62.1051 77.8138 61.6978 78.0866 61.1548 78.0866ZM61.1548 77.2682C61.4263 77.2682 61.63 77.1318 61.8336 76.7908C62.0372 76.4498 62.1051 75.9042 62.1051 75.0859C62.1051 74.4039 62.0372 73.9265 61.9014 73.5173C61.7657 73.1763 61.4942 72.9717 61.1548 72.9717C60.544 72.9717 60.2046 73.6537 60.2046 75.0859C60.2046 75.7678 60.2725 76.3134 60.4761 76.6544C60.6119 77.1318 60.8833 77.2682 61.1548 77.2682Z" fill="#666666"/>
<path d="M67.3985 78.0197H66.6519L65.0909 74.337C65.0909 74.2688 65.023 74.2006 64.9551 74.0642C64.9551 73.996 64.8872 73.9278 64.8194 73.7914V78.0197H64.2085V72.291H65.023L66.4483 75.6328C66.4483 75.6328 66.5162 75.8373 66.7198 76.2465V72.291H67.3307V78.0197H67.3985Z" fill="#666666"/>
<path d="M71.6069 76.6544L72.3535 76.4498C72.4214 76.9954 72.7608 77.2682 73.3716 77.2682C73.6431 77.2682 73.8468 77.2 73.9825 77.0636C74.1182 76.9272 74.1861 76.7226 74.1861 76.518C74.1861 76.3816 74.1861 76.2452 74.1182 76.1088C74.0504 75.9724 73.9146 75.9042 73.711 75.7678L72.8965 75.4951C72.625 75.4269 72.4214 75.2905 72.2857 75.1541C72.1499 75.0177 72.082 74.8813 71.9463 74.6085C71.8784 74.4039 71.8106 74.1311 71.8106 73.8583C71.8106 73.3127 71.9463 72.9035 72.2178 72.6307C72.4893 72.2897 72.8287 72.1533 73.3038 72.1533C73.6431 72.1533 73.9825 72.2897 74.254 72.4943C74.5255 72.6989 74.7291 73.0399 74.797 73.3809L74.1182 73.6537C73.9825 73.2445 73.7789 72.9717 73.3716 72.9717C73.168 72.9717 72.9644 73.0399 72.8287 73.1763C72.6929 73.3127 72.625 73.4491 72.625 73.7219C72.625 74.0629 72.8287 74.2675 73.2359 74.4039L73.9146 74.6767C74.3219 74.8131 74.6612 75.0177 74.797 75.3587C74.9327 75.6314 75.0006 75.9724 75.0006 76.3134C75.0006 76.859 74.8649 77.3364 74.5255 77.6092C74.1861 77.9502 73.8468 78.0866 73.3038 78.0866C72.8965 78.0866 72.5572 77.9502 72.2178 77.7456C71.9463 77.541 71.7427 77.1318 71.6069 76.6544Z" fill="#666666"/>
<path d="M78.9371 78.0197H76.2222V72.291H78.8692V73.1094H76.9688V74.678H78.5298V75.4964H76.9688V77.1331H78.9371V78.0197Z" fill="#666666"/>
<path d="M83.4161 78.0197H82.6016L81.9908 75.6328H80.9727V78.0197H80.2261V72.291H82.0587C82.5338 72.291 82.941 72.4274 83.1446 72.7684C83.3482 73.1094 83.484 73.4504 83.484 73.996C83.484 74.7462 83.2125 75.2236 82.7374 75.4964L83.4161 78.0197ZM80.9048 74.8144H81.855C82.1265 74.8144 82.3301 74.7462 82.4659 74.6098C82.6016 74.4734 82.6695 74.2688 82.6695 73.996C82.6695 73.7232 82.6016 73.5186 82.4659 73.3822C82.3301 73.2458 82.1265 73.1776 81.9229 73.1776H80.9048V74.8144Z" fill="#666666"/>
<path d="M86.3345 78.0197H85.5879L84.2983 72.291H85.1128L86.063 76.6557L87.0133 72.291H87.6241L86.3345 78.0197Z" fill="#666666"/>
<path d="M89.4571 78.0197H88.7104V72.291H89.4571V78.0197Z" fill="#666666"/>
<path d="M93.3267 76.0408L94.0055 76.1772C93.9376 76.7228 93.8019 77.2002 93.5304 77.6094C93.2589 77.9504 92.9195 78.155 92.4444 78.155C92.0372 78.155 91.7657 78.0186 91.4942 77.7458C91.2905 77.473 91.0869 77.132 90.9512 76.6546C90.8154 76.1772 90.7476 75.6998 90.7476 75.1542C90.7476 74.2676 90.8833 73.5857 91.2227 73.0401C91.4942 72.4945 91.9014 72.2217 92.4444 72.2217C92.8516 72.2217 93.191 72.4263 93.4625 72.7673C93.734 73.1083 93.9376 73.5857 94.0055 74.2676L93.3267 74.3358C93.191 73.4493 92.9195 73.0401 92.5123 73.0401C92.2408 73.0401 92.0372 73.2447 91.8335 73.5857C91.6978 73.9266 91.6299 74.4722 91.6299 75.1542C91.6299 75.8362 91.6978 76.3818 91.9014 76.7228C92.0371 77.0638 92.3086 77.2684 92.5801 77.2684C92.7838 77.2684 92.9874 77.132 93.1231 76.9274C93.2589 76.6546 93.3267 76.3818 93.3267 76.0408Z" fill="#666666"/>
<path d="M97.941 78.0197H95.2261V72.291H97.8731V73.1094H95.9727V74.678H97.5338V75.4964H95.9727V77.1331H97.941V78.0197Z" fill="#666666"/>
<path d="M98.7554 76.6544L99.502 76.4498C99.5699 76.9954 99.9092 77.2682 100.52 77.2682C100.792 77.2682 100.995 77.2 101.131 77.0636C101.267 76.9272 101.335 76.7226 101.335 76.518C101.335 76.3816 101.335 76.2452 101.267 76.1088C101.199 75.9724 101.063 75.9042 100.859 75.7678L100.045 75.4951C99.7735 75.4269 99.5698 75.2905 99.4341 75.1541C99.2984 75.0177 99.2305 74.8813 99.0947 74.6085C99.0269 74.4039 98.959 74.1311 98.959 73.8583C98.959 73.3127 99.0947 72.9035 99.3662 72.6307C99.6377 72.2897 99.9771 72.1533 100.452 72.1533C100.792 72.1533 101.131 72.2897 101.402 72.4943C101.674 72.6989 101.878 73.0399 101.945 73.3809L101.267 73.6537C101.131 73.2445 100.927 72.9717 100.52 72.9717C100.316 72.9717 100.113 73.0399 99.9771 73.1763C99.8413 73.3127 99.7735 73.4491 99.7735 73.7219C99.7735 74.0629 99.9771 74.2675 100.384 74.4039L101.063 74.6767C101.47 74.8131 101.81 75.0177 101.945 75.3587C102.081 75.6314 102.149 75.9724 102.149 76.3134C102.149 76.859 102.013 77.3364 101.674 77.6092C101.335 77.9502 100.995 78.0866 100.452 78.0866C100.045 78.0866 99.7056 77.9502 99.3662 77.7456C99.0947 77.541 98.8911 77.1318 98.7554 76.6544Z" fill="#666666"/>
<path d="M8.21338 59.606V59.1286C8.28125 59.1286 8.28125 59.0604 8.28125 59.0604C8.55274 59.0604 8.82424 59.1286 9.09573 59.1286C9.23148 59.1286 9.29935 59.1286 9.29935 59.1286C9.4351 59.1286 9.57084 59.1286 9.70659 59.1286L10.3175 59.0604L10.3853 59.1286L10.3175 59.4696C10.2496 59.5378 10.1817 59.606 10.1138 59.606C9.97808 59.7424 9.91021 59.8106 9.91021 59.8788C9.91021 59.947 9.91021 60.0152 9.97808 60.1516C9.97808 60.2198 10.046 60.288 10.046 60.4926C10.1138 60.7654 10.2496 61.3109 10.5211 62.3339L11.8107 66.9032C11.9464 66.4258 12.2179 65.6075 12.5573 64.4481L11.8107 61.7883C11.6749 61.3109 11.5392 60.9018 11.4713 60.5608C11.4713 60.4244 11.4034 60.3562 11.4034 60.288C11.4034 60.2198 11.3356 60.1516 11.3356 60.0834C11.3356 60.0152 11.2677 59.8788 11.1998 59.8106C11.1319 59.7424 10.9962 59.6742 10.7247 59.5378V59.0604C10.8604 59.0604 10.9962 59.0604 11.1319 59.0604C11.4034 59.0604 11.5392 59.1286 11.6749 59.1286H12.3537L13.1681 59.0604H13.236V59.3332V59.4014C13.236 59.4014 13.236 59.4696 13.236 59.5378C13.1681 59.5378 13.1003 59.606 12.9645 59.606C12.8966 59.606 12.8288 59.6742 12.7609 59.6742C12.693 59.7424 12.693 59.7424 12.693 59.8106C12.693 59.947 12.7609 60.1516 12.8288 60.3562C12.8288 60.4244 12.8966 60.629 12.9645 60.7654C13.1003 61.4473 13.236 61.8565 13.3717 62.1975L13.7111 61.1063C13.8469 60.629 13.9826 60.2198 14.0505 60.0152C14.0505 59.947 14.0505 59.947 14.0505 59.8788V59.8106C13.9826 59.7424 13.9826 59.6742 13.9147 59.6742C13.8469 59.606 13.7111 59.5378 13.5075 59.4696C13.5075 59.4014 13.5075 59.265 13.5075 59.265C13.5075 59.1968 13.5075 59.1286 13.5075 58.9922C13.6432 58.9922 13.9147 58.9922 14.3898 59.0604C14.6613 59.0604 14.865 59.0604 14.9328 59.0604C15.0007 59.0604 15.0686 59.0604 15.1365 59.0604C15.2043 59.0604 15.2722 59.0604 15.2722 59.0604V59.1286V59.4696V59.5378C14.9328 59.6742 14.7292 59.8106 14.6613 59.8788C14.5935 59.947 14.5256 60.0834 14.4577 60.2198C14.322 60.629 13.9826 61.5837 13.5754 63.0159V63.0841L13.9147 64.1753L14.4577 66.153C14.5256 66.3576 14.5256 66.494 14.5935 66.5622L15.2043 64.0389L16.0867 60.629L16.2224 60.0152C16.2224 59.947 16.2224 59.947 16.2224 59.8788V59.7424C16.0867 59.6742 16.0188 59.6742 15.9509 59.606C15.8831 59.606 15.8152 59.5378 15.7473 59.4696C15.7473 59.265 15.7473 59.1968 15.7473 59.1286C15.7473 59.0604 15.7473 59.0604 15.8152 58.9922H15.8831L16.6297 59.0604L17.1048 58.9922H17.1727C17.1727 59.0604 17.1727 59.1968 17.1727 59.265C17.1727 59.3332 17.1727 59.4014 17.1727 59.4696C17.1727 59.5378 17.1048 59.5378 17.1048 59.5378C16.969 59.606 16.9012 59.7424 16.8333 59.8106C16.7654 59.8788 16.7654 60.0152 16.6975 60.3562C16.426 61.5155 16.0867 62.6749 15.8152 63.7661C15.5437 64.8573 15.0686 66.6304 14.4577 69.0174H13.9826C13.9826 68.8128 13.9147 68.6764 13.8469 68.54C13.779 68.199 13.7111 67.9944 13.7111 67.9262L13.1681 66.153C13.1003 65.8121 13.0324 65.6075 12.9645 65.4029C12.9645 65.4029 12.9645 65.3347 12.8966 65.2665C12.8966 65.2665 12.693 65.8121 12.3537 66.7668C12.0143 67.7898 11.7428 68.54 11.607 69.0856H11.1319C10.9962 68.54 10.7926 67.6534 10.4532 66.494L8.89211 60.7654C8.68849 60.1516 8.62062 59.8106 8.55275 59.7424C8.55275 59.6742 8.48487 59.6742 8.417 59.606C8.34912 59.6742 8.28125 59.606 8.21338 59.606Z" fill="#666666"/>
<path d="M16.9692 68.8815V68.3359C17.0371 68.3359 17.1729 68.2677 17.3086 68.1995C17.5801 68.1313 17.7158 68.0631 17.7837 67.9949C17.8516 67.9267 17.9195 67.7903 17.9873 67.5175L18.9376 63.4938L20.0914 58.7881C20.2272 58.7881 20.295 58.7881 20.4308 58.7881H20.6344L20.7023 58.9245L21.5168 62.0616C21.7204 62.7436 21.8561 63.3574 22.0597 63.9712C22.1955 64.585 22.3312 65.1306 22.467 65.4716C22.5349 65.6762 22.6027 66.0853 22.7385 66.5627C22.8063 66.8355 22.8742 67.1765 23.01 67.5175C23.0778 67.7221 23.1457 67.8585 23.1457 67.8585C23.2136 67.9267 23.2815 67.9949 23.4172 67.9949C23.553 67.9949 23.6887 68.0631 23.8244 68.1995C23.8244 68.3359 23.8244 68.4723 23.8244 68.5405C23.8244 68.6087 23.8244 68.6087 23.8244 68.6769C23.553 68.6769 23.3493 68.6769 23.01 68.6087C22.7385 68.5405 22.467 68.5405 22.2634 68.5405C21.9919 68.5405 21.7882 68.5405 21.7204 68.5405L20.9059 68.6087H20.6344C20.6344 68.4041 20.6344 68.2677 20.6344 68.1313L21.1774 67.9267C21.3131 67.8585 21.4489 67.7903 21.4489 67.7903C21.4489 67.7221 21.5168 67.6539 21.5168 67.5857C21.5168 67.5175 21.5168 67.4493 21.5168 67.3811L21.3131 66.6309L20.9059 65.1306H19.0733C19.0054 65.4034 18.8697 65.9489 18.6661 66.9037C18.5982 67.1765 18.5982 67.3811 18.5982 67.4493C18.5982 67.5857 18.5982 67.6539 18.6661 67.7221C18.7339 67.7903 18.8697 67.8585 19.0733 67.9267C19.0733 67.9267 19.2091 67.9949 19.4127 67.9949C19.4127 68.1995 19.4127 68.2677 19.4127 68.3359C19.4127 68.4041 19.4127 68.4723 19.4127 68.5405C19.2091 68.5405 18.7339 68.4723 17.9873 68.4041L17.7837 68.4723C17.5122 68.5405 17.3086 68.5405 17.105 68.5405H16.9692V68.8815ZM19.2769 64.585C20.0235 64.585 20.4987 64.585 20.6344 64.585H20.7701C20.7023 64.1076 20.5665 63.6302 20.3629 63.0164C20.2272 62.4026 20.0914 61.9934 19.9557 61.6524L19.2769 64.585Z" fill="#666666"/>
<path d="M27.7618 59.2656C27.7618 59.4702 27.8297 59.6748 27.8297 60.084C27.8976 60.6296 27.8976 61.0388 27.8976 61.3116C27.8976 61.3798 27.8976 61.5162 27.8976 61.5844H27.8297L27.4903 61.5162H27.4225C27.2867 60.8342 27.151 60.425 27.0152 60.1522C26.7437 59.743 26.4722 59.5384 26.1329 59.5384C25.7935 59.5384 25.5899 59.6748 25.3863 59.9476C25.1827 60.2204 25.1148 60.5614 25.1148 60.9024C25.1148 61.2434 25.1827 61.5162 25.3863 61.8572C25.5899 62.13 25.9293 62.471 26.5401 62.7438C26.7437 62.812 26.9474 62.9484 27.2867 63.153C27.5582 63.3576 27.7618 63.5622 27.8976 63.8349C28.1012 64.1759 28.237 64.4487 28.3048 64.7215C28.3727 64.9943 28.4406 65.4035 28.4406 65.8127C28.4406 66.2901 28.3727 66.7675 28.2369 67.2449C28.1691 67.5177 28.1012 67.7223 27.9655 67.9269C27.8976 68.0633 27.694 68.2679 27.4903 68.4725C27.2867 68.6771 27.0831 68.8134 26.8795 68.9498C26.6759 69.018 26.4044 69.0862 25.9971 69.0862C25.7935 69.0862 25.522 69.018 25.1827 68.9498L24.5718 68.6771C24.436 68.6089 24.3003 68.5407 24.2324 68.4725C24.2324 68.4725 24.2324 68.4043 24.1646 68.3361V68.1997C24.1646 68.1315 24.1646 67.7905 24.1646 67.1767C24.1646 66.8357 24.1646 66.6311 24.1646 66.4947V66.1537H24.6397C24.7754 66.6993 24.9112 67.0403 24.9112 67.1767C24.979 67.4495 25.1148 67.6541 25.2505 67.7905C25.3863 67.9269 25.522 68.0633 25.6578 68.1997C25.7935 68.2679 25.9971 68.3361 26.2007 68.3361C26.4044 68.3361 26.5401 68.2679 26.8116 68.1315C27.0152 67.9951 27.2188 67.7905 27.3546 67.5859C27.4903 67.3131 27.5582 67.0403 27.5582 66.6993C27.5582 66.2901 27.4225 65.9491 27.2188 65.6763C27.0831 65.4717 26.7437 65.1989 26.1329 64.8579C25.522 64.5169 25.1148 64.2441 24.9112 63.9713C24.7075 63.6986 24.5039 63.3576 24.3682 62.9484C24.2324 62.5392 24.1646 62.0618 24.1646 61.7208C24.1646 60.9024 24.3682 60.2204 24.7075 59.6748C25.0469 59.1292 25.6578 58.8564 26.3365 58.8564C26.4722 58.8564 26.7437 58.9246 27.0152 58.9928C27.2188 58.9928 27.4903 59.061 27.7618 59.2656Z" fill="#666666"/>
<path d="M29.0513 68.881C29.0513 68.7446 29.0513 68.54 29.0513 68.3354L29.6621 68.199C29.73 68.199 29.7979 68.1308 29.9336 68.0626L30.0015 66.153C30.0015 65.4711 30.0015 64.9255 30.0015 64.5845V64.3799C30.0015 64.1753 30.0015 63.6297 30.0015 62.8113V62.6067V61.9929V61.3109V60.97C30.0015 60.6972 30.0015 60.3562 29.9336 59.947C29.9336 59.8788 29.9336 59.8788 29.8657 59.7424H29.7979H29.73C29.5943 59.6742 29.4585 59.6742 29.3228 59.6742H29.2549C29.187 59.6742 29.1191 59.606 29.0513 59.606C29.0513 59.4696 29.0513 59.3332 29.0513 59.3332C29.0513 59.265 29.0513 59.1968 29.0513 59.0604C29.1191 59.0604 29.187 59.0604 29.3228 59.0604C29.4585 59.0604 29.5264 59.0604 29.5943 59.0604C30.0015 59.1286 30.273 59.1286 30.4766 59.1968C30.5445 59.1968 30.6802 59.1968 30.7481 59.1968C30.816 59.1968 30.8838 59.1968 31.0196 59.1968C31.1553 59.1968 31.359 59.1968 31.8341 59.1286C31.9019 59.1286 31.9698 59.0604 32.0377 59.0604C32.1734 59.0604 32.2413 59.0604 32.3092 59.0604C32.3092 59.1968 32.3092 59.265 32.3092 59.265C32.3092 59.3332 32.3092 59.4696 32.3092 59.5378L31.4268 59.7424C31.359 59.8106 31.359 59.8788 31.359 59.947V60.2198V60.3562V60.6972V60.97V61.0381C31.359 61.1063 31.359 61.1745 31.359 61.1745V62.1293C31.359 62.1975 31.359 62.2657 31.359 62.3339C31.359 62.3339 31.359 62.4703 31.359 62.6067C31.359 62.6749 31.359 62.7431 31.359 62.8795C31.359 62.9477 31.359 63.1523 31.359 63.4251C31.4268 63.4251 31.4947 63.4933 31.5626 63.4933H32.3092H32.6486H33.5309L34.4133 63.4251C34.549 63.4251 34.6169 63.4251 34.7526 63.3569C34.7526 63.1523 34.7526 62.7431 34.7526 62.0611V61.7201V60.4244L34.6848 59.8788C34.6848 59.8106 34.6848 59.8106 34.6169 59.8106C34.4811 59.7424 34.2775 59.606 33.9381 59.4696C33.8703 59.4696 33.8024 59.4014 33.7345 59.4014C33.7345 59.1968 33.7345 59.0604 33.8024 58.9922C33.8703 58.9922 33.9381 58.9922 33.9381 58.9922H34.4133C34.6848 59.0604 35.0241 59.0604 35.3635 59.0604C35.4314 59.0604 35.4992 59.0604 35.5671 59.0604H36.178C36.2458 59.0604 36.3137 59.0604 36.3816 59.0604C36.5173 58.9922 36.5852 58.9922 36.7209 58.9922C36.7888 58.9922 36.9246 58.9922 37.0603 58.9922C37.0603 59.1968 37.0603 59.4014 37.0603 59.5378C36.7888 59.606 36.5852 59.6742 36.4495 59.7424C36.3816 59.8106 36.2458 59.8788 36.178 59.947V60.0834V60.2198V60.4244V60.4926C36.178 60.629 36.178 60.6972 36.178 60.7654V60.97C36.178 61.1745 36.178 61.3109 36.178 61.3791V62.3339V63.0841V64.0389C36.178 64.2435 36.178 64.7209 36.178 65.4029V66.494V67.3806C36.178 67.517 36.178 67.7216 36.178 67.9944C36.2458 67.9944 36.3137 68.0626 36.3816 68.0626C36.6531 68.1308 36.9246 68.2672 37.0603 68.4036V68.9492C36.9246 68.9492 36.8567 68.9492 36.8567 68.9492C36.721 68.9492 36.5173 68.9492 36.3137 68.881C36.0422 68.8128 35.635 68.8128 35.0241 68.8128C34.7526 68.8128 34.4133 68.8128 34.006 68.881C33.9381 68.881 33.9381 68.881 33.8703 68.8128C33.8703 68.6082 33.8703 68.4036 33.9381 68.3354L34.2775 68.199L34.6848 68.1308C34.7526 68.1308 34.7526 68.0626 34.8205 68.0626C34.8205 67.6534 34.8884 66.9714 34.8884 66.0167V65.4029C34.8884 65.1301 34.8205 64.7891 34.8205 64.4481C34.6848 64.4481 34.549 64.4481 34.4133 64.4481L32.1734 64.3799H32.1056H32.0377H31.9698C31.9019 64.3799 31.8341 64.3799 31.7662 64.3799H31.6305C31.5626 64.3799 31.4947 64.3799 31.4268 64.4481V64.9937V65.0619C31.4268 65.1983 31.4268 65.2665 31.4268 65.3347V67.7216C31.4268 67.858 31.4268 67.9944 31.4268 68.1308L31.4947 68.199L32.2413 68.4036C32.3092 68.4036 32.3092 68.4036 32.3092 68.4718C32.3771 68.4718 32.3771 68.54 32.4449 68.54C32.4449 68.6764 32.4449 68.7446 32.4449 68.7446C32.4449 68.8128 32.4449 68.881 32.4449 69.0174C32.3092 69.0174 32.2413 69.0174 32.1734 69.0174C32.1056 69.0174 32.0377 69.0174 31.9698 69.0174H31.9019L31.2232 68.9492C31.0875 68.9492 30.816 68.881 30.5445 68.881H30.4087C30.273 68.881 30.2051 68.881 30.1372 68.881C29.7979 68.8128 29.4585 68.881 29.0513 68.881Z" fill="#666666"/>
<path d="M37.8066 68.8815V68.3359C37.8745 68.3359 38.0103 68.2677 38.146 68.1995C38.3496 68.1313 38.4854 68.0631 38.6211 67.9267C38.689 67.7903 38.689 67.5175 38.689 67.2447V66.3581V64.6532V64.244C38.689 63.221 38.689 62.7436 38.689 62.6754V61.6524V61.2432V60.3567V60.0157C38.689 59.9475 38.689 59.8793 38.6211 59.7429C38.4854 59.6747 38.2818 59.6065 37.9424 59.5383C37.8745 59.5383 37.8066 59.5383 37.7388 59.5383V58.8563L39.1641 58.9245C39.3677 58.9245 39.4356 58.9245 39.5035 58.9245C39.7071 58.9245 39.9786 58.9245 40.4537 58.8563C40.7252 58.8563 40.8609 58.7881 40.9288 58.7881C40.9288 58.8563 40.9288 58.9927 40.9288 59.0609C40.9288 59.1291 40.9288 59.2655 40.9288 59.4019C40.7931 59.4701 40.6573 59.5383 40.4537 59.6065C40.318 59.6747 40.1822 59.7429 40.0465 59.8111C40.0465 59.9475 40.0465 60.1521 40.0465 60.3567C40.0465 60.5613 40.0465 60.7659 40.0465 60.9022C40.0465 61.7888 40.0465 62.4026 40.0465 62.88V64.8578V65.8807V67.3811V67.6539C40.0465 67.7221 40.0465 67.7221 40.0465 67.8585C40.2501 67.9267 40.4537 67.9949 40.5895 67.9949C40.5895 67.9949 40.7252 67.9949 40.8609 68.0631C40.8609 68.1995 40.8609 68.3359 40.8609 68.4723C40.8609 68.5405 40.8609 68.6087 40.8609 68.7451C40.7931 68.7451 40.7931 68.7451 40.7931 68.7451C40.6573 68.7451 40.6573 68.7451 40.5895 68.7451C40.5895 68.7451 40.5216 68.7451 40.4537 68.7451C40.3858 68.7451 40.1822 68.6769 39.775 68.6087H38.8926C38.689 68.6087 38.4854 68.6087 38.146 68.6769C38.0103 68.8815 37.8745 68.8815 37.8066 68.8815Z" fill="#666666"/>
<path d="M41.4028 59.676V59.1304H41.8101H41.9458C42.1494 59.1304 42.2852 59.1304 42.3531 59.1304C42.4209 59.1304 42.4888 59.1304 42.6924 59.1304C42.7603 59.1304 42.7603 59.1304 42.8282 59.1304C42.8282 59.1304 42.9639 59.1304 43.1675 59.1304C43.3712 59.1304 43.439 59.1304 43.439 59.1304C43.5069 59.1304 43.5069 59.1304 43.5748 59.1304C44.0499 59.8124 44.4571 60.4262 44.7965 60.9717C45.1359 61.5173 46.2897 63.2905 48.258 66.3594V66.1548V65.2683C48.258 64.7227 48.258 64.3135 48.1902 64.0407C48.1902 63.7679 48.1902 63.3587 48.1902 62.9495C48.1902 62.5403 48.1902 62.1311 48.1902 61.7901C48.1223 61.1081 48.1223 60.7671 48.1223 60.6307C48.1223 60.2898 48.1223 60.0852 48.0544 60.017C47.9865 59.8806 47.8508 59.8124 47.5793 59.7442C47.3757 59.676 47.2399 59.6078 47.1721 59.5396V59.0622H47.3078L48.258 58.994L49.344 58.9258C49.4119 58.9258 49.4798 58.9258 49.5476 58.9258V59.4714C49.4798 59.5396 49.4119 59.6078 49.344 59.6078C49.1404 59.676 49.0046 59.7442 49.0046 59.7442C48.8689 59.8806 48.7331 59.9488 48.7331 60.017C48.7331 60.0852 48.6653 60.1534 48.6653 60.2898C48.6653 60.2898 48.6653 60.4262 48.6653 60.6307C48.6653 60.6989 48.6653 60.9035 48.6653 61.2445C48.6653 61.9947 48.6653 62.5403 48.7331 63.0177C48.7331 63.1541 48.7331 63.2905 48.7331 63.4951L48.801 66.1548C48.801 66.3594 48.801 66.4958 48.801 66.564V67.5188V67.928V68.3372C48.801 68.5418 48.801 68.6782 48.801 68.6782V69.0874H48.258L47.6472 68.1326L46.4255 66.2912L45.611 64.9955L45.0001 64.1089C44.5929 63.4951 44.2535 62.9495 43.9141 62.4721L43.0997 61.3809L43.1675 64.1771C43.1675 64.3817 43.1675 64.5181 43.1675 64.7227V65.2683V66.2912C43.1675 66.7004 43.1675 67.1778 43.2354 67.6552C43.2354 67.7916 43.2354 67.8598 43.2354 67.928C43.2354 67.9962 43.2354 68.0644 43.3033 68.1326C43.439 68.2008 43.7105 68.269 44.1178 68.269C44.1178 68.269 44.1856 68.269 44.2535 68.3372V68.951H44.0499C43.9141 68.951 43.6427 68.8828 43.0318 68.8146C42.4888 68.8146 42.1494 68.8146 42.0137 68.8828C41.8101 68.8828 41.7422 68.8828 41.7422 68.8828C41.6743 68.8828 41.6743 68.8828 41.6065 68.8828C41.6065 68.7464 41.6065 68.6782 41.6065 68.61C41.6065 68.5418 41.6065 68.4736 41.6065 68.3372C41.6743 68.3372 41.7422 68.269 41.8101 68.269C41.8101 68.269 41.8779 68.269 42.0137 68.269C42.2852 68.269 42.4209 68.269 42.4888 68.2008C42.5567 68.1326 42.5567 67.9962 42.5567 67.6552C42.5567 66.8368 42.5567 66.3594 42.5567 66.1548V65.7456V63.2905V61.7219C42.5567 61.1081 42.5567 60.6989 42.4888 60.4943C42.4888 60.358 42.4209 60.2898 42.3531 60.2216C42.2173 60.017 42.0816 59.8806 41.9458 59.8124C42.0137 59.8124 41.7422 59.7442 41.4028 59.676Z" fill="#666666"/>
<path d="M56.1325 59.676C56.1325 59.8124 56.2004 60.0852 56.2004 60.5626C56.2004 60.9717 56.2683 61.3127 56.2683 61.5173C56.2683 61.5855 56.2683 61.6537 56.2683 61.7901C56.1325 61.7901 55.9968 61.7901 55.9289 61.7219C55.6574 61.1081 55.5217 60.7671 55.3859 60.6307C55.1823 60.358 54.9787 60.0852 54.6393 59.8806C54.4357 59.7442 54.1642 59.676 53.8927 59.676C53.3497 59.676 52.8746 60.0852 52.4674 60.8353C52.0601 61.5855 51.8565 62.7449 51.8565 64.2453C51.8565 64.9273 51.9244 65.6092 52.128 66.2912C52.2637 66.9732 52.5352 67.4506 52.8746 67.8598C53.214 68.269 53.5533 68.4054 54.0284 68.4054C54.2321 68.4054 54.4357 68.3372 54.7072 68.269C54.8429 68.2008 54.9108 68.1326 54.9787 67.9962C55.0465 67.928 55.0465 67.7916 55.1144 67.6552C55.1144 67.3824 55.1823 66.9732 55.1823 66.4276C55.1823 65.882 55.1823 65.5411 55.1823 65.3365C55.1823 65.2683 55.1144 65.2001 55.1144 65.2001C55.1144 65.2001 55.0465 65.1319 54.9108 65.0637L54.2999 64.8591C54.2321 64.7909 54.1642 64.7909 54.0963 64.7227C54.0963 64.6545 54.0963 64.5863 54.0963 64.5863C54.0963 64.5181 54.0963 64.3817 54.1642 64.3135C54.2321 64.3135 54.2321 64.2453 54.2999 64.2453C54.6393 64.2453 54.9787 64.2453 55.2502 64.3135C55.318 64.3135 55.4538 64.3135 55.5217 64.3135H56.2683H56.6076C56.6755 64.3135 56.7434 64.3135 56.947 64.3135C56.947 64.4499 56.947 64.5863 56.947 64.6545C56.947 64.7227 56.947 64.7909 56.8791 64.8591C56.8112 64.9273 56.7434 64.9955 56.6076 65.0637C56.4719 65.1319 56.404 65.2001 56.404 65.2001C56.404 65.2683 56.3361 65.3365 56.3361 65.4047C56.3361 65.4729 56.3361 65.8138 56.3361 66.2912C56.3361 66.905 56.3361 67.246 56.3361 67.3824C56.3361 67.7234 56.3361 67.9962 56.3361 67.9962C56.3361 68.2008 56.3361 68.269 56.2683 68.3372C56.2004 68.4736 55.861 68.61 55.3859 68.8146C54.9108 69.0192 54.3678 69.0874 53.7569 69.0874C53.3497 69.0874 52.9425 69.0192 52.6031 68.951C52.2637 68.8146 51.9922 68.6782 51.7886 68.4736C51.4493 68.2008 51.2456 67.8598 50.9741 67.4506C50.7705 67.0414 50.5669 66.6322 50.499 66.1548C50.3633 65.4729 50.2954 64.7909 50.2954 64.1771C50.2954 63.4269 50.4312 62.6767 50.6348 61.9265C50.7705 61.3809 51.042 60.9035 51.3135 60.4261C51.585 59.9488 51.9922 59.6078 52.3995 59.335C52.8746 59.0622 53.3497 58.9258 53.8248 58.9258C53.8927 58.9258 54.0284 58.9258 54.1642 58.994C54.5714 58.994 54.9108 59.0622 55.2502 59.1986C55.5895 59.2668 55.9289 59.4714 56.1325 59.676Z" fill="#666666"/>
<path d="M57.6245 58.584H57.896C57.896 58.6522 57.9639 58.6522 57.9639 58.7204C58.0318 58.9932 58.0996 59.1296 58.1675 59.1978C58.2354 59.1978 58.439 59.1978 58.8463 59.1978C59.1177 59.1978 59.3214 59.1978 59.525 59.1978H59.5929H60.2037H61.2897H62.7829L63.0544 59.1296C63.1223 59.0614 63.1223 58.9932 63.1901 58.7886C63.1901 58.7204 63.1901 58.6522 63.258 58.584H63.4616C63.4616 58.584 63.5295 58.584 63.5974 58.584C63.5974 58.925 63.5974 59.4706 63.5974 60.1526V60.8345V61.2437C63.5974 61.3801 63.5974 61.5165 63.5974 61.5847C63.4616 61.6529 63.3259 61.7211 63.258 61.7211C63.1901 61.5165 63.0544 61.2437 62.9865 60.8345C62.9187 60.4935 62.8508 60.2208 62.7829 60.2208C62.715 60.1526 62.715 60.0844 62.6472 60.0844C62.5793 60.0844 62.2399 60.0162 61.6291 60.0162C61.5612 60.0162 61.4254 60.0162 61.2897 60.0162C61.2897 60.2208 61.2897 60.3571 61.2897 60.4935V61.5165V63.7671V66.154V67.177C61.2897 67.518 61.2897 67.7908 61.3576 67.9954C61.4254 68.0636 61.4933 68.0636 61.6291 68.0636C61.6291 68.0636 61.7648 68.1318 61.9684 68.2C62.0363 68.2682 62.172 68.2682 62.2399 68.3364C62.2399 68.541 62.2399 68.6092 62.2399 68.6774C62.2399 68.7456 62.2399 68.8138 62.2399 68.882C62.172 68.882 62.1042 68.882 62.0363 68.882C61.6969 68.882 61.4254 68.882 61.1539 68.8138C60.9503 68.7456 60.4752 68.7456 59.8643 68.7456C59.7965 68.7456 59.4571 68.7456 58.982 68.8138C58.7784 68.8138 58.6426 68.8138 58.6426 68.8138C58.6426 68.7456 58.6426 68.6774 58.6426 68.6092V68.4046V68.3364C58.7105 68.2 58.8463 68.0636 59.0499 67.9954C59.3892 67.859 59.5929 67.7226 59.7286 67.6544C59.7286 67.5862 59.7965 67.4498 59.7965 67.2452C59.7965 66.6314 59.7965 65.6766 59.7965 64.3127V61.4483C59.7965 60.6299 59.7965 60.1526 59.7965 60.0162C59.7965 59.948 59.7965 59.948 59.7286 59.8798L59.6607 59.8116C59.5929 59.8116 59.2535 59.8116 58.6426 59.8116C58.3711 59.8116 58.0996 59.8798 58.0318 59.948C57.896 60.0844 57.6924 60.4253 57.4209 60.9709C57.353 61.1073 57.2852 61.2437 57.2173 61.2437C57.0815 61.1073 56.9458 61.0391 56.9458 60.9709C57.0137 60.6299 57.2173 59.948 57.353 58.9932C57.5567 58.925 57.6245 58.7204 57.6245 58.584Z" fill="#666666"/>
<path d="M64.2095 63.8349C64.2095 63.2212 64.2773 62.6074 64.4131 61.9254C64.5488 61.448 64.6846 61.0388 64.8882 60.6978C65.0918 60.2886 65.3633 59.9476 65.6348 59.6748C65.9742 59.402 66.2457 59.1974 66.585 59.061C66.9244 58.9246 67.2638 58.8564 67.671 58.8564C68.3497 58.8564 68.9606 59.061 69.4357 59.4702C69.9108 59.8794 70.3181 60.425 70.5896 61.107C70.9289 61.9936 71.1326 62.8802 71.1326 63.9031C71.1326 65.3353 70.7932 66.5629 70.1823 67.5859C69.5715 68.6089 68.6891 69.1544 67.5353 69.1544C67.2638 69.1544 66.9923 69.1544 66.7887 69.0862C66.585 69.018 66.4493 69.018 66.3135 68.9498C66.0421 68.8135 65.9063 68.7453 65.9063 68.7453C65.5669 68.4043 65.2954 68.1315 65.024 67.7905C64.8203 67.4495 64.6167 67.1085 64.481 66.6993C64.4131 66.4947 64.2773 66.0173 64.2095 65.4035C64.2773 64.7897 64.2095 64.3805 64.2095 63.8349ZM67.5353 59.6066C67.2638 59.6066 66.9923 59.743 66.7887 59.9476C66.585 60.1522 66.3814 60.3568 66.3135 60.6296C66.1099 61.0388 65.9742 61.5162 65.9063 61.9936C65.8384 62.471 65.7706 63.0848 65.7706 63.8349C65.7706 64.2441 65.7706 64.5851 65.8384 64.7897C65.8384 64.8579 65.8384 64.9261 65.8384 65.1307C65.8384 65.5399 65.9063 65.8127 65.9742 65.9491C66.1099 66.5629 66.2457 66.9721 66.2457 67.1767C66.3135 67.4495 66.5172 67.7223 66.6529 67.9269C66.7208 68.0633 66.9244 68.1997 67.0602 68.2679C67.2638 68.4043 67.3995 68.4043 67.6031 68.4043C67.9425 68.4043 68.2819 68.2679 68.5534 67.9951C68.8249 67.7223 69.0964 67.3131 69.3 66.6993C69.5036 66.0855 69.5715 65.2671 69.5715 64.3123C69.5715 63.9031 69.5715 63.3576 69.5036 62.6756V62.5392C69.5036 62.471 69.5036 62.4028 69.4357 62.1982C69.3 61.3798 69.0964 60.6978 68.757 60.2886C68.4855 59.8112 68.0783 59.6066 67.5353 59.6066Z" fill="#666666"/>
<path d="M71.7427 59.676V59.1304H72.1499H72.2857C72.4893 59.1304 72.625 59.1304 72.6929 59.1304C72.7608 59.1304 72.8286 59.1304 73.0323 59.1304C73.1001 59.1304 73.1001 59.1304 73.168 59.1304C73.168 59.1304 73.3038 59.1304 73.5074 59.1304C73.711 59.1304 73.7789 59.1304 73.7789 59.1304C73.8467 59.1304 73.8468 59.1304 73.9146 59.1304C74.3897 59.8124 74.797 60.4262 75.1363 60.9717C75.4757 61.5173 76.6296 63.2905 78.5979 66.3594V66.1548V65.2683C78.5979 64.7227 78.5979 64.3135 78.53 64.0407C78.53 63.7679 78.53 63.3587 78.53 62.9495C78.53 62.5403 78.53 62.1311 78.4621 61.7901C78.3943 61.1081 78.3943 60.7671 78.3943 60.6307C78.3943 60.2898 78.3943 60.0852 78.3264 60.017C78.2585 59.8806 78.1228 59.8124 77.8513 59.7442C77.6476 59.676 77.5119 59.6078 77.444 59.5396V59.0622H77.5798L78.53 58.994L79.616 58.9258C79.6839 58.9258 79.7517 58.9258 79.8196 58.9258V59.4714C79.7517 59.5396 79.6839 59.6078 79.616 59.6078C79.4124 59.676 79.2766 59.7442 79.2766 59.7442C79.1409 59.8806 79.0051 59.9488 79.0051 60.017C79.0051 60.0852 78.9372 60.1534 78.9372 60.2898C78.9372 60.2898 78.9372 60.4262 78.9372 60.6307C78.9372 60.6989 78.9372 60.9035 78.9372 61.2445C78.9372 61.9947 78.9372 62.5403 79.0051 63.0177C79.0051 63.1541 79.0051 63.2905 79.0051 63.4951L79.073 66.1548C79.073 66.3594 79.073 66.4958 79.073 66.564V67.5188V67.928V68.3372C79.073 68.5418 79.073 68.6782 79.073 68.6782V69.0874H78.53L77.9191 68.1326L76.6974 66.2912L75.8829 64.9955L75.34 64.1089C74.9327 63.4951 74.5934 62.9495 74.254 62.4721L73.4395 61.3809L73.5074 64.1771C73.5074 64.3817 73.5074 64.5181 73.5074 64.7227V65.2683V66.2912C73.5074 66.7004 73.5074 67.1778 73.5753 67.6552C73.5753 67.7916 73.5753 67.8598 73.5753 67.928C73.5753 67.9962 73.5753 68.0644 73.6431 68.1326C73.7789 68.2008 74.0504 68.269 74.4576 68.269C74.4576 68.269 74.5255 68.269 74.5934 68.3372V68.951H74.3897C74.254 68.951 73.9825 68.8828 73.3716 68.8146C72.8286 68.8146 72.4893 68.8146 72.3535 68.8828C72.1499 68.8828 72.082 68.8828 72.082 68.8828C72.0142 68.8828 72.0142 68.8828 71.9463 68.8828C71.9463 68.7464 71.9463 68.6782 71.9463 68.61C71.9463 68.5418 71.9463 68.4736 71.9463 68.3372C72.0142 68.3372 72.082 68.269 72.1499 68.269C72.1499 68.269 72.2178 68.269 72.3535 68.269C72.625 68.269 72.7608 68.269 72.8287 68.2008C72.8965 68.1326 72.8965 67.9962 72.8965 67.6552C72.8965 66.8368 72.8965 66.3594 72.8965 66.1548V65.7456V63.2905V61.7219C72.8965 61.1081 72.8965 60.6989 72.8287 60.4943C72.8287 60.358 72.7608 60.2898 72.6929 60.2216C72.5572 60.017 72.4214 59.8806 72.2857 59.8124C72.3535 59.8124 72.1499 59.7442 71.7427 59.676Z" fill="#666666"/>
<path d="M86.8107 59.2656C86.8107 59.4702 86.8785 59.6748 86.8785 60.084C86.9464 60.6296 86.9464 61.0388 86.9464 61.3116C86.9464 61.3798 86.9464 61.5162 86.9464 61.5844H86.8785L86.5392 61.5162H86.4713C86.3355 60.8342 86.1998 60.425 86.0641 60.1522C85.7926 59.743 85.5211 59.5384 85.1817 59.5384C84.8423 59.5384 84.6387 59.6748 84.4351 59.9476C84.2315 60.2204 84.1636 60.5614 84.1636 60.9024C84.1636 61.2434 84.2315 61.5162 84.4351 61.8572C84.6387 62.13 84.9781 62.471 85.5889 62.7438C85.7926 62.812 85.9962 62.9484 86.3355 63.153C86.607 63.3576 86.8107 63.5622 86.9464 63.8349C87.15 64.1759 87.2858 64.4487 87.3536 64.7215C87.4215 64.9943 87.4894 65.4035 87.4894 65.8127C87.4894 66.2901 87.4215 66.7675 87.2858 67.2449C87.2179 67.5177 87.15 67.7223 87.0143 67.9269C86.9464 68.0633 86.7428 68.2679 86.5392 68.4725C86.3355 68.6771 86.1319 68.8134 85.9283 68.9498C85.7247 69.018 85.4532 69.0862 85.046 69.0862C84.8423 69.0862 84.5708 69.018 84.2315 68.9498L83.6206 68.6771C83.4849 68.6089 83.3491 68.5407 83.2813 68.4725C83.2813 68.4725 83.2813 68.4043 83.2134 68.3361V68.1997C83.2134 68.1315 83.2134 67.7905 83.2134 67.1767C83.2134 66.8357 83.2134 66.6311 83.2134 66.4947V66.1537H83.6885C83.8242 66.6993 83.96 67.0403 83.96 67.1767C84.0279 67.4495 84.1636 67.6541 84.2993 67.7905C84.4351 67.9269 84.5708 68.0633 84.7066 68.1997C84.8423 68.2679 85.046 68.3361 85.2496 68.3361C85.4532 68.3361 85.5889 68.2679 85.8604 68.1315C86.0641 67.9951 86.2677 67.7905 86.4034 67.5859C86.5392 67.3131 86.607 67.0403 86.607 66.6993C86.607 66.2901 86.4713 65.9491 86.2677 65.6763C86.1319 65.4717 85.7926 65.1989 85.1817 64.8579C84.5708 64.5169 84.1636 64.2441 83.96 63.9713C83.7564 63.6986 83.5527 63.3576 83.417 62.9484C83.2813 62.5392 83.2134 62.0618 83.2134 61.7208C83.2134 60.9024 83.417 60.2204 83.7564 59.6748C84.0957 59.1292 84.7066 58.8564 85.3853 58.8564C85.5211 58.8564 85.7926 58.9246 86.0641 58.9928C86.2677 58.9928 86.4713 59.061 86.8107 59.2656Z" fill="#666666"/>
<path d="M88.3042 58.584H88.5757C88.5757 58.6522 88.6436 58.6522 88.6436 58.7204C88.7115 58.9932 88.7793 59.1296 88.8472 59.1978C88.9151 59.1978 89.1187 59.1978 89.5259 59.1978C89.7974 59.1978 90.001 59.1978 90.2047 59.1978H90.2725H90.8834H91.9694H93.4626L93.7341 59.1296C93.8019 59.0614 93.8019 58.9932 93.8698 58.7886C93.8698 58.7204 93.8698 58.6522 93.9377 58.584H94.1413C94.1413 58.584 94.2092 58.584 94.2771 58.584C94.2771 58.925 94.2771 59.4706 94.2771 60.1526V60.8345V61.2437C94.2771 61.3801 94.2771 61.5165 94.2771 61.5847C94.1413 61.6529 94.0056 61.7211 93.9377 61.7211C93.8698 61.5165 93.7341 61.2437 93.6662 60.8345C93.5983 60.4935 93.5305 60.2208 93.4626 60.2208C93.3947 60.1526 93.3947 60.0844 93.3268 60.0844C93.259 60.0844 92.9196 60.0162 92.3087 60.0162C92.2409 60.0162 92.1051 60.0162 91.9694 60.0162C91.9694 60.2208 91.9694 60.3571 91.9694 60.4935V61.5165V63.7671V66.154V67.177C91.9694 67.518 91.9694 67.7908 92.0372 67.9954C92.1051 68.0636 92.173 68.0636 92.3087 68.0636C92.3087 68.0636 92.4445 68.1318 92.6481 68.2C92.716 68.2682 92.8517 68.2682 92.9196 68.3364C92.9196 68.541 92.9196 68.6092 92.9196 68.6774C92.9196 68.7456 92.9196 68.8138 92.9196 68.882C92.8517 68.882 92.7839 68.882 92.716 68.882C92.3766 68.882 92.1051 68.882 91.8336 68.8138C91.63 68.7456 91.1549 68.7456 90.544 68.7456C90.4762 68.7456 90.1368 68.7456 89.6617 68.8138C89.4581 68.8138 89.3223 68.8138 89.3223 68.8138C89.3223 68.7456 89.3223 68.6774 89.3223 68.6092V68.4046V68.3364C89.3902 68.2 89.5259 68.0636 89.7296 67.9954C90.0689 67.859 90.2725 67.7226 90.4083 67.6544C90.4083 67.5862 90.4762 67.4498 90.4762 67.2452C90.4762 66.6314 90.4762 65.6766 90.4762 64.3127V61.4483C90.4762 60.6299 90.4762 60.1526 90.4762 60.0162C90.4762 59.948 90.4762 59.948 90.4083 59.8798L90.3404 59.8116C90.2725 59.8116 89.9332 59.8116 89.3223 59.8116C89.0508 59.8116 88.7793 59.8798 88.7115 59.948C88.5757 60.0844 88.3721 60.4253 88.1006 60.9709C88.0327 61.1073 87.9649 61.2437 87.897 61.2437C87.7612 61.1073 87.6255 61.0391 87.6255 60.9709C87.6934 60.6299 87.897 59.948 88.0327 58.9932C88.2363 58.925 88.3042 58.7204 88.3042 58.584Z" fill="#666666"/>
<path d="M93.8013 68.8815V68.3359C93.8691 68.3359 94.0049 68.2677 94.1406 68.1995C94.4121 68.1313 94.5479 68.0631 94.6157 67.9949C94.6836 67.9267 94.7515 67.7903 94.8194 67.5175L95.8375 63.4938L96.9913 58.7881C97.1271 58.7881 97.1949 58.7881 97.3307 58.7881H97.5343L97.6022 58.9245L98.4167 62.0616C98.6203 62.7436 98.756 63.3574 98.9596 63.9712C99.0954 64.585 99.2311 65.1306 99.3669 65.4716C99.4347 65.6762 99.5026 66.0853 99.6384 66.5627C99.7062 66.8355 99.7741 67.1765 99.9099 67.5175C99.9777 67.7221 100.046 67.8585 100.046 67.8585C100.113 67.9267 100.181 67.9949 100.317 67.9949C100.453 67.9949 100.589 68.0631 100.724 68.1995C100.724 68.3359 100.724 68.4723 100.724 68.5405C100.724 68.6087 100.724 68.6087 100.724 68.6769C100.453 68.6769 100.249 68.6769 99.9099 68.6087C99.6384 68.5405 99.3669 68.5405 99.1633 68.5405C98.8918 68.5405 98.6881 68.5405 98.6203 68.5405L97.7379 68.8815H97.4664C97.4664 68.6769 97.4664 68.5405 97.4664 68.4041L98.0094 68.1995C98.1452 68.1313 98.2809 68.0631 98.2809 68.0631C98.2809 67.9949 98.3488 67.9267 98.3488 67.8585C98.3488 67.7903 98.3488 67.7221 98.3488 67.6539L98.1452 66.9037L97.7379 65.4034H95.9053C95.8375 65.6762 95.7017 66.2217 95.4981 67.1765C95.4302 67.4493 95.4302 67.6539 95.4302 67.7221C95.4302 67.8585 95.4302 67.9267 95.4981 67.9949C95.566 68.0631 95.7017 68.1313 95.9053 68.1995C95.9053 68.1995 96.0411 68.2677 96.2447 68.2677C96.2447 68.4723 96.2447 68.5405 96.2447 68.6087C96.2447 68.6769 96.2447 68.7451 96.2447 68.8133C96.0411 68.8133 95.566 68.7451 94.8194 68.6769L94.6157 68.7451C94.3443 68.8133 94.1406 68.8133 93.937 68.8133H93.8013V68.8815ZM96.109 64.585C96.8556 64.585 97.3307 64.585 97.4664 64.585H97.6022C97.5343 64.1076 97.3986 63.6302 97.1949 63.0164C97.0592 62.4026 96.9234 61.9934 96.7877 61.6524L96.109 64.585Z" fill="#666666"/>
<path d="M100.996 58.584H101.267C101.267 58.6522 101.335 58.6522 101.335 58.7204C101.403 58.9932 101.471 59.1296 101.539 59.1978C101.606 59.1978 101.81 59.1978 102.217 59.1978C102.489 59.1978 102.692 59.1978 102.896 59.1978H102.964H103.575H104.661H106.154L106.425 59.1296C106.493 59.0614 106.493 58.9932 106.561 58.7886C106.561 58.7204 106.561 58.6522 106.629 58.584H106.833C106.833 58.584 106.901 58.584 106.968 58.584C106.968 58.925 106.968 59.4706 106.968 60.1526V60.8345V61.2437C106.968 61.3801 106.968 61.5165 106.968 61.5847C106.833 61.6529 106.697 61.7211 106.629 61.7211C106.561 61.5165 106.425 61.2437 106.358 60.8345C106.29 60.4935 106.222 60.2208 106.154 60.2208C106.086 60.1526 106.086 60.0844 106.018 60.0844C105.95 60.0844 105.611 60.0162 105 60.0162C104.932 60.0162 104.797 60.0162 104.661 60.0162C104.661 60.2208 104.661 60.3571 104.661 60.4935V61.5165V63.7671V66.154V67.177C104.661 67.518 104.661 67.7908 104.729 67.9954C104.797 68.0636 104.864 68.0636 105 68.0636C105 68.0636 105.136 68.1318 105.34 68.2C105.407 68.2682 105.543 68.2682 105.611 68.3364C105.611 68.541 105.611 68.6092 105.611 68.6774C105.611 68.7456 105.611 68.8138 105.611 68.882C105.543 68.882 105.475 68.882 105.407 68.882C105.068 68.882 104.797 68.882 104.525 68.8138C104.321 68.7456 103.846 68.7456 103.235 68.7456C103.168 68.7456 102.828 68.7456 102.353 68.8138C102.149 68.8138 102.014 68.8138 102.014 68.8138C102.014 68.7456 102.014 68.6774 102.014 68.6092V68.4046V68.3364C102.082 68.2 102.217 68.0636 102.421 67.9954C102.76 67.859 102.964 67.7226 103.1 67.6544C103.1 67.5862 103.168 67.4498 103.168 67.2452C103.168 66.6314 103.168 65.6766 103.168 64.3127V61.4483C103.168 60.6299 103.168 60.1526 103.168 60.0162C103.168 59.948 103.168 59.948 103.1 59.8798L103.032 59.8116C102.964 59.8116 102.625 59.8116 102.014 59.8116C101.674 59.8116 101.471 59.8798 101.403 59.948C101.267 60.0844 101.063 60.4253 100.792 60.9709C100.724 61.1073 100.656 61.2437 100.588 61.2437C100.453 61.1073 100.317 61.0391 100.317 60.9709C100.385 60.6299 100.588 59.948 100.724 58.9932C100.928 58.925 100.996 58.7204 100.996 58.584Z" fill="#666666"/>
<path d="M107.579 59.0605C107.783 59.0605 107.918 59.1287 108.054 59.1287C108.326 59.1969 108.597 59.1969 108.937 59.1969C109.072 59.1969 109.344 59.1969 109.819 59.1287C110.566 59.0605 111.176 59.0605 111.787 59.0605H112.67C112.873 59.0605 113.145 59.1287 113.552 59.1969C113.62 59.2651 113.62 59.4015 113.62 59.6061V61.1747V61.5157C113.62 61.5157 113.62 61.5839 113.62 61.6521H113.416C113.416 61.6521 113.348 61.6521 113.28 61.6521C113.28 61.5839 113.213 61.3793 113.145 61.1747L112.941 60.6291C112.873 60.4245 112.737 60.1517 112.602 59.9471C112.534 59.8789 112.398 59.8789 112.262 59.8789C112.262 59.8789 112.127 59.8789 111.991 59.8107C111.719 59.7425 111.38 59.7425 111.041 59.7425C110.633 59.7425 110.294 59.7425 109.955 59.7425C109.955 59.8789 109.955 60.3563 109.955 61.2429V62.5387V63.4935C110.023 63.4935 110.09 63.4935 110.158 63.4935C110.769 63.4935 111.176 63.4935 111.38 63.4253C111.652 63.3571 111.787 63.3571 111.855 63.2889C111.923 63.2207 111.991 63.0843 111.991 62.9479C111.991 62.8115 112.059 62.4705 112.194 61.8567H112.262H112.534C112.534 62.3341 112.534 62.6751 112.534 62.8797C112.534 63.4253 112.534 63.7663 112.534 63.9027C112.534 64.039 112.534 64.1754 112.534 64.2436C112.534 64.38 112.534 64.5846 112.534 64.9256C112.534 65.1984 112.534 65.4712 112.534 65.6076V65.744H112.194C112.194 65.6758 112.127 65.4712 112.127 65.2666C112.059 64.7892 111.991 64.5164 111.923 64.38C111.855 64.3118 111.787 64.2436 111.719 64.1754C111.652 64.1072 111.38 64.1072 110.973 64.1072C110.498 64.1072 110.09 64.1072 109.887 64.1754C109.887 64.3118 109.887 64.38 109.887 64.4482C109.887 65.062 109.887 65.5394 109.887 65.9486V67.5854C109.887 67.79 109.955 67.9264 110.023 67.9946C110.158 68.131 110.566 68.131 111.244 68.131C111.719 68.131 112.059 68.0628 112.398 67.9946C112.602 67.9264 112.805 67.7218 112.941 67.449C113.145 67.108 113.348 66.6306 113.484 66.0168C113.62 66.0168 113.688 66.0168 113.756 66.0168C113.823 66.0168 113.823 66.0168 113.891 66.0168C113.891 66.1532 113.891 66.2214 113.891 66.3578V66.5624L113.688 67.9946L113.62 68.8812C113.416 68.8812 113.213 68.8812 113.145 68.8812C112.941 68.8812 112.466 68.8812 111.652 68.813C111.109 68.7448 110.43 68.7448 109.615 68.7448C109.208 68.7448 108.733 68.7448 108.19 68.813H107.986H107.375V68.2674C107.443 68.2674 107.579 68.1992 107.715 68.1992C108.054 68.131 108.258 68.0628 108.394 67.9264C108.461 67.79 108.461 67.5854 108.461 67.3808C108.461 67.3126 108.461 67.1762 108.461 66.9716V66.767V63.9027V63.0161V61.7885V60.9019L108.394 59.9471C108.394 59.9471 108.394 59.8789 108.394 59.8107C108.394 59.7425 108.326 59.7425 108.258 59.6743C108.19 59.6743 108.19 59.6743 108.122 59.6061C107.918 59.5379 107.783 59.5379 107.579 59.4697C107.511 59.4697 107.443 59.4697 107.375 59.4697L107.579 59.0605Z" fill="#666666"/>
</g>
<defs>
<clipPath id="clip0">
<rect width="120" height="92" fill="white"/>
</clipPath>
</defs>
</svg>
