<svg width="292" height="60" viewBox="0 0 292 60" fill="none" xmlns="http://www.w3.org/2000/svg">
<path d="M1.96214 0.705309C1.36276 0.472058 0.701169 0.233252 0 0V45.2398C0.701169 45.4675 1.36276 45.7063 1.96214 45.9451C6.49317 47.767 11.2674 48.9397 16.1382 49.4272C17.8709 49.5881 19.6119 49.6456 21.3517 49.5993C25.5474 49.4827 31.4678 48.6108 34.7305 46.8225C32.5668 47.7812 30.2103 48.2464 27.8375 48.1832H27.6C24.5495 48.1641 21.6309 46.959 19.4828 44.8316C17.3347 42.7042 16.1322 39.8277 16.1382 36.8316V15.7278C18.0664 15.85 19.8928 15.8833 21.6514 15.8334V36.8038C21.6393 38.3677 22.2584 39.8727 23.3732 40.9894C24.488 42.1062 26.0078 42.7438 27.6 42.7628H27.8375C32.9719 42.7628 35.9575 41.0968 35.9915 32.7275V0.99965C24.0037 6.47552 11.3601 4.44289 1.96214 0.705309Z" fill="#282B69"/>
<path d="M21.3517 49.5776C25.5474 49.461 31.4678 48.589 34.7305 46.8008C32.5668 47.7594 30.2103 48.2246 27.8375 48.1614H27.6C24.5534 48.1423 21.6382 46.9403 19.4908 44.8177C17.3434 42.6951 16.1381 39.8243 16.1382 36.832V49.4276C17.8713 49.5811 19.6124 49.6312 21.3517 49.5776Z" fill="#598096"/>
<path d="M27.6 42.7636H27.8375C32.9718 42.7636 35.9575 41.0975 35.9914 32.7282V13.1406C31.4092 14.8678 26.5532 15.7889 21.6457 15.8619V36.8046C21.6336 38.3694 22.2535 39.8752 23.3695 40.9921C24.4855 42.109 26.0067 42.746 27.6 42.7636Z" fill="#598096"/>
<path d="M43.4101 9.44067C42.7768 9.82942 42.1378 10.2015 41.4989 10.5514V32.5881C41.4989 35.6371 41.4989 43.6121 34.7134 46.8165C31.4507 48.5881 25.5303 49.46 21.3346 49.5933C19.5948 49.6395 17.8538 49.582 16.1211 49.4211V59.8564C20.7805 60.0341 30.9022 60.6394 38.174 56.7797C46.147 52.5423 50.6141 50.9706 57.688 50.8484V5.70308C52.6504 5.47582 47.6642 6.78108 43.4101 9.44067Z" fill="#BDB931"/>
<path d="M66.7231 16.4277H69.5504V26.2132C69.5504 28.2569 70.9075 29.4176 72.9828 29.4176C75.058 29.4176 76.4434 28.2569 76.4434 26.191V16.4277H79.2707V26.2132C79.2707 29.6342 76.7544 31.9556 73.0054 31.9556C69.2564 31.9556 66.7231 29.6342 66.7231 26.2132V16.4277Z" fill="#282B69"/>
<path d="M81.4263 20.7325H84.1009V21.9987C84.1005 22.2511 84.0854 22.5033 84.0556 22.754H84.1009C84.4762 22.0471 85.0464 21.4582 85.7463 21.0546C86.4463 20.6509 87.2477 20.4488 88.0591 20.4714C90.5302 20.4714 91.9325 21.7432 91.9325 24.6422V31.7009H89.1731V25.2031C89.1731 23.8702 88.8225 22.9817 87.4032 22.9817C86.7235 22.9757 86.0608 23.1902 85.518 23.5918C84.9751 23.9935 84.5823 24.5599 84.4006 25.2031C84.2733 25.6774 84.2237 26.1686 84.2536 26.6582V31.6953H81.4263V20.7325Z" fill="#282B69"/>
<path d="M94.6519 16.4277H97.4113V18.8824H94.6519V16.4277ZM94.6519 20.7318H97.434V31.7002H94.6519V20.7318Z" fill="#282B69"/>
<path d="M100.771 23.0759H99.3911V20.9045H100.771V20.4102C100.771 16.817 103.773 16.345 105.328 16.345C105.642 16.3423 105.956 16.3627 106.267 16.406V18.733C106.08 18.703 105.891 18.6882 105.702 18.6886C104.916 18.6886 103.559 18.8829 103.559 20.4713V20.9045H105.945V23.0759H103.559V31.7007H100.776L100.771 23.0759Z" fill="#282B69"/>
<path d="M112.764 20.4697C116.157 20.4697 118.916 22.8578 118.916 26.2122C118.916 29.5666 116.179 31.9546 112.786 31.9546C109.394 31.9546 106.634 29.5888 106.634 26.2122C106.634 22.8356 109.371 20.4697 112.764 20.4697ZM112.764 29.6332C113.46 29.6643 114.15 29.4899 114.744 29.1325C115.338 28.7751 115.81 28.2511 116.098 27.628C116.387 27.0049 116.478 26.3113 116.362 25.6365C116.245 24.9617 115.925 24.3368 115.444 23.8421C114.962 23.3474 114.341 23.0057 113.66 22.861C112.979 22.7163 112.269 22.7753 111.622 23.0303C110.976 23.2853 110.421 23.7247 110.031 24.2918C109.641 24.8589 109.433 25.5277 109.433 26.2122C109.411 26.6564 109.481 27.1005 109.64 27.5171C109.799 27.9336 110.043 28.3139 110.357 28.6343C110.671 28.9548 111.049 29.2087 111.467 29.3805C111.884 29.5523 112.334 29.6383 112.786 29.6332H112.764Z" fill="#282B69"/>
<path d="M120.606 20.732H123.27V22.6202C123.269 22.88 123.254 23.1395 123.225 23.3977H123.27C123.477 22.6179 123.933 21.9237 124.571 21.417C125.209 20.9103 125.995 20.6177 126.815 20.582C126.986 20.5831 127.156 20.5961 127.324 20.6209V23.3255C127.105 23.2937 126.884 23.2752 126.663 23.27C125.973 23.2721 125.303 23.4958 124.754 23.9069C124.206 24.3181 123.81 24.894 123.626 25.547C123.454 26.1257 123.374 26.727 123.389 27.3297V31.6782H120.606V20.732Z" fill="#282B69"/>
<path d="M129.214 20.7307H131.883V21.997C131.883 22.2494 131.868 22.5016 131.838 22.7523H131.883C132.224 22.0859 132.742 21.5223 133.382 21.1206C134.022 20.7189 134.76 20.4941 135.519 20.4697C137.216 20.4697 138.346 21.2472 138.782 22.7301H138.827C139.197 22.0521 139.747 21.4845 140.417 21.0868C141.088 20.6891 141.855 20.476 142.638 20.4697C144.957 20.4697 146.291 21.7637 146.291 24.6405V31.6992H143.509V25.157C143.509 23.913 143.272 22.9633 141.977 22.9633C140.557 22.9633 139.613 24.074 139.285 25.4624C139.185 25.9277 139.141 26.4031 139.155 26.8786V31.6992H136.373V25.157C136.373 23.9741 136.175 22.9633 134.863 22.9633C133.416 22.9633 132.477 24.074 132.126 25.4791C132.023 25.9384 131.98 26.4086 131.996 26.8786V31.6992H129.214V20.7307Z" fill="#282B69"/>
<path d="M67.9332 35.3984H69.5108L73.5369 44.2842C73.8875 45.0617 74.2833 46.1336 74.2833 46.1336H74.3286C74.3286 46.1336 74.7413 45.0617 75.0919 44.2842L79.1236 35.3984H80.6786L81.9 50.5376H80.3903L79.5364 39.9857C79.4742 39.1693 79.4968 37.8809 79.4968 37.8809H79.4516C79.4516 37.8809 78.9936 39.2138 78.643 39.9857L75.0297 47.7608H73.6048L69.9915 39.9857C69.6409 39.236 69.1603 37.8365 69.1603 37.8365H69.115C69.115 37.8365 69.115 39.1693 69.0698 39.9857L68.216 50.5376H66.7231L67.9332 35.3984Z" fill="#BDB931"/>
<path d="M89.6928 39.4307C92.7349 39.4307 94.29 41.7299 94.29 44.4289C94.29 44.6899 94.2447 45.1842 94.2447 45.1842H85.7968C85.859 47.961 87.7872 49.466 90.066 49.466C91.308 49.4432 92.4986 48.9751 93.4135 48.1498L94.092 49.2605C92.96 50.2211 91.5168 50.7546 90.0207 50.7656C89.2573 50.7926 88.4964 50.6652 87.7853 50.3911C87.0742 50.1171 86.4281 49.7023 85.8872 49.1726C85.3462 48.6429 84.922 48.0095 84.6409 47.3119C84.3597 46.6143 84.2277 45.8674 84.2531 45.1175C84.2531 41.5688 86.7128 39.4307 89.6928 39.4307ZM92.7802 43.968C92.6897 41.7076 91.293 40.6358 89.6475 40.6358C88.7041 40.6179 87.7888 40.9517 87.0859 41.57C86.383 42.1882 85.9446 43.045 85.859 43.968H92.7802Z" fill="#BDB931"/>
<path d="M101.014 39.4304C101.75 39.4041 102.479 39.5831 103.115 39.9468C103.752 40.3105 104.27 40.8439 104.611 41.4852H104.65C104.65 41.4852 104.611 41.0964 104.611 40.6688V35.3984H106.098V50.5376H104.65V49.4269C104.648 49.1688 104.663 48.911 104.695 48.6549H104.65C104.304 49.3411 103.761 49.9125 103.087 50.2984C102.414 50.6844 101.64 50.8679 100.862 50.8264C97.9098 50.8264 96.0664 48.505 96.0664 45.145C96.0664 41.7851 98.1247 39.4304 101.014 39.4304ZM101.082 49.4269C102.92 49.4269 104.65 48.1329 104.65 45.0562C104.65 42.8347 103.519 40.7132 101.15 40.7132C99.1991 40.7132 97.5988 42.3293 97.5988 45.0562C97.5988 47.783 99.0238 49.4657 101.082 49.4657V49.4269Z" fill="#BDB931"/>
<path d="M109.088 35.3984H110.643V37.2089H109.088V35.3984ZM109.134 39.6969H110.621V50.5376H109.134V39.6969Z" fill="#BDB931"/>
<path d="M118.746 39.4305C119.49 39.403 120.232 39.5264 120.926 39.793C121.619 40.0595 122.25 40.4636 122.777 40.98L122.008 42.0907C121.138 41.2495 119.967 40.777 118.746 40.7745C118.168 40.7648 117.595 40.8714 117.061 41.0879C116.527 41.3044 116.044 41.6261 115.642 42.0331C115.24 42.4401 114.927 42.9238 114.722 43.4543C114.518 43.9848 114.427 44.5508 114.454 45.1174C114.433 45.6865 114.53 46.2537 114.74 46.7846C114.949 47.3156 115.266 47.7991 115.672 48.2059C116.078 48.6126 116.563 48.9341 117.1 49.1507C117.636 49.3673 118.211 49.4746 118.791 49.4659C119.453 49.4616 120.108 49.3239 120.714 49.0612C121.319 48.7985 121.864 48.4164 122.314 47.9387L122.992 49.0772C122.431 49.631 121.762 50.0672 121.024 50.3594C120.286 50.6515 119.496 50.7934 118.7 50.7766C117.942 50.7737 117.191 50.624 116.492 50.3362C115.792 50.0484 115.157 49.6281 114.623 49.0993C114.088 48.5704 113.665 47.9434 113.378 47.254C113.09 46.5646 112.944 45.8263 112.947 45.0813C112.95 44.3363 113.102 43.5992 113.395 42.9121C113.688 42.2249 114.116 41.6011 114.655 41.0764C115.193 40.5517 115.832 40.1363 116.533 39.8539C117.235 39.5715 117.987 39.4276 118.746 39.4305Z" fill="#BDB931"/>
<path d="M131.187 43.8299H131.797V43.5523C131.797 41.4641 130.667 40.7755 129.061 40.7755C127.94 40.7926 126.852 41.1538 125.951 41.8084L125.249 40.6977C126.38 39.8548 127.766 39.4089 129.185 39.4315C131.831 39.4315 133.302 40.8699 133.302 43.58V50.5387H131.877V49.3558C131.875 49.0553 131.89 48.755 131.922 48.4561H131.877C131.567 49.1597 131.052 49.7576 130.397 50.1746C129.742 50.5916 128.976 50.8091 128.196 50.7997C126.358 50.7997 124.452 49.7446 124.452 47.5953C124.452 43.9133 129.292 43.8299 131.187 43.8299ZM128.427 49.528C130.531 49.528 131.82 47.3787 131.82 45.5071V45.0351H131.187C129.456 45.0351 125.996 45.0962 125.996 47.4842C125.985 48.495 126.793 49.528 128.439 49.528H128.427Z" fill="#BDB931"/>
<path d="M136.163 35.3984H137.656V47.6164C137.656 49.0381 138.311 49.2825 138.883 49.2825C139.005 49.2893 139.128 49.2893 139.25 49.2825V50.5376C139.063 50.567 138.874 50.5819 138.685 50.582C137.763 50.582 136.14 50.2988 136.14 47.9329L136.163 35.3984Z" fill="#BDB931"/>
<path d="M145.599 35.3984H150.92C153.679 35.3984 155.675 37.1589 155.675 39.958C155.675 42.757 153.679 44.5786 150.92 44.5786H147.114V50.5376H145.599V35.3984ZM150.727 43.2457C152.786 43.2457 154.12 42.0239 154.12 39.958C154.12 37.892 152.786 36.7313 150.727 36.7313H147.097V43.2457H150.727Z" fill="#BDB931"/>
<path d="M157.61 35.3984H159.097V47.6164C159.097 49.0381 159.753 49.2825 160.324 49.2825C160.449 49.2894 160.573 49.2894 160.698 49.2825V50.5376C160.511 50.5666 160.322 50.5814 160.132 50.582C159.21 50.582 157.593 50.2988 157.593 47.9329L157.61 35.3984Z" fill="#BDB931"/>
<path d="M168.619 43.8298H169.235V43.5521C169.235 41.4639 168.07 40.7753 166.499 40.7753C165.377 40.7909 164.289 41.1523 163.388 41.8083L162.682 40.6975C163.809 39.857 165.191 39.4112 166.606 39.4313C169.252 39.4313 170.722 40.8697 170.722 43.5799V50.5385H169.298V49.3556C169.296 49.0551 169.311 48.7548 169.343 48.4559H169.298C168.988 49.1586 168.474 49.7559 167.82 50.1729C167.166 50.5898 166.402 50.8078 165.622 50.7996C163.779 50.7996 161.873 49.7444 161.873 47.5951C161.873 43.9131 166.713 43.8298 168.619 43.8298ZM165.86 49.5278C167.963 49.5278 169.252 47.3785 169.252 45.507V45.0349H168.613C166.883 45.0349 163.422 45.096 163.422 47.484C163.417 48.4948 164.22 49.5278 165.86 49.5278Z" fill="#BDB931"/>
<path d="M173.664 39.6965H175.128V41.3126C175.128 41.6001 175.113 41.8874 175.083 42.1734H175.128C175.503 41.3404 176.121 40.6352 176.904 40.1469C177.687 39.6586 178.6 39.4091 179.527 39.4299C182.247 39.4299 183.208 40.9572 183.208 43.6229V50.5371H181.721V44.0227C181.721 42.3233 181.456 40.8183 179.329 40.8183C178.414 40.8271 177.526 41.1306 176.803 41.6823C176.08 42.2341 175.561 43.0036 175.326 43.8728C175.2 44.3495 175.141 44.8409 175.151 45.3334V50.5371H173.664V39.6965Z" fill="#BDB931"/>
<g clip-path="url(#clip0)">
<path d="M227.595 51.1045V50.6597L228.126 51.06L228.214 50.6153L227.905 49.9926L223.035 50.3039L222.726 49.7257L221.707 49.8592L221.265 45.2335L221.442 44.9666L222.416 48.7027L222.903 48.4359V46.9681L223.124 46.301L222.416 44.8777L223.434 43.4544L222.858 42.8762L222.371 43.3655L222.15 43.1875L222.062 43.5878L221.132 43.321L220.512 40.3855L221.132 41.364L221.442 41.3195L221.309 40.5189L223.389 39.1846L221.707 38.9622L221.22 38.2061L220.645 38.2506L220.557 39.4959L220.158 39.3625L219.361 35.1816L218.476 33.9807L216.794 28.2431L213.917 24.2847L213.651 18.5915L213.208 18.0133L215.687 18.5915L219.14 19.7035L219.494 20.1038L228.17 20.5486L228.391 20.1038L229.454 20.6375L229.941 21.616L230.118 20.7709L230.738 20.682L230.826 21.5271L231.224 21.705L231.136 22.1497L231.623 21.6605L231.136 20.6375L231.401 20.1927L232.021 19.9259L232.287 20.3262L231.933 20.7709L232.11 21.616L232.331 20.9933L232.641 21.5271L232.552 20.2817L233.084 20.4151L233.57 23.7954L233.084 24.0623L233.128 24.7294L232.597 24.7739L232.685 25.619L232.287 25.8414L232.331 24.8184L232.065 24.4181L231.888 25.4855L231.446 24.9073L231.667 26.1527L230.029 28.4211L229.896 29.0882L229.144 32.5574L232.021 31.0007L229.808 32.1127L229.764 31.4455L231.313 28.3321L232.641 27.0867L232.951 25.7524L233.748 24.1957L234.279 24.596L234.234 23.9288L233.792 23.3506L233.748 22.6835L234.721 23.4841L235.031 24.2402L234.943 24.685L235.253 25.53L233.615 26.1527L234.279 28.1987L234.057 28.4211L233.748 27.8428L233.349 27.8873L233.393 28.51L233.792 28.6879L233.438 29.3106L234.854 28.5545L235.12 29.1772L234.81 31.9348L234.544 32.2016L234.898 33.4025L233.969 32.8688L234.279 31.5789L233.172 32.7354L233.393 34.0252L233.216 34.9148L232.907 34.6924L232.685 31.7569L232.331 31.8013L232.154 32.8688L231.534 33.1801L231.49 34.47L230.295 34.3365L230.251 35.0037L231.003 34.9148L230.516 35.8488L230.56 36.4715L230.915 35.7598L231.667 35.315L231.003 36.6049L231.756 36.338L231.933 37.1386H232.198L232.11 35.8933L232.641 36.0712L232.552 35.1816L233.084 35.0927L233.438 36.1601L234.19 36.0712L234.854 34.47L234.898 33.6249L235.385 32.9577V32.513L236.625 33.447L236.138 32.2461L237.112 31.4455L236.89 30.2446L236.581 29.8443L236.226 28.1542L236.713 27.7094L236.005 26.6864L236.226 26.5085L236.271 23.7064L236.625 23.0393L236.669 21.9718L237.422 21.6605L237.289 21.2602L237.51 20.7709L236.005 20.1038L235.695 16.9459L234.721 16.4566L233.88 15.2113L232.862 15.3447L232.951 14.722L232.375 14.3217L233.261 14.0549L233.438 14.4107L234.5 14.5441L234.234 13.0319L234.589 12.5871L234.412 11.742L234.102 11.6086L234.19 10.4967L233.792 10.2743L234.146 10.0964L232.951 9.56264L232.774 10.4077L232.508 10.2743L232.42 9.60712L231.8 9.51816L231.711 8.67309L231.136 7.8725L231.401 7.60563L231.357 7.20534L230.87 7.24981L230.915 6.62713L231.357 6.76056L231.313 6.36027L285.538 0L288.371 41.8532L289.212 42.8317L289.256 43.8992L289.699 44.255L289.743 47.0571L279.562 47.9911L263.936 51.8606L259.421 54.0845L254.552 55.2854L252.25 57.02L249.727 57.7317L249.285 57.1534L242.733 57.6872L242.468 58.132L239.369 60L234.943 59.4218L233.836 54.4403L232.729 52.3944L230.56 50.9711L227.595 51.1045Z" fill="#015965"/>
<path d="M291.248 49.5483C291.248 51.5498 289.477 53.1955 287.308 53.1955H219.273C217.104 53.1955 215.333 51.5498 215.333 49.5483V35.8493C215.333 33.8478 217.104 32.2021 219.273 32.2021H287.352C289.521 32.2021 291.292 33.8478 291.292 35.8493V49.5483H291.248Z" fill="white" stroke="#015965" stroke-width="0.437608" stroke-miterlimit="10"/>
<path d="M222.194 51.0609H220.955C218.918 51.0609 217.236 49.771 217.236 48.1698V37.2729C217.236 35.6717 218.918 34.3818 220.955 34.3818H285.316C287.352 34.3818 289.034 35.6717 289.034 37.2729V48.1698C289.034 49.771 287.352 51.0609 285.316 51.0609H284.121" fill="white"/>
<path d="M222.194 51.0609H220.955C218.918 51.0609 217.236 49.771 217.236 48.1698V37.2729C217.236 35.6717 218.918 34.3818 220.955 34.3818H285.316C287.352 34.3818 289.034 35.6717 289.034 37.2729V48.1698C289.034 49.771 287.352 51.0609 285.316 51.0609H284.121" stroke="#015965" stroke-width="0.437608" stroke-miterlimit="10"/>
<path d="M227.462 50.8826H226.975V47.1465H228.082C228.392 47.1465 228.613 47.2354 228.79 47.4578C228.923 47.6802 229.011 47.9471 229.011 48.2584C229.011 48.6142 228.923 48.8811 228.746 49.1035C228.569 49.3259 228.392 49.4148 228.126 49.4148H227.462V50.8826ZM227.462 48.8366H228.037C228.17 48.8366 228.303 48.7921 228.392 48.7032C228.48 48.6142 228.524 48.4808 228.524 48.3029C228.524 48.1695 228.48 48.036 228.436 47.9026C228.347 47.8136 228.215 47.7247 228.037 47.7247H227.506V48.8366H227.462Z" fill="black"/>
<path d="M231.933 50.8826H231.402L231.003 49.3259H230.339V50.8826H229.853V47.1465H231.048C231.358 47.1465 231.623 47.2354 231.756 47.4578C231.889 47.6802 231.977 47.9026 231.977 48.2584C231.977 48.7477 231.8 49.059 231.49 49.2369L231.933 50.8826ZM230.295 48.7921H230.915C231.092 48.7921 231.225 48.7477 231.313 48.6587C231.402 48.5698 231.446 48.4363 231.446 48.2584C231.446 48.0805 231.402 47.9471 231.313 47.8581C231.225 47.7692 231.092 47.7247 230.959 47.7247H230.295V48.7921Z" fill="black"/>
<path d="M234.588 50.8826H232.818V47.1465H234.544V47.6802H233.305V48.7032H234.323V49.2369H233.305V50.3044H234.588V50.8826Z" fill="black"/>
<path d="M235.12 49.9921L235.607 49.8587C235.651 50.2145 235.872 50.3924 236.271 50.3924C236.448 50.3924 236.58 50.348 236.669 50.259C236.757 50.1701 236.802 50.0366 236.802 49.9032C236.802 49.8142 236.802 49.7253 236.757 49.6363C236.713 49.5474 236.625 49.5029 236.492 49.4139L235.961 49.236C235.784 49.1916 235.651 49.1026 235.562 49.0136C235.474 48.9247 235.429 48.8357 235.341 48.6578C235.297 48.5244 235.252 48.3465 235.252 48.1686C235.252 47.8128 235.341 47.5459 235.518 47.368C235.695 47.1456 235.916 47.0566 236.226 47.0566C236.448 47.0566 236.669 47.1456 236.846 47.279C237.023 47.4125 237.156 47.6348 237.2 47.8572L236.757 48.0351C236.669 47.7683 236.536 47.5904 236.271 47.5904C236.138 47.5904 236.005 47.6348 235.916 47.7238C235.828 47.8128 235.784 47.9017 235.784 48.0796C235.784 48.302 235.916 48.4354 236.182 48.5244L236.625 48.7023C236.89 48.7913 237.112 48.9247 237.2 49.1471C237.289 49.325 237.333 49.5474 237.333 49.7698C237.333 50.1256 237.244 50.4369 237.023 50.6148C236.802 50.8372 236.58 50.9262 236.226 50.9262C235.961 50.9262 235.739 50.8372 235.518 50.7038C235.341 50.5704 235.208 50.3035 235.12 49.9921Z" fill="black"/>
<path d="M239.679 49.5923L240.122 49.6812C240.078 50.0371 239.989 50.3484 239.812 50.6153C239.635 50.8377 239.414 50.9711 239.104 50.9711C238.838 50.9711 238.661 50.8821 238.484 50.7042C238.351 50.5263 238.218 50.3039 238.13 49.9926C238.041 49.6812 237.997 49.3699 237.997 49.0141C237.997 48.4359 238.086 47.9911 238.307 47.6353C238.484 47.2795 238.75 47.1016 239.104 47.1016C239.369 47.1016 239.591 47.235 239.768 47.4574C239.945 47.6798 240.078 47.9911 240.122 48.4359L239.679 48.4804C239.591 47.9022 239.414 47.6353 239.148 47.6353C238.971 47.6353 238.838 47.7687 238.705 47.9911C238.617 48.2135 238.573 48.5693 238.573 49.0141C238.573 49.4589 238.617 49.8147 238.75 50.0371C238.838 50.2595 239.015 50.3929 239.192 50.3929C239.325 50.3929 239.458 50.3039 239.546 50.1705C239.591 49.9926 239.635 49.8147 239.679 49.5923Z" fill="black"/>
<path d="M243 50.8826H242.469L242.07 49.3259H241.406V50.8826H240.919V47.1465H242.115C242.424 47.1465 242.69 47.2354 242.823 47.4578C242.956 47.6802 243.044 47.9026 243.044 48.2584C243.044 48.7477 242.867 49.059 242.557 49.2369L243 50.8826ZM241.406 48.7921H241.982C242.159 48.7921 242.292 48.7477 242.38 48.6587C242.469 48.5698 242.513 48.4363 242.513 48.2584C242.513 48.0805 242.469 47.9471 242.38 47.8581C242.292 47.7692 242.159 47.7247 242.026 47.7247H241.362V48.7921H241.406Z" fill="black"/>
<path d="M244.416 50.8826H243.929V47.1465H244.416V50.8826Z" fill="black"/>
<path d="M245.876 50.8826H245.389V47.1465H246.496C246.806 47.1465 247.027 47.2354 247.204 47.4578C247.337 47.6802 247.425 47.9471 247.425 48.2584C247.425 48.6142 247.337 48.8811 247.16 49.1035C246.983 49.3259 246.806 49.4148 246.54 49.4148H245.876V50.8826ZM245.876 48.8366H246.452C246.584 48.8366 246.717 48.7921 246.806 48.7032C246.894 48.6142 246.938 48.4808 246.938 48.3029C246.938 48.1695 246.894 48.036 246.85 47.9026C246.806 47.7692 246.629 47.7247 246.452 47.7247H245.92V48.8366H245.876Z" fill="black"/>
<path d="M249.196 50.8826H248.665V47.7247H247.957V47.1465H249.905V47.7247H249.196V50.8826Z" fill="black"/>
<path d="M251.099 50.8826H250.612V47.1465H251.099V50.8826Z" fill="black"/>
<path d="M253.092 50.9262C252.738 50.9262 252.473 50.7483 252.251 50.348C252.03 49.9921 251.941 49.5029 251.941 48.9692C251.941 48.4354 252.03 47.9907 252.251 47.5904C252.473 47.2345 252.738 47.0566 253.092 47.0566C253.446 47.0566 253.712 47.2345 253.933 47.5904C254.155 47.9462 254.243 48.4354 254.243 48.9692C254.243 49.5474 254.155 49.9921 253.933 50.348C253.712 50.7483 253.446 50.9262 253.092 50.9262ZM253.092 50.3924C253.269 50.3924 253.402 50.3035 253.535 50.0811C253.668 49.8587 253.712 49.5029 253.712 48.9692C253.712 48.5244 253.668 48.2131 253.579 47.9462C253.491 47.7238 253.314 47.5904 253.092 47.5904C252.694 47.5904 252.473 48.0351 252.473 48.9692C252.473 49.4139 252.517 49.7698 252.65 49.9921C252.738 50.3035 252.915 50.3924 253.092 50.3924Z" fill="black"/>
<path d="M257.164 50.8826H256.677L255.659 48.4808C255.659 48.4363 255.615 48.3919 255.57 48.3029C255.57 48.2584 255.526 48.2139 255.482 48.125V50.8826H255.083V47.1465H255.615L256.544 49.3259C256.544 49.3259 256.589 49.4593 256.721 49.7262V47.1465H257.12V50.8826H257.164Z" fill="black"/>
<path d="M259.909 49.9921L260.396 49.8587C260.44 50.2145 260.661 50.3924 261.06 50.3924C261.237 50.3924 261.369 50.348 261.458 50.259C261.547 50.1701 261.591 50.0366 261.591 49.9032C261.591 49.8142 261.591 49.7253 261.547 49.6363C261.502 49.5474 261.414 49.5029 261.281 49.4139L260.75 49.236C260.573 49.1916 260.44 49.1026 260.351 49.0136C260.263 48.9247 260.219 48.8357 260.13 48.6578C260.086 48.5244 260.041 48.3465 260.041 48.1686C260.041 47.8128 260.13 47.5459 260.307 47.368C260.484 47.1456 260.705 47.0566 261.015 47.0566C261.237 47.0566 261.458 47.1456 261.635 47.279C261.812 47.4125 261.945 47.6348 261.989 47.8572L261.547 48.0351C261.458 47.7683 261.325 47.5904 261.06 47.5904C260.927 47.5904 260.794 47.6348 260.705 47.7238C260.617 47.8128 260.573 47.9017 260.573 48.0796C260.573 48.302 260.705 48.4354 260.971 48.5244L261.414 48.7023C261.679 48.7913 261.901 48.9247 261.989 49.1471C262.078 49.325 262.122 49.5474 262.122 49.7698C262.122 50.1256 262.033 50.4369 261.812 50.6148C261.591 50.8372 261.369 50.9262 261.015 50.9262C260.75 50.9262 260.528 50.8372 260.307 50.7038C260.13 50.5704 259.997 50.3035 259.909 49.9921Z" fill="black"/>
<path d="M264.689 50.8826H262.918V47.1465H264.645V47.6802H263.405V48.7032H264.423V49.2369H263.405V50.3044H264.689V50.8826Z" fill="black"/>
<path d="M267.61 50.8826H267.079L266.681 49.3259H266.017V50.8826H265.53V47.1465H266.725C267.035 47.1465 267.3 47.2354 267.433 47.4578C267.566 47.6802 267.655 47.9026 267.655 48.2584C267.655 48.7477 267.477 49.059 267.168 49.2369L267.61 50.8826ZM265.972 48.7921H266.592C266.769 48.7921 266.902 48.7477 266.991 48.6587C267.079 48.5698 267.123 48.4363 267.123 48.2584C267.123 48.0805 267.079 47.9471 266.991 47.8581C266.902 47.7692 266.769 47.7247 266.636 47.7247H265.972V48.7921Z" fill="black"/>
<path d="M269.514 50.8826H269.027L268.186 47.1465H268.717L269.336 49.993L269.956 47.1465H270.355L269.514 50.8826Z" fill="black"/>
<path d="M271.55 50.8826H271.063V47.1465H271.55V50.8826Z" fill="black"/>
<path d="M274.074 49.5923L274.516 49.6812C274.472 50.0371 274.384 50.3484 274.206 50.6153C274.029 50.8377 273.808 50.9711 273.498 50.9711C273.233 50.9711 273.056 50.8821 272.879 50.7042C272.746 50.5263 272.613 50.3039 272.524 49.9926C272.436 49.6812 272.392 49.3699 272.392 49.0141C272.392 48.4359 272.48 47.9911 272.701 47.6353C272.879 47.2795 273.144 47.1016 273.498 47.1016C273.764 47.1016 273.985 47.235 274.162 47.4574C274.339 47.6798 274.472 47.9911 274.516 48.4359L274.074 48.4804C273.985 47.9022 273.808 47.6353 273.542 47.6353C273.365 47.6353 273.233 47.7687 273.1 47.9911C273.011 48.2135 272.967 48.5693 272.967 49.0141C272.967 49.4589 273.011 49.8147 273.144 50.0371C273.233 50.2595 273.41 50.3929 273.587 50.3929C273.72 50.3929 273.852 50.3039 273.941 50.1705C274.029 49.9926 274.074 49.8147 274.074 49.5923Z" fill="black"/>
<path d="M277.083 50.8826H275.312V47.1465H277.039V47.6802H275.799V48.7032H276.818V49.2369H275.799V50.3044H277.083V50.8826Z" fill="black"/>
<path d="M277.614 49.9921L278.101 49.8587C278.145 50.2145 278.367 50.3924 278.765 50.3924C278.942 50.3924 279.075 50.348 279.164 50.259C279.252 50.1701 279.296 50.0366 279.296 49.9032C279.296 49.8142 279.296 49.7253 279.252 49.6363C279.208 49.5474 279.119 49.5029 278.986 49.4139L278.455 49.236C278.278 49.1916 278.145 49.1026 278.057 49.0136C277.968 48.9247 277.924 48.8357 277.836 48.6578C277.791 48.5244 277.747 48.3465 277.747 48.1686C277.747 47.8128 277.836 47.5459 278.013 47.368C278.19 47.1456 278.411 47.0566 278.721 47.0566C278.942 47.0566 279.164 47.1456 279.341 47.279C279.518 47.4125 279.65 47.6348 279.695 47.8572L279.252 48.0351C279.164 47.7683 279.031 47.5904 278.765 47.5904C278.632 47.5904 278.5 47.6348 278.411 47.7238C278.323 47.8128 278.278 47.9017 278.278 48.0796C278.278 48.302 278.411 48.4354 278.677 48.5244L279.119 48.7023C279.385 48.7913 279.606 48.9247 279.695 49.1471C279.783 49.325 279.828 49.5474 279.828 49.7698C279.828 50.1256 279.739 50.4369 279.518 50.6148C279.296 50.8372 279.075 50.9262 278.721 50.9262C278.455 50.9262 278.234 50.8372 278.013 50.7038C277.836 50.5704 277.703 50.3035 277.614 49.9921Z" fill="black"/>
<path d="M218.565 38.8749V38.5636C218.609 38.5636 218.609 38.5191 218.609 38.5191C218.786 38.5191 218.963 38.5636 219.14 38.5636C219.229 38.5636 219.273 38.5636 219.273 38.5636C219.362 38.5636 219.45 38.5636 219.539 38.5636L219.937 38.5191L219.981 38.5636L219.937 38.7859C219.893 38.8304 219.849 38.8749 219.804 38.8749C219.716 38.9639 219.672 39.0083 219.672 39.0528C219.672 39.0973 219.672 39.1418 219.716 39.2307C219.716 39.2752 219.76 39.3197 219.76 39.4531C219.804 39.631 219.893 39.9868 220.07 40.654L220.911 43.634C221 43.3226 221.177 42.7889 221.398 42.0328L220.911 40.2982C220.822 39.9868 220.734 39.72 220.69 39.4976C220.69 39.4086 220.645 39.3642 220.645 39.3197C220.645 39.2752 220.601 39.2307 220.601 39.1862C220.601 39.1418 220.557 39.0528 220.513 39.0083C220.468 38.9639 220.38 38.9194 220.203 38.8304V38.5191C220.291 38.5191 220.38 38.5191 220.468 38.5191C220.645 38.5191 220.734 38.5636 220.822 38.5636H221.265L221.796 38.5191H221.841V38.697V38.7415C221.841 38.7415 221.841 38.786 221.841 38.8304C221.796 38.8304 221.752 38.8749 221.664 38.8749C221.619 38.8749 221.575 38.9194 221.531 38.9194C221.486 38.9639 221.486 38.9639 221.486 39.0083C221.486 39.0973 221.531 39.2307 221.575 39.3642C221.575 39.4086 221.619 39.5421 221.664 39.631C221.752 40.0758 221.841 40.3427 221.929 40.565L222.15 39.8534C222.239 39.5421 222.327 39.2752 222.372 39.1418C222.372 39.0973 222.372 39.0973 222.372 39.0528V39.0083C222.327 38.9639 222.327 38.9194 222.283 38.9194C222.239 38.8749 222.15 38.8304 222.018 38.7859C222.018 38.7415 222.018 38.6525 222.018 38.6525C222.018 38.608 222.018 38.5636 222.018 38.4746C222.106 38.4746 222.283 38.4746 222.593 38.5191C222.77 38.5191 222.903 38.5191 222.947 38.5191C222.991 38.5191 223.036 38.5191 223.08 38.5191C223.124 38.5191 223.169 38.5191 223.169 38.5191V38.5636V38.7859V38.8304C222.947 38.9194 222.814 39.0083 222.77 39.0528C222.726 39.0973 222.682 39.1862 222.637 39.2752C222.549 39.5421 222.327 40.1648 222.062 41.0988V41.1433L222.283 41.8549L222.637 43.1447C222.682 43.2782 222.682 43.3671 222.726 43.4116L223.124 41.7659L223.7 39.5421L223.788 39.1418C223.788 39.0973 223.788 39.0973 223.788 39.0528V38.9639C223.7 38.9194 223.655 38.9194 223.611 38.8749C223.567 38.8749 223.523 38.8304 223.478 38.7859C223.478 38.6525 223.478 38.608 223.478 38.5636C223.478 38.5191 223.478 38.5191 223.523 38.4746H223.567L224.054 38.5191L224.364 38.4746H224.408C224.408 38.5191 224.408 38.608 224.408 38.6525C224.408 38.697 224.408 38.7415 224.408 38.7859C224.408 38.8304 224.364 38.8304 224.364 38.8304C224.275 38.8749 224.231 38.9639 224.187 39.0083C224.142 39.0528 224.142 39.1418 224.098 39.3642C223.921 40.1203 223.7 40.8764 223.523 41.588C223.346 42.2997 223.036 43.4561 222.637 45.0128H222.327C222.327 44.8794 222.283 44.7904 222.239 44.7014C222.195 44.4791 222.15 44.3456 222.15 44.3011L221.796 43.1447C221.752 42.9223 221.708 42.7889 221.664 42.6555C221.664 42.6555 221.664 42.611 221.619 42.5665C221.619 42.5665 221.486 42.9223 221.265 43.545C221.044 44.2122 220.867 44.7014 220.778 45.0573H220.468C220.38 44.7014 220.247 44.1232 220.026 43.3671L219.008 39.631C218.875 39.2307 218.831 39.0083 218.786 38.9639C218.786 38.9194 218.742 38.9194 218.698 38.8749C218.653 38.9194 218.609 38.8749 218.565 38.8749Z" fill="black"/>
<path d="M224.275 44.9235V44.5677C224.32 44.5677 224.408 44.5232 224.497 44.4787C224.674 44.4342 224.762 44.3897 224.807 44.3453C224.851 44.3008 224.895 44.2118 224.939 44.0339L225.559 41.4098L226.312 38.3408C226.4 38.3408 226.444 38.3408 226.533 38.3408H226.666L226.71 38.4298L227.241 40.4757C227.374 40.9205 227.462 41.3208 227.595 41.7211C227.684 42.1214 227.772 42.4772 227.861 42.6996C227.905 42.833 227.949 43.0999 228.038 43.4112C228.082 43.5892 228.126 43.8115 228.215 44.0339C228.259 44.1674 228.304 44.2563 228.304 44.2563C228.348 44.3008 228.392 44.3453 228.481 44.3453C228.569 44.3453 228.658 44.3897 228.746 44.4787C228.746 44.5677 228.746 44.6566 228.746 44.7011C228.746 44.7456 228.746 44.7456 228.746 44.79C228.569 44.79 228.436 44.79 228.215 44.7456C228.038 44.7011 227.861 44.7011 227.728 44.7011C227.551 44.7011 227.418 44.7011 227.374 44.7011L226.843 44.7456H226.666C226.666 44.6121 226.666 44.5232 226.666 44.4342L227.02 44.3008C227.108 44.2563 227.197 44.2118 227.197 44.2118C227.197 44.1674 227.241 44.1229 227.241 44.0784C227.241 44.0339 227.241 43.9895 227.241 43.945L227.108 43.4557L226.843 42.4772H225.648C225.603 42.6551 225.515 43.0109 225.382 43.6336C225.338 43.8115 225.338 43.945 225.338 43.9895C225.338 44.0784 225.338 44.1229 225.382 44.1674C225.426 44.2118 225.515 44.2563 225.648 44.3008C225.648 44.3008 225.736 44.3453 225.869 44.3453C225.869 44.4787 225.869 44.5232 225.869 44.5677C225.869 44.6121 225.869 44.6566 225.869 44.7011C225.736 44.7011 225.426 44.6566 224.939 44.6121L224.807 44.6566C224.63 44.7011 224.497 44.7011 224.364 44.7011H224.275V44.9235ZM225.78 42.1214C226.267 42.1214 226.577 42.1214 226.666 42.1214H226.754C226.71 41.8101 226.621 41.4987 226.489 41.0984C226.4 40.6981 226.312 40.4313 226.223 40.2089L225.78 42.1214Z" fill="black"/>
<path d="M231.314 38.6526C231.314 38.786 231.358 38.9195 231.358 39.1863C231.402 39.5422 231.402 39.809 231.402 39.9869C231.402 40.0314 231.402 40.1204 231.402 40.1648H231.358L231.137 40.1204H231.093C231.004 39.6756 230.915 39.4087 230.827 39.2308C230.65 38.9639 230.473 38.8305 230.251 38.8305C230.03 38.8305 229.897 38.9195 229.765 39.0974C229.632 39.2753 229.587 39.4977 229.587 39.7201C229.587 39.9425 229.632 40.1204 229.765 40.3427C229.897 40.5207 230.119 40.743 230.517 40.921C230.65 40.9654 230.783 41.0544 231.004 41.1878C231.181 41.3212 231.314 41.4547 231.402 41.6326C231.535 41.855 231.624 42.0329 231.668 42.2108C231.712 42.3887 231.756 42.6556 231.756 42.9224C231.756 43.2338 231.712 43.5451 231.624 43.8565C231.579 44.0344 231.535 44.1678 231.447 44.3012C231.402 44.3902 231.27 44.5236 231.137 44.6571C231.004 44.7905 230.871 44.8794 230.738 44.9684C230.606 45.0129 230.429 45.0574 230.163 45.0574C230.03 45.0574 229.853 45.0129 229.632 44.9684L229.233 44.7905C229.145 44.746 229.056 44.7015 229.012 44.6571C229.012 44.6571 229.012 44.6126 228.968 44.5681V44.4791C228.968 44.4347 228.968 44.2123 228.968 43.812C228.968 43.5896 228.968 43.4562 228.968 43.3672V43.1448H229.278C229.366 43.5006 229.455 43.723 229.455 43.812C229.499 43.9899 229.587 44.1233 229.676 44.2123C229.765 44.3012 229.853 44.3902 229.942 44.4791C230.03 44.5236 230.163 44.5681 230.296 44.5681C230.429 44.5681 230.517 44.5236 230.694 44.4347C230.827 44.3457 230.96 44.2123 231.048 44.0788C231.137 43.9009 231.181 43.723 231.181 43.5006C231.181 43.2338 231.093 43.0114 230.96 42.8335C230.871 42.7001 230.65 42.5221 230.251 42.2998C229.853 42.0774 229.587 41.8995 229.455 41.7215C229.322 41.5436 229.189 41.3213 229.101 41.0544C229.012 40.7875 228.968 40.4762 228.968 40.2538C228.968 39.7201 229.101 39.2753 229.322 38.9195C229.543 38.5637 229.942 38.3857 230.384 38.3857C230.473 38.3857 230.65 38.4302 230.827 38.4747C230.96 38.4747 231.137 38.5192 231.314 38.6526Z" fill="black"/>
<path d="M232.155 44.9238C232.155 44.8349 232.155 44.7014 232.155 44.568L232.553 44.4791C232.597 44.4791 232.642 44.4346 232.73 44.3901L232.774 43.1447C232.774 42.7 232.774 42.3441 232.774 42.1218V41.9883C232.774 41.8549 232.774 41.4991 232.774 40.9653V40.8319V40.4316V39.9868V39.7645C232.774 39.5865 232.774 39.3642 232.73 39.0973C232.73 39.0528 232.73 39.0528 232.686 38.9639H232.642H232.597C232.509 38.9194 232.42 38.9194 232.332 38.9194H232.288C232.243 38.9194 232.199 38.8749 232.155 38.8749C232.155 38.786 232.155 38.697 232.155 38.697C232.155 38.6525 232.155 38.608 232.155 38.5191C232.199 38.5191 232.243 38.5191 232.332 38.5191C232.42 38.5191 232.465 38.5191 232.509 38.5191C232.774 38.5636 232.952 38.5636 233.084 38.608C233.129 38.608 233.217 38.608 233.261 38.608C233.306 38.608 233.35 38.608 233.438 38.608C233.527 38.608 233.66 38.608 233.97 38.5636C234.014 38.5636 234.058 38.5191 234.102 38.5191C234.191 38.5191 234.235 38.5191 234.28 38.5191C234.28 38.608 234.28 38.6525 234.28 38.6525C234.28 38.697 234.28 38.786 234.28 38.8304L233.704 38.9639C233.66 39.0083 233.66 39.0528 233.66 39.0973V39.2752V39.3642V39.5865V39.7645V39.8089C233.66 39.8534 233.66 39.8979 233.66 39.8979V40.5206C233.66 40.565 233.66 40.6095 233.66 40.654C233.66 40.654 233.66 40.743 233.66 40.8319C233.66 40.8764 233.66 40.9209 233.66 41.0098C233.66 41.0543 233.66 41.1877 233.66 41.3656C233.704 41.3656 233.748 41.4101 233.793 41.4101H234.28H234.501H235.076L235.652 41.3656C235.74 41.3656 235.785 41.3656 235.873 41.3212C235.873 41.1877 235.873 40.9209 235.873 40.4761V40.2537V39.4086L235.829 39.0528C235.829 39.0083 235.829 39.0083 235.785 39.0083C235.696 38.9639 235.563 38.8749 235.342 38.7859C235.298 38.7859 235.253 38.7415 235.209 38.7415C235.209 38.608 235.209 38.5191 235.253 38.4746C235.298 38.4746 235.342 38.4746 235.342 38.4746H235.652C235.829 38.5191 236.05 38.5191 236.271 38.5191C236.316 38.5191 236.36 38.5191 236.404 38.5191H236.803C236.847 38.5191 236.891 38.5191 236.935 38.5191C237.024 38.4746 237.068 38.4746 237.157 38.4746C237.201 38.4746 237.29 38.4746 237.378 38.4746C237.378 38.608 237.378 38.7415 237.378 38.8304C237.201 38.8749 237.068 38.9194 236.98 38.9639C236.935 39.0083 236.847 39.0528 236.803 39.0973V39.1862V39.2752V39.4086V39.4531C236.803 39.5421 236.803 39.5865 236.803 39.631V39.7645C236.803 39.8979 236.803 39.9868 236.803 40.0313V40.654V41.1433V41.7659C236.803 41.8994 236.803 42.2107 236.803 42.6555V43.3671V43.9453C236.803 44.0343 236.803 44.1677 236.803 44.3456C236.847 44.3456 236.891 44.3901 236.935 44.3901C237.112 44.4346 237.29 44.5235 237.378 44.6125V44.9683C237.29 44.9683 237.245 44.9683 237.245 44.9683C237.157 44.9683 237.024 44.9683 236.891 44.9238C236.714 44.8794 236.449 44.8794 236.05 44.8794C235.873 44.8794 235.652 44.8794 235.386 44.9238C235.342 44.9238 235.342 44.9238 235.298 44.8794C235.298 44.7459 235.298 44.6125 235.342 44.568L235.563 44.4791L235.829 44.4346C235.873 44.4346 235.873 44.3901 235.917 44.3901C235.917 44.1232 235.962 43.6785 235.962 43.0558V42.6555C235.962 42.4776 235.917 42.2552 235.917 42.0328C235.829 42.0328 235.74 42.0328 235.652 42.0328L234.191 41.9883H234.147H234.102H234.058C234.014 41.9883 233.97 41.9883 233.925 41.9883H233.837C233.793 41.9883 233.748 41.9883 233.704 42.0328V42.3886V42.4331C233.704 42.5221 233.704 42.5665 233.704 42.611V44.1677C233.704 44.2567 233.704 44.3456 233.704 44.4346L233.748 44.4791L234.235 44.6125C234.28 44.6125 234.28 44.6125 234.28 44.657C234.324 44.657 234.324 44.7014 234.368 44.7014C234.368 44.7904 234.368 44.8349 234.368 44.8349C234.368 44.8794 234.368 44.9238 234.368 45.0128C234.28 45.0128 234.235 45.0128 234.191 45.0128C234.147 45.0128 234.102 45.0128 234.058 45.0128H234.014L233.571 44.9683C233.483 44.9683 233.306 44.9238 233.129 44.9238H233.04C232.952 44.9238 232.907 44.9238 232.863 44.9238C232.642 44.8794 232.42 44.9238 232.155 44.9238Z" fill="black"/>
<path d="M237.865 44.9235V44.5677C237.909 44.5677 237.998 44.5232 238.086 44.4787C238.219 44.4342 238.308 44.3897 238.396 44.3008C238.441 44.2118 238.441 44.0339 238.441 43.856V43.2778V42.1659V41.899C238.441 41.2319 238.441 40.9205 238.441 40.876V40.2089V39.942V39.3638V39.1414C238.441 39.0969 238.441 39.0525 238.396 38.9635C238.308 38.919 238.175 38.8746 237.954 38.8301C237.909 38.8301 237.865 38.8301 237.821 38.8301V38.3853L238.75 38.4298C238.883 38.4298 238.927 38.4298 238.972 38.4298C239.104 38.4298 239.282 38.4298 239.591 38.3853C239.768 38.3853 239.857 38.3408 239.901 38.3408C239.901 38.3853 239.901 38.4743 239.901 38.5187C239.901 38.5632 239.901 38.6522 239.901 38.7411C239.813 38.7856 239.724 38.8301 239.591 38.8746C239.503 38.919 239.414 38.9635 239.326 39.008C239.326 39.0969 239.326 39.2304 239.326 39.3638C239.326 39.4972 239.326 39.6307 239.326 39.7196C239.326 40.2978 239.326 40.6981 239.326 41.0095V42.2993V42.9665V43.945V44.1229C239.326 44.1674 239.326 44.1674 239.326 44.2563C239.459 44.3008 239.591 44.3453 239.68 44.3453C239.68 44.3453 239.768 44.3453 239.857 44.3897C239.857 44.4787 239.857 44.5677 239.857 44.6566C239.857 44.7011 239.857 44.7456 239.857 44.8345C239.813 44.8345 239.813 44.8345 239.813 44.8345C239.724 44.8345 239.724 44.8345 239.68 44.8345C239.68 44.8345 239.636 44.8345 239.591 44.8345C239.547 44.8345 239.414 44.79 239.149 44.7456H238.573C238.441 44.7456 238.308 44.7456 238.086 44.79C237.998 44.9235 237.909 44.9235 237.865 44.9235Z" fill="black"/>
<path d="M240.21 38.9199V38.5641H240.476H240.565C240.697 38.5641 240.786 38.5641 240.83 38.5641C240.874 38.5641 240.919 38.5641 241.051 38.5641C241.096 38.5641 241.096 38.5641 241.14 38.5641C241.14 38.5641 241.229 38.5641 241.361 38.5641C241.494 38.5641 241.538 38.5641 241.538 38.5641C241.583 38.5641 241.583 38.5641 241.627 38.5641C241.937 39.0089 242.202 39.4092 242.424 39.765C242.645 40.1208 243.398 41.2772 244.681 43.2787V43.1453V42.5671C244.681 42.2112 244.681 41.9444 244.637 41.7665C244.637 41.5886 244.637 41.3217 244.637 41.0548C244.637 40.788 244.637 40.5211 244.637 40.2987C244.593 39.8539 244.593 39.6316 244.593 39.5426C244.593 39.3202 244.593 39.1868 244.548 39.1423C244.504 39.0533 244.416 39.0089 244.239 38.9644C244.106 38.9199 244.017 38.8754 243.973 38.831V38.5196H244.062L244.681 38.4751L245.389 38.4307C245.434 38.4307 245.478 38.4307 245.522 38.4307V38.7865C245.478 38.831 245.434 38.8754 245.389 38.8754C245.257 38.9199 245.168 38.9644 245.168 38.9644C245.08 39.0533 244.991 39.0978 244.991 39.1423C244.991 39.1868 244.947 39.2313 244.947 39.3202C244.947 39.3202 244.947 39.4092 244.947 39.5426C244.947 39.5871 244.947 39.7205 244.947 39.9429C244.947 40.4321 244.947 40.788 244.991 41.0993C244.991 41.1883 244.991 41.2772 244.991 41.4106L245.035 43.1453C245.035 43.2787 245.035 43.3677 245.035 43.4121V44.0348V44.3017V44.5685C245.035 44.702 245.035 44.7909 245.035 44.7909V45.0578H244.681L244.283 44.4351L243.486 43.2342L242.955 42.3892L242.557 41.8109C242.291 41.4106 242.07 41.0548 241.848 40.7435L241.317 40.0318L241.361 41.8554C241.361 41.9889 241.361 42.0778 241.361 42.2112V42.5671V43.2342C241.361 43.5011 241.361 43.8124 241.406 44.1238C241.406 44.2127 241.406 44.2572 241.406 44.3017C241.406 44.3462 241.406 44.3906 241.45 44.4351C241.538 44.4796 241.715 44.5241 241.981 44.5241C241.981 44.5241 242.025 44.5241 242.07 44.5685V44.9688H241.937C241.848 44.9688 241.671 44.9244 241.273 44.8799C240.919 44.8799 240.697 44.8799 240.609 44.9244C240.476 44.9244 240.432 44.9244 240.432 44.9244C240.388 44.9244 240.388 44.9244 240.343 44.9244C240.343 44.8354 240.343 44.7909 240.343 44.7465C240.343 44.702 240.343 44.6575 240.343 44.5685C240.388 44.5685 240.432 44.5241 240.476 44.5241C240.476 44.5241 240.52 44.5241 240.609 44.5241C240.786 44.5241 240.874 44.5241 240.919 44.4796C240.963 44.4351 240.963 44.3462 240.963 44.1238C240.963 43.59 240.963 43.2787 240.963 43.1453V42.8784V41.2772V40.2542C240.963 39.8539 240.963 39.5871 240.919 39.4536C240.919 39.3647 240.874 39.3202 240.83 39.2757C240.742 39.1423 240.653 39.0533 240.565 39.0089C240.609 39.0089 240.432 38.9644 240.21 38.9199Z" fill="black"/>
<path d="M249.817 38.9199C249.817 39.0089 249.861 39.1868 249.861 39.4981C249.861 39.765 249.905 39.9874 249.905 40.1208C249.905 40.1653 249.905 40.2098 249.905 40.2987C249.817 40.2987 249.728 40.2987 249.684 40.2542C249.507 39.8539 249.418 39.6316 249.33 39.5426C249.197 39.3647 249.064 39.1868 248.843 39.0533C248.71 38.9644 248.533 38.9199 248.356 38.9199C248.002 38.9199 247.692 39.1868 247.426 39.676C247.161 40.1653 247.028 40.9214 247.028 41.8999C247.028 42.3447 247.072 42.7894 247.205 43.2342C247.293 43.679 247.471 43.9903 247.692 44.2572C247.913 44.5241 248.134 44.613 248.444 44.613C248.577 44.613 248.71 44.5685 248.887 44.5241C248.976 44.4796 249.02 44.4351 249.064 44.3462C249.108 44.3017 249.108 44.2127 249.153 44.1238C249.153 43.9459 249.197 43.679 249.197 43.3232C249.197 42.9674 249.197 42.745 249.197 42.6115C249.197 42.5671 249.153 42.5226 249.153 42.5226C249.153 42.5226 249.108 42.4781 249.02 42.4336L248.621 42.3002C248.577 42.2557 248.533 42.2557 248.489 42.2112C248.489 42.1668 248.489 42.1223 248.489 42.1223C248.489 42.0778 248.489 41.9889 248.533 41.9444C248.577 41.9444 248.577 41.8999 248.621 41.8999C248.843 41.8999 249.064 41.8999 249.241 41.9444C249.285 41.9444 249.374 41.9444 249.418 41.9444H249.905H250.126C250.171 41.9444 250.215 41.9444 250.348 41.9444C250.348 42.0333 250.348 42.1223 250.348 42.1668C250.348 42.2112 250.348 42.2557 250.303 42.3002C250.259 42.3447 250.215 42.3892 250.126 42.4336C250.038 42.4781 249.994 42.5226 249.994 42.5226C249.994 42.5671 249.949 42.6115 249.949 42.656C249.949 42.7005 249.949 42.9229 249.949 43.2342C249.949 43.6345 249.949 43.8569 249.949 43.9459C249.949 44.1682 249.949 44.3462 249.949 44.3462C249.949 44.4796 249.949 44.5241 249.905 44.5685C249.861 44.6575 249.64 44.7465 249.33 44.8799C249.02 45.0133 248.666 45.0578 248.267 45.0578C248.002 45.0578 247.736 45.0133 247.515 44.9688C247.293 44.8799 247.116 44.7909 246.984 44.6575C246.762 44.4796 246.629 44.2572 246.452 43.9903C246.32 43.7235 246.187 43.4566 246.143 43.1453C246.054 42.7005 246.01 42.2557 246.01 41.8554C246.01 41.3662 246.098 40.8769 246.231 40.3877C246.32 40.0319 246.497 39.7205 246.674 39.4092C246.851 39.0978 247.116 38.8754 247.382 38.6975C247.692 38.5196 248.002 38.4307 248.312 38.4307C248.356 38.4307 248.444 38.4307 248.533 38.4751C248.798 38.4751 249.02 38.5196 249.241 38.6086C249.462 38.6531 249.684 38.7865 249.817 38.9199Z" fill="black"/>
<path d="M250.789 38.208H250.966C250.966 38.2525 251.011 38.2525 251.011 38.297C251.055 38.4749 251.099 38.5638 251.143 38.6083C251.188 38.6083 251.321 38.6083 251.586 38.6083C251.763 38.6083 251.896 38.6083 252.029 38.6083H252.073H252.471H253.18H254.153L254.331 38.5638C254.375 38.5193 254.375 38.4749 254.419 38.3414C254.419 38.297 254.419 38.2525 254.463 38.208H254.596C254.596 38.208 254.64 38.208 254.685 38.208C254.685 38.4304 254.685 38.7862 254.685 39.231V39.6758V39.9426C254.685 40.0316 254.685 40.1205 254.685 40.165C254.596 40.2095 254.508 40.254 254.463 40.254C254.419 40.1205 254.331 39.9426 254.286 39.6758C254.242 39.4534 254.198 39.2755 254.153 39.2755C254.109 39.231 254.109 39.1865 254.065 39.1865C254.021 39.1865 253.799 39.142 253.401 39.142C253.357 39.142 253.268 39.142 253.18 39.142C253.18 39.2755 253.18 39.3644 253.18 39.4534V40.1205V41.5883V43.145V43.8122C253.18 44.0345 253.18 44.2125 253.224 44.3459C253.268 44.3904 253.312 44.3904 253.401 44.3904C253.401 44.3904 253.49 44.4348 253.622 44.4793C253.667 44.5238 253.755 44.5238 253.799 44.5683C253.799 44.7017 253.799 44.7462 253.799 44.7907C253.799 44.8351 253.799 44.8796 253.799 44.9241C253.755 44.9241 253.711 44.9241 253.667 44.9241C253.445 44.9241 253.268 44.9241 253.091 44.8796C252.958 44.8351 252.648 44.8351 252.25 44.8351C252.206 44.8351 251.984 44.8351 251.675 44.8796C251.542 44.8796 251.453 44.8796 251.453 44.8796C251.453 44.8351 251.453 44.7907 251.453 44.7462V44.6128V44.5683C251.498 44.4793 251.586 44.3904 251.719 44.3459C251.94 44.2569 252.073 44.168 252.162 44.1235C252.162 44.079 252.206 43.9901 252.206 43.8566C252.206 43.4563 252.206 42.8337 252.206 41.9441V40.0761C252.206 39.5423 252.206 39.231 252.206 39.142C252.206 39.0976 252.206 39.0976 252.162 39.0531L252.117 39.0086C252.073 39.0086 251.852 39.0086 251.453 39.0086C251.276 39.0086 251.099 39.0531 251.055 39.0976C250.966 39.1865 250.834 39.4089 250.657 39.7647C250.612 39.8537 250.568 39.9426 250.524 39.9426C250.435 39.8537 250.347 39.8092 250.347 39.7647C250.391 39.5423 250.524 39.0976 250.612 38.4749C250.745 38.4304 250.789 38.297 250.789 38.208Z" fill="black"/>
<path d="M255.084 41.6326C255.084 41.2323 255.128 40.832 255.217 40.3872C255.305 40.0759 255.394 39.809 255.527 39.5866C255.659 39.3198 255.836 39.0974 256.014 38.9195C256.235 38.7416 256.412 38.6081 256.633 38.5192C256.855 38.4302 257.076 38.3857 257.342 38.3857C257.784 38.3857 258.183 38.5192 258.492 38.786C258.802 39.0529 259.068 39.4087 259.245 39.8535C259.466 40.4317 259.599 41.0099 259.599 41.6771C259.599 42.6111 259.378 43.4117 258.979 44.0788C258.581 44.746 258.005 45.1018 257.253 45.1018C257.076 45.1018 256.899 45.1018 256.766 45.0573C256.633 45.0129 256.545 45.0129 256.456 44.9684C256.279 44.8794 256.191 44.835 256.191 44.835C255.969 44.6126 255.792 44.4347 255.615 44.2123C255.482 43.9899 255.35 43.7675 255.261 43.5006C255.217 43.3672 255.128 43.0559 255.084 42.6556C255.128 42.2553 255.084 41.9884 255.084 41.6326ZM257.253 38.875C257.076 38.875 256.899 38.9639 256.766 39.0974C256.633 39.2308 256.5 39.3642 256.456 39.5422C256.323 39.809 256.235 40.1204 256.191 40.4317C256.146 40.743 256.102 41.1433 256.102 41.6326C256.102 41.8995 256.102 42.1218 256.146 42.2553C256.146 42.2997 256.146 42.3442 256.146 42.4777C256.146 42.7445 256.191 42.9224 256.235 43.0114C256.323 43.4117 256.412 43.6785 256.412 43.812C256.456 43.9899 256.589 44.1678 256.678 44.3012C256.722 44.3902 256.855 44.4791 256.943 44.5236C257.076 44.6126 257.164 44.6126 257.297 44.6126C257.519 44.6126 257.74 44.5236 257.917 44.3457C258.094 44.1678 258.271 43.9009 258.404 43.5006C258.537 43.1003 258.581 42.5666 258.581 41.9439C258.581 41.6771 258.581 41.3212 258.537 40.8765V40.7875C258.537 40.743 258.537 40.6986 258.492 40.5651C258.404 40.0314 258.271 39.5866 258.05 39.3198C257.873 39.0084 257.607 38.875 257.253 38.875Z" fill="black"/>
<path d="M259.997 38.9199V38.5641H260.263H260.351C260.484 38.5641 260.573 38.5641 260.617 38.5641C260.661 38.5641 260.705 38.5641 260.838 38.5641C260.882 38.5641 260.882 38.5641 260.927 38.5641C260.927 38.5641 261.015 38.5641 261.148 38.5641C261.281 38.5641 261.325 38.5641 261.325 38.5641C261.369 38.5641 261.369 38.5641 261.414 38.5641C261.723 39.0089 261.989 39.4092 262.21 39.765C262.432 40.1208 263.184 41.2772 264.468 43.2787V43.1453V42.5671C264.468 42.2112 264.468 41.9444 264.424 41.7665C264.424 41.5886 264.424 41.3217 264.424 41.0548C264.424 40.788 264.424 40.5211 264.379 40.2987C264.335 39.8539 264.335 39.6316 264.335 39.5426C264.335 39.3202 264.335 39.1868 264.291 39.1423C264.247 39.0533 264.158 39.0089 263.981 38.9644C263.848 38.9199 263.76 38.8754 263.715 38.831V38.5196H263.804L264.424 38.4751L265.132 38.4307C265.176 38.4307 265.22 38.4307 265.265 38.4307V38.7865C265.22 38.831 265.176 38.8754 265.132 38.8754C264.999 38.9199 264.911 38.9644 264.911 38.9644C264.822 39.0533 264.733 39.0978 264.733 39.1423C264.733 39.1868 264.689 39.2313 264.689 39.3202C264.689 39.3202 264.689 39.4092 264.689 39.5426C264.689 39.5871 264.689 39.7205 264.689 39.9429C264.689 40.4321 264.689 40.788 264.733 41.0993C264.733 41.1883 264.733 41.2772 264.733 41.4106L264.778 43.1453C264.778 43.2787 264.778 43.3677 264.778 43.4121V44.0348V44.3017V44.5685C264.778 44.702 264.778 44.7909 264.778 44.7909V45.0578H264.424L264.025 44.4351L263.228 43.2342L262.697 42.3892L262.343 41.8109C262.078 41.4106 261.856 41.0548 261.635 40.7435L261.104 40.0318L261.148 41.8554C261.148 41.9889 261.148 42.0778 261.148 42.2112V42.5671V43.2342C261.148 43.5011 261.148 43.8124 261.192 44.1238C261.192 44.2127 261.192 44.2572 261.192 44.3017C261.192 44.3462 261.192 44.3906 261.236 44.4351C261.325 44.4796 261.502 44.5241 261.768 44.5241C261.768 44.5241 261.812 44.5241 261.856 44.5685V44.9688H261.723C261.635 44.9688 261.458 44.9244 261.059 44.8799C260.705 44.8799 260.484 44.8799 260.395 44.9244C260.263 44.9244 260.218 44.9244 260.218 44.9244C260.174 44.9244 260.174 44.9244 260.13 44.9244C260.13 44.8354 260.13 44.7909 260.13 44.7465C260.13 44.702 260.13 44.6575 260.13 44.5685C260.174 44.5685 260.218 44.5241 260.263 44.5241C260.263 44.5241 260.307 44.5241 260.395 44.5241C260.573 44.5241 260.661 44.5241 260.705 44.4796C260.75 44.4351 260.75 44.3462 260.75 44.1238C260.75 43.59 260.75 43.2787 260.75 43.1453V42.8784V41.2772V40.2542C260.75 39.8539 260.75 39.5871 260.705 39.4536C260.705 39.3647 260.661 39.3202 260.617 39.2757C260.528 39.1423 260.44 39.0533 260.351 39.0089C260.395 39.0089 260.263 38.9644 259.997 38.9199Z" fill="black"/>
<path d="M269.824 38.6526C269.824 38.786 269.868 38.9195 269.868 39.1863C269.913 39.5422 269.913 39.809 269.913 39.9869C269.913 40.0314 269.913 40.1204 269.913 40.1648H269.868L269.647 40.1204H269.603C269.514 39.6756 269.426 39.4087 269.337 39.2308C269.16 38.9639 268.983 38.8305 268.762 38.8305C268.54 38.8305 268.408 38.9195 268.275 39.0974C268.142 39.2753 268.098 39.4977 268.098 39.7201C268.098 39.9425 268.142 40.1204 268.275 40.3427C268.408 40.5207 268.629 40.743 269.027 40.921C269.16 40.9654 269.293 41.0544 269.514 41.1878C269.691 41.3212 269.824 41.4547 269.913 41.6326C270.045 41.855 270.134 42.0329 270.178 42.2108C270.222 42.3887 270.267 42.6556 270.267 42.9224C270.267 43.2338 270.222 43.5451 270.134 43.8565C270.09 44.0344 270.045 44.1678 269.957 44.3012C269.913 44.3902 269.78 44.5236 269.647 44.6571C269.514 44.7905 269.381 44.8794 269.249 44.9684C269.116 45.0129 268.939 45.0574 268.673 45.0574C268.54 45.0574 268.363 45.0129 268.142 44.9684L267.744 44.7905C267.655 44.746 267.567 44.7015 267.522 44.6571C267.522 44.6571 267.522 44.6126 267.478 44.5681V44.4791C267.478 44.4347 267.478 44.2123 267.478 43.812C267.478 43.5896 267.478 43.4562 267.478 43.3672V43.1448H267.788C267.876 43.5006 267.965 43.723 267.965 43.812C268.009 43.9899 268.098 44.1233 268.186 44.2123C268.275 44.3012 268.363 44.3902 268.452 44.4791C268.54 44.5236 268.673 44.5681 268.806 44.5681C268.939 44.5681 269.027 44.5236 269.204 44.4347C269.337 44.3457 269.47 44.2123 269.558 44.0788C269.647 43.9009 269.691 43.723 269.691 43.5006C269.691 43.2338 269.603 43.0114 269.47 42.8335C269.381 42.7001 269.16 42.5221 268.762 42.2998C268.363 42.0774 268.098 41.8995 267.965 41.7215C267.832 41.5436 267.699 41.3213 267.611 41.0544C267.522 40.7875 267.478 40.4762 267.478 40.2538C267.478 39.7201 267.611 39.2753 267.832 38.9195C268.053 38.5637 268.452 38.3857 268.895 38.3857C268.983 38.3857 269.16 38.4302 269.337 38.4747C269.47 38.4747 269.603 38.5192 269.824 38.6526Z" fill="black"/>
<path d="M270.798 38.208H270.975C270.975 38.2525 271.019 38.2525 271.019 38.297C271.064 38.4749 271.108 38.5638 271.152 38.6083C271.197 38.6083 271.329 38.6083 271.595 38.6083C271.772 38.6083 271.905 38.6083 272.038 38.6083H272.082H272.48H273.188H274.162L274.339 38.5638C274.384 38.5193 274.384 38.4749 274.428 38.3414C274.428 38.297 274.428 38.2525 274.472 38.208H274.605C274.605 38.208 274.649 38.208 274.693 38.208C274.693 38.4304 274.693 38.7862 274.693 39.231V39.6758V39.9426C274.693 40.0316 274.693 40.1205 274.693 40.165C274.605 40.2095 274.516 40.254 274.472 40.254C274.428 40.1205 274.339 39.9426 274.295 39.6758C274.251 39.4534 274.207 39.2755 274.162 39.2755C274.118 39.231 274.118 39.1865 274.074 39.1865C274.029 39.1865 273.808 39.142 273.41 39.142C273.365 39.142 273.277 39.142 273.188 39.142C273.188 39.2755 273.188 39.3644 273.188 39.4534V40.1205V41.5883V43.145V43.8122C273.188 44.0345 273.188 44.2125 273.233 44.3459C273.277 44.3904 273.321 44.3904 273.41 44.3904C273.41 44.3904 273.498 44.4348 273.631 44.4793C273.675 44.5238 273.764 44.5238 273.808 44.5683C273.808 44.7017 273.808 44.7462 273.808 44.7907C273.808 44.8351 273.808 44.8796 273.808 44.9241C273.764 44.9241 273.72 44.9241 273.675 44.9241C273.454 44.9241 273.277 44.9241 273.1 44.8796C272.967 44.8351 272.657 44.8351 272.259 44.8351C272.215 44.8351 271.993 44.8351 271.683 44.8796C271.551 44.8796 271.462 44.8796 271.462 44.8796C271.462 44.8351 271.462 44.7907 271.462 44.7462V44.6128V44.5683C271.506 44.4793 271.595 44.3904 271.728 44.3459C271.949 44.2569 272.082 44.168 272.17 44.1235C272.17 44.079 272.215 43.9901 272.215 43.8566C272.215 43.4563 272.215 42.8337 272.215 41.9441V40.0761C272.215 39.5423 272.215 39.231 272.215 39.142C272.215 39.0976 272.215 39.0976 272.17 39.0531L272.126 39.0086C272.082 39.0086 271.86 39.0086 271.462 39.0086C271.285 39.0086 271.108 39.0531 271.064 39.0976C270.975 39.1865 270.842 39.4089 270.665 39.7647C270.621 39.8537 270.577 39.9426 270.533 39.9426C270.444 39.8537 270.355 39.8092 270.355 39.7647C270.4 39.5423 270.533 39.0976 270.621 38.4749C270.754 38.4304 270.798 38.297 270.798 38.208Z" fill="black"/>
<path d="M274.383 44.9235V44.5677C274.427 44.5677 274.516 44.5232 274.604 44.4787C274.781 44.4342 274.87 44.3897 274.914 44.3453C274.958 44.3008 275.003 44.2118 275.047 44.0339L275.711 41.4098L276.463 38.3408C276.552 38.3408 276.596 38.3408 276.685 38.3408H276.817L276.862 38.4298L277.393 40.4757C277.526 40.9205 277.614 41.3208 277.747 41.7211C277.835 42.1214 277.924 42.4772 278.013 42.6996C278.057 42.833 278.101 43.0999 278.19 43.4112C278.234 43.5892 278.278 43.8115 278.367 44.0339C278.411 44.1674 278.455 44.2563 278.455 44.2563C278.499 44.3008 278.544 44.3453 278.632 44.3453C278.721 44.3453 278.809 44.3897 278.898 44.4787C278.898 44.5677 278.898 44.6566 278.898 44.7011C278.898 44.7456 278.898 44.7456 278.898 44.79C278.721 44.79 278.588 44.79 278.367 44.7456C278.19 44.7011 278.013 44.7011 277.88 44.7011C277.703 44.7011 277.57 44.7011 277.526 44.7011L276.95 44.9235H276.773C276.773 44.79 276.773 44.7011 276.773 44.6121L277.127 44.4787C277.216 44.4342 277.304 44.3897 277.304 44.3897C277.304 44.3453 277.349 44.3008 277.349 44.2563C277.349 44.2118 277.349 44.1674 277.349 44.1229L277.216 43.6336L276.95 42.6551H275.755C275.711 42.833 275.622 43.1889 275.489 43.8115C275.445 43.9894 275.445 44.1229 275.445 44.1674C275.445 44.2563 275.445 44.3008 275.489 44.3453C275.534 44.3897 275.622 44.4342 275.755 44.4787C275.755 44.4787 275.844 44.5232 275.976 44.5232C275.976 44.6566 275.976 44.7011 275.976 44.7456C275.976 44.79 275.976 44.8345 275.976 44.879C275.844 44.879 275.534 44.8345 275.047 44.79L274.914 44.8345C274.737 44.879 274.604 44.879 274.471 44.879H274.383V44.9235ZM275.888 42.1214C276.375 42.1214 276.685 42.1214 276.773 42.1214H276.862C276.817 41.8101 276.729 41.4987 276.596 41.0984C276.508 40.6981 276.419 40.4313 276.33 40.2089L275.888 42.1214Z" fill="black"/>
<path d="M279.075 38.208H279.252C279.252 38.2525 279.296 38.2525 279.296 38.297C279.341 38.4749 279.385 38.5638 279.429 38.6083C279.473 38.6083 279.606 38.6083 279.872 38.6083C280.049 38.6083 280.182 38.6083 280.314 38.6083H280.359H280.757H281.465H282.439L282.616 38.5638C282.66 38.5193 282.66 38.4749 282.705 38.3414C282.705 38.297 282.705 38.2525 282.749 38.208H282.882C282.882 38.208 282.926 38.208 282.97 38.208C282.97 38.4304 282.97 38.7862 282.97 39.231V39.6758V39.9426C282.97 40.0316 282.97 40.1205 282.97 40.165C282.882 40.2095 282.793 40.254 282.749 40.254C282.705 40.1205 282.616 39.9426 282.572 39.6758C282.528 39.4534 282.483 39.2755 282.439 39.2755C282.395 39.231 282.395 39.1865 282.351 39.1865C282.306 39.1865 282.085 39.142 281.687 39.142C281.642 39.142 281.554 39.142 281.465 39.142C281.465 39.2755 281.465 39.3644 281.465 39.4534V40.1205V41.5883V43.145V43.8122C281.465 44.0345 281.465 44.2125 281.51 44.3459C281.554 44.3904 281.598 44.3904 281.687 44.3904C281.687 44.3904 281.775 44.4348 281.908 44.4793C281.952 44.5238 282.041 44.5238 282.085 44.5683C282.085 44.7017 282.085 44.7462 282.085 44.7907C282.085 44.8351 282.085 44.8796 282.085 44.9241C282.041 44.9241 281.996 44.9241 281.952 44.9241C281.731 44.9241 281.554 44.9241 281.377 44.8796C281.244 44.8351 280.934 44.8351 280.536 44.8351C280.491 44.8351 280.27 44.8351 279.96 44.8796C279.827 44.8796 279.739 44.8796 279.739 44.8796C279.739 44.8351 279.739 44.7907 279.739 44.7462V44.6128V44.5683C279.783 44.4793 279.872 44.3904 280.005 44.3459C280.226 44.2569 280.359 44.168 280.447 44.1235C280.447 44.079 280.491 43.9901 280.491 43.8566C280.491 43.4563 280.491 42.8337 280.491 41.9441V40.0761C280.491 39.5423 280.491 39.231 280.491 39.142C280.491 39.0976 280.491 39.0976 280.447 39.0531L280.403 39.0086C280.359 39.0086 280.137 39.0086 279.739 39.0086C279.518 39.0086 279.385 39.0531 279.341 39.0976C279.252 39.1865 279.119 39.4089 278.942 39.7647C278.898 39.8537 278.854 39.9426 278.809 39.9426C278.721 39.8537 278.632 39.8092 278.632 39.7647C278.677 39.5423 278.809 39.0976 278.898 38.4749C279.031 38.4304 279.075 38.297 279.075 38.208Z" fill="black"/>
<path d="M283.369 38.5186C283.501 38.5186 283.59 38.563 283.678 38.563C283.856 38.6075 284.033 38.6075 284.254 38.6075C284.342 38.6075 284.52 38.6075 284.829 38.563C285.316 38.5186 285.715 38.5186 286.113 38.5186H286.689C286.821 38.5186 286.998 38.563 287.264 38.6075C287.308 38.652 287.308 38.7409 287.308 38.8744V39.8974V40.1197C287.308 40.1197 287.308 40.1642 287.308 40.2087H287.175C287.175 40.2087 287.131 40.2087 287.087 40.2087C287.087 40.1642 287.043 40.0308 286.998 39.8974L286.866 39.5415C286.821 39.4081 286.733 39.2302 286.644 39.0968C286.6 39.0523 286.511 39.0523 286.423 39.0523C286.423 39.0523 286.334 39.0523 286.246 39.0078C286.069 38.9633 285.847 38.9633 285.626 38.9633C285.361 38.9633 285.139 38.9633 284.918 38.9633C284.918 39.0523 284.918 39.3636 284.918 39.9418V40.7869V41.4096C284.962 41.4096 285.006 41.4096 285.051 41.4096C285.449 41.4096 285.715 41.4096 285.847 41.3651C286.025 41.3206 286.113 41.3206 286.157 41.2762C286.202 41.2317 286.246 41.1427 286.246 41.0538C286.246 40.9648 286.29 40.7424 286.379 40.3421H286.423H286.6C286.6 40.6535 286.6 40.8759 286.6 41.0093C286.6 41.3651 286.6 41.5875 286.6 41.6764C286.6 41.7654 286.6 41.8544 286.6 41.8988C286.6 41.9878 286.6 42.1212 286.6 42.3436C286.6 42.5215 286.6 42.6994 286.6 42.7884V42.8773H286.379C286.379 42.8329 286.334 42.6994 286.334 42.566C286.29 42.2547 286.246 42.0767 286.202 41.9878C286.157 41.9433 286.113 41.8988 286.069 41.8544C286.025 41.8099 285.847 41.8099 285.582 41.8099C285.272 41.8099 285.006 41.8099 284.874 41.8544C284.874 41.9433 284.874 41.9878 284.874 42.0323C284.874 42.4326 284.874 42.7439 284.874 43.0108V44.0782C284.874 44.2117 284.918 44.3006 284.962 44.3451C285.051 44.434 285.316 44.434 285.759 44.434C286.069 44.434 286.29 44.3896 286.511 44.3451C286.644 44.3006 286.777 44.1672 286.866 43.9893C286.998 43.7669 287.131 43.4555 287.22 43.0552C287.308 43.0552 287.353 43.0552 287.397 43.0552C287.441 43.0552 287.441 43.0552 287.485 43.0552C287.485 43.1442 287.485 43.1887 287.485 43.2776V43.4111L287.353 44.3451L287.308 44.9233C287.175 44.9233 287.043 44.9233 286.998 44.9233C286.866 44.9233 286.556 44.9233 286.025 44.8788C285.67 44.8343 285.228 44.8343 284.697 44.8343C284.431 44.8343 284.121 44.8343 283.767 44.8788H283.634H283.236V44.523C283.28 44.523 283.369 44.4785 283.457 44.4785C283.678 44.434 283.811 44.3896 283.9 44.3006C283.944 44.2117 283.944 44.0782 283.944 43.9448C283.944 43.9003 283.944 43.8114 283.944 43.6779V43.5445V41.6764V41.0982V40.2976V39.7194L283.9 39.0968C283.9 39.0968 283.9 39.0523 283.9 39.0078C283.9 38.9633 283.856 38.9633 283.811 38.9189C283.767 38.9189 283.767 38.9189 283.723 38.8744C283.59 38.8299 283.501 38.8299 283.369 38.7854C283.324 38.7854 283.28 38.7854 283.236 38.7854L283.369 38.5186Z" fill="black"/>
<path d="M256.19 12.1412L256.146 12.3191C256.101 12.4526 256.013 12.6305 255.792 12.7639C255.57 12.8973 255.349 12.9863 255.128 12.9863C254.552 12.9863 254.287 12.7194 254.287 12.1857C254.287 12.0078 254.419 11.7854 254.729 11.5185C254.995 11.2517 255.393 11.0738 255.88 10.9403C256.367 10.8514 256.721 10.7179 256.898 10.629C257.12 10.54 257.429 10.4511 257.872 10.4066C257.961 10.4955 258.005 10.4955 258.093 10.4955C258.226 10.4955 258.27 10.4511 258.315 10.3621C258.359 10.2732 258.448 10.2732 258.625 10.2732H258.669L259.377 10.0953L259.598 10.1842C259.643 10.1842 259.687 10.1842 259.731 10.1397C259.776 10.0953 259.82 10.0953 259.908 10.0508H260.13L260.395 10.0063C260.572 9.96182 260.705 9.91734 260.749 9.87287L260.971 9.91734C261.148 9.91734 261.413 9.87287 261.812 9.78391C262.21 9.69496 262.476 9.65048 262.697 9.65048C262.874 9.65048 263.051 9.65048 263.14 9.606C263.228 9.606 263.272 9.56152 263.317 9.56152C263.361 9.56152 263.45 9.606 263.494 9.65048C263.582 9.69496 263.627 9.73943 263.671 9.73943C263.715 9.73943 263.936 9.69496 264.423 9.56152H264.512L265.087 9.69496C265.264 9.606 265.353 9.56152 265.397 9.56152C265.574 9.56152 265.751 9.606 265.84 9.73943L266.105 9.65048L266.238 9.69496C266.282 9.69496 266.371 9.69496 266.46 9.65048H266.548C266.592 9.65048 266.681 9.65048 266.725 9.69496L266.769 9.73943C266.858 9.73943 266.946 9.73943 266.991 9.69496H267.168L267.743 9.82839L267.965 9.78391C267.965 9.78391 268.053 9.82839 268.142 9.87287L268.274 9.82839C268.363 9.87287 268.54 9.96182 268.761 10.0953C268.806 10.0953 268.85 10.0508 268.938 10.0508H268.983C268.983 10.0508 269.071 10.0953 269.248 10.2287L269.647 10.4066L269.735 10.3621C270.001 10.4955 270.089 10.54 270.134 10.5845L270.222 10.8069C270.311 10.8514 270.443 10.9403 270.576 11.0293C270.62 11.1182 270.665 11.2072 270.753 11.3406V11.4296C270.753 11.4296 270.842 11.5185 270.975 11.6075C271.107 11.6964 271.196 11.7854 271.196 11.8743C271.196 11.8743 271.196 11.9633 271.152 12.0523V12.0967C271.152 12.0967 271.196 12.1857 271.24 12.2746C271.284 12.3636 271.329 12.497 271.329 12.6305L271.284 12.8084L271.329 12.9863L271.196 13.8758C271.107 13.9648 271.063 14.0537 271.019 14.1427C270.975 14.2316 270.93 14.2761 270.842 14.3206C270.753 14.3651 270.665 14.454 270.576 14.5875C270.532 14.7209 270.399 14.8099 270.311 14.8543C270.178 14.8988 270.089 14.9878 269.957 15.0767C269.868 15.1657 269.735 15.2546 269.558 15.2546L268.142 15.6994L267.965 15.6549C267.788 15.9218 267.566 16.0552 267.256 16.0552C267.168 16.0552 266.991 16.0997 266.725 16.1442L266.46 16.1887L266.238 16.1442L265.751 16.2331C265.619 16.2776 265.486 16.2776 265.441 16.3221C265.353 16.3666 265.264 16.3666 265.176 16.3666L264.822 16.5445C264.822 16.5445 264.777 16.589 264.733 16.589C264.645 16.589 264.6 16.589 264.6 16.5445L264.423 16.5C264.335 16.5 264.291 16.5445 264.246 16.589C264.202 16.6334 264.113 16.6334 264.069 16.6334L263.892 16.5L263.627 16.7224C263.538 16.7224 263.361 16.7669 263.184 16.8558C263.051 16.8113 263.007 16.7669 262.963 16.7669L262.52 16.9448L262.254 16.8558L262.21 16.9448C262.077 16.9448 261.945 16.9892 261.812 17.0782C261.679 17.1672 261.59 17.2116 261.502 17.2116C261.458 17.2116 261.369 17.1672 261.325 17.1227C261.281 17.1227 261.236 17.1227 261.236 17.0782C261.148 17.1227 261.103 17.2116 261.059 17.2561C261.015 17.3006 260.926 17.3895 260.749 17.434L260.439 17.3451C260.439 17.3895 260.351 17.434 260.174 17.4785C259.997 17.523 259.908 17.6119 259.908 17.6564L259.776 17.8343C259.731 17.9677 259.687 18.1012 259.643 18.1901C259.598 18.2791 259.554 18.368 259.51 18.4125C259.466 18.457 259.421 18.5904 259.377 18.7239C259.333 18.8573 259.244 19.0352 259.156 19.1686L259.112 19.3465C259.067 19.4355 258.979 19.48 258.89 19.5689L258.58 20.1471C258.492 20.2806 258.448 20.3695 258.448 20.414C258.448 20.5474 258.58 20.6809 258.802 20.8143L260.218 22.0152L260.439 22.1486H260.484L260.439 22.371C260.528 22.4155 260.572 22.4155 260.572 22.4155C260.617 22.4155 260.661 22.371 260.661 22.2821H260.749C260.749 22.2821 260.794 22.3265 260.882 22.4155L261.015 22.5044C261.059 22.5489 261.192 22.6824 261.369 22.8158C261.546 22.9492 261.635 23.0382 261.635 23.1271L261.59 23.2161H261.679C261.723 23.1716 261.723 23.1716 261.767 23.1716C261.812 23.1716 261.9 23.2161 262.077 23.3495L262.254 23.4385C262.608 23.7053 262.83 23.8832 262.874 23.9722C262.963 24.0612 263.051 24.1501 263.184 24.2835C263.317 24.3725 263.45 24.5059 263.538 24.6394L265.043 25.7958C266.327 26.7298 267.035 27.397 267.168 27.7083C267.212 27.7528 267.301 27.7973 267.433 27.8862C267.566 27.9307 267.743 28.1086 268.009 28.331C268.274 28.5534 268.407 28.7758 268.451 28.9092V29.354C268.451 29.3984 268.407 29.4429 268.319 29.4874L268.142 29.6653C267.92 29.8877 267.699 30.0211 267.566 30.0211C267.168 30.0211 266.858 29.9322 266.637 29.7543L266.548 29.7098H266.327C266.194 29.7098 266.105 29.5763 266.105 29.354L266.061 29.1761C265.619 29.0426 265.264 28.8202 265.043 28.5089L264.291 27.7973C264.291 27.7973 264.113 27.6193 263.848 27.308C263.582 26.9967 263.317 26.7743 263.14 26.5964C262.918 26.4629 262.786 26.3295 262.653 26.1516C262.52 26.0182 262.387 25.8402 262.166 25.7068C261.989 25.5734 261.767 25.351 261.546 25.0397C261.325 24.7283 261.192 24.5504 261.192 24.5504C260.794 24.328 260.617 24.1056 260.617 23.8388C260.572 23.7943 260.439 23.7498 260.218 23.7498C260.13 23.6164 260.041 23.5719 260.041 23.5719C259.997 23.5719 259.997 23.5719 259.997 23.5274L260.041 23.305C259.776 23.2161 259.598 23.1271 259.466 22.9937C259.377 22.8603 259.2 22.7268 259.023 22.5044C258.846 22.2821 258.713 22.1486 258.58 22.0152C258.448 21.9262 258.403 21.8373 258.359 21.7483C258.359 21.7039 258.27 21.6149 258.093 21.5259C258.049 21.6149 257.961 21.7039 257.916 21.7928C257.828 21.8373 257.784 21.9262 257.739 22.0152L257.695 22.1041C257.562 22.2376 257.518 22.371 257.518 22.5044C257.385 22.5934 257.297 22.8158 257.252 23.0827L256.677 24.417L256.588 24.9062L256.5 25.7513C256.456 25.9737 256.367 26.1071 256.19 26.1071L255.924 26.1516C255.836 26.1071 255.703 26.0626 255.438 26.0626C255.172 26.0182 254.951 25.7513 254.818 25.3065C254.818 25.262 254.729 25.1731 254.685 25.0397C254.596 24.9062 254.552 24.8173 254.552 24.7283C254.552 24.6394 254.596 24.5504 254.641 24.3725L254.685 24.0612C254.685 24.0167 254.774 23.7498 254.995 23.305L255.703 21.9707L256.057 21.437C256.101 21.348 256.146 21.2146 256.19 21.0367C256.234 20.8588 256.323 20.6809 256.456 20.5474C256.544 20.414 256.633 20.3251 256.633 20.2361C256.633 20.1471 256.544 20.0137 256.367 19.9248C256.19 19.8358 256.101 19.7024 256.101 19.6134L256.057 19.48C255.57 19.2131 255.349 18.9018 255.349 18.546C255.349 18.368 255.57 18.1457 256.057 17.8343C256.544 17.5675 256.854 17.3895 256.987 17.3451C257.164 17.3006 257.297 17.2561 257.474 17.1672L257.695 17.1227L257.872 16.9448C257.961 16.9003 258.093 16.8558 258.27 16.8558C258.403 16.8113 258.536 16.6334 258.669 16.3221C258.757 16.0107 258.89 15.7884 258.979 15.7439C259.156 15.3881 259.289 15.1212 259.333 14.9433C259.333 14.8988 259.421 14.8099 259.466 14.6764C259.554 14.543 259.643 14.3206 259.731 14.0537C259.82 13.7424 259.864 13.609 259.908 13.609C259.953 13.609 259.997 13.609 260.13 13.5645L259.997 13.2087C259.997 13.1642 260.041 13.1197 260.085 13.0308C259.953 12.8973 259.908 12.7194 259.908 12.497C259.908 12.1412 260.13 11.9633 260.617 11.9633C260.705 11.9633 260.882 12.0523 261.148 12.1857C261.413 12.3191 261.546 12.4526 261.546 12.5415C261.546 12.6305 261.635 12.7194 261.723 12.8973C261.812 13.0308 261.856 13.1642 261.856 13.2976C261.856 13.6534 261.812 13.8758 261.679 13.9648C261.546 14.0537 261.458 14.3206 261.325 14.6764L260.971 15.6994L260.926 15.9663L260.882 16.0552L261.192 15.9663C261.281 15.7884 261.546 15.6549 262.077 15.6549L262.918 15.3881H263.184L263.981 15.1657C264.025 15.1657 264.158 15.1657 264.379 15.1212H264.468L264.645 15.0767C264.689 15.0767 264.733 15.1212 264.733 15.1657H264.777C264.866 15.1657 264.91 15.1212 264.955 14.9878C264.955 14.8543 265.087 14.8099 265.353 14.8099C265.397 14.8099 265.441 14.8543 265.441 14.8988C265.486 14.9433 265.486 14.9433 265.53 14.9433C265.53 14.8543 265.619 14.7654 265.751 14.7209C265.884 14.6764 265.973 14.6764 266.017 14.6764L266.238 14.7209C266.238 14.7209 266.194 14.6764 266.194 14.6319C266.194 14.543 266.46 14.454 266.991 14.3651C267.124 14.3206 267.256 14.2316 267.345 14.1872C267.433 14.0982 267.699 14.0093 268.186 13.8314L268.983 13.609C269.293 13.52 269.514 13.1642 269.647 12.6749C269.647 12.6749 269.558 12.5415 269.425 12.3191C269.425 12.3191 269.381 12.2746 269.248 12.2746C269.204 12.2302 269.16 12.1857 269.071 12.1412C268.983 12.0967 268.894 12.0078 268.761 11.8743L268.584 11.9188C268.451 11.8299 268.319 11.7854 268.142 11.7409C267.965 11.6964 267.788 11.6075 267.61 11.4741C267.522 11.5185 267.478 11.5185 267.478 11.5185C267.478 11.5185 267.345 11.4741 267.168 11.3851L266.814 11.2072H266.592L266.504 11.1627C266.46 11.1182 266.415 11.0738 266.371 11.0738L266.238 11.1182C266.194 11.1182 266.15 11.1627 266.105 11.1627H265.884C265.884 11.1627 265.796 11.1182 265.663 11.0293H265.22L264.999 11.0738C264.955 11.0738 264.91 11.0293 264.822 10.9848L264.6 11.0293L264.379 10.9403L264.025 10.9848C263.936 10.9403 263.892 10.8958 263.848 10.8958L262.786 10.9848C262.741 10.9848 262.697 10.9848 262.697 10.9403C262.653 10.8958 262.608 10.8958 262.564 10.8514C262.52 10.8514 262.431 10.8069 262.387 10.7624C262.21 10.8514 262.033 10.9403 261.856 10.9403L261.458 10.8958L261.369 10.9403H261.325C261.325 10.9403 261.236 10.9403 261.103 10.8958C261.103 10.9403 261.103 10.9403 261.059 10.9848L260.882 10.9403L260.174 11.0738H260.13L259.997 11.0293C259.953 11.0293 259.908 11.0293 259.864 11.0738C259.82 11.1182 259.731 11.1182 259.731 11.1182L259.421 11.0738L259.2 11.1182L258.89 11.0738L258.625 11.2517H258.58C258.536 11.2517 258.492 11.2517 258.448 11.2072C258.403 11.1627 258.359 11.1627 258.359 11.1627L258.182 11.2072L257.916 11.1182C257.872 11.1182 257.828 11.2072 257.695 11.3851C257.695 11.3851 257.695 11.4296 257.651 11.4296H257.607L257.429 11.3851C257.385 11.3851 257.341 11.4296 257.208 11.563C257.031 11.6075 256.898 11.6964 256.721 11.7409C256.588 11.9188 256.5 12.0078 256.411 12.0523L256.19 12.1412ZM257.031 18.4125H256.721C256.677 18.4125 256.588 18.457 256.456 18.546C256.323 18.6349 256.234 18.7239 256.234 18.7683C256.234 18.8128 256.323 18.9018 256.544 19.0797C256.765 19.2576 256.898 19.3465 256.943 19.3465C257.12 19.3465 257.297 18.9907 257.518 18.2791L257.385 18.3236L257.208 18.2791C257.12 18.368 257.031 18.4125 257.031 18.4125Z" fill="white"/>
<path d="M269.249 19.5247L269.382 19.6581C269.382 19.6581 269.47 19.8805 269.647 20.1029C269.824 20.3253 269.868 20.859 269.868 20.859C269.824 20.9035 269.736 20.9035 269.559 20.859L269.293 21.1259L268.939 21.1703L268.54 21.5262C268.408 21.5262 268.319 21.5262 268.275 21.5706L267.08 22.5491C267.035 22.5936 266.991 22.5936 266.903 22.5491C266.858 22.5047 266.77 22.5491 266.681 22.5491C266.593 22.5936 266.504 22.5936 266.371 22.5936C266.239 22.8605 266.062 23.0829 265.84 23.2163L265.309 23.4832L265.221 23.5721L265.176 23.6166C265.176 23.6166 265.044 23.6611 264.822 23.75C264.866 23.7945 264.866 23.839 264.866 23.8835L264.601 23.9724L263.804 24.7285H263.76L263.583 24.8175C263.538 24.862 263.494 24.9064 263.45 24.9954C263.406 25.0844 263.317 25.1288 263.317 25.1733L262.963 25.3957L262.742 25.6626L262.343 25.8849L262.166 26.3742L262.122 26.4187C262.078 26.4632 262.033 26.4632 261.945 26.4632C261.856 26.4632 261.812 26.4632 261.812 26.4632L261.591 26.6855L261.369 26.7745C261.325 26.819 261.325 26.9524 261.325 27.2637C261.325 27.2637 261.325 27.3082 261.281 27.3527H261.237L260.971 27.4417C260.927 27.4861 260.883 27.6196 260.883 27.8419C260.706 28.0643 260.573 28.2422 260.44 28.4646C260.44 28.776 260.396 28.9984 260.307 29.0873L260.13 29.3987L260.219 29.5766C260.307 29.799 260.263 30.0658 260.13 30.4216C259.997 30.7775 259.776 31.0443 259.51 31.2222C258.846 31.667 258.271 31.5781 257.873 30.9109C257.74 30.6885 257.74 30.2882 257.873 29.71C258.005 29.1318 258.315 28.5981 258.846 28.1088C259.333 27.5751 259.687 27.1748 259.864 26.9079C260.042 26.5966 260.351 26.2852 260.838 25.8405C260.971 25.8849 261.104 25.8405 261.192 25.796C261.325 25.707 261.414 25.5736 261.369 25.4402C261.369 25.3067 261.458 25.2178 261.679 25.1288L261.768 25.0844L262.476 24.2838L262.786 24.1948C262.83 24.1503 262.875 24.1058 262.919 24.0169C262.963 23.9279 263.007 23.839 263.052 23.7945L263.317 23.6166L263.583 23.3497C263.76 23.1273 263.893 22.9939 263.893 22.9494L264.202 22.816C264.424 22.6826 264.689 22.4157 265.088 21.9709C265.486 21.5706 265.796 21.2593 266.017 21.0814C266.239 20.9035 266.416 20.77 266.504 20.6811C266.593 20.5921 266.681 20.5477 266.681 20.5032C266.726 20.4587 266.858 20.4587 266.991 20.4587C267.124 20.4587 267.213 20.4587 267.257 20.4142C267.301 20.3697 267.567 20.1029 268.054 19.6136L268.142 19.5692L268.983 19.2578L269.249 19.5247Z" fill="white"/>
</g>
<defs>
<clipPath id="clip0">
<rect width="78.2609" height="60" fill="white" transform="translate(213.208)"/>
</clipPath>
</defs>
</svg>
