<svg width="52" height="47" viewBox="0 0 52 47" fill="none" xmlns="http://www.w3.org/2000/svg">
<path d="M41.8347 46.6873H10.0938C8.24838 46.6873 6.69824 45.1445 6.69824 43.3078V28.6146H1.45731L1.16204 28.3207C-0.166645 26.9983 -0.166645 24.8678 1.16204 23.5454L23.6021 1.13828C24.9308 -0.184113 27.0715 -0.184113 28.4001 1.13828L50.8402 23.472C51.5045 24.1332 51.7998 24.9413 51.7998 25.8229C51.7998 26.7045 51.4307 27.5861 50.8402 28.1738L50.5449 28.4677H45.304V43.1609C45.2302 45.2179 43.7539 46.6873 41.8347 46.6873ZM2.49073 26.4106H8.98654V43.3078C8.98654 43.969 9.50325 44.4833 10.1676 44.4833H41.9085C42.5728 44.4833 43.0895 43.969 43.0895 43.3078V26.4106H49.5853C49.5853 26.2637 49.5853 26.1168 49.5853 25.8964C49.5853 25.6025 49.4377 25.3086 49.2163 25.0882L26.7762 2.75453C26.3333 2.31373 25.5951 2.31373 25.1522 2.75453L2.71218 25.0882C2.3431 25.4556 2.26928 25.9698 2.49073 26.4106Z" fill="#5B7F95"/>
</svg>
