<svg width="21" height="25" viewBox="0 0 21 25" fill="none" xmlns="http://www.w3.org/2000/svg">
<path d="M15.2222 16.5211C15.1371 16.5211 15.0511 16.4961 14.9763 16.4443C14.7825 16.3097 14.7358 16.0458 14.8719 15.8547L17.0409 12.8076L14.8719 9.76048C14.7358 9.56917 14.7825 9.30528 14.9763 9.1709C15.1701 9.0361 15.4374 9.08266 15.5735 9.27375L17.9158 12.5642C18.0195 12.7102 18.0195 12.9049 17.9158 13.0509L15.5735 16.3412C15.4902 16.4584 15.3572 16.5211 15.2222 16.5211Z" fill="white"/>
<path d="M12.7308 11.3681C12.9675 11.3681 13.1596 11.1784 13.1596 10.9448V5.42324C13.1596 5.18961 12.9675 5 12.7308 5H2.45511C2.45232 5 2.44997 5.00063 2.44718 5.00085C2.43925 5.00085 2.43132 5.00254 2.42338 5.00317C2.39723 5.00508 2.37193 5.00889 2.3475 5.01524C2.33764 5.01756 2.32842 5.02074 2.31898 5.02391C2.29476 5.03195 2.27161 5.0419 2.24953 5.05396C2.24417 5.05693 2.23817 5.05798 2.23302 5.06116C2.23045 5.06264 2.22873 5.06497 2.22638 5.06645C2.19851 5.08401 2.17235 5.10391 2.1492 5.12718C2.14513 5.1312 2.14213 5.13607 2.13827 5.14009C2.12005 5.1602 2.10376 5.18178 2.08939 5.20506C2.08425 5.21352 2.07975 5.2222 2.07524 5.23088C2.0641 5.25225 2.05509 5.27447 2.04759 5.29775C2.0448 5.30664 2.04159 5.3151 2.03944 5.3242C2.03151 5.35616 2.02637 5.38896 2.02637 5.42324V20.1915C2.02637 20.2275 2.03237 20.262 2.04094 20.2952C2.0433 20.3043 2.0463 20.3128 2.04931 20.3215C2.05788 20.3475 2.06881 20.372 2.08189 20.3955C2.08596 20.4025 2.08918 20.4099 2.09347 20.4167C2.1119 20.4453 2.13312 20.4717 2.15778 20.4952C2.16249 20.4996 2.16785 20.503 2.17278 20.5075C2.19465 20.5265 2.21866 20.5432 2.24417 20.5576C2.24867 20.5602 2.2521 20.564 2.2566 20.5665L8.90556 23.9975C8.96773 24.0299 9.0359 24.0457 9.10407 24.0457C9.18103 24.0457 9.25799 24.0252 9.32616 23.9846C9.45435 23.908 9.53281 23.7704 9.53281 23.6225V20.6148H12.7308C12.9675 20.6148 13.1596 20.4251 13.1596 20.1915V14.5229C13.1596 14.2892 12.9675 14.0996 12.7308 14.0996C12.4941 14.0996 12.3021 14.2892 12.3021 14.5229V19.7683H9.53281V8.85422C9.53281 8.69657 9.44406 8.55203 9.30258 8.47923L4.20074 5.84648H12.3021V10.9448C12.3021 11.1784 12.4941 11.3681 12.7308 11.3681Z" fill="white"/>
<path d="M17.5648 13.2303H10.5537C10.3171 13.2303 10.125 13.0407 10.125 12.807C10.125 12.5734 10.3171 12.3838 10.5537 12.3838H17.5648C17.8014 12.3838 17.9935 12.5734 17.9935 12.807C17.9935 13.0407 17.8017 13.2303 17.5648 13.2303Z" fill="white"/>
</svg>
