<svg width="21" height="25" viewBox="0 0 21 25" fill="none" xmlns="http://www.w3.org/2000/svg">
<path d="M15.2215 16.5211C15.1364 16.5211 15.0504 16.4961 14.9756 16.4443C14.7818 16.3097 14.7351 16.0458 14.8712 15.8547L17.0402 12.8076L14.8712 9.76048C14.7351 9.56917 14.7818 9.30528 14.9756 9.1709C15.1694 9.0361 15.4367 9.08266 15.5729 9.27375L17.9151 12.5642C18.0188 12.7102 18.0188 12.9049 17.9151 13.0509L15.5729 16.3412C15.4895 16.4584 15.3566 16.5211 15.2215 16.5211Z" fill="#0077C8"/>
<path d="M12.7305 11.3681C12.9671 11.3681 13.1592 11.1784 13.1592 10.9448V5.42324C13.1592 5.18961 12.9671 5 12.7305 5H2.45476C2.45197 5 2.44961 5.00063 2.44683 5.00085C2.43889 5.00085 2.43096 5.00254 2.42303 5.00317C2.39688 5.00508 2.37158 5.00889 2.34714 5.01524C2.33728 5.01756 2.32806 5.02074 2.31863 5.02391C2.29441 5.03195 2.27125 5.0419 2.24917 5.05396C2.24382 5.05693 2.23781 5.05798 2.23267 5.06116C2.2301 5.06264 2.22838 5.06497 2.22602 5.06645C2.19815 5.08401 2.172 5.10391 2.14885 5.12718C2.14478 5.1312 2.14177 5.13607 2.13792 5.14009C2.11969 5.1602 2.1034 5.18178 2.08904 5.20506C2.08389 5.21352 2.07939 5.2222 2.07489 5.23088C2.06374 5.25225 2.05474 5.27447 2.04724 5.29775C2.04445 5.30664 2.04123 5.3151 2.03909 5.3242C2.03116 5.35616 2.02601 5.38896 2.02601 5.42324V20.1915C2.02601 20.2275 2.03202 20.262 2.04059 20.2952C2.04295 20.3043 2.04595 20.3128 2.04895 20.3215C2.05753 20.3475 2.06846 20.372 2.08154 20.3955C2.08561 20.4025 2.08882 20.4099 2.09311 20.4167C2.11155 20.4453 2.13277 20.4717 2.15742 20.4952C2.16214 20.4996 2.1675 20.503 2.17243 20.5075C2.1943 20.5265 2.2183 20.5432 2.24382 20.5576C2.24832 20.5602 2.25175 20.564 2.25625 20.5665L8.90521 23.9975C8.96738 24.0299 9.03555 24.0457 9.10372 24.0457C9.18068 24.0457 9.25764 24.0252 9.32581 23.9846C9.454 23.908 9.53246 23.7704 9.53246 23.6225V20.6148H12.7305C12.9671 20.6148 13.1592 20.4251 13.1592 20.1915V14.5229C13.1592 14.2892 12.9671 14.0996 12.7305 14.0996C12.4938 14.0996 12.3017 14.2892 12.3017 14.5229V19.7683H9.53246V8.85422C9.53246 8.69657 9.44371 8.55203 9.30222 8.47923L4.20039 5.84648H12.3017V10.9448C12.3017 11.1784 12.4938 11.3681 12.7305 11.3681Z" fill="#0077C8"/>
<path d="M17.5641 13.2303H10.5531C10.3165 13.2303 10.1244 13.0407 10.1244 12.807C10.1244 12.5734 10.3165 12.3838 10.5531 12.3838H17.5641C17.8008 12.3838 17.9929 12.5734 17.9929 12.807C17.9929 13.0407 17.801 13.2303 17.5641 13.2303Z" fill="#0077C8"/>
</svg>
