<svg width="52" height="52" viewBox="0 0 52 52" fill="none" xmlns="http://www.w3.org/2000/svg">
<path d="M48.9202 14.6002L45.8602 12.4402V8.18019C45.8602 6.02019 44.0602 4.22019 41.9002 4.22019H34.1602L30.3802 1.52019C29.0602 0.620195 27.5002 0.200195 26.0002 0.200195C24.5002 0.200195 22.9402 0.620195 21.7402 1.46019L17.8402 4.16019H10.1002C7.9402 4.16019 6.14019 5.96019 6.14019 8.12019V12.3802L3.0802 14.6002C1.2802 15.8002 0.200195 17.9002 0.200195 20.0602V47.8402C0.200195 50.0002 2.0002 51.8002 4.1602 51.8002H47.8402C50.0002 51.8002 51.8002 50.0002 51.8002 47.8402V20.0602C51.8002 17.8402 50.7202 15.8002 48.9202 14.6002ZM45.8602 14.7802L47.8402 16.1602C48.3202 16.4602 48.7402 16.8802 49.0402 17.3602L45.8602 20.0602V14.7802ZM22.8202 3.08019C23.7202 2.48019 24.8002 2.18019 26.0002 2.18019C27.2002 2.18019 28.2802 2.48019 29.1802 3.08019L30.6802 4.16019H21.3202L22.8202 3.08019ZM8.12019 8.12019C8.12019 7.04019 9.0202 6.14019 10.1002 6.14019H41.8402C42.9202 6.14019 43.8202 7.04019 43.8202 8.12019V21.8002L31.5202 32.6002L30.3202 31.5802C29.1202 30.3802 27.5602 29.9002 25.9402 29.9002C24.3202 29.9002 22.7602 30.5002 21.5602 31.5802L20.3602 32.6002L8.06019 21.8002V8.12019H8.12019ZM4.1602 16.1602L6.14019 14.7802V20.0602L3.0802 17.3002C3.3802 16.8802 3.80019 16.4602 4.1602 16.1602ZM2.1802 47.8402V20.0602C2.1802 19.8802 2.1802 19.5802 2.3002 19.3402L18.9802 33.9202L2.3002 48.5002C2.1802 48.3202 2.1802 48.0202 2.1802 47.8402ZM47.8402 49.8202H4.1602C4.04019 49.8202 3.9802 49.8202 3.86019 49.8202L22.9402 33.1402C23.8402 32.3602 24.9202 31.9402 26.0002 31.9402C27.0802 31.9402 28.1602 32.3602 29.0602 33.1402L48.1402 49.8202C48.0202 49.8202 47.9602 49.8202 47.8402 49.8202ZM49.8202 47.8402C49.8202 48.0202 49.7002 48.3202 49.7002 48.5602L33.0202 33.9202L49.7002 19.3402C49.7002 19.5202 49.8202 19.8202 49.8202 20.0602V47.8402Z" fill="#5B7F95"/>
</svg>
