<svg width="18" height="17" viewBox="0 0 18 17" fill="none" xmlns="http://www.w3.org/2000/svg">
<path d="M16.5309 1.66835L13.2387 0.918498C12.881 0.837264 12.5138 1.0216 12.3682 1.35279L10.8487 4.8521C10.7158 5.15829 10.8044 5.5176 11.0671 5.72693L12.9855 7.27663C11.8459 9.67303 9.85472 11.6664 7.37607 12.813L5.80594 10.9197C5.59068 10.6603 5.2298 10.5729 4.91958 10.7041L1.37413 12.2038C1.03541 12.3506 0.848639 12.7131 0.930944 13.0661L1.69068 16.3155C1.76982 16.6529 2.07372 16.8966 2.43143 16.8966C10.5385 16.8966 17.1197 10.4135 17.1197 2.39946C17.1197 2.04953 16.876 1.74646 16.5309 1.66835Z" fill="#0077C8"/>
</svg>
