<svg width="60" height="60" viewBox="0 0 60 60" fill="none" xmlns="http://www.w3.org/2000/svg">
<g clip-path="url(#clip0)">
<path d="M38.2201 32.46C37.3201 31.32 36.9001 29.82 37.0801 28.38C36.9601 27.06 37.2601 25.74 37.9801 24.66C38.1601 24.3 38.3401 23.94 38.5801 23.64C37.5001 20.28 34.5001 17.76 30.9601 17.28V15.18H34.0201C34.2601 15.18 34.5601 15.12 34.7401 14.88C34.9201 14.7 35.0401 14.4 35.0401 14.16V6.06C34.9801 4.32 33.6001 3 31.9801 3H13.6801C12.0001 3 10.6801 4.32 10.6801 6.06V14.22C10.6801 14.46 10.7401 14.76 10.9801 14.94C11.1601 15.12 11.4601 15.24 11.7001 15.24H14.7601V17.34C10.0801 17.76 6.6001 21.66 6.6001 26.4V28.68V52.2C6.6001 54.66 8.5201 56.64 10.8601 56.64H34.7401C37.0801 56.64 39.0001 54.66 39.0001 52.2V33.54C38.7601 33.18 38.4601 32.82 38.2201 32.46ZM12.6601 13.2V6.12C12.6601 5.58 13.1401 5.1 13.6801 5.1H31.9801C32.5201 5.1 33.0001 5.58 33.0001 6.12V13.2H12.6601ZM36.9601 52.2C36.9601 53.46 36.0001 54.54 34.8001 54.54H10.8601C9.6601 54.54 8.7001 53.52 8.7001 52.2V49.68H29.9401C30.1801 49.68 30.4801 49.62 30.6601 49.38C30.8401 49.2 30.9601 48.9 30.9601 48.66V28.38C30.9601 28.14 30.9001 27.84 30.6601 27.66C30.4801 27.48 30.1801 27.36 29.9401 27.36H8.6401V26.34C8.6401 22.44 11.8201 19.26 15.7201 19.26C15.9601 19.26 16.2601 19.2 16.4401 18.96C16.6201 18.78 16.7401 18.48 16.7401 18.24V15.18H28.9201V18.24C28.9201 18.48 28.9801 18.78 29.2201 18.96C29.4001 19.14 29.7001 19.26 29.9401 19.26C33.8401 19.26 37.0201 22.44 37.0201 26.34L36.9601 52.2ZM8.7001 47.64V29.34H28.9201V47.64H8.7001Z" fill="#5B7F95"/>
<path d="M44.7599 56.9399C43.7399 56.9399 42.7799 56.5199 42.0599 55.7999C41.3399 55.0799 40.9199 54.1199 40.9199 53.0399L40.7399 35.9999C37.7999 34.4999 35.9399 31.4999 35.9399 28.1999C35.9399 25.6799 37.0199 23.3399 38.8799 21.6599C39.0599 21.5399 39.2399 21.4199 39.4799 21.4199H42.7799C43.0799 21.4199 43.3799 21.5999 43.5599 21.8999C43.7399 22.1999 43.7399 22.4999 43.5599 22.7999L41.9399 25.4999L43.3199 27.7799H46.0799L47.4599 25.4999L45.7799 22.7999C45.5999 22.4999 45.5999 22.1999 45.7799 21.8999C45.9599 21.5999 46.2599 21.4199 46.5599 21.4199H49.8599C50.0999 21.4199 50.2799 21.4799 50.4599 21.6599C52.3199 23.3399 53.3999 25.7399 53.3999 28.1999C53.3999 31.5599 51.4799 34.6199 48.4799 36.0599L48.5999 52.9799C48.5999 53.9999 48.2399 55.0199 47.4599 55.7399C46.7999 56.4599 45.8399 56.8799 44.7599 56.9399ZM39.8399 23.2799C38.5199 24.5999 37.7399 26.3999 37.7399 28.2599C37.7399 31.0799 39.4199 33.5399 41.9999 34.6799C42.2999 34.7999 42.5399 35.1599 42.5399 35.5199L42.7199 53.0999C42.7199 53.6399 42.9599 54.1799 43.3199 54.5399C43.7399 54.8999 44.2199 55.1399 44.7599 55.1399C45.2999 55.1399 45.8399 54.8999 46.1999 54.5399C46.6199 54.1199 46.7999 53.6399 46.7999 53.0399L46.6199 35.5199C46.6199 35.1599 46.8599 34.7999 47.1599 34.6799C49.9199 33.5999 51.5999 31.0799 51.5999 28.1999C51.5999 26.3399 50.8199 24.5399 49.4999 23.2199H48.1199L49.1999 25.0199C49.3799 25.3199 49.3799 25.6799 49.1999 25.9199L47.3399 29.0999C47.1599 29.3999 46.8599 29.5199 46.5599 29.5199H42.7799C42.4799 29.5199 42.1799 29.3399 41.9999 29.0999L40.1399 25.9199C39.9599 25.6199 39.9599 25.2599 40.1399 25.0199L41.2199 23.2199H39.8399V23.2799Z" fill="#5B7F95"/>
</g>
<defs>
<clipPath id="clip0">
<rect width="46.8" height="53.94" fill="white" transform="translate(6.6001 3)"/>
</clipPath>
</defs>
</svg>
