<svg width="360" height="399" viewBox="0 0 360 399" fill="none" xmlns="http://www.w3.org/2000/svg">
<g clip-path="url(#clip0)">
<path d="M0 0H360V399H0V0Z" fill="white"/>
<path d="M59.4919 76.2688C58.0922 74.8691 56.3037 74.1693 54.4374 74.1693C54.1264 74.1693 53.7376 74.1692 53.4265 74.247V58.928C53.4265 54.2623 49.8495 50.3743 45.3393 49.8299V47.7304H48.372C48.6053 47.7304 48.9164 47.6526 49.0719 47.4193C49.2274 47.2638 49.3829 46.9528 49.3829 46.7195V38.6323C49.3829 36.9215 47.9832 35.5996 46.3502 35.5996H28.0763C26.3655 35.5996 25.0436 36.9215 25.0436 38.6323V46.7972C25.0436 47.0305 25.1214 47.3416 25.3546 47.4971C25.5102 47.6526 25.8212 47.8081 26.0545 47.8081H29.0872V49.9077C24.4993 50.3743 21 54.2623 21 59.0058V85.3669C21 87.0776 22.3997 88.3996 24.0327 88.3996H50.3938C50.9382 88.3996 51.4825 88.2441 51.9491 87.933C52.7267 88.2441 53.582 88.3996 54.4374 88.3996C56.2259 88.3996 58.0922 87.6997 59.4142 86.3C60.8139 84.9003 61.5137 83.1118 61.5137 81.2455C61.5137 79.457 60.8916 77.5907 59.4919 76.2688ZM27.0654 45.7864V38.7101C27.0654 38.1657 27.532 37.6992 28.0763 37.6992H46.3502C46.8946 37.6992 47.3611 38.1657 47.3611 38.7101V45.7864H27.0654ZM23.0218 61.9607H43.3175V80.2346H23.0218V61.9607ZM24.0327 86.3C23.4884 86.3 23.0218 85.8335 23.0218 85.2891V82.2564H44.3284C44.5617 82.2564 44.8728 82.1787 45.0283 81.9454C45.1838 81.7899 45.3393 81.4788 45.3393 81.2455V60.9498C45.3393 60.7165 45.2616 60.4055 45.0283 60.25C44.8728 60.0944 44.5617 59.9389 44.3284 59.9389H23.0218V58.928C23.0218 55.04 26.21 51.8517 30.0981 51.8517C30.3314 51.8517 30.6424 51.774 30.7979 51.5407C30.9535 51.3852 31.109 51.0741 31.109 50.8408V47.8081H43.3175V50.8408C43.3175 51.0741 43.3953 51.3852 43.6286 51.5407C43.7841 51.6962 44.0951 51.8517 44.3284 51.8517C48.2165 51.8517 51.4047 55.04 51.4047 58.928V74.8691C50.7049 75.1802 50.005 75.6467 49.4607 76.2688C48.061 77.6685 47.3611 79.457 47.3611 81.3233C47.3611 83.1118 48.061 84.9781 49.4607 86.3778C49.4607 86.3778 49.4607 86.3778 49.5385 86.4555H24.0327V86.3ZM54.4374 86.3C53.1155 86.3 51.8713 85.8335 50.8604 84.8226C49.8495 83.8117 49.3829 82.5675 49.3829 81.2455C49.3829 80.2346 49.694 79.3015 50.2383 78.4461L57.2368 85.4447C56.3815 86.0667 55.4483 86.3 54.4374 86.3ZM58.7143 84.0449L51.7158 77.0464C52.5711 76.5021 53.5043 76.191 54.5152 76.191C55.8371 76.191 57.0813 76.6576 58.0922 77.6685C59.1031 78.6794 59.5697 79.9236 59.5697 81.2455C59.4919 82.2564 59.2586 83.1896 58.7143 84.0449Z" fill="#5B7F95"/>
<path d="M88.152 52.504V54.448C88.152 57.016 91.176 58.288 94.008 58.288C97.224 58.288 100.152 56.68 100.152 53.2C100.152 50.008 97.608 49 95.064 48.088C93.288 47.416 91.704 46.864 91.704 45.304C91.704 44.008 92.856 43.432 94.248 43.432C95.52 43.432 96.792 43.888 96.792 44.752V45.904H99.648V43.672C99.648 41.704 96.936 40.672 94.248 40.672C91.32 40.672 88.536 41.992 88.536 45.424C88.536 48.472 90.768 49.504 93.048 50.368C95.016 51.136 96.96 51.688 96.96 53.416C96.96 54.784 95.736 55.528 94.008 55.528C92.4 55.528 91.008 54.88 91.008 53.776V52.504H88.152ZM102.212 60.52V62.8H108.812V60.52H107.036V57.616C107.036 56.992 106.964 56.56 106.964 56.56H107.012C107.012 56.56 108.116 58.288 110.54 58.288C113.756 58.288 116.132 55.768 116.132 51.88C116.132 48.088 114.02 45.472 110.708 45.472C107.828 45.472 106.772 47.536 106.772 47.536H106.724C106.724 47.536 106.748 47.272 106.748 46.984V46.912C106.748 46.288 106.364 45.76 105.236 45.76H102.092V48.04H103.46C103.796 48.04 103.988 48.232 103.988 48.568V60.52H102.212ZM106.94 51.952C106.94 49.24 108.428 48.088 110.012 48.088C111.812 48.088 113.06 49.6 113.06 51.928C113.06 54.352 111.668 55.72 109.988 55.72C107.996 55.72 106.94 53.848 106.94 51.952ZM118.086 51.88C118.086 55.36 120.606 58.288 124.662 58.288C127.734 58.288 129.606 56.584 129.606 56.584L128.43 54.424C128.43 54.424 126.87 55.72 124.878 55.72C123.03 55.72 121.398 54.568 121.206 52.312H129.678C129.678 52.312 129.75 51.64 129.75 51.28C129.75 48.04 127.83 45.472 124.302 45.472C120.63 45.472 118.086 48.112 118.086 51.88ZM121.278 50.512C121.566 48.904 122.67 47.824 124.23 47.824C125.526 47.824 126.558 48.832 126.606 50.512H121.278ZM131.684 51.904C131.684 55.864 134.852 58.288 138.428 58.288C140.756 58.288 142.652 57.184 143.492 56.392L142.412 54.232C141.74 54.76 140.324 55.72 138.596 55.72C136.508 55.72 134.756 54.352 134.756 51.832C134.756 49.6 136.124 48.064 138.356 48.064C139.388 48.064 140.636 48.448 140.636 49.264V50.08H143.276V48.4C143.276 46.24 140.3 45.472 138.26 45.472C134.492 45.472 131.684 48.256 131.684 51.904ZM147.347 43.672H150.419V40.96H147.347V43.672ZM145.595 58H152.171V55.72H150.419V45.76H145.475V48.04H147.371V55.72H145.595V58ZM153.794 54.568C153.794 57.064 155.762 58.288 157.85 58.288C160.682 58.288 161.714 55.936 161.714 55.936H161.762C161.762 55.936 161.69 56.176 161.69 56.56V56.704C161.69 57.4 162.122 58 163.25 58H166.13V55.72H165.026C164.69 55.72 164.498 55.552 164.498 55.192V50.296C164.498 47.176 162.746 45.472 159.458 45.472C156.506 45.472 154.61 46.984 154.61 46.984L155.738 49.096C155.738 49.096 157.37 47.92 159.194 47.92C160.466 47.92 161.45 48.472 161.45 50.032V50.44H160.682C158.714 50.44 153.794 50.824 153.794 54.568ZM156.866 54.328C156.866 52.48 159.77 52.288 160.97 52.288H161.474V52.696C161.474 54.232 160.298 56.008 158.642 56.008C157.514 56.008 156.866 55.24 156.866 54.328ZM168.638 54.112C168.638 57.448 170.438 58.096 172.382 58.096C172.982 58.096 173.486 58.024 173.486 58.024V55.576C173.486 55.576 173.246 55.6 172.91 55.6C171.902 55.6 171.662 55.024 171.662 53.92V40.96H166.742V43.24H168.638V54.112ZM177.317 43.672H180.389V40.96H177.317V43.672ZM175.565 58H182.141V55.72H180.389V45.76H175.445V48.04H177.341V55.72H175.565V58ZM185.303 53.512C185.303 57.616 188.687 58.12 190.415 58.12C190.967 58.12 191.351 58.048 191.351 58.048V55.552C191.351 55.552 191.135 55.576 190.799 55.576C189.935 55.576 188.351 55.288 188.351 53.2V48.04H191.135V45.76H188.351V42.424H185.399V45.76H183.431V48.04H185.303V53.512ZM193.892 59.968L192.908 62.2C192.908 62.2 194.108 63.04 195.884 63.04C197.972 63.04 199.796 62.008 200.732 59.584L205.244 48.04H206.636V45.76H200.852V48.04H202.268L200.06 54.232C199.82 54.832 199.724 55.504 199.724 55.504H199.652C199.652 55.504 199.604 54.832 199.388 54.232L197.156 48.04H198.596V45.76H192.572V48.04H194.036L198.236 58.36L197.9 59.128C197.516 60.016 196.724 60.544 195.74 60.544C194.612 60.544 193.892 59.968 193.892 59.968ZM88.104 86H94.68V83.72H92.928V80.744C92.928 78.536 93.912 76.256 96.072 76.256C97.512 76.256 97.728 77.384 97.728 78.704V86H102.528V83.72H100.752V80.6C100.752 78.344 101.784 76.256 103.872 76.256C105.288 76.256 105.552 77.312 105.552 78.704V86H110.376V83.72H108.6V78.128C108.6 74.912 107.136 73.472 104.664 73.472C102.72 73.472 101.088 74.696 100.416 76.136H100.368C99.888 74.264 98.664 73.472 96.96 73.472C94.944 73.472 93.408 74.96 92.784 76.208H92.736C92.736 76.208 92.784 75.944 92.784 75.68V75.128C92.784 74.264 92.256 73.76 91.176 73.76H87.984V76.04H89.352C89.688 76.04 89.88 76.208 89.88 76.544V83.72H88.104V86ZM112.01 79.88C112.01 83.36 114.53 86.288 118.586 86.288C121.658 86.288 123.53 84.584 123.53 84.584L122.354 82.424C122.354 82.424 120.794 83.72 118.802 83.72C116.954 83.72 115.322 82.568 115.13 80.312H123.602C123.602 80.312 123.674 79.64 123.674 79.28C123.674 76.04 121.754 73.472 118.226 73.472C114.554 73.472 112.01 76.112 112.01 79.88ZM115.202 78.512C115.49 76.904 116.594 75.824 118.154 75.824C119.45 75.824 120.482 76.832 120.53 78.512H115.202ZM125.656 79.88C125.656 83.672 127.744 86.288 131.008 86.288C134.056 86.288 135.017 84.008 135.017 84.008H135.065C135.065 84.008 134.992 84.224 134.992 84.56V84.704C134.992 85.4 135.449 86 136.552 86H139.432V83.72H138.328C137.992 83.72 137.801 83.552 137.801 83.192V68.96H132.88V71.24H134.776V74.336C134.776 74.84 134.824 75.2 134.824 75.2H134.776C134.776 75.2 133.865 73.472 131.249 73.472C127.936 73.472 125.656 75.992 125.656 79.88ZM128.728 79.88C128.728 77.456 130.12 76.088 131.848 76.088C133.865 76.088 134.849 77.96 134.849 79.952C134.849 82.568 133.361 83.72 131.753 83.72C129.976 83.72 128.728 82.208 128.728 79.88ZM143.264 71.672H146.336V68.96H143.264V71.672ZM141.512 86H148.088V83.72H146.336V73.76H141.392V76.04H143.288V83.72H141.512V86ZM149.854 79.904C149.854 83.864 153.022 86.288 156.598 86.288C158.926 86.288 160.822 85.184 161.662 84.392L160.582 82.232C159.91 82.76 158.494 83.72 156.766 83.72C154.678 83.72 152.926 82.352 152.926 79.832C152.926 77.6 154.294 76.064 156.526 76.064C157.558 76.064 158.806 76.448 158.806 77.264V78.08H161.446V76.4C161.446 74.24 158.47 73.472 156.43 73.472C152.662 73.472 149.854 76.256 149.854 79.904ZM163.333 82.568C163.333 85.064 165.301 86.288 167.389 86.288C170.221 86.288 171.253 83.936 171.253 83.936H171.301C171.301 83.936 171.229 84.176 171.229 84.56V84.704C171.229 85.4 171.661 86 172.789 86H175.669V83.72H174.565C174.229 83.72 174.037 83.552 174.037 83.192V78.296C174.037 75.176 172.285 73.472 168.997 73.472C166.045 73.472 164.149 74.984 164.149 74.984L165.277 77.096C165.277 77.096 166.909 75.92 168.733 75.92C170.005 75.92 170.989 76.472 170.989 78.032V78.44H170.221C168.253 78.44 163.333 78.824 163.333 82.568ZM166.405 82.328C166.405 80.48 169.309 80.288 170.509 80.288H171.013V80.696C171.013 82.232 169.837 84.008 168.181 84.008C167.053 84.008 166.405 83.24 166.405 82.328ZM178.659 81.512C178.659 85.616 182.043 86.12 183.771 86.12C184.323 86.12 184.707 86.048 184.707 86.048V83.552C184.707 83.552 184.491 83.576 184.155 83.576C183.291 83.576 181.707 83.288 181.707 81.2V76.04H184.491V73.76H181.707V70.424H178.755V73.76H176.787V76.04H178.659V81.512ZM188.544 71.672H191.616V68.96H188.544V71.672ZM186.792 86H193.368V83.72H191.616V73.76H186.672V76.04H188.568V83.72H186.792V86ZM195.134 79.88C195.134 83.648 198.134 86.288 201.878 86.288C205.598 86.288 208.598 83.648 208.598 79.88C208.598 76.136 205.598 73.472 201.854 73.472C198.134 73.472 195.134 76.136 195.134 79.88ZM198.23 79.88C198.23 77.624 199.886 76.064 201.878 76.064C203.846 76.064 205.502 77.624 205.502 79.88C205.502 82.16 203.846 83.696 201.878 83.696C199.886 83.696 198.23 82.16 198.23 79.88ZM210.756 86H217.332V83.72H215.58V80.504C215.58 78.368 216.876 76.256 219.084 76.256C220.62 76.256 221.028 77.264 221.028 78.752V86H225.828V83.72H224.052V78.128C224.052 74.888 222.564 73.472 219.948 73.472C216.876 73.472 215.58 75.824 215.436 76.208H215.388C215.388 76.208 215.436 75.944 215.436 75.68V75.128C215.436 74.264 214.932 73.76 213.852 73.76H210.636V76.04H212.004C212.34 76.04 212.532 76.232 212.532 76.568V83.72H210.756V86ZM227.467 83.336C227.467 85.328 230.203 86.288 232.435 86.288C235.243 86.288 237.595 85.04 237.595 82.568C237.595 80.168 235.387 79.4 233.515 78.8C232.147 78.392 230.947 77.984 230.947 76.976C230.947 76.208 231.763 75.872 232.723 75.872C233.803 75.872 234.523 76.256 234.523 76.88V77.576H237.139V76.016C237.139 74.168 234.499 73.472 232.723 73.472C230.491 73.472 227.899 74.384 227.899 76.976C227.899 79.304 229.963 80.144 231.763 80.768C233.395 81.368 234.547 81.632 234.547 82.664C234.547 83.48 233.683 83.912 232.459 83.912C231.187 83.912 230.059 83.48 230.059 82.64V81.92H227.467V83.336ZM87.288 104.04H88.776L91.608 114H95.064L97.152 106.824C97.32 106.2 97.368 105.48 97.368 105.48H97.44C97.44 105.48 97.488 106.2 97.656 106.824L99.768 114H103.224L106.056 104.04H107.52V101.76H101.64V104.04H103.128L101.496 110.016C101.352 110.616 101.304 111.336 101.304 111.336H101.232C101.232 111.336 101.184 110.616 101.04 110.016L98.76 101.784H96.072L93.768 110.016C93.624 110.616 93.576 111.336 93.576 111.336H93.504C93.504 111.336 93.456 110.616 93.312 110.016L91.704 104.04H93.168V101.76H87.288V104.04ZM110.908 99.672H113.98V96.96H110.908V99.672ZM109.156 114H115.733V111.72H113.98V101.76H109.036V104.04H110.932V111.72H109.156V114ZM118.894 109.512C118.894 113.616 122.278 114.12 124.007 114.12C124.559 114.12 124.943 114.048 124.943 114.048V111.552C124.943 111.552 124.727 111.576 124.391 111.576C123.526 111.576 121.942 111.288 121.942 109.2V104.04H124.727V101.76H121.942V98.424H118.99V101.76H117.022V104.04H118.894V109.512ZM126.619 114H133.195V111.72H131.443V108.384C131.443 106.128 132.787 104.256 134.947 104.256C136.483 104.256 136.867 105.264 136.867 106.752V114H141.691V111.72H139.915V106.128C139.915 102.888 138.355 101.472 135.643 101.472C133.531 101.472 132.019 102.768 131.419 103.944H131.371C131.371 103.944 131.443 103.512 131.443 102.912V96.96H126.499V99.24H128.395V111.72H126.619V114ZM148.98 114H155.364V111.648H153.684L154.74 108.456H160.116L161.172 111.648H159.492V114H165.9V111.648H164.34L159.228 96.96H155.652L150.54 111.648H148.98V114ZM155.46 106.008L157.092 101.184C157.332 100.344 157.404 99.696 157.404 99.696H157.476C157.476 99.696 157.524 100.344 157.788 101.184L159.396 106.008H155.46ZM167.427 114H174.003V111.72H172.251V109.056C172.251 106.752 173.355 104.592 175.827 104.592C176.259 104.592 176.571 104.64 176.571 104.64V101.64C176.571 101.64 176.307 101.592 176.019 101.592C174.147 101.592 172.683 102.984 172.131 104.736H172.083C172.083 104.736 172.131 104.424 172.131 103.968V103.248C172.131 102.216 171.579 101.76 170.499 101.76H167.307V104.04H168.675C169.011 104.04 169.203 104.232 169.203 104.568V111.72H167.427V114ZM178.114 107.88C178.114 111.672 180.202 114.288 183.466 114.288C186.514 114.288 187.474 112.008 187.474 112.008H187.522C187.522 112.008 187.45 112.224 187.45 112.56V112.704C187.45 113.4 187.906 114 189.01 114H191.89V111.72H190.786C190.45 111.72 190.258 111.552 190.258 111.192V96.96H185.338V99.24H187.234V102.336C187.234 102.84 187.282 103.2 187.282 103.2H187.234C187.234 103.2 186.322 101.472 183.706 101.472C180.394 101.472 178.114 103.992 178.114 107.88ZM181.186 107.88C181.186 105.456 182.578 104.088 184.306 104.088C186.322 104.088 187.306 105.96 187.306 107.952C187.306 110.568 185.818 111.72 184.21 111.72C182.434 111.72 181.186 110.208 181.186 107.88ZM193.681 107.88C193.681 111.648 196.681 114.288 200.425 114.288C204.145 114.288 207.145 111.648 207.145 107.88C207.145 104.136 204.145 101.472 200.401 101.472C196.681 101.472 193.681 104.136 193.681 107.88ZM196.777 107.88C196.777 105.624 198.433 104.064 200.425 104.064C202.393 104.064 204.049 105.624 204.049 107.88C204.049 110.16 202.393 111.696 200.425 111.696C198.433 111.696 196.777 110.16 196.777 107.88ZM209.303 114H215.879V111.72H214.127V108.504C214.127 106.368 215.423 104.256 217.631 104.256C219.167 104.256 219.575 105.264 219.575 106.752V114H224.375V111.72H222.599V106.128C222.599 102.888 221.111 101.472 218.495 101.472C215.423 101.472 214.127 103.824 213.983 104.208H213.935C213.935 104.208 213.983 103.944 213.983 103.68V103.128C213.983 102.264 213.479 101.76 212.399 101.76H209.183V104.04H210.551C210.887 104.04 211.079 104.232 211.079 104.568V111.72H209.303V114Z" fill="#262626"/>
<path d="M88.536 152H95.368V150.624H90.12V146.992H94.168V145.616H90.12V142.08H95.096V140.704H88.536V152ZM97.5479 152H99.0999V148.208C99.0999 147.808 99.1319 147.44 99.2279 147.12C99.5639 145.952 100.556 145.136 101.788 145.136C103.084 145.136 103.324 146.032 103.324 147.168V152H104.876V146.816C104.876 144.752 103.996 143.712 102.092 143.712C100.332 143.712 99.3719 144.864 99.0519 145.568H99.0199C99.0199 145.568 99.0519 145.296 99.0519 144.976V143.904H97.5479V152ZM107.348 152H108.9V148.208C108.9 147.824 108.932 147.456 109.028 147.136C109.364 145.968 110.372 145.136 111.589 145.136C112.885 145.136 113.124 146.032 113.124 147.168V152H114.677V146.816C114.677 144.752 113.797 143.712 111.892 143.712C110.276 143.712 109.252 144.736 108.9 145.52H108.868C108.868 145.52 108.9 145.232 108.9 144.848V140.704H107.348V152ZM116.493 149.728C116.493 151.344 117.853 152.192 119.245 152.192C121.181 152.192 121.837 150.592 121.837 150.592H121.869C121.869 150.592 121.837 150.864 121.837 151.232V152H123.277V146.88C123.277 144.832 122.125 143.712 120.077 143.712C118.221 143.712 117.053 144.672 117.053 144.672L117.693 145.808C117.693 145.808 118.701 145.024 119.949 145.024C120.973 145.024 121.725 145.472 121.725 146.8V146.944H121.373C120.013 146.944 116.493 147.056 116.493 149.728ZM118.061 149.648C118.061 148.192 120.173 148.112 121.341 148.112H121.741V148.368C121.741 149.568 120.893 150.944 119.581 150.944C118.573 150.944 118.061 150.304 118.061 149.648ZM125.762 152H127.314V148.208C127.314 147.808 127.346 147.44 127.442 147.12C127.778 145.952 128.77 145.136 130.002 145.136C131.298 145.136 131.538 146.032 131.538 147.168V152H133.09V146.816C133.09 144.752 132.21 143.712 130.306 143.712C128.546 143.712 127.586 144.864 127.266 145.568H127.234C127.234 145.568 127.266 145.296 127.266 144.976V143.904H125.762V152ZM134.987 147.952C134.987 150.384 136.779 152.192 139.323 152.192C141.435 152.192 142.555 150.896 142.555 150.896L141.931 149.76C141.931 149.76 140.939 150.848 139.435 150.848C137.755 150.848 136.571 149.584 136.571 147.936C136.571 146.272 137.755 145.056 139.387 145.056C140.763 145.056 141.627 145.984 141.627 145.984L142.363 144.896C142.363 144.896 141.355 143.712 139.323 143.712C136.779 143.712 134.987 145.552 134.987 147.952ZM143.913 147.952C143.913 150.352 145.657 152.192 148.201 152.192C150.137 152.192 151.337 151.04 151.337 151.04L150.697 149.904C150.697 149.904 149.689 150.848 148.297 150.848C146.857 150.848 145.593 149.952 145.513 148.176H151.417C151.417 148.176 151.465 147.712 151.465 147.504C151.465 145.408 150.249 143.712 147.961 143.712C145.657 143.712 143.913 145.376 143.913 147.952ZM145.561 147.008C145.785 145.68 146.745 144.944 147.929 144.944C148.969 144.944 149.833 145.616 149.881 147.008H145.561ZM152.98 147.952C152.98 150.464 154.356 152.192 156.548 152.192C158.548 152.192 159.204 150.688 159.204 150.688H159.236C159.236 150.688 159.22 150.912 159.22 151.232V152H160.692V140.704H159.14V144.448C159.14 144.752 159.172 144.992 159.172 144.992H159.14C159.14 144.992 158.516 143.712 156.644 143.712C154.5 143.712 152.98 145.376 152.98 147.952ZM154.564 147.952C154.564 146.112 155.62 145.056 156.9 145.056C158.436 145.056 159.188 146.496 159.188 147.936C159.188 150 158.052 150.848 156.852 150.848C155.508 150.848 154.564 149.712 154.564 147.952ZM167.547 155.2H169.099V151.568C169.099 151.152 169.067 150.864 169.067 150.864H169.099C169.099 150.864 169.803 152.192 171.579 152.192C173.691 152.192 175.243 150.528 175.243 147.952C175.243 145.44 173.867 143.712 171.691 143.712C169.659 143.712 168.971 145.184 168.971 145.184H168.939C168.939 145.184 168.971 144.912 168.971 144.592V143.904H167.547V155.2ZM169.051 147.984C169.051 145.92 170.171 145.072 171.387 145.072C172.731 145.072 173.675 146.208 173.675 147.968C173.675 149.808 172.619 150.864 171.339 150.864C169.851 150.864 169.051 149.424 169.051 147.984ZM177.3 152H178.852V148.208C178.852 147.824 178.884 147.456 178.98 147.136C179.316 145.968 180.324 145.136 181.54 145.136C182.836 145.136 183.076 146.032 183.076 147.168V152H184.628V146.816C184.628 144.752 183.748 143.712 181.844 143.712C180.228 143.712 179.204 144.736 178.852 145.52H178.82C178.82 145.52 178.852 145.232 178.852 144.848V140.704H177.3V152ZM186.445 149.728C186.445 151.344 187.805 152.192 189.197 152.192C191.133 152.192 191.789 150.592 191.789 150.592H191.821C191.821 150.592 191.789 150.864 191.789 151.232V152H193.229V146.88C193.229 144.832 192.077 143.712 190.029 143.712C188.173 143.712 187.005 144.672 187.005 144.672L187.645 145.808C187.645 145.808 188.653 145.024 189.901 145.024C190.925 145.024 191.677 145.472 191.677 146.8V146.944H191.325C189.965 146.944 186.445 147.056 186.445 149.728ZM188.013 149.648C188.013 148.192 190.125 148.112 191.293 148.112H191.693V148.368C191.693 149.568 190.845 150.944 189.533 150.944C188.525 150.944 188.013 150.304 188.013 149.648ZM195.714 152H197.266V148.688C197.266 148.192 197.314 147.696 197.458 147.232C197.826 146.032 198.738 145.328 199.73 145.328C199.97 145.328 200.178 145.376 200.178 145.376V143.84C200.178 143.84 199.986 143.808 199.778 143.808C198.53 143.808 197.586 144.736 197.218 145.92H197.186C197.186 145.92 197.218 145.648 197.218 145.312V143.904H195.714V152ZM201.874 152H203.426V148.304C203.426 147.936 203.442 147.568 203.522 147.248C203.826 146.096 204.658 145.12 205.842 145.12C207.09 145.12 207.25 146.096 207.25 147.152V152H208.802V148.304C208.802 147.888 208.834 147.52 208.914 147.184C209.202 146.08 210.05 145.12 211.186 145.12C212.402 145.12 212.626 146.016 212.626 147.152V152H214.178V146.816C214.178 144.752 213.33 143.712 211.506 143.712C210.194 143.712 209.074 144.576 208.626 145.552H208.594C208.322 144.336 207.522 143.712 206.162 143.712C204.898 143.712 203.762 144.624 203.378 145.568H203.346C203.346 145.568 203.378 145.296 203.378 144.976V143.904H201.874V152ZM216.003 149.728C216.003 151.344 217.363 152.192 218.755 152.192C220.691 152.192 221.347 150.592 221.347 150.592H221.379C221.379 150.592 221.347 150.864 221.347 151.232V152H222.787V146.88C222.787 144.832 221.635 143.712 219.587 143.712C217.731 143.712 216.563 144.672 216.563 144.672L217.203 145.808C217.203 145.808 218.211 145.024 219.459 145.024C220.483 145.024 221.235 145.472 221.235 146.8V146.944H220.883C219.523 146.944 216.003 147.056 216.003 149.728ZM217.571 149.648C217.571 148.192 219.683 148.112 220.851 148.112H221.251V148.368C221.251 149.568 220.403 150.944 219.091 150.944C218.083 150.944 217.571 150.304 217.571 149.648ZM224.696 147.952C224.696 150.384 226.488 152.192 229.032 152.192C231.144 152.192 232.264 150.896 232.264 150.896L231.64 149.76C231.64 149.76 230.648 150.848 229.144 150.848C227.464 150.848 226.28 149.584 226.28 147.936C226.28 146.272 227.464 145.056 229.096 145.056C230.472 145.056 231.336 145.984 231.336 145.984L232.072 144.896C232.072 144.896 231.064 143.712 229.032 143.712C226.488 143.712 224.696 145.552 224.696 147.952ZM233.046 154.864C233.046 154.864 233.702 155.36 234.614 155.36C235.75 155.36 236.742 154.704 237.238 153.456L241.03 143.904H239.35L237.382 149.216C237.238 149.632 237.11 150.176 237.11 150.176H237.078C237.078 150.176 236.934 149.616 236.774 149.2L234.742 143.904H232.998L236.39 151.904L235.99 152.832C235.686 153.568 235.158 154.016 234.534 154.016C234.038 154.016 233.59 153.68 233.59 153.68L233.046 154.864ZM246.192 147.952C246.192 150.384 247.984 152.192 250.528 152.192C252.64 152.192 253.76 150.896 253.76 150.896L253.136 149.76C253.136 149.76 252.144 150.848 250.64 150.848C248.96 150.848 247.776 149.584 247.776 147.936C247.776 146.272 248.96 145.056 250.592 145.056C251.968 145.056 252.832 145.984 252.832 145.984L253.568 144.896C253.568 144.896 252.56 143.712 250.528 143.712C247.984 143.712 246.192 145.552 246.192 147.952ZM255.022 149.728C255.022 151.344 256.382 152.192 257.774 152.192C259.71 152.192 260.366 150.592 260.366 150.592H260.398C260.398 150.592 260.366 150.864 260.366 151.232V152H261.806V146.88C261.806 144.832 260.654 143.712 258.606 143.712C256.75 143.712 255.582 144.672 255.582 144.672L256.222 145.808C256.222 145.808 257.23 145.024 258.478 145.024C259.502 145.024 260.254 145.472 260.254 146.8V146.944H259.902C258.542 146.944 255.022 147.056 255.022 149.728ZM256.59 149.648C256.59 148.192 258.702 148.112 259.87 148.112H260.27V148.368C260.27 149.568 259.422 150.944 258.11 150.944C257.102 150.944 256.59 150.304 256.59 149.648ZM264.291 152H265.843V148.688C265.843 148.192 265.891 147.696 266.035 147.232C266.403 146.032 267.315 145.328 268.307 145.328C268.547 145.328 268.755 145.376 268.755 145.376V143.84C268.755 143.84 268.563 143.808 268.355 143.808C267.107 143.808 266.163 144.736 265.795 145.92H265.763C265.763 145.92 265.795 145.648 265.795 145.312V143.904H264.291V152ZM269.844 147.952C269.844 150.352 271.588 152.192 274.132 152.192C276.068 152.192 277.268 151.04 277.268 151.04L276.628 149.904C276.628 149.904 275.62 150.848 274.228 150.848C272.788 150.848 271.524 149.952 271.444 148.176H277.348C277.348 148.176 277.396 147.712 277.396 147.504C277.396 145.408 276.18 143.712 273.892 143.712C271.588 143.712 269.844 145.376 269.844 147.952ZM271.492 147.008C271.716 145.68 272.676 144.944 273.86 144.944C274.9 144.944 275.764 145.616 275.812 147.008H271.492ZM285.372 152H287.1L288.764 146.8C288.892 146.384 288.988 145.92 288.988 145.92H289.02C289.02 145.92 289.116 146.384 289.244 146.8L290.924 152H292.636L295.244 143.904H293.612L291.916 149.584C291.788 150 291.724 150.448 291.724 150.448H291.692C291.692 150.448 291.596 150 291.468 149.584L289.724 143.92H288.3L286.54 149.584C286.412 150 286.332 150.448 286.332 150.448H286.3C286.284 150.448 286.22 150 286.092 149.584L284.412 143.904H282.764L285.372 152ZM296.884 142.288H298.452V140.704H296.884V142.288ZM296.9 152H298.452V143.904H296.9V152ZM301.38 149.04C301.38 151.744 303.444 152.064 304.484 152.064C304.804 152.064 305.028 152.032 305.028 152.032V150.656C305.028 150.656 304.884 150.688 304.66 150.688C304.068 150.688 302.932 150.48 302.932 148.864V145.264H304.884V144.016H302.932V141.68H301.428V144.016H300.324V145.264H301.38V149.04ZM306.939 152H308.491V148.208C308.491 147.824 308.523 147.456 308.619 147.136C308.955 145.968 309.963 145.136 311.179 145.136C312.475 145.136 312.715 146.032 312.715 147.168V152H314.267V146.816C314.267 144.752 313.387 143.712 311.483 143.712C309.867 143.712 308.843 144.736 308.491 145.52H308.459C308.459 145.52 308.491 145.232 308.491 144.848V140.704H306.939V152ZM320.352 149.728C320.352 151.344 321.712 152.192 323.104 152.192C325.04 152.192 325.696 150.592 325.696 150.592H325.728C325.728 150.592 325.696 150.864 325.696 151.232V152H327.136V146.88C327.136 144.832 325.984 143.712 323.936 143.712C322.08 143.712 320.912 144.672 320.912 144.672L321.552 145.808C321.552 145.808 322.56 145.024 323.808 145.024C324.832 145.024 325.584 145.472 325.584 146.8V146.944H325.232C323.872 146.944 320.352 147.056 320.352 149.728ZM321.92 149.648C321.92 148.192 324.032 148.112 325.2 148.112H325.6V148.368C325.6 149.568 324.752 150.944 323.44 150.944C322.432 150.944 321.92 150.304 321.92 149.648ZM88.216 176H89.768V172.208C89.768 171.824 89.8 171.456 89.896 171.136C90.232 169.968 91.24 169.136 92.456 169.136C93.752 169.136 93.992 170.032 93.992 171.168V176H95.544V170.816C95.544 168.752 94.664 167.712 92.76 167.712C91.144 167.712 90.12 168.736 89.768 169.52H89.736C89.736 169.52 89.768 169.232 89.768 168.848V164.704H88.216V176ZM97.9046 173.088C97.9046 175.232 98.8486 176.192 100.673 176.192C102.257 176.192 103.313 175.136 103.649 174.336H103.681C103.681 174.336 103.649 174.592 103.649 174.928V176H105.153V167.904H103.601V171.696C103.601 173.296 102.625 174.752 100.977 174.752C99.6806 174.752 99.4566 173.856 99.4566 172.736V167.904H97.9046V173.088ZM107.739 176H109.291V172.304C109.291 171.936 109.307 171.568 109.387 171.248C109.691 170.096 110.523 169.12 111.707 169.12C112.955 169.12 113.115 170.096 113.115 171.152V176H114.667V172.304C114.667 171.888 114.699 171.52 114.779 171.184C115.067 170.08 115.915 169.12 117.051 169.12C118.267 169.12 118.491 170.016 118.491 171.152V176H120.043V170.816C120.043 168.752 119.195 167.712 117.371 167.712C116.059 167.712 114.939 168.576 114.491 169.552H114.459C114.187 168.336 113.387 167.712 112.027 167.712C110.763 167.712 109.627 168.624 109.243 169.568H109.211C109.211 169.568 109.243 169.296 109.243 168.976V167.904H107.739V176ZM121.868 173.728C121.868 175.344 123.228 176.192 124.62 176.192C126.556 176.192 127.212 174.592 127.212 174.592H127.244C127.244 174.592 127.212 174.864 127.212 175.232V176H128.652V170.88C128.652 168.832 127.5 167.712 125.452 167.712C123.596 167.712 122.428 168.672 122.428 168.672L123.068 169.808C123.068 169.808 124.076 169.024 125.324 169.024C126.348 169.024 127.1 169.472 127.1 170.8V170.944H126.748C125.388 170.944 121.868 171.056 121.868 173.728ZM123.436 173.648C123.436 172.192 125.548 172.112 126.716 172.112H127.116V172.368C127.116 173.568 126.268 174.944 124.956 174.944C123.948 174.944 123.436 174.304 123.436 173.648ZM131.137 176H132.689V172.208C132.689 171.808 132.721 171.44 132.817 171.12C133.153 169.952 134.145 169.136 135.377 169.136C136.673 169.136 136.913 170.032 136.913 171.168V176H138.465V170.816C138.465 168.752 137.585 167.712 135.681 167.712C133.921 167.712 132.961 168.864 132.641 169.568H132.609C132.609 169.568 132.641 169.296 132.641 168.976V167.904H131.137V176ZM145.543 173.04C145.543 175.744 147.607 176.064 148.647 176.064C148.967 176.064 149.191 176.032 149.191 176.032V174.656C149.191 174.656 149.047 174.688 148.823 174.688C148.231 174.688 147.095 174.48 147.095 172.864V169.264H149.047V168.016H147.095V165.68H145.591V168.016H144.487V169.264H145.543V173.04ZM150.51 171.936C150.51 174.4 152.462 176.192 154.878 176.192C157.294 176.192 159.246 174.4 159.246 171.936C159.246 169.488 157.294 167.712 154.878 167.712C152.462 167.712 150.51 169.488 150.51 171.936ZM152.094 171.936C152.094 170.256 153.358 169.056 154.878 169.056C156.414 169.056 157.662 170.256 157.662 171.936C157.662 173.632 156.414 174.848 154.878 174.848C153.358 174.848 152.094 173.632 152.094 171.936ZM161.134 173.088C161.134 175.232 162.078 176.192 163.902 176.192C165.486 176.192 166.542 175.136 166.878 174.336H166.91C166.91 174.336 166.878 174.592 166.878 174.928V176H168.382V167.904H166.83V171.696C166.83 173.296 165.854 174.752 164.206 174.752C162.91 174.752 162.686 173.856 162.686 172.736V167.904H161.134V173.088ZM170.393 171.952C170.393 174.384 172.185 176.192 174.729 176.192C176.841 176.192 177.961 174.896 177.961 174.896L177.337 173.76C177.337 173.76 176.345 174.848 174.841 174.848C173.161 174.848 171.977 173.584 171.977 171.936C171.977 170.272 173.161 169.056 174.793 169.056C176.169 169.056 177.033 169.984 177.033 169.984L177.769 168.896C177.769 168.896 176.761 167.712 174.729 167.712C172.185 167.712 170.393 169.552 170.393 171.952ZM179.878 176H181.43V172.208C181.43 171.824 181.462 171.456 181.558 171.136C181.894 169.968 182.902 169.136 184.118 169.136C185.414 169.136 185.654 170.032 185.654 171.168V176H187.206V170.816C187.206 168.752 186.326 167.712 184.422 167.712C182.806 167.712 181.782 168.736 181.43 169.52H181.398C181.398 169.52 181.43 169.232 181.43 168.848V164.704H179.878V176Z" fill="#262626"/>
<path d="M93 211C93 210.461 92.8638 209.96 92.5944 209.502C92.322 209.04 91.9598 208.678 91.4985 208.406C91.0403 208.136 90.5387 208 90 208C89.4613 208 88.9598 208.136 88.5015 208.406C88.0402 208.678 87.6749 209.043 87.4056 209.502C87.1362 209.96 87 210.461 87 211C87 211.539 87.1362 212.04 87.4056 212.498C87.678 212.96 88.0433 213.325 88.5015 213.594C88.9598 213.864 89.4582 214 90 214C90.5387 214 91.0403 213.864 91.4985 213.594C91.9598 213.322 92.3251 212.957 92.5944 212.498C92.8638 212.04 93 211.542 93 211Z" fill="#BFB800"/>
<path d="M112.784 212.288C112.784 215.584 115.312 218.192 118.576 218.192C119.952 218.192 121.184 217.76 122.16 216.976L123.472 218.288L124.4 217.296L123.056 216.016C123.872 215.024 124.384 213.712 124.384 212.288C124.384 209.024 121.856 206.512 118.576 206.512C115.312 206.512 112.784 209.024 112.784 212.288ZM114.416 212.288C114.416 209.792 116.24 207.952 118.576 207.952C120.928 207.952 122.752 209.792 122.752 212.288C122.752 213.28 122.432 214.224 121.92 214.928L120.624 213.616L119.696 214.608L121.024 215.904C120.368 216.432 119.424 216.736 118.576 216.736C116.24 216.736 114.416 214.816 114.416 212.288ZM126.592 215.088C126.592 217.232 127.536 218.192 129.36 218.192C130.944 218.192 132 217.136 132.336 216.336H132.368C132.368 216.336 132.336 216.592 132.336 216.928V218H133.84V209.904H132.288V213.696C132.288 215.296 131.312 216.752 129.664 216.752C128.368 216.752 128.144 215.856 128.144 214.736V209.904H126.592V215.088ZM135.771 215.728C135.771 217.344 137.131 218.192 138.523 218.192C140.459 218.192 141.115 216.592 141.115 216.592H141.147C141.147 216.592 141.115 216.864 141.115 217.232V218H142.555V212.88C142.555 210.832 141.403 209.712 139.355 209.712C137.499 209.712 136.331 210.672 136.331 210.672L136.971 211.808C136.971 211.808 137.979 211.024 139.227 211.024C140.251 211.024 141.003 211.472 141.003 212.8V212.944H140.651C139.291 212.944 135.771 213.056 135.771 215.728ZM137.339 215.648C137.339 214.192 139.451 214.112 140.619 214.112H141.019V214.368C141.019 215.568 140.171 216.944 138.859 216.944C137.851 216.944 137.339 216.304 137.339 215.648ZM144.944 215.792C144.944 217.824 146.24 218.064 147.12 218.064C147.392 218.064 147.632 218.032 147.632 218.032V216.656C147.632 216.656 147.504 216.672 147.36 216.672C146.88 216.672 146.496 216.496 146.496 215.52V206.704H144.944V215.792ZM149.418 208.288H150.986V206.704H149.418V208.288ZM149.434 218H150.986V209.904H149.434V218ZM153.914 215.04C153.914 217.744 155.978 218.064 157.018 218.064C157.338 218.064 157.562 218.032 157.562 218.032V216.656C157.562 216.656 157.418 216.688 157.194 216.688C156.602 216.688 155.466 216.48 155.466 214.864V211.264H157.418V210.016H155.466V207.68H153.962V210.016H152.858V211.264H153.914V215.04ZM158.337 220.864C158.337 220.864 158.993 221.36 159.905 221.36C161.041 221.36 162.033 220.704 162.529 219.456L166.321 209.904H164.641L162.673 215.216C162.529 215.632 162.401 216.176 162.401 216.176H162.369C162.369 216.176 162.225 215.616 162.065 215.2L160.033 209.904H158.289L161.681 217.904L161.281 218.832C160.977 219.568 160.449 220.016 159.825 220.016C159.329 220.016 158.881 219.68 158.881 219.68L158.337 220.864ZM172.058 218H173.61V214.304C173.61 213.936 173.626 213.568 173.706 213.248C174.01 212.096 174.842 211.12 176.026 211.12C177.274 211.12 177.434 212.096 177.434 213.152V218H178.986V214.304C178.986 213.888 179.018 213.52 179.098 213.184C179.386 212.08 180.234 211.12 181.37 211.12C182.586 211.12 182.81 212.016 182.81 213.152V218H184.362V212.816C184.362 210.752 183.514 209.712 181.69 209.712C180.378 209.712 179.258 210.576 178.81 211.552H178.778C178.506 210.336 177.706 209.712 176.346 209.712C175.082 209.712 173.946 210.624 173.562 211.568H173.53C173.53 211.568 173.562 211.296 173.562 210.976V209.904H172.058V218ZM186.284 213.952C186.284 216.352 188.028 218.192 190.572 218.192C192.508 218.192 193.708 217.04 193.708 217.04L193.068 215.904C193.068 215.904 192.06 216.848 190.668 216.848C189.228 216.848 187.964 215.952 187.884 214.176H193.788C193.788 214.176 193.836 213.712 193.836 213.504C193.836 211.408 192.62 209.712 190.332 209.712C188.028 209.712 186.284 211.376 186.284 213.952ZM187.932 213.008C188.156 211.68 189.116 210.944 190.3 210.944C191.34 210.944 192.204 211.616 192.252 213.008H187.932ZM195.35 213.952C195.35 216.464 196.726 218.192 198.918 218.192C200.918 218.192 201.574 216.688 201.574 216.688H201.606C201.606 216.688 201.59 216.912 201.59 217.232V218H203.062V206.704H201.51V210.448C201.51 210.752 201.542 210.992 201.542 210.992H201.51C201.51 210.992 200.886 209.712 199.014 209.712C196.87 209.712 195.35 211.376 195.35 213.952ZM196.934 213.952C196.934 212.112 197.99 211.056 199.27 211.056C200.806 211.056 201.558 212.496 201.558 213.936C201.558 216 200.422 216.848 199.222 216.848C197.878 216.848 196.934 215.712 196.934 213.952ZM205.632 208.288H207.2V206.704H205.632V208.288ZM205.648 218H207.2V209.904H205.648V218ZM209.216 213.952C209.216 216.384 211.008 218.192 213.552 218.192C215.664 218.192 216.784 216.896 216.784 216.896L216.16 215.76C216.16 215.76 215.168 216.848 213.664 216.848C211.984 216.848 210.8 215.584 210.8 213.936C210.8 212.272 211.984 211.056 213.616 211.056C214.992 211.056 215.856 211.984 215.856 211.984L216.592 210.896C216.592 210.896 215.584 209.712 213.552 209.712C211.008 209.712 209.216 211.552 209.216 213.952ZM218.046 215.728C218.046 217.344 219.406 218.192 220.798 218.192C222.734 218.192 223.39 216.592 223.39 216.592H223.422C223.422 216.592 223.39 216.864 223.39 217.232V218H224.83V212.88C224.83 210.832 223.678 209.712 221.63 209.712C219.774 209.712 218.606 210.672 218.606 210.672L219.246 211.808C219.246 211.808 220.254 211.024 221.502 211.024C222.526 211.024 223.278 211.472 223.278 212.8V212.944H222.926C221.566 212.944 218.046 213.056 218.046 215.728ZM219.614 215.648C219.614 214.192 221.726 214.112 222.894 214.112H223.294V214.368C223.294 215.568 222.446 216.944 221.134 216.944C220.126 216.944 219.614 216.304 219.614 215.648ZM227.604 215.04C227.604 217.744 229.668 218.064 230.708 218.064C231.028 218.064 231.252 218.032 231.252 218.032V216.656C231.252 216.656 231.108 216.688 230.884 216.688C230.292 216.688 229.156 216.48 229.156 214.864V211.264H231.108V210.016H229.156V207.68H227.652V210.016H226.548V211.264H227.604V215.04ZM233.147 208.288H234.715V206.704H233.147V208.288ZM233.163 218H234.715V209.904H233.163V218ZM236.715 213.936C236.715 216.4 238.667 218.192 241.083 218.192C243.499 218.192 245.451 216.4 245.451 213.936C245.451 211.488 243.499 209.712 241.083 209.712C238.667 209.712 236.715 211.488 236.715 213.936ZM238.299 213.936C238.299 212.256 239.563 211.056 241.083 211.056C242.619 211.056 243.867 212.256 243.867 213.936C243.867 215.632 242.619 216.848 241.083 216.848C239.563 216.848 238.299 215.632 238.299 213.936ZM247.452 218H249.004V214.208C249.004 213.808 249.036 213.44 249.132 213.12C249.468 211.952 250.46 211.136 251.692 211.136C252.988 211.136 253.228 212.032 253.228 213.168V218H254.78V212.816C254.78 210.752 253.9 209.712 251.996 209.712C250.236 209.712 249.276 210.864 248.956 211.568H248.924C248.924 211.568 248.956 211.296 248.956 210.976V209.904H247.452V218ZM256.596 217.008C256.596 217.008 257.684 218.192 259.668 218.192C261.444 218.192 262.596 217.184 262.596 215.84C262.596 213.184 258.436 213.504 258.436 212.048C258.436 211.344 259.092 211.056 259.764 211.056C261.044 211.056 261.764 211.776 261.764 211.776L262.388 210.608C262.388 210.608 261.556 209.712 259.78 209.712C258.164 209.712 256.852 210.544 256.852 212.016C256.852 214.656 261.012 214.352 261.012 215.84C261.012 216.496 260.34 216.848 259.668 216.848C258.26 216.848 257.348 215.904 257.348 215.904L256.596 217.008Z" fill="#262626"/>
<path d="M93 243C93 242.461 92.8638 241.96 92.5944 241.502C92.322 241.04 91.9598 240.678 91.4985 240.406C91.0403 240.136 90.5387 240 90 240C89.4613 240 88.9598 240.136 88.5015 240.406C88.0402 240.678 87.6749 241.043 87.4056 241.502C87.1362 241.96 87 242.461 87 243C87 243.539 87.1362 244.04 87.4056 244.498C87.678 244.96 88.0433 245.325 88.5015 245.594C88.9598 245.864 89.4582 246 90 246C90.5387 246 91.0403 245.864 91.4985 245.594C91.9598 245.322 92.3251 244.957 92.5944 244.498C92.8638 244.04 93 243.542 93 243Z" fill="#BFB800"/>
<path d="M112.768 244.288C112.768 247.6 115.152 250.192 118.544 250.192C121.376 250.192 122.928 248.4 122.928 248.4L122.08 247.264C122.08 247.264 120.72 248.736 118.592 248.736C116.08 248.736 114.4 246.688 114.4 244.272C114.4 241.872 116.048 239.952 118.576 239.952C120.528 239.952 121.84 241.184 121.84 241.184L122.624 240C122.624 240 121.232 238.512 118.512 238.512C115.232 238.512 112.768 241.008 112.768 244.288ZM124.331 245.936C124.331 248.4 126.283 250.192 128.699 250.192C131.115 250.192 133.067 248.4 133.067 245.936C133.067 243.488 131.115 241.712 128.699 241.712C126.283 241.712 124.331 243.488 124.331 245.936ZM125.915 245.936C125.915 244.256 127.179 243.056 128.699 243.056C130.235 243.056 131.483 244.256 131.483 245.936C131.483 247.632 130.235 248.848 128.699 248.848C127.179 248.848 125.915 247.632 125.915 245.936ZM135.067 250H136.619V246.304C136.619 245.936 136.635 245.568 136.715 245.248C137.019 244.096 137.851 243.12 139.035 243.12C140.283 243.12 140.443 244.096 140.443 245.152V250H141.995V246.304C141.995 245.888 142.027 245.52 142.107 245.184C142.395 244.08 143.243 243.12 144.379 243.12C145.595 243.12 145.819 244.016 145.819 245.152V250H147.371V244.816C147.371 242.752 146.523 241.712 144.699 241.712C143.387 241.712 142.267 242.576 141.819 243.552H141.787C141.515 242.336 140.715 241.712 139.355 241.712C138.091 241.712 136.955 242.624 136.571 243.568H136.539C136.539 243.568 136.571 243.296 136.571 242.976V241.904H135.067V250ZM149.852 253.2H151.404V249.568C151.404 249.152 151.372 248.864 151.372 248.864H151.404C151.404 248.864 152.108 250.192 153.884 250.192C155.996 250.192 157.548 248.528 157.548 245.952C157.548 243.44 156.172 241.712 153.996 241.712C151.964 241.712 151.276 243.184 151.276 243.184H151.244C151.244 243.184 151.276 242.912 151.276 242.592V241.904H149.852V253.2ZM151.356 245.984C151.356 243.92 152.476 243.072 153.692 243.072C155.036 243.072 155.98 244.208 155.98 245.968C155.98 247.808 154.924 248.864 153.644 248.864C152.156 248.864 151.356 247.424 151.356 245.984ZM158.95 247.728C158.95 249.344 160.31 250.192 161.702 250.192C163.638 250.192 164.294 248.592 164.294 248.592H164.326C164.326 248.592 164.294 248.864 164.294 249.232V250H165.734V244.88C165.734 242.832 164.582 241.712 162.534 241.712C160.678 241.712 159.51 242.672 159.51 242.672L160.15 243.808C160.15 243.808 161.158 243.024 162.406 243.024C163.43 243.024 164.182 243.472 164.182 244.8V244.944H163.83C162.47 244.944 158.95 245.056 158.95 247.728ZM160.518 247.648C160.518 246.192 162.63 246.112 163.798 246.112H164.198V246.368C164.198 247.568 163.35 248.944 162.038 248.944C161.03 248.944 160.518 248.304 160.518 247.648ZM167.563 249.008C167.563 249.008 168.651 250.192 170.635 250.192C172.411 250.192 173.563 249.184 173.563 247.84C173.563 245.184 169.403 245.504 169.403 244.048C169.403 243.344 170.059 243.056 170.731 243.056C172.011 243.056 172.731 243.776 172.731 243.776L173.355 242.608C173.355 242.608 172.523 241.712 170.747 241.712C169.131 241.712 167.819 242.544 167.819 244.016C167.819 246.656 171.979 246.352 171.979 247.84C171.979 248.496 171.307 248.848 170.635 248.848C169.227 248.848 168.315 247.904 168.315 247.904L167.563 249.008ZM174.895 249.008C174.895 249.008 175.983 250.192 177.967 250.192C179.743 250.192 180.895 249.184 180.895 247.84C180.895 245.184 176.735 245.504 176.735 244.048C176.735 243.344 177.391 243.056 178.063 243.056C179.343 243.056 180.063 243.776 180.063 243.776L180.687 242.608C180.687 242.608 179.855 241.712 178.079 241.712C176.463 241.712 175.151 242.544 175.151 244.016C175.151 246.656 179.311 246.352 179.311 247.84C179.311 248.496 178.639 248.848 177.967 248.848C176.559 248.848 175.647 247.904 175.647 247.904L174.895 249.008ZM182.867 240.288H184.435V238.704H182.867V240.288ZM182.883 250H184.435V241.904H182.883V250ZM186.435 245.936C186.435 248.4 188.387 250.192 190.803 250.192C193.219 250.192 195.171 248.4 195.171 245.936C195.171 243.488 193.219 241.712 190.803 241.712C188.387 241.712 186.435 243.488 186.435 245.936ZM188.019 245.936C188.019 244.256 189.283 243.056 190.803 243.056C192.339 243.056 193.587 244.256 193.587 245.936C193.587 247.632 192.339 248.848 190.803 248.848C189.283 248.848 188.019 247.632 188.019 245.936ZM197.172 250H198.724V246.208C198.724 245.808 198.756 245.44 198.852 245.12C199.188 243.952 200.18 243.136 201.412 243.136C202.708 243.136 202.948 244.032 202.948 245.168V250H204.5V244.816C204.5 242.752 203.62 241.712 201.716 241.712C199.956 241.712 198.996 242.864 198.676 243.568H198.644C198.644 243.568 198.676 243.296 198.676 242.976V241.904H197.172V250ZM206.316 247.728C206.316 249.344 207.676 250.192 209.068 250.192C211.004 250.192 211.66 248.592 211.66 248.592H211.692C211.692 248.592 211.66 248.864 211.66 249.232V250H213.1V244.88C213.1 242.832 211.948 241.712 209.9 241.712C208.044 241.712 206.876 242.672 206.876 242.672L207.516 243.808C207.516 243.808 208.524 243.024 209.772 243.024C210.796 243.024 211.548 243.472 211.548 244.8V244.944H211.196C209.836 244.944 206.316 245.056 206.316 247.728ZM207.884 247.648C207.884 246.192 209.996 246.112 211.164 246.112H211.564V246.368C211.564 247.568 210.716 248.944 209.404 248.944C208.396 248.944 207.884 248.304 207.884 247.648ZM215.875 247.04C215.875 249.744 217.939 250.064 218.979 250.064C219.299 250.064 219.523 250.032 219.523 250.032V248.656C219.523 248.656 219.379 248.688 219.155 248.688C218.563 248.688 217.427 248.48 217.427 246.864V243.264H219.379V242.016H217.427V239.68H215.923V242.016H214.819V243.264H215.875V247.04ZM220.873 245.952C220.873 248.352 222.617 250.192 225.161 250.192C227.097 250.192 228.297 249.04 228.297 249.04L227.657 247.904C227.657 247.904 226.649 248.848 225.257 248.848C223.817 248.848 222.553 247.952 222.473 246.176H228.377C228.377 246.176 228.425 245.712 228.425 245.504C228.425 243.408 227.209 241.712 224.921 241.712C222.617 241.712 220.873 243.376 220.873 245.952ZM222.521 245.008C222.745 243.68 223.705 242.944 224.889 242.944C225.929 242.944 226.793 243.616 226.841 245.008H222.521ZM234.161 245.952C234.161 248.384 235.953 250.192 238.497 250.192C240.609 250.192 241.729 248.896 241.729 248.896L241.105 247.76C241.105 247.76 240.113 248.848 238.609 248.848C236.929 248.848 235.745 247.584 235.745 245.936C235.745 244.272 236.929 243.056 238.561 243.056C239.937 243.056 240.801 243.984 240.801 243.984L241.537 242.896C241.537 242.896 240.529 241.712 238.497 241.712C235.953 241.712 234.161 243.552 234.161 245.952ZM242.991 247.728C242.991 249.344 244.351 250.192 245.743 250.192C247.679 250.192 248.335 248.592 248.335 248.592H248.367C248.367 248.592 248.335 248.864 248.335 249.232V250H249.775V244.88C249.775 242.832 248.623 241.712 246.575 241.712C244.719 241.712 243.551 242.672 243.551 242.672L244.191 243.808C244.191 243.808 245.199 243.024 246.447 243.024C247.471 243.024 248.223 243.472 248.223 244.8V244.944H247.871C246.511 244.944 242.991 245.056 242.991 247.728ZM244.559 247.648C244.559 246.192 246.671 246.112 247.839 246.112H248.239V246.368C248.239 247.568 247.391 248.944 246.079 248.944C245.071 248.944 244.559 248.304 244.559 247.648ZM252.26 250H253.812V246.688C253.812 246.192 253.86 245.696 254.004 245.232C254.372 244.032 255.284 243.328 256.276 243.328C256.516 243.328 256.724 243.376 256.724 243.376V241.84C256.724 241.84 256.532 241.808 256.324 241.808C255.076 241.808 254.132 242.736 253.764 243.92H253.732C253.732 243.92 253.764 243.648 253.764 243.312V241.904H252.26V250ZM257.814 245.952C257.814 248.352 259.558 250.192 262.102 250.192C264.038 250.192 265.238 249.04 265.238 249.04L264.598 247.904C264.598 247.904 263.59 248.848 262.198 248.848C260.758 248.848 259.494 247.952 259.414 246.176H265.318C265.318 246.176 265.366 245.712 265.366 245.504C265.366 243.408 264.15 241.712 261.862 241.712C259.558 241.712 257.814 243.376 257.814 245.952ZM259.462 245.008C259.686 243.68 260.646 242.944 261.83 242.944C262.87 242.944 263.734 243.616 263.782 245.008H259.462Z" fill="#262626"/>
<path d="M93 275C93 274.461 92.8638 273.96 92.5944 273.502C92.322 273.04 91.9598 272.678 91.4985 272.406C91.0403 272.136 90.5387 272 90 272C89.4613 272 88.9598 272.136 88.5015 272.406C88.0402 272.678 87.6749 273.043 87.4056 273.502C87.1362 273.96 87 274.461 87 275C87 275.539 87.1362 276.04 87.4056 276.498C87.678 276.96 88.0433 277.325 88.5015 277.594C88.9598 277.864 89.4582 278 90 278C90.5387 278 91.0403 277.864 91.4985 277.594C91.9598 277.322 92.3251 276.957 92.5944 276.498C92.8638 276.04 93 275.542 93 275Z" fill="#BFB800"/>
<path d="M112.672 280.704C112.672 280.704 114.016 282.192 116.416 282.192C118.656 282.192 120 280.752 120 279.008C120 275.344 114.528 275.968 114.528 273.632C114.528 272.736 115.376 271.984 116.576 271.984C118.016 271.984 119.056 272.96 119.056 272.96L119.776 271.648C119.776 271.648 118.672 270.512 116.576 270.512C114.448 270.512 112.928 271.904 112.928 273.664C112.928 277.136 118.4 276.608 118.4 279.056C118.4 280.128 117.504 280.72 116.448 280.72C114.768 280.72 113.568 279.504 113.568 279.504L112.672 280.704ZM121.998 279.088C121.998 281.232 122.942 282.192 124.766 282.192C126.35 282.192 127.406 281.136 127.742 280.336H127.774C127.774 280.336 127.742 280.592 127.742 280.928V282H129.246V273.904H127.694V277.696C127.694 279.296 126.718 280.752 125.07 280.752C123.774 280.752 123.55 279.856 123.55 278.736V273.904H121.998V279.088ZM131.833 285.2H133.385V281.568C133.385 281.152 133.353 280.864 133.353 280.864H133.385C133.385 280.864 134.089 282.192 135.865 282.192C137.977 282.192 139.529 280.528 139.529 277.952C139.529 275.44 138.153 273.712 135.977 273.712C133.945 273.712 133.257 275.184 133.257 275.184H133.225C133.225 275.184 133.257 274.912 133.257 274.592V273.904H131.833V285.2ZM133.337 277.984C133.337 275.92 134.457 275.072 135.673 275.072C137.017 275.072 137.961 276.208 137.961 277.968C137.961 279.808 136.905 280.864 135.625 280.864C134.137 280.864 133.337 279.424 133.337 277.984ZM141.587 285.2H143.139V281.568C143.139 281.152 143.107 280.864 143.107 280.864H143.139C143.139 280.864 143.843 282.192 145.619 282.192C147.731 282.192 149.283 280.528 149.283 277.952C149.283 275.44 147.907 273.712 145.731 273.712C143.699 273.712 143.011 275.184 143.011 275.184H142.979C142.979 275.184 143.011 274.912 143.011 274.592V273.904H141.587V285.2ZM143.091 277.984C143.091 275.92 144.211 275.072 145.427 275.072C146.771 275.072 147.715 276.208 147.715 277.968C147.715 279.808 146.659 280.864 145.379 280.864C143.891 280.864 143.091 279.424 143.091 277.984ZM150.748 277.936C150.748 280.4 152.7 282.192 155.116 282.192C157.532 282.192 159.484 280.4 159.484 277.936C159.484 275.488 157.532 273.712 155.116 273.712C152.7 273.712 150.748 275.488 150.748 277.936ZM152.332 277.936C152.332 276.256 153.596 275.056 155.116 275.056C156.652 275.056 157.9 276.256 157.9 277.936C157.9 279.632 156.652 280.848 155.116 280.848C153.596 280.848 152.332 279.632 152.332 277.936ZM161.485 282H163.037V278.688C163.037 278.192 163.085 277.696 163.229 277.232C163.597 276.032 164.509 275.328 165.501 275.328C165.741 275.328 165.949 275.376 165.949 275.376V273.84C165.949 273.84 165.757 273.808 165.549 273.808C164.301 273.808 163.357 274.736 162.989 275.92H162.957C162.957 275.92 162.989 275.648 162.989 275.312V273.904H161.485V282ZM167.981 279.04C167.981 281.744 170.045 282.064 171.085 282.064C171.405 282.064 171.629 282.032 171.629 282.032V280.656C171.629 280.656 171.485 280.688 171.261 280.688C170.669 280.688 169.533 280.48 169.533 278.864V275.264H171.485V274.016H169.533V271.68H168.029V274.016H166.925V275.264H167.981V279.04ZM178.24 282H179.776V275.264H181.696V274.016H179.776V273.664C179.776 272.16 180.88 271.968 181.472 271.968C181.712 271.968 181.872 272 181.872 272V270.672C181.872 270.672 181.632 270.624 181.28 270.624C180.256 270.624 178.24 270.96 178.24 273.632V274.016H177.232V275.264H178.24V282ZM182.752 277.936C182.752 280.4 184.704 282.192 187.12 282.192C189.536 282.192 191.488 280.4 191.488 277.936C191.488 275.488 189.536 273.712 187.12 273.712C184.704 273.712 182.752 275.488 182.752 277.936ZM184.336 277.936C184.336 276.256 185.6 275.056 187.12 275.056C188.656 275.056 189.904 276.256 189.904 277.936C189.904 279.632 188.656 280.848 187.12 280.848C185.6 280.848 184.336 279.632 184.336 277.936ZM193.488 282H195.04V278.688C195.04 278.192 195.088 277.696 195.232 277.232C195.6 276.032 196.512 275.328 197.504 275.328C197.744 275.328 197.952 275.376 197.952 275.376V273.84C197.952 273.84 197.76 273.808 197.552 273.808C196.304 273.808 195.36 274.736 194.992 275.92H194.96C194.96 275.92 194.992 275.648 194.992 275.312V273.904H193.488V282ZM202.781 284.864C202.781 284.864 203.437 285.36 204.349 285.36C205.485 285.36 206.477 284.704 206.973 283.456L210.765 273.904H209.085L207.117 279.216C206.973 279.632 206.845 280.176 206.845 280.176H206.813C206.813 280.176 206.669 279.616 206.509 279.2L204.477 273.904H202.733L206.125 281.904L205.725 282.832C205.421 283.568 204.893 284.016 204.269 284.016C203.773 284.016 203.325 283.68 203.325 283.68L202.781 284.864ZM211.642 277.936C211.642 280.4 213.594 282.192 216.01 282.192C218.426 282.192 220.378 280.4 220.378 277.936C220.378 275.488 218.426 273.712 216.01 273.712C213.594 273.712 211.642 275.488 211.642 277.936ZM213.226 277.936C213.226 276.256 214.49 275.056 216.01 275.056C217.546 275.056 218.794 276.256 218.794 277.936C218.794 279.632 217.546 280.848 216.01 280.848C214.49 280.848 213.226 279.632 213.226 277.936ZM222.266 279.088C222.266 281.232 223.21 282.192 225.034 282.192C226.618 282.192 227.674 281.136 228.01 280.336H228.042C228.042 280.336 228.01 280.592 228.01 280.928V282H229.514V273.904H227.962V277.696C227.962 279.296 226.986 280.752 225.338 280.752C224.042 280.752 223.818 279.856 223.818 278.736V273.904H222.266V279.088ZM232.1 282H233.652V278.688C233.652 278.192 233.7 277.696 233.844 277.232C234.212 276.032 235.124 275.328 236.116 275.328C236.356 275.328 236.564 275.376 236.564 275.376V273.84C236.564 273.84 236.372 273.808 236.164 273.808C234.916 273.808 233.972 274.736 233.604 275.92H233.572C233.572 275.92 233.604 275.648 233.604 275.312V273.904H232.1V282ZM244.194 282H245.922L247.586 276.8C247.714 276.384 247.81 275.92 247.81 275.92H247.842C247.842 275.92 247.938 276.384 248.066 276.8L249.746 282H251.458L254.066 273.904H252.434L250.738 279.584C250.61 280 250.546 280.448 250.546 280.448H250.514C250.514 280.448 250.418 280 250.29 279.584L248.546 273.92H247.122L245.362 279.584C245.234 280 245.154 280.448 245.154 280.448H245.122C245.106 280.448 245.042 280 244.914 279.584L243.234 273.904H241.586L244.194 282ZM255.721 282H257.273V278.208C257.273 277.824 257.305 277.456 257.401 277.136C257.737 275.968 258.745 275.136 259.961 275.136C261.257 275.136 261.497 276.032 261.497 277.168V282H263.049V276.816C263.049 274.752 262.169 273.712 260.265 273.712C258.649 273.712 257.625 274.736 257.273 275.52H257.241C257.241 275.52 257.273 275.232 257.273 274.848V270.704H255.721V282ZM264.93 277.936C264.93 280.4 266.882 282.192 269.298 282.192C271.714 282.192 273.666 280.4 273.666 277.936C273.666 275.488 271.714 273.712 269.298 273.712C266.882 273.712 264.93 275.488 264.93 277.936ZM266.514 277.936C266.514 276.256 267.778 275.056 269.298 275.056C270.834 275.056 272.082 276.256 272.082 277.936C272.082 279.632 270.834 280.848 269.298 280.848C267.778 280.848 266.514 279.632 266.514 277.936ZM275.57 279.792C275.57 281.824 276.866 282.064 277.746 282.064C278.018 282.064 278.258 282.032 278.258 282.032V280.656C278.258 280.656 278.13 280.672 277.986 280.672C277.506 280.672 277.122 280.496 277.122 279.52V270.704H275.57V279.792ZM279.5 277.952C279.5 280.352 281.244 282.192 283.788 282.192C285.724 282.192 286.924 281.04 286.924 281.04L286.284 279.904C286.284 279.904 285.276 280.848 283.884 280.848C282.444 280.848 281.18 279.952 281.1 278.176H287.004C287.004 278.176 287.052 277.712 287.052 277.504C287.052 275.408 285.836 273.712 283.548 273.712C281.244 273.712 279.5 275.376 279.5 277.952ZM281.148 277.008C281.372 275.68 282.332 274.944 283.516 274.944C284.556 274.944 285.42 275.616 285.468 277.008H281.148ZM293.365 282H294.917V278.208C294.917 277.824 294.949 277.456 295.045 277.136C295.381 275.968 296.389 275.136 297.605 275.136C298.901 275.136 299.141 276.032 299.141 277.168V282H300.693V276.816C300.693 274.752 299.813 273.712 297.909 273.712C296.293 273.712 295.269 274.736 294.917 275.52H294.885C294.885 275.52 294.917 275.232 294.917 274.848V270.704H293.365V282ZM302.605 277.952C302.605 280.352 304.349 282.192 306.893 282.192C308.829 282.192 310.029 281.04 310.029 281.04L309.389 279.904C309.389 279.904 308.381 280.848 306.989 280.848C305.549 280.848 304.285 279.952 304.205 278.176H310.109C310.109 278.176 310.157 277.712 310.157 277.504C310.157 275.408 308.941 273.712 306.653 273.712C304.349 273.712 302.605 275.376 302.605 277.952ZM304.253 277.008C304.477 275.68 305.437 274.944 306.621 274.944C307.661 274.944 308.525 275.616 308.573 277.008H304.253ZM311.544 279.728C311.544 281.344 312.904 282.192 314.296 282.192C316.232 282.192 316.888 280.592 316.888 280.592H316.92C316.92 280.592 316.888 280.864 316.888 281.232V282H318.328V276.88C318.328 274.832 317.176 273.712 315.128 273.712C313.272 273.712 312.104 274.672 312.104 274.672L312.744 275.808C312.744 275.808 313.752 275.024 315 275.024C316.024 275.024 316.776 275.472 316.776 276.8V276.944H316.424C315.064 276.944 311.544 277.056 311.544 279.728ZM313.112 279.648C313.112 278.192 315.224 278.112 316.392 278.112H316.792V278.368C316.792 279.568 315.944 280.944 314.632 280.944C313.624 280.944 313.112 280.304 313.112 279.648ZM320.718 279.792C320.718 281.824 322.014 282.064 322.894 282.064C323.166 282.064 323.406 282.032 323.406 282.032V280.656C323.406 280.656 323.278 280.672 323.134 280.672C322.654 280.672 322.27 280.496 322.27 279.52V270.704H320.718V279.792ZM325.544 279.04C325.544 281.744 327.608 282.064 328.648 282.064C328.968 282.064 329.192 282.032 329.192 282.032V280.656C329.192 280.656 329.048 280.688 328.824 280.688C328.232 280.688 327.096 280.48 327.096 278.864V275.264H329.048V274.016H327.096V271.68H325.592V274.016H324.488V275.264H325.544V279.04ZM331.102 282H332.654V278.208C332.654 277.824 332.686 277.456 332.782 277.136C333.118 275.968 334.126 275.136 335.342 275.136C336.638 275.136 336.878 276.032 336.878 277.168V282H338.43V276.816C338.43 274.752 337.55 273.712 335.646 273.712C334.03 273.712 333.006 274.736 332.654 275.52H332.622C332.622 275.52 332.654 275.232 332.654 274.848V270.704H331.102V282Z" fill="#262626"/>
<path d="M105.026 330.828C105.026 333.132 106.916 334.716 109.454 334.716C112.1 334.716 113.81 332.97 113.81 330.99C113.81 329.676 113.054 328.884 112.082 328.29C112.244 328.11 113.594 326.67 113.594 324.978C113.594 322.89 111.956 321.576 109.598 321.576C106.916 321.576 105.638 323.214 105.638 324.906C105.638 326.076 106.232 326.85 107.06 327.444C106.718 327.678 105.026 328.884 105.026 330.828ZM111.974 330.936C111.974 332.25 110.786 333.114 109.454 333.114C108.104 333.114 106.844 332.178 106.844 330.72C106.844 329.352 107.96 328.488 108.374 328.2C110.084 329.028 111.974 329.568 111.974 330.936ZM107.402 324.942C107.402 323.97 108.176 323.178 109.58 323.178C110.912 323.178 111.848 323.916 111.848 325.086C111.848 326.418 110.93 327.39 110.732 327.588C109.094 326.886 107.402 326.346 107.402 324.942ZM115.978 332.952C115.978 332.952 117.256 334.716 119.866 334.716C122.44 334.716 124.366 332.88 124.366 330.432C124.366 328.146 122.62 326.292 119.938 326.292C119.002 326.292 118.3 326.688 118.3 326.688H118.264C118.264 326.688 118.336 326.4 118.354 326.022L118.66 323.34H123.52V321.792H117.112L116.482 328.092L117.508 328.47C117.508 328.47 118.408 327.84 119.65 327.84C121.288 327.84 122.548 328.92 122.548 330.45C122.548 331.998 121.252 333.024 119.758 333.024C117.958 333.024 116.968 331.656 116.968 331.656L115.978 332.952ZM126.3 332.952C126.3 332.952 127.578 334.716 130.188 334.716C132.762 334.716 134.688 332.88 134.688 330.432C134.688 328.146 132.942 326.292 130.26 326.292C129.324 326.292 128.622 326.688 128.622 326.688H128.586C128.586 326.688 128.658 326.4 128.676 326.022L128.982 323.34H133.842V321.792H127.434L126.804 328.092L127.83 328.47C127.83 328.47 128.73 327.84 129.972 327.84C131.61 327.84 132.87 328.92 132.87 330.45C132.87 331.998 131.574 333.024 130.08 333.024C128.28 333.024 127.29 331.656 127.29 331.656L126.3 332.952ZM137.379 330.144H142.635V328.596H137.379V330.144ZM144.987 331.098H151.143V334.5H152.889V331.098H154.617V329.586H152.889V321.792H150.855L144.987 329.982V331.098ZM146.949 329.586V329.55L150.549 324.744C150.891 324.294 151.179 323.7 151.179 323.7H151.215C151.215 323.7 151.143 324.366 151.143 324.96V329.586H146.949ZM156.605 334.5H164.795V332.952H158.495C158.531 330.054 164.597 329.406 164.597 325.23C164.597 323.034 162.923 321.576 160.583 321.576C157.721 321.576 156.569 323.988 156.569 323.988L157.883 324.87C157.883 324.87 158.783 323.25 160.457 323.25C161.789 323.25 162.743 324.096 162.743 325.356C162.743 328.344 156.515 328.992 156.515 333.528C156.515 333.834 156.551 334.158 156.605 334.5ZM166.87 332.952C166.87 332.952 168.148 334.716 170.758 334.716C173.332 334.716 175.258 332.88 175.258 330.432C175.258 328.146 173.512 326.292 170.83 326.292C169.894 326.292 169.192 326.688 169.192 326.688H169.156C169.156 326.688 169.228 326.4 169.246 326.022L169.552 323.34H174.412V321.792H168.004L167.374 328.092L168.4 328.47C168.4 328.47 169.3 327.84 170.542 327.84C172.18 327.84 173.44 328.92 173.44 330.45C173.44 331.998 172.144 333.024 170.65 333.024C168.85 333.024 167.86 331.656 167.86 331.656L166.87 332.952ZM177.948 330.144H183.204V328.596H177.948V330.144ZM185.557 331.098H191.713V334.5H193.459V331.098H195.187V329.586H193.459V321.792H191.425L185.557 329.982V331.098ZM187.519 329.586V329.55L191.119 324.744C191.461 324.294 191.749 323.7 191.749 323.7H191.785C191.785 323.7 191.713 324.366 191.713 324.96V329.586H187.519ZM201.711 334.716C205.113 334.716 206.211 331.8 206.211 328.128C206.211 324.474 205.113 321.576 201.711 321.576C198.327 321.576 197.229 324.474 197.229 328.128C197.229 331.8 198.327 334.716 201.711 334.716ZM201.711 333.078C199.641 333.078 199.047 330.9 199.047 328.128C199.047 325.374 199.641 323.214 201.711 323.214C203.799 323.214 204.393 325.374 204.393 328.128C204.393 330.9 203.799 333.078 201.711 333.078ZM208.551 330.828C208.551 333.132 210.441 334.716 212.979 334.716C215.625 334.716 217.335 332.97 217.335 330.99C217.335 329.676 216.579 328.884 215.607 328.29C215.769 328.11 217.119 326.67 217.119 324.978C217.119 322.89 215.481 321.576 213.123 321.576C210.441 321.576 209.163 323.214 209.163 324.906C209.163 326.076 209.757 326.85 210.585 327.444C210.243 327.678 208.551 328.884 208.551 330.828ZM215.499 330.936C215.499 332.25 214.311 333.114 212.979 333.114C211.629 333.114 210.369 332.178 210.369 330.72C210.369 329.352 211.485 328.488 211.899 328.2C213.609 329.028 215.499 329.568 215.499 330.936ZM210.927 324.942C210.927 323.97 211.701 323.178 213.105 323.178C214.437 323.178 215.373 323.916 215.373 325.086C215.373 326.418 214.455 327.39 214.257 327.588C212.619 326.886 210.927 326.346 210.927 324.942ZM219.502 332.952C219.502 332.952 220.78 334.716 223.39 334.716C225.964 334.716 227.89 332.88 227.89 330.432C227.89 328.146 226.144 326.292 223.462 326.292C222.526 326.292 221.824 326.688 221.824 326.688H221.788C221.788 326.688 221.86 326.4 221.878 326.022L222.184 323.34H227.044V321.792H220.636L220.006 328.092L221.032 328.47C221.032 328.47 221.932 327.84 223.174 327.84C224.812 327.84 226.072 328.92 226.072 330.45C226.072 331.998 224.776 333.024 223.282 333.024C221.482 333.024 220.492 331.656 220.492 331.656L219.502 332.952Z" fill="#0077C8"/>
<path d="M253.531 320.668L250.239 319.918C249.881 319.837 249.514 320.022 249.368 320.353L247.849 323.852C247.716 324.158 247.804 324.518 248.067 324.727L249.985 326.277C248.846 328.673 246.855 330.666 244.376 331.813L242.806 329.92C242.591 329.66 242.23 329.573 241.92 329.704L238.374 331.204C238.035 331.351 237.849 331.713 237.931 332.066L238.691 335.315C238.77 335.653 239.074 335.897 239.431 335.897C247.538 335.897 254.12 329.414 254.12 321.399C254.12 321.05 253.876 320.746 253.531 320.668Z" fill="#0077C8"/>
<path d="M93 308H264.234V306H93V308ZM269.234 313V341H271.234V313H269.234ZM264.234 346H93V348H264.234V346ZM88 341V313H86V341H88ZM93 346C90.2386 346 88 343.761 88 341H86C86 344.866 89.134 348 93 348V346ZM269.234 341C269.234 343.761 266.996 346 264.234 346V348C268.1 348 271.234 344.866 271.234 341H269.234ZM264.234 308C266.996 308 269.234 310.239 269.234 313H271.234C271.234 309.134 268.1 306 264.234 306V308ZM93 306C89.134 306 86 309.134 86 313H88C88 310.239 90.2386 308 93 308V306Z" fill="#0077C8"/>
</g>
<path d="M0 0V-1H-1V0H0ZM360 0H361V-1H360V0ZM360 399V400H361V399H360ZM0 399H-1V400H0V399ZM0 1H360V-1H0V1ZM359 0V399H361V0H359ZM360 398H0V400H360V398ZM1 399V0H-1V399H1Z" fill="#D8D8D8"/>
<defs>
<clipPath id="clip0">
<path d="M0 0H360V399H0V0Z" fill="white"/>
</clipPath>
</defs>
</svg>
