<svg width="41" height="54" viewBox="0 0 41 54" fill="none" xmlns="http://www.w3.org/2000/svg">
<path d="M38.4919 41.2688C37.0922 39.8691 35.3037 39.1693 33.4374 39.1693C33.1264 39.1693 32.7376 39.1692 32.4265 39.247V23.928C32.4265 19.2623 28.8495 15.3743 24.3393 14.8299V12.7304H27.372C27.6053 12.7304 27.9164 12.6526 28.0719 12.4193C28.2274 12.2638 28.3829 11.9528 28.3829 11.7195V3.6323C28.3829 1.92155 26.9832 0.599609 25.3502 0.599609H7.0763C5.36554 0.599609 4.0436 1.92155 4.0436 3.6323V11.7972C4.0436 12.0305 4.12136 12.3416 4.35465 12.4971C4.51017 12.6526 4.82121 12.8081 5.05449 12.8081H8.08721V14.9077C3.49928 15.3743 0 19.2623 0 24.0058V50.3669C0 52.0776 1.39972 53.3996 3.03272 53.3996H29.3938C29.9382 53.3996 30.4825 53.2441 30.9491 52.933C31.7267 53.2441 32.582 53.3996 33.4374 53.3996C35.2259 53.3996 37.0922 52.6997 38.4142 51.3C39.8139 49.9003 40.5137 48.1118 40.5137 46.2455C40.5137 44.457 39.8916 42.5907 38.4919 41.2688ZM6.06541 10.7864V3.71006C6.06541 3.16574 6.53197 2.69915 7.0763 2.69915H25.3502C25.8946 2.69915 26.3611 3.16574 26.3611 3.71006V10.7864H6.06541ZM2.0218 26.9607H22.3175V45.2346H2.0218V26.9607ZM3.03272 51.3C2.48838 51.3 2.0218 50.8335 2.0218 50.2891V47.2564H23.3284C23.5617 47.2564 23.8728 47.1787 24.0283 46.9454C24.1838 46.7899 24.3393 46.4788 24.3393 46.2455V25.9498C24.3393 25.7165 24.2616 25.4055 24.0283 25.25C23.8728 25.0944 23.5617 24.9389 23.3284 24.9389H2.0218V23.928C2.0218 20.04 5.21003 16.8517 9.0981 16.8517C9.33138 16.8517 9.64242 16.774 9.79795 16.5407C9.95347 16.3852 10.109 16.0741 10.109 15.8408V12.8081H22.3175V15.8408C22.3175 16.0741 22.3953 16.3852 22.6286 16.5407C22.7841 16.6962 23.0951 16.8517 23.3284 16.8517C27.2165 16.8517 30.4047 20.04 30.4047 23.928V39.8691C29.7049 40.1802 29.005 40.6467 28.4607 41.2688C27.061 42.6685 26.3611 44.457 26.3611 46.3233C26.3611 48.1118 27.061 49.9781 28.4607 51.3778C28.4607 51.3778 28.4607 51.3778 28.5385 51.4555H3.03272V51.3ZM33.4374 51.3C32.1155 51.3 30.8713 50.8335 29.8604 49.8226C28.8495 48.8117 28.3829 47.5675 28.3829 46.2455C28.3829 45.2346 28.694 44.3015 29.2383 43.4461L36.2368 50.4447C35.3815 51.0667 34.4483 51.3 33.4374 51.3ZM37.7143 49.0449L30.7158 42.0464C31.5711 41.5021 32.5043 41.191 33.5152 41.191C34.8371 41.191 36.0813 41.6576 37.0922 42.6685C38.1031 43.6794 38.5697 44.9236 38.5697 46.2455C38.4919 47.2564 38.2586 48.1896 37.7143 49.0449Z" fill="#5B7F95"/>
</svg>
