<svg width="44" height="50" viewBox="0 0 44 50" fill="none" xmlns="http://www.w3.org/2000/svg">
<path d="M26.6623 44.987C26.7621 44.8569 26.9098 44.7713 27.073 44.7491C27.2362 44.7267 27.4016 44.7695 27.5331 44.868C27.5795 44.9035 27.6223 44.9433 27.661 44.987L31.1604 49.612C31.2368 49.7134 31.3325 49.7988 31.4422 49.8633C31.5519 49.9278 31.6734 49.9701 31.7997 49.9878C31.9259 50.0055 32.0544 49.9982 32.1778 49.9664C32.3012 49.9346 32.4171 49.8788 32.5187 49.8024C32.5903 49.7471 32.6548 49.6831 32.7104 49.612L36.3617 44.7649C36.415 44.6934 36.4834 44.6344 36.562 44.5919C36.6407 44.5495 36.7277 44.5246 36.8171 44.5189C36.899 44.5179 36.9803 44.5336 37.0559 44.565C37.1314 44.5963 37.1997 44.6428 37.2565 44.7014L42.3459 49.7151C42.4811 49.8508 42.654 49.9433 42.8425 49.9809C43.031 50.0186 43.2264 49.9996 43.404 49.9263C43.5815 49.8531 43.733 49.729 43.8391 49.5698C43.9453 49.4107 44.0012 49.2237 43.9998 49.0329V1.75971C43.9998 1.50512 43.8979 1.26097 43.7166 1.08095C43.5353 0.900937 43.2894 0.799805 43.033 0.799805H1.76655C1.51015 0.799805 1.26426 0.900937 1.08296 1.08095C0.901658 1.26097 0.799805 1.50512 0.799805 1.75971V49.0329C0.802158 49.222 0.860311 49.4064 0.967072 49.5631C1.07383 49.7199 1.22452 49.8421 1.40049 49.9147C1.57647 49.9873 1.77002 50.007 1.9572 49.9716C2.14437 49.9361 2.31698 49.8469 2.45366 49.7151L7.5111 44.6935C7.57406 44.6324 7.64934 44.5853 7.73196 44.5552C7.81459 44.5251 7.90269 44.5128 7.99048 44.5189C8.07972 44.5251 8.16658 44.5502 8.24516 44.5927C8.32374 44.6351 8.3922 44.6938 8.44589 44.7649L12.0972 49.612C12.2526 49.815 12.4825 49.9489 12.7368 49.9845C12.9912 50.0202 13.2494 49.9547 13.4554 49.8024C13.5271 49.7471 13.5915 49.6831 13.6471 49.612L17.1386 44.987C17.2385 44.8569 17.3861 44.7713 17.5493 44.7491C17.7125 44.7267 17.878 44.7695 18.0095 44.868C18.057 44.8994 18.0977 44.9398 18.1293 44.987L21.6288 49.612C21.7828 49.8145 22.0113 49.9482 22.2643 49.9839C22.5174 50.0195 22.7743 49.9543 22.979 49.8024C23.0532 49.7472 23.1203 49.6833 23.1788 49.612L26.6623 44.987ZM22.8991 46.8116C22.7992 46.9412 22.6523 47.027 22.4897 47.0507C22.327 47.0744 22.1615 47.0341 22.0283 46.9385C21.9818 46.9003 21.939 46.8578 21.9004 46.8116L18.377 42.1549C18.223 41.9524 17.9945 41.8187 17.7415 41.783C17.4884 41.7473 17.2315 41.8126 17.0268 41.9645C16.9508 42.0175 16.8834 42.0817 16.827 42.1549L13.3675 46.8116C13.3188 46.8758 13.2578 46.9297 13.188 46.9704C13.1183 47.0112 13.0411 47.0378 12.9609 47.0489C12.8808 47.0599 12.7992 47.0552 12.7209 47.0349C12.6426 47.0146 12.5691 46.9791 12.5046 46.9306C12.4564 46.8974 12.4133 46.8573 12.3768 46.8116L8.89331 42.1866C8.80946 42.076 8.70249 41.9847 8.57975 41.9189C8.45701 41.8532 8.3214 41.8146 8.18223 41.8058H8.10233C7.97964 41.8006 7.85712 41.8197 7.74191 41.8619C7.6267 41.9041 7.52108 41.9687 7.4312 42.0518L3.78793 45.6772C3.69997 45.7625 3.58856 45.8201 3.46771 45.8427C3.34687 45.8652 3.22199 45.8518 3.10881 45.8041C2.99332 45.7575 2.89482 45.6772 2.82633 45.5738C2.75785 45.4704 2.72262 45.3487 2.72531 45.225V3.33839C2.72738 3.17491 2.7937 3.01872 2.91013 2.90312C3.02655 2.78752 3.18386 2.72166 3.3485 2.71961H41.4431C41.607 2.72169 41.7635 2.78781 41.8786 2.90362C41.9938 3.01944 42.0583 3.17564 42.0583 3.33839V45.225C42.0601 45.3471 42.025 45.4669 41.9575 45.569C41.89 45.6711 41.7933 45.7508 41.6798 45.7977C41.5663 45.8447 41.4412 45.8568 41.3206 45.8325C41.2001 45.8082 41.0897 45.7485 41.0037 45.6613L37.3524 42.0518C37.1746 41.8746 36.9332 41.7747 36.6813 41.7741H36.6014C36.4633 41.783 36.3289 41.8216 36.2075 41.8874C36.086 41.9532 35.9805 42.0445 35.8983 42.1549L32.4148 46.8116C32.3666 46.8775 32.3057 46.9332 32.2355 46.9753C32.1654 47.0175 32.0874 47.0453 32.0063 47.0571C31.9251 47.069 31.8424 47.0646 31.763 47.0442C31.6836 47.0238 31.6091 46.9879 31.5439 46.9385C31.4961 46.9043 31.4554 46.8612 31.4241 46.8116L27.9646 42.1549C27.8896 42.0531 27.795 41.9672 27.6862 41.9021C27.5775 41.8369 27.4568 41.7939 27.3312 41.7754C27.2056 41.757 27.0775 41.7635 26.9545 41.7946C26.8314 41.8257 26.7158 41.8807 26.6143 41.9566C26.5406 42.0126 26.4759 42.0795 26.4226 42.1549L22.8991 46.8116Z" fill="#5B7F95"/>
<path d="M33.5094 34.2377C33.7658 34.2377 34.0117 34.1366 34.193 33.9565C34.3743 33.7765 34.4761 33.5324 34.4761 33.2778V32.9843C34.4765 32.8559 34.5166 32.7308 34.5909 32.6259C34.6652 32.5209 34.7701 32.4411 34.8916 32.3972C35.4274 32.215 35.9217 31.9292 36.3457 31.5563C36.7559 31.1954 37.0842 30.752 37.3087 30.2555C37.5332 29.759 37.6489 29.2208 37.648 28.6766C37.648 27.6691 37.1606 25.789 33.8609 24.5038C32.9022 24.131 31.3042 23.3218 31.3042 22.1239C31.299 21.8431 31.3547 21.5645 31.4678 21.3072C31.5809 21.0498 31.7486 20.8196 31.9594 20.6325C32.4681 20.2142 33.1233 20.0136 33.7809 20.0746C34.4385 20.1356 35.0449 20.4532 35.4668 20.9577C35.5845 21.1026 35.6863 21.2595 35.7705 21.4258C35.8401 21.6076 35.9637 21.7641 36.1249 21.8746C36.2861 21.9851 36.4774 22.0444 36.6733 22.0446C36.791 22.0473 36.908 22.0257 37.0168 21.9811C37.2563 21.8903 37.45 21.7095 37.5562 21.4779C37.6624 21.2463 37.6724 20.9824 37.5841 20.7435C37.3495 20.1688 36.988 19.6537 36.5261 19.2363C36.0642 18.8189 35.5138 18.5098 34.9156 18.3319C34.7883 18.2942 34.6768 18.2167 34.5976 18.1109C34.5184 18.0051 34.4758 17.8767 34.4761 17.7448V17.5227C34.4761 17.2681 34.3743 17.024 34.193 16.844C34.0117 16.6639 33.7658 16.5628 33.5094 16.5628C33.253 16.5628 33.0071 16.6639 32.8258 16.844C32.6445 17.024 32.5426 17.2681 32.5426 17.5227V17.8162C32.5422 17.9445 32.5022 18.0696 32.4279 18.1746C32.3536 18.2796 32.2486 18.3594 32.1272 18.4033C31.5913 18.5855 31.0971 18.8713 30.6731 19.2442C30.2628 19.6051 29.9346 20.0485 29.7101 20.545C29.4856 21.0415 29.3699 21.5797 29.3708 22.1239C29.3708 23.1314 29.8581 25.0036 33.1499 26.2967C34.1086 26.6695 35.7145 27.4787 35.7145 28.6766C35.7165 28.9553 35.6584 29.2312 35.544 29.4857C35.4296 29.7402 35.2616 29.9675 35.0514 30.1522C34.6068 30.5298 34.0385 30.733 33.4535 30.7233C32.99 30.7335 32.5335 30.6101 32.1393 30.3679C31.7451 30.1257 31.43 29.7752 31.2323 29.3588C31.1692 29.1778 31.052 29.0201 30.8965 28.9068C30.7409 28.7934 30.5543 28.7297 30.3615 28.7242C30.2438 28.7221 30.1269 28.7437 30.0179 28.7877C29.7786 28.8783 29.5853 29.0595 29.4804 29.2916C29.3756 29.5236 29.3677 29.7875 29.4586 30.0252C29.6921 30.6055 30.0538 31.1263 30.517 31.5492C30.9803 31.9721 31.5333 32.2863 32.1352 32.4686C32.2624 32.5063 32.374 32.5838 32.4532 32.6896C32.5324 32.7954 32.575 32.9238 32.5746 33.0557V33.2778C32.5745 33.527 32.6719 33.7664 32.8464 33.9456C33.0208 34.1247 33.2586 34.2294 33.5094 34.2377Z" fill="#5B7F95"/>
<path d="M11.2902 18.1336H8.09434C7.83795 18.1336 7.59205 18.2347 7.41075 18.4147C7.22945 18.5947 7.1276 18.8389 7.1276 19.0935C7.1276 19.348 7.22945 19.5922 7.41075 19.7722C7.59205 19.9522 7.83795 20.0534 8.09434 20.0534H11.2902C11.5466 20.0534 11.7925 19.9522 11.9738 19.7722C12.1551 19.5922 12.2569 19.348 12.2569 19.0935C12.2569 18.8389 12.1551 18.5947 11.9738 18.4147C11.7925 18.2347 11.5466 18.1336 11.2902 18.1336Z" fill="#5B7F95"/>
<path d="M17.642 20.0534H23.9698C24.2262 20.0534 24.472 19.9522 24.6533 19.7722C24.8346 19.5922 24.9365 19.348 24.9365 19.0935C24.9365 18.8389 24.8346 18.5947 24.6533 18.4147C24.472 18.2347 24.2262 18.1336 23.9698 18.1336H17.642C17.3856 18.1336 17.1397 18.2347 16.9584 18.4147C16.7771 18.5947 16.6752 18.8389 16.6752 19.0935C16.6752 19.348 16.7771 19.5922 16.9584 19.7722C17.1397 19.9522 17.3856 20.0534 17.642 20.0534Z" fill="#5B7F95"/>
<path d="M11.2902 24.4403H8.09434C7.83795 24.4403 7.59205 24.5415 7.41075 24.7215C7.22945 24.9015 7.1276 25.1457 7.1276 25.4002C7.1276 25.6548 7.22945 25.899 7.41075 26.079C7.59205 26.259 7.83795 26.3601 8.09434 26.3601H11.2902C11.5466 26.3601 11.7925 26.259 11.9738 26.079C12.1551 25.899 12.2569 25.6548 12.2569 25.4002C12.2569 25.1457 12.1551 24.9015 11.9738 24.7215C11.7925 24.5415 11.5466 24.4403 11.2902 24.4403Z" fill="#5B7F95"/>
<path d="M17.642 26.3601H23.9698C24.2262 26.3601 24.472 26.259 24.6533 26.079C24.8346 25.899 24.9365 25.6548 24.9365 25.4002C24.9365 25.1457 24.8346 24.9015 24.6533 24.7215C24.472 24.5415 24.2262 24.4403 23.9698 24.4403H17.642C17.3856 24.4403 17.1397 24.5415 16.9584 24.7215C16.7771 24.9015 16.6752 25.1457 16.6752 25.4002C16.6752 25.6548 16.7771 25.899 16.9584 26.079C17.1397 26.259 17.3856 26.3601 17.642 26.3601Z" fill="#5B7F95"/>
<path d="M11.2902 30.7392H8.09434C7.96739 30.7392 7.84168 30.764 7.72439 30.8123C7.6071 30.8605 7.50052 30.9312 7.41075 31.0203C7.32098 31.1095 7.24977 31.2153 7.20119 31.3318C7.1526 31.4482 7.1276 31.573 7.1276 31.6991C7.1276 31.8252 7.1526 31.95 7.20119 32.0664C7.24977 32.1829 7.32098 32.2887 7.41075 32.3779C7.50052 32.467 7.6071 32.5377 7.72439 32.5859C7.84168 32.6342 7.96739 32.659 8.09434 32.659H11.2902C11.5466 32.659 11.7925 32.5579 11.9738 32.3779C12.1551 32.1978 12.2569 31.9537 12.2569 31.6991C12.2569 31.4445 12.1551 31.2004 11.9738 31.0203C11.7925 30.8403 11.5466 30.7392 11.2902 30.7392Z" fill="#5B7F95"/>
<path d="M17.642 32.6669H23.9698C24.2262 32.6669 24.472 32.5658 24.6533 32.3858C24.8346 32.2058 24.9365 31.9616 24.9365 31.707C24.9365 31.4525 24.8346 31.2083 24.6533 31.0283C24.472 30.8483 24.2262 30.7471 23.9698 30.7471H17.642C17.3856 30.7471 17.1397 30.8483 16.9584 31.0283C16.7771 31.2083 16.6752 31.4525 16.6752 31.707C16.6752 31.9616 16.7771 32.2058 16.9584 32.3858C17.1397 32.5658 17.3856 32.6669 17.642 32.6669Z" fill="#5B7F95"/>
<path d="M36.6813 10.256H8.11032C7.85393 10.256 7.60803 10.3572 7.42673 10.5372C7.24543 10.7172 7.14358 10.9613 7.14358 11.2159C7.14358 11.4705 7.24543 11.7147 7.42673 11.8947C7.60803 12.0747 7.85393 12.1758 8.11032 12.1758H36.6813C36.9377 12.1758 37.1836 12.0747 37.3649 11.8947C37.5462 11.7147 37.648 11.4705 37.648 11.2159C37.648 10.9613 37.5462 10.7172 37.3649 10.5372C37.1836 10.3572 36.9377 10.256 36.6813 10.256Z" fill="#5B7F95"/>
</svg>
