<svg width="18" height="18" viewBox="0 0 18 18" fill="none" xmlns="http://www.w3.org/2000/svg">
<path d="M16.7833 4.50464C17.5913 5.87925 18 7.3839 18 9C18 10.6161 17.5913 12.1207 16.7833 13.4954C15.9752 14.87 14.8793 15.9659 13.4954 16.7833C12.1207 17.5913 10.6161 18 9 18C7.37461 18 5.87926 17.5913 4.50465 16.7833C3.13004 15.9752 2.03405 14.8793 1.21672 13.4954C0.408666 12.1207 0 10.6161 0 9C0 7.3839 0.408666 5.87925 1.21672 4.50464C2.02477 3.13003 3.12075 2.03406 4.50465 1.21672C5.87926 0.408673 7.3839 0 9 0C10.6161 0 12.1207 0.408673 13.4954 1.21672C14.8793 2.02477 15.9752 3.12074 16.7833 4.50464ZM15.2786 12.6316C15.9288 11.517 16.2539 10.3096 16.2539 9C16.2539 7.6904 15.9288 6.48297 15.2786 5.36842C14.6285 4.25387 13.7461 3.37152 12.6316 2.72136C11.517 2.07121 10.3096 1.74613 9 1.74613C7.6904 1.74613 6.48297 2.07121 5.36842 2.72136C4.25387 3.37152 3.37151 4.25387 2.72135 5.36842C2.0712 6.48297 1.74613 7.6904 1.74613 9C1.74613 10.3096 2.0712 11.517 2.72135 12.6316C3.37151 13.7461 4.25387 14.6285 5.36842 15.2786C6.48297 15.9288 7.6904 16.2539 9 16.2539C10.3096 16.2539 11.517 15.9288 12.6316 15.2786C13.7461 14.6192 14.6285 13.7368 15.2786 12.6316ZM11.0341 12.3344C11.0341 12.2136 10.9876 12.1115 10.904 12.0279C10.8204 11.9443 10.7183 11.8978 10.5975 11.8978H10.161V8.27554C10.161 8.1548 10.1146 8.05263 10.031 7.96904C9.94737 7.88545 9.8452 7.83901 9.72446 7.83901H7.40248C7.28173 7.83901 7.17956 7.88545 7.09597 7.96904C7.01238 8.05263 6.96594 8.1548 6.96594 8.27554V9.1486C6.96594 9.26935 7.01238 9.37152 7.09597 9.45511C7.17956 9.5387 7.28173 9.58514 7.40248 9.58514H7.83901V11.9071H7.40248C7.28173 11.9071 7.17956 11.9536 7.09597 12.0371C7.01238 12.1207 6.96594 12.2229 6.96594 12.3437V13.2167C6.96594 13.3375 7.01238 13.4396 7.09597 13.5232C7.17956 13.6068 7.28173 13.6533 7.40248 13.6533H10.5975C10.7183 13.6533 10.8204 13.6068 10.904 13.5232C10.9876 13.4396 11.0341 13.3375 11.0341 13.2167V12.3344ZM7.47678 5.51703C7.47678 5.9257 7.62538 6.28793 7.93188 6.58514C8.23838 6.89164 8.59133 7.04025 9 7.04025C9.40867 7.04025 9.77089 6.89164 10.0681 6.58514C10.3746 6.27864 10.5232 5.9257 10.5232 5.51703C10.5232 5.10836 10.3746 4.74613 10.0681 4.44892C9.7616 4.14241 9.40867 3.99381 9 3.99381C8.59133 3.99381 8.22909 4.14241 7.93188 4.44892C7.62538 4.74613 7.47678 5.10836 7.47678 5.51703Z" fill="#0077C8"/>
</svg>
